<svg xmlns="http://www.w3.org/2000/svg" width="182" height="122.75" viewBox="0 0 182 122.75">
  <g id="Group_1580" data-name="Group 1580" transform="translate(-105.4 -555.993)">
    <path id="Path_1989" data-name="Path 1989" d="M444.855,260.823,422.89,222.6c-11.59-20.174,2.9-45.388,26.078-45.388s37.666,25.215,26.076,45.388l-21.965,38.227a4.736,4.736,0,0,1-8.224,0" transform="translate(-252.567 378.785)" fill="#ff6302"/>
    <ellipse id="Ellipse_19" data-name="Ellipse 19" cx="23" cy="6.5" rx="23" ry="6.5" transform="translate(173.4 638.743)" fill="rgba(255,99,2,0.16)"/>
    <ellipse id="Ellipse_20" data-name="Ellipse 20" cx="51" cy="15" rx="51" ry="15" transform="translate(145.4 630.743)" fill="rgba(255,99,2,0.16)"/>
    <ellipse id="Ellipse_21" data-name="Ellipse 21" cx="91" cy="26.5" rx="91" ry="26.5" transform="translate(105.4 625.743)" fill="rgba(255,99,2,0.16)"/>
    <g id="Path_2031" data-name="Path 2031" transform="translate(178.132 567.5)" fill="#fff">
      <path d="M 18.26793098449707 35.03586196899414 C 13.7890510559082 35.03586196899414 9.578261375427246 33.29169082641602 6.411211013793945 30.1246509552002 C 3.244170904159546 26.95760154724121 1.500000953674316 22.74681091308594 1.500000953674316 18.26793098449707 C 1.500000953674316 13.7890510559082 3.244170904159546 9.578261375427246 6.411211013793945 6.411211013793945 C 9.578261375427246 3.244170904159546 13.7890510559082 1.500000953674316 18.26793098449707 1.500000953674316 C 22.74681091308594 1.500000953674316 26.95760154724121 3.244170904159546 30.1246509552002 6.411211013793945 C 33.29169082641602 9.578261375427246 35.03586196899414 13.7890510559082 35.03586196899414 18.26793098449707 C 35.03586196899414 22.74681091308594 33.29169082641602 26.95760154724121 30.1246509552002 30.1246509552002 C 26.95760154724121 33.29169082641602 22.74681091308594 35.03586196899414 18.26793098449707 35.03586196899414 Z" stroke="none"/>
      <path d="M 18.26793098449707 3 C 14.18972015380859 3 10.35560035705566 4.588140487670898 7.471870422363281 7.471870422363281 C 4.588140487670898 10.35560035705566 3 14.18972015380859 3 18.26793098449707 C 3 22.34614181518555 4.588140487670898 26.18025970458984 7.471870422363281 29.06399154663086 C 10.35560035705566 31.94772148132324 14.18972015380859 33.53586196899414 18.26793098449707 33.53586196899414 C 22.34614181518555 33.53586196899414 26.18025970458984 31.94772148132324 29.06399154663086 29.06399154663086 C 31.94772148132324 26.18025970458984 33.53586196899414 22.34614181518555 33.53586196899414 18.26793098449707 C 33.53586196899414 14.18972015380859 31.94772148132324 10.35560035705566 29.06399154663086 7.471870422363281 C 26.18025970458984 4.588140487670898 22.34614181518555 3 18.26793098449707 3 M 18.26793098449707 0 C 28.35703086853027 0 36.53586196899414 8.178831100463867 36.53586196899414 18.26793098449707 C 36.53586196899414 28.35703086853027 28.35703086853027 36.53586196899414 18.26793098449707 36.53586196899414 C 8.178831100463867 36.53586196899414 0 28.35703086853027 0 18.26793098449707 C 0 8.178831100463867 8.178831100463867 0 18.26793098449707 0 Z" stroke="none" fill="#ecbe2f"/>
    </g>
  </g>
</svg>
