<svg id="security-time" xmlns="http://www.w3.org/2000/svg" width="22" height="22" viewBox="0 0 22 22">
  <path id="Vector" d="M0,0H22V22H0Z" fill="none" opacity="0"/>
  <path id="Vector-2" data-name="Vector" d="M3.25,0A3.25,3.25,0,1,0,6.5,3.25,3.256,3.256,0,0,0,3.25,0Zm1,2.93a1.763,1.763,0,0,1-.85,1.5l-.77.46A.765.765,0,0,1,2.24,5a.747.747,0,0,1-.38-1.39l.76-.46a.247.247,0,0,0,.12-.21V2.01A.755.755,0,0,1,4.25,2Z" transform="translate(7.75 7.307)" fill="#ff6302"/>
  <path id="Vector-3" data-name="Vector" d="M13.215,2,8.366.142a3.006,3.006,0,0,0-1.825,0L1.693,2A2.866,2.866,0,0,0,0,4.491v7.294a3.013,3.013,0,0,0,1.04,2.125l4.849,3.7a2.7,2.7,0,0,0,3.112,0l4.849-3.7a3.03,3.03,0,0,0,1.04-2.125V4.491A2.849,2.849,0,0,0,13.215,2ZM7.449,12.875a4.278,4.278,0,0,1,0-8.555,4.278,4.278,0,0,1,0,8.555Z" transform="translate(3.55 1.952)" fill="#ff6302"/>
</svg>
