<svg width="20" height="15" viewBox="0 0 20 15" fill="none" xmlns="http://www.w3.org/2000/svg">
<path d="M19.9998 7.30802C20.0024 7.43113 19.9789 7.5536 19.9307 7.6682C19.8827 7.78295 19.8111 7.88758 19.7197 7.97614C19.6285 8.06486 19.5195 8.1359 19.3989 8.18492C19.2784 8.2341 19.1488 8.26046 19.0173 8.26255L3.43114 8.51086L8.81471 13.3881C8.90917 13.4736 8.98477 13.5759 9.03706 13.6887C9.08934 13.8017 9.11746 13.9232 9.11968 14.0463C9.12191 14.1696 9.09826 14.2919 9.05008 14.4065C9.00191 14.5209 8.93008 14.6254 8.83888 14.7139C8.74751 14.8025 8.63848 14.8734 8.51814 14.9224C8.39762 14.9714 8.26785 14.9978 8.13654 14.9999C8.00522 15.002 7.87493 14.9798 7.75271 14.9346C7.63048 14.8894 7.51905 14.8221 7.42459 14.7366L0.305975 8.28585C0.211345 8.20035 0.135573 8.09829 0.0829441 7.9853C0.0304867 7.87231 0.00237258 7.75081 0.000143995 7.62753C-0.00208459 7.50426 0.0215726 7.38179 0.0699158 7.26719C0.11843 7.15276 0.190431 7.04829 0.281974 6.95989L7.16247 0.28606C7.25385 0.197502 7.36287 0.126624 7.48322 0.0776041C7.60373 0.0285838 7.73333 0.0022244 7.86465 0.000135007C7.99596 -0.00195438 8.12642 0.0202265 8.24865 0.0653895C8.37088 0.110552 8.48231 0.177894 8.57677 0.263559C8.67122 0.349064 8.74683 0.451123 8.79911 0.564111C8.8514 0.677098 8.87951 0.798604 8.88174 0.921717C8.88397 1.04483 8.86031 1.1673 8.81214 1.2819C8.76397 1.39633 8.69214 1.5008 8.60094 1.58936L3.39702 6.63684L18.9834 6.38853C19.2483 6.38419 19.504 6.47869 19.6945 6.65114C19.8851 6.82344 19.9948 7.0597 19.9998 7.30802Z" fill="white"/>
</svg>
