<svg width="142" height="249" viewBox="0 0 142 249" fill="none" xmlns="http://www.w3.org/2000/svg">
<g filter="url(#filter0_d_630_5750)">
<path d="M6.09216 210.843L50.743 238.036L84.901 189.511L106.137 123.89L123.595 44.9895" stroke="#FF6302" stroke-width="4" stroke-linecap="round" stroke-linejoin="round" stroke-dasharray="8 8" shape-rendering="crispEdges"/>
</g>
<g filter="url(#filter1_d_630_5750)">
<path d="M125.413 39.1543L135.331 21.1725C136.54 19.0145 137.157 16.5761 137.122 14.1032C137.087 11.6303 136.4 9.21037 135.131 7.08772C133.862 4.96508 132.055 3.21477 129.893 2.01343C127.731 0.812092 125.291 0.202234 122.818 0.245397C120.345 0.28856 117.928 0.983215 115.809 2.25927C113.691 3.53532 111.946 5.34761 110.752 7.51326C109.557 9.67891 108.956 12.1213 109.007 14.5939C109.058 17.0666 109.76 19.482 111.043 21.5964L121.582 39.2212C121.781 39.5555 122.065 39.8313 122.404 40.0206C122.744 40.21 123.128 40.3061 123.517 40.2993C123.906 40.2926 124.286 40.1831 124.619 39.982C124.952 39.7809 125.226 39.4953 125.413 39.1543Z" fill="#FF6302"/>
<path d="M123.502 9.21609C120.109 9.27532 117.406 12.0741 117.465 15.4674C117.524 18.8607 120.323 21.5634 123.716 21.5042C127.11 21.445 129.812 18.6462 129.753 15.2529C129.694 11.8596 126.895 9.15686 123.502 9.21609Z" fill="#FBF9F7"/>
</g>
<defs>
<filter id="filter0_d_630_5750" x="0.0918579" y="42.989" width="129.504" height="205.048" filterUnits="userSpaceOnUse" color-interpolation-filters="sRGB">
<feFlood flood-opacity="0" result="BackgroundImageFix"/>
<feColorMatrix in="SourceAlpha" type="matrix" values="0 0 0 0 0 0 0 0 0 0 0 0 0 0 0 0 0 0 127 0" result="hardAlpha"/>
<feOffset dy="4"/>
<feGaussianBlur stdDeviation="2"/>
<feComposite in2="hardAlpha" operator="out"/>
<feColorMatrix type="matrix" values="0 0 0 0 0 0 0 0 0 0 0 0 0 0 0 0 0 0 0.25 0"/>
<feBlend mode="normal" in2="BackgroundImageFix" result="effect1_dropShadow_630_5750"/>
<feBlend mode="normal" in="SourceGraphic" in2="effect1_dropShadow_630_5750" result="shape"/>
</filter>
<filter id="filter1_d_630_5750" x="105.004" y="0.243164" width="36.12" height="48.0564" filterUnits="userSpaceOnUse" color-interpolation-filters="sRGB">
<feFlood flood-opacity="0" result="BackgroundImageFix"/>
<feColorMatrix in="SourceAlpha" type="matrix" values="0 0 0 0 0 0 0 0 0 0 0 0 0 0 0 0 0 0 127 0" result="hardAlpha"/>
<feOffset dy="4"/>
<feGaussianBlur stdDeviation="2"/>
<feComposite in2="hardAlpha" operator="out"/>
<feColorMatrix type="matrix" values="0 0 0 0 0 0 0 0 0 0 0 0 0 0 0 0 0 0 0.25 0"/>
<feBlend mode="normal" in2="BackgroundImageFix" result="effect1_dropShadow_630_5750"/>
<feBlend mode="normal" in="SourceGraphic" in2="effect1_dropShadow_630_5750" result="shape"/>
</filter>
</defs>
</svg>
