<svg xmlns="http://www.w3.org/2000/svg" width="22" height="22" viewBox="0 0 22 22">
  <g id="vuesax_bold_dollar-circle" data-name="vuesax/bold/dollar-circle" transform="translate(-236 -572)">
    <g id="dollar-circle" transform="translate(236 572)">
      <path id="Vector" d="M0,2.622H.6A1.147,1.147,0,0,0,1.693,1.444c0-.8-.285-.957-.754-1.122L.009,0V2.622Z" transform="translate(11.684 11.975)"/>
      <path id="Vector-2" data-name="Vector" d="M9.133,0a9.16,9.16,0,1,0,9.188,9.133A9.164,9.164,0,0,0,9.133,0Z" transform="translate(1.84 1.748)"/>
      <path id="Vector-3" data-name="Vector" d="M0,1.187c0,.8.285.957.754,1.122l.929.322V0h-.6A1.142,1.142,0,0,0,0,1.187Z" transform="translate(8.632 7.403)"/>
      <path id="Vector-4" data-name="Vector" d="M0,0H22V22H0Z" fill="none" opacity="0"/>
      <g id="Naira" transform="translate(5 6.039)">
        <path id="Path_14552" data-name="Path 14552" d="M11.541,50.539H9.9V48.966h1.636a.445.445,0,1,0,0-.89H9.9V45.894a1.053,1.053,0,0,0-.187-.695A.6.6,0,0,0,9.23,45a.574.574,0,0,0-.47.2,1.065,1.065,0,0,0-.185.7v2.182H5.5L4.189,46.1c-.112-.177-.217-.342-.32-.5a2.229,2.229,0,0,0-.267-.347.854.854,0,0,0-.261-.182A.864.864,0,0,0,2.986,45a.9.9,0,0,0-.5.152.833.833,0,0,0-.329.381,1.951,1.951,0,0,0-.088.667v1.875H.445a.445.445,0,0,0,0,.89h1.62v1.573H.445a.445.445,0,0,0,0,.89h1.62V53.92a1.03,1.03,0,0,0,.194.688.6.6,0,0,0,.488.205.612.612,0,0,0,.485-.206,1.006,1.006,0,0,0,.2-.687V51.429H6.213L7.72,53.74c.1.153.213.307.321.458a2.168,2.168,0,0,0,.316.355.983.983,0,0,0,.322.2,1.188,1.188,0,0,0,.4.063c.408,0,.825-.125.825-1.05V51.429h1.636a.445.445,0,0,0,0-.89ZM8.576,48.966v1.573H7.126L6.086,48.966ZM3.428,47.159l.6.917h-.6Zm0,3.379V48.966H4.607l1.026,1.573Zm5.147,2.195-.862-1.3h.862v1.3Z" transform="translate(0 -45.001)" fill="#fff"/>
      </g>
    </g>
  </g>
</svg>
