<svg xmlns="http://www.w3.org/2000/svg" width="22" height="22" viewBox="0 0 22 22">
  <g id="vuesax_bold_location" data-name="vuesax/bold/location" transform="translate(-428 -188)">
    <path id="Vector" d="M16.042,6.142A7.907,7.907,0,0,0,8.14,0H8.131a7.905,7.905,0,0,0-7.9,6.132c-1.072,4.73,1.824,8.736,4.446,11.257a4.97,4.97,0,0,0,6.921,0C14.217,14.868,17.114,10.872,16.042,6.142Zm-7.9,4.593a2.888,2.888,0,1,1,2.888-2.887A2.887,2.887,0,0,1,8.14,10.734Z" transform="translate(430.86 189.604)" fill="#0a0a0a"/>
    <path id="Vector-2" data-name="Vector" d="M0,0H22V22H0Z" transform="translate(428 188)" fill="none" opacity="0"/>
    <path id="Vector-3" data-name="Vector" d="M0,0H22V22H0Z" transform="translate(450 210) rotate(180)" fill="none" opacity="0"/>
  </g>
</svg>
