<svg xmlns="http://www.w3.org/2000/svg" width="56" height="56" viewBox="0 0 56 56">
  <g id="Group_24483" data-name="Group 24483" transform="translate(-322 -779)">
    <circle id="Ellipse_612" data-name="Ellipse 612" cx="28" cy="28" r="28" transform="translate(322 779)" fill="#ff6302"/>
    <g id="volume-up-Filled" transform="translate(336 793)">
      <rect id="Path" width="28" height="28" fill="rgba(255,255,255,0)"/>
      <path id="volume-up-Filled_1_" d="M794.333,2776.013v12.809a3.494,3.494,0,0,1-5.776,2.664l-3.026-2.6a.583.583,0,0,0-.378-.141h-.861a2.8,2.8,0,0,1-2.792-2.8v-7.06a2.8,2.8,0,0,1,2.791-2.8h.862a.588.588,0,0,0,.377-.14l3.029-2.6a3.5,3.5,0,0,1,5.775,2.666Zm3.846,2.2a1.167,1.167,0,0,0-1.859,1.411,4.667,4.667,0,0,1,0,5.591,1.167,1.167,0,1,0,1.86,1.409,7,7,0,0,0,0-8.41Zm3.087-3.576a1.166,1.166,0,1,0-1.734,1.561,9.306,9.306,0,0,1,0,12.439,1.167,1.167,0,1,0,1.734,1.561,11.639,11.639,0,0,0,0-15.562Z" transform="translate(-778.583 -2768.417)" fill="#fff"/>
    </g>
  </g>
</svg>
