<svg xmlns="http://www.w3.org/2000/svg" width="56" height="56" viewBox="0 0 56 56">
  <g id="Group_24507" data-name="Group 24507" transform="translate(-176 -673)">
    <g id="Group_24483" data-name="Group 24483" transform="translate(176 673)">
      <circle id="Ellipse_612" data-name="Ellipse 612" cx="28" cy="28" r="28" fill="#ff6302"/>
    </g>
    <g id="video-slash-Filled" transform="translate(190 687)">
      <rect id="Path" width="28" height="28" fill="rgba(255,255,255,0)"/>
      <path id="video-slash-Filled_1_" d="M590.209,2859.842a5.184,5.184,0,0,1-.959-3.009v-4.667a5.257,5.257,0,0,1,5.25-5.25h5.833a4.991,4.991,0,0,1,2.177.49.576.576,0,0,1,.322.427.584.584,0,0,1-.162.511L591.1,2859.918a.585.585,0,0,1-.413.17l-.049,0A.586.586,0,0,1,590.209,2859.842Zm20.672-10.184a1.827,1.827,0,0,0-1.876.091l-1.33.887a.441.441,0,0,0-.195.364v7a.437.437,0,0,0,.195.364l1.329.885a1.817,1.817,0,0,0,1.015.309,1.84,1.84,0,0,0,1.836-1.84v-6.44A1.836,1.836,0,0,0,610.881,2849.658Zm-.39-3.667a1.166,1.166,0,0,0-1.65-1.65l-18.667,18.667a1.167,1.167,0,1,0,1.65,1.65l2.585-2.585c.031,0,.058.01.09.01h5.833a5.256,5.256,0,0,0,5.25-5.25v-4.667a5.191,5.191,0,0,0-.127-1.14Z" transform="translate(-586.625 -2840.5)" fill="#fff"/>
    </g>
  </g>
</svg>
