<svg xmlns="http://www.w3.org/2000/svg" width="36" height="36" viewBox="0 0 36 36">
  <g id="Group_23826" data-name="Group 23826" transform="translate(-334 -114)">
    <g id="Ellipse_563" data-name="Ellipse 563" transform="translate(334 114)" fill="#ff6302" stroke="#ff6302" stroke-width="1">
      <circle cx="18" cy="18" r="18" stroke="none"/>
      <circle cx="18" cy="18" r="17.5" fill="none"/>
    </g>
    <g id="vuesax_bold_call" data-name="vuesax/bold/call" transform="translate(234 -66)">
      <g id="call" transform="translate(108 188)">
        <path id="Vector" d="M7.451,10.663,5.928,12.186a.827.827,0,0,1-1.161.008c-.091-.091-.181-.173-.272-.263A23.4,23.4,0,0,1,2.2,9.238,14.679,14.679,0,0,1,.585,6.43,7.069,7.069,0,0,1,0,3.738,4.259,4.259,0,0,1,.3,2.149,3.79,3.79,0,0,1,1.243.774,2.412,2.412,0,0,1,2.956,0a1.547,1.547,0,0,1,.667.148,1.342,1.342,0,0,1,.552.461L6.085,3.3a2.818,2.818,0,0,1,.329.576,1.3,1.3,0,0,1,.115.5,1.118,1.118,0,0,1-.173.585,2.8,2.8,0,0,1-.461.585L5.27,6.2a.441.441,0,0,0-.132.329.748.748,0,0,0,.025.189c.025.066.049.115.066.165a6.832,6.832,0,0,0,.766,1.054c.371.428.766.865,1.194,1.3.082.082.173.165.255.247A.825.825,0,0,1,7.451,10.663Z" transform="translate(1.647 1.647)" fill="#fff"/>
        <path id="Vector-2" data-name="Vector" d="M10.185,3.532a2.091,2.091,0,0,1-.124.7,2.011,2.011,0,0,1-.082.2,3.4,3.4,0,0,1-.56.84,3.712,3.712,0,0,1-1.35.972c-.008,0-.016.008-.025.008a4.159,4.159,0,0,1-1.581.3,6.862,6.862,0,0,1-2.684-.6A14.462,14.462,0,0,1,.947,4.323C.626,4.084.3,3.845,0,3.59L2.692.9a4.626,4.626,0,0,0,.609.4c.041.016.091.041.148.066a.568.568,0,0,0,.206.033.453.453,0,0,0,.338-.14L4.619.634A2.526,2.526,0,0,1,5.212.173,1.1,1.1,0,0,1,5.8,0a1.314,1.314,0,0,1,.5.107,3.184,3.184,0,0,1,.576.321L9.6,2.363a1.249,1.249,0,0,1,.453.527A1.689,1.689,0,0,1,10.185,3.532Z" transform="translate(7.904 11.56)" fill="#fff"/>
        <path id="Vector-3" data-name="Vector" d="M0,0H19.761V19.761H0Z" transform="translate(19.761 19.761) rotate(180)" fill="none" opacity="0"/>
      </g>
    </g>
  </g>
</svg>
