<svg width="40" height="40" viewBox="0 0 40 40" fill="none" xmlns="http://www.w3.org/2000/svg">
<path d="M10.7568 1H29.2432C34.6317 1 39 5.36824 39 10.7568V29.2432C39 34.6317 34.6317 39 29.2432 39H10.7568C5.36824 39 1 34.6317 1 29.2432V10.7568C1 5.36824 5.36824 1 10.7568 1Z" fill="white" stroke="#E0E0E0"/>
<path d="M30.568 30.426H10.194C9.61317 30.4226 9.0571 30.1903 8.64638 29.7796C8.23566 29.3689 8.00341 28.8128 8 28.232V15.12C8.00341 14.5392 8.23566 13.983 8.64638 13.5723C9.0571 13.1616 9.61317 12.9294 10.194 12.926H14.582C14.7478 12.891 14.8958 12.7986 15 12.665L15.784 11.045C15.9618 10.7412 16.2126 10.4865 16.5136 10.3041C16.8146 10.1216 17.1564 10.0171 17.508 10H23.308C23.6596 10.0171 24.0013 10.1216 24.3024 10.3041C24.6034 10.4865 24.8542 10.7412 25.032 11.045L25.816 12.665C25.8626 12.7361 25.9242 12.7963 25.9963 12.8414C26.0685 12.8864 26.1496 12.9153 26.234 12.926H30.622C31.2028 12.9294 31.7589 13.1616 32.1696 13.5723C32.5803 13.983 32.8126 14.5392 32.816 15.12V28.232C32.7919 28.8151 32.5459 29.3669 32.1284 29.7747C31.711 30.1826 31.1535 30.4155 30.57 30.426H30.568ZM10.194 14.44C10.0974 14.4377 10.0013 14.4549 9.91153 14.4908C9.82179 14.5268 9.74027 14.5805 9.67192 14.6489C9.60357 14.7172 9.54981 14.7987 9.5139 14.8885C9.47799 14.9782 9.46067 15.0743 9.463 15.171V28.283C9.46067 28.3796 9.47799 28.4757 9.5139 28.5655C9.54981 28.6552 9.60357 28.7367 9.67192 28.8051C9.74027 28.8734 9.82179 28.9272 9.91153 28.9631C10.0013 28.999 10.0974 29.0163 10.194 29.014H30.568C30.6646 29.0163 30.7607 28.999 30.8505 28.9631C30.9402 28.9272 31.0217 28.8734 31.0901 28.8051C31.1584 28.7367 31.2122 28.6552 31.2481 28.5655C31.284 28.4757 31.3013 28.3796 31.299 28.283V15.171C31.3013 15.0743 31.284 14.9782 31.2481 14.8885C31.2122 14.7987 31.1584 14.7172 31.0901 14.6489C31.0217 14.5805 30.9402 14.5268 30.8505 14.4908C30.7607 14.4549 30.6646 14.4377 30.568 14.44H26.18C25.8284 14.4229 25.4866 14.3183 25.1856 14.1359C24.8846 13.9534 24.6338 13.6987 24.456 13.395L23.672 11.776C23.6254 11.7048 23.5638 11.6446 23.4917 11.5995C23.4195 11.5545 23.3384 11.5256 23.254 11.515H17.454C17.2882 11.5499 17.1402 11.6424 17.036 11.776L16.252 13.395C16.0742 13.6987 15.8234 13.9534 15.5224 14.1359C15.2213 14.3183 14.8796 14.4229 14.528 14.44H10.194Z" fill="#0A0A0A"/>
<path d="M20.381 27.4999C18.6494 27.4991 16.9889 26.8109 15.7645 25.5865C14.54 24.362 13.8518 22.7016 13.851 20.9699C13.8515 19.2382 14.5397 17.5776 15.7642 16.3531C16.9887 15.1286 18.6493 14.4405 20.381 14.4399C22.1127 14.4405 23.7733 15.1286 24.9978 16.3531C26.2223 17.5776 26.9105 19.2382 26.911 20.9699C26.9102 22.7016 26.222 24.362 24.9975 25.5865C23.7731 26.8109 22.1126 27.4991 20.381 27.4999ZM20.381 15.8499C19.0238 15.8521 17.7227 16.3922 16.763 17.3519C15.8032 18.3116 15.2631 19.6127 15.261 20.9699C15.2631 22.3272 15.8032 23.6283 16.763 24.588C17.7227 25.5477 19.0238 26.0878 20.381 26.0899C21.7383 26.0878 23.0393 25.5477 23.9991 24.588C24.9588 23.6283 25.4989 22.3272 25.501 20.9699C25.4989 19.6127 24.9588 18.3116 23.9991 17.3519C23.0393 16.3922 21.7383 15.8521 20.381 15.8499Z" fill="#0A0A0A"/>
<path d="M28.374 15.8511C28.3763 15.9477 28.359 16.0438 28.3231 16.1335C28.2872 16.2233 28.2334 16.3048 28.1651 16.3732C28.0967 16.4415 28.0152 16.4953 27.9255 16.5312C27.8357 16.5671 27.7396 16.5844 27.643 16.5821C27.5464 16.5844 27.4503 16.5671 27.3605 16.5312C27.2708 16.4953 27.1893 16.4415 27.1209 16.3732C27.0526 16.3048 26.9988 16.2233 26.9629 16.1335C26.927 16.0438 26.9097 15.9477 26.912 15.8511C26.9097 15.7544 26.927 15.6583 26.9629 15.5686C26.9988 15.4789 27.0526 15.3973 27.1209 15.329C27.1893 15.2606 27.2708 15.2069 27.3605 15.171C27.4503 15.135 27.5464 15.1178 27.643 15.1201C27.8356 15.1242 28.0192 15.2025 28.1554 15.3387C28.2916 15.4749 28.3699 15.6585 28.374 15.8511Z" fill="#0A0A0A"/>
<path d="M10.925 11.5149H13.85V12.2459H10.925V11.5149Z" fill="#0A0A0A"/>
<path d="M20.381 18.045V17.314C19.412 17.3169 18.4835 17.7031 17.7983 18.3883C17.1131 19.0735 16.7269 20.002 16.724 20.971H17.455C17.4545 20.5867 17.5298 20.2061 17.6766 19.851C17.8234 19.4959 18.0388 19.1732 18.3105 18.9015C18.5822 18.6298 18.9049 18.4144 19.26 18.2675C19.6151 18.1207 19.9957 18.0454 20.38 18.046" fill="#0A0A0A"/>
</svg>
