<svg id="car_1_" data-name="car (1)" xmlns="http://www.w3.org/2000/svg" width="18.484" height="16.926" viewBox="0 0 18.484 16.926">
  <path id="Path_2036" data-name="Path 2036" d="M9.243,13.9H4.251v1.575a1.388,1.388,0,1,1-2.774,0V13.9H0V8.971a2.113,2.113,0,0,1,1.667-2.1L3.185,2.993a2.058,2.058,0,0,1,2.072-1.37H7.427V.611A.538.538,0,0,1,8,0h2.5a.538.538,0,0,1,.577.611V1.623h2.145A2.058,2.058,0,0,1,15.3,2.993L16.816,6.87a2.114,2.114,0,0,1,1.668,2.1V13.9H17.007v1.575a1.388,1.388,0,1,1-2.774,0V13.9H9.243Z" fill="#ff6302"/>
  <path id="Path_2037" data-name="Path 2037" d="M41.756,67.462h-6l1.143-3c.143-.429.357-.738.858-.743h8c.5,0,.715.314.858.743l1.143,3h-6Zm-6.332,4.109a1.308,1.308,0,1,1,1.282-1.308A1.295,1.295,0,0,1,35.424,71.572Z" transform="translate(-32.515 -60.683)" fill="#fbf9f7"/>
  <path id="Path_2038" data-name="Path 2038" fill="#ff6302"/>
  <g id="Group_1597" data-name="Group 1597">
    <path id="Path_2039" data-name="Path 2039" d="M301.307,176.268a1.308,1.308,0,1,0-1.282-1.308A1.295,1.295,0,0,0,301.307,176.268Z" transform="translate(-285.732 -165.38)" fill="#fbf9f7"/>
    <path id="Path_2040" data-name="Path 2040" fill="#ff6302"/>
  </g>
</svg>
