<svg xmlns="http://www.w3.org/2000/svg" xmlns:xlink="http://www.w3.org/1999/xlink" width="304" height="304" viewBox="0 0 304 304">
  <defs>
    <clipPath id="clip-path">
      <rect id="Rectangle_834" data-name="Rectangle 834" width="304" height="304" transform="translate(0.405 0.405)" fill="#ff6302"/>
    </clipPath>
  </defs>
  <g id="Group_22263" data-name="Group 22263" transform="translate(-43 -124)">
    <g id="Group_17076" data-name="Group 17076" transform="translate(13.715 188.715)">
      <g id="Group_17074" data-name="Group 17074" transform="translate(28.881 -65.119)">
        <g id="Group_17073" data-name="Group 17073" transform="translate(0 0)" clip-path="url(#clip-path)">
          <path id="Path_2346" data-name="Path 2346" d="M0,288Z" transform="translate(-0.15 16.959)" fill="#ff6302"/>
          <path id="Path_2047" data-name="Path 2047" d="M84.382,108.794l-7.32,1.389L74.056,117l-3.583-6.533-7.414-.752,5.106-5.426L66.59,97.007l6.738,3.179,6.44-3.749-.942,7.391Z" transform="translate(3.596 5.579)" fill="#ff6302" fill-rule="evenodd"/>
          <path id="Path_2048" data-name="Path 2048" d="M193.737,52.539l2.517-3.911-1.795-4.291,4.5,1.185,3.527-3.033.262,4.644,3.974,2.416-4.335,1.684-1.071,4.526-2.941-3.6Z" transform="translate(11.359 2.374)" fill="#ff6302" fill-rule="evenodd"/>
          <path id="Path_2049" data-name="Path 2049" d="M260.432,153.572l-5.885-.209-3.509,4.729-1.62-5.661-5.582-1.875,4.884-3.291.058-5.888,4.638,3.628,5.619-1.765-2.018,5.533Z" transform="translate(14.335 8.249)" fill="#ff6302" fill-rule="evenodd"/>
          <path id="Path_2050" data-name="Path 2050" d="M54.21,207.694l-6.949-1.463-5.144,4.894-.756-7.061-6.245-3.38,6.481-2.9,1.285-6.985,4.762,5.269,7.04-.937-3.539,6.157Z" transform="translate(1.936 11.185)" fill="#ff6302" fill-rule="evenodd"/>
          <path id="Path_2051" data-name="Path 2051" d="M258.334,236.474l-5.174.33-2.662,4.451-1.912-4.819-5.054-1.157,3.992-3.309-.462-5.165,4.381,2.775,4.768-2.035-1.285,5.024Z" transform="translate(14.317 13.323)" fill="#ff6302" fill-rule="evenodd"/>
          <path id="Path_2052" data-name="Path 2052" d="M99.561,247.764l-5.875-1.993-4.973,3.711.079-6.2L83.726,239.7l5.925-1.841,1.841-5.925,3.583,5.066,6.2-.08-3.711,4.973Z" transform="translate(4.824 13.628)" fill="#ff6302" fill-rule="evenodd"/>
          <path id="Path_2053" data-name="Path 2053" d="M86.021,53.691l4.124-4.26-1.171-5.812L94.3,46.225l5.167-2.909-.833,5.87L103,53.2l-5.841,1.022-2.469,5.39L91.91,54.374Z" transform="translate(4.96 2.423)" fill="#ff6302" fill-rule="evenodd"/>
          <path id="Path_2054" data-name="Path 2054" d="M30.644,145.98l-4.64.511-2.21,4.113-1.92-4.256-4.594-.831,3.454-3.141-.63-4.625,4.055,2.314,4.2-2.028-.948,4.571Z" transform="translate(0.877 8.033)" fill="#ff6302" fill-rule="evenodd"/>
          <path id="Path_2055" data-name="Path 2055" d="M250.714,72.624l3.051-3.73-1.342-4.629,4.491,1.75,3.987-2.708-.277,4.812,3.808,2.956L259.77,72.3l-1.635,4.533-2.6-4.054Z" transform="translate(14.744 3.611)" fill="#ff6302" fill-rule="evenodd"/>
          <path id="Path_2056" data-name="Path 2056" d="M205.642,114.733l3.232-4.264-1.679-5.081,5.054,1.758,4.313-3.168-.109,5.35,4.345,3.122L215.677,114l-1.627,5.1-3.056-4.392Z" transform="translate(12.066 6.027)" fill="#ff6302" fill-rule="evenodd"/>
          <path id="Path_2057" data-name="Path 2057" d="M245.591,201.455l-8.742.312-4.7,7.378-3-8.218-8.469-2.19,6.889-5.39-.535-8.731,7.256,4.886,8.138-3.206-2.406,8.41Z" transform="translate(12.96 10.817)" fill="#ff6302" fill-rule="evenodd"/>
          <path id="Path_2058" data-name="Path 2058" d="M38.824,78.355l-2.675-.014-1.529,2.2-.814-2.549-2.561-.774,2.173-1.562-.055-2.675,2.157,1.584,2.527-.878-.84,2.54Z" transform="translate(1.706 4.185)" fill="#ff6302" fill-rule="evenodd"/>
          <path id="Path_2059" data-name="Path 2059" d="M270.273,175.847l1.675-2.013-.708-2.521,2.431.971,2.179-1.452-.173,2.613,2.055,1.624-2.538.643-.909,2.456-1.4-2.215Z" transform="translate(15.906 9.998)" fill="#ff6302" fill-rule="evenodd"/>
          <path id="Path_2060" data-name="Path 2060" d="M160.126,54.97l-2.614-.489-1.885,1.876-.342-2.637-2.367-1.213,2.4-1.141.422-2.625,1.828,1.932,2.626-.41L158.924,52.6Z" transform="translate(8.934 2.746)" fill="#ff6302" fill-rule="evenodd"/>
          <path id="Path_2061" data-name="Path 2061" d="M104.945,211.036l-2.614-.49-1.885,1.876-.342-2.637-2.367-1.213,2.4-1.141.422-2.625,1.827,1.932,2.626-.41-1.272,2.335Z" transform="translate(5.656 12.017)" fill="#ff6302" fill-rule="evenodd"/>
          <path id="Path_2062" data-name="Path 2062" d="M185.454,204.734l1.2-2.966-1.761-2.674,3.193.229,2-2.5.769,3.107,3,1.129-2.718,1.692-.147,3.2-2.449-2.063Z" transform="translate(10.834 11.542)" fill="#ff6302" fill-rule="evenodd"/>
          <path id="Path_2063" data-name="Path 2063" d="M212.109,74.422l-1.428.111-.717,1.239-.547-1.323-1.4-.3,1.089-.929-.147-1.424,1.22.749,1.308-.582-.335,1.392Z" transform="translate(12.208 4.115)" fill="#ff6302" fill-rule="evenodd"/>
          <path id="Path_2064" data-name="Path 2064" d="M59.279,154.791l.251-2.5-1.914-1.622,2.451-.532.95-2.322,1.265,2.168,2.5.186-1.67,1.872.6,2.437-2.3-1.01Z" transform="translate(3.273 8.631)" fill="#ff6302" fill-rule="evenodd"/>
          <path id="Path_2065" data-name="Path 2065" d="M163.213,231.2l-3.329-.136-2,2.664-.9-3.208-3.153-1.078,2.774-1.847.051-3.331,2.614,2.067,3.184-.981L161.3,228.47Z" transform="translate(8.989 13.172)" fill="#ff6302" fill-rule="evenodd"/>
          <g id="Group_17072" data-name="Group 17072" transform="translate(16.505 30.488)">
            <g id="Group_17075" data-name="Group 17075">
              <path id="Path_2066" data-name="Path 2066" d="M88.793,84.82a.264.264,0,0,1-.2-.44c1.388-1.569.805-4.173-.61-5.62-1.526-1.56-3.791-2.191-5.8-2.6-.338-.069-.677-.133-1.016-.2a17.824,17.824,0,0,1-5.392-1.646,9.193,9.193,0,0,1-4.6-8.092,17.83,17.83,0,0,1,.517-3.323,14.529,14.529,0,0,0,.494-3.813c-.152-2.977-2.1-5.813-5.953-8.672-.557-.414-1.129-.819-1.7-1.225-2.47-1.751-5.025-3.562-6.6-6.187a.264.264,0,1,1,.453-.272c1.521,2.53,4.029,4.308,6.455,6.027.575.408,1.151.816,1.712,1.232,3.989,2.959,6,5.925,6.166,9.07a14.962,14.962,0,0,1-.506,3.955,17.476,17.476,0,0,0-.5,3.224,8.65,8.65,0,0,0,4.33,7.614,17.4,17.4,0,0,0,5.235,1.589c.341.066.682.131,1.02.2,2.093.427,4.454,1.087,6.079,2.75,1.582,1.618,2.212,4.551.627,6.341a.262.262,0,0,1-.2.089" transform="translate(-13.216 -28.107)" fill="#ff6302"/>
              <path id="Path_2067" data-name="Path 2067" d="M62.378,127.536A32.527,32.527,0,0,1,46.912,123.6c-1.26-.691-2.492-1.478-3.684-2.239a35.291,35.291,0,0,0-6.685-3.621c-3.509-1.286-8.216-1.249-10.817,1.727a.265.265,0,0,1-.4-.349c2.768-3.166,7.719-3.222,11.4-1.876a35.747,35.747,0,0,1,6.788,3.673c1.184.756,2.409,1.538,3.654,2.219A31.976,31.976,0,0,0,64,126.964a.248.248,0,0,1,.28.25.265.265,0,0,1-.25.278c-.548.03-1.1.044-1.647.044" transform="translate(-15.154 -23.723)" fill="#ff6302"/>
              <path id="Path_2068" data-name="Path 2068" d="M60.261,229.714a.265.265,0,0,1-.136-.493,28.138,28.138,0,0,0,12.2-15.178,56.245,56.245,0,0,0,1.773-7.866,65.815,65.815,0,0,1,1.456-6.851c1.69-5.871,5.063-10.056,9.253-11.481a.265.265,0,0,1,.169.5c-4.023,1.368-7.272,5.423-8.914,11.126a65.939,65.939,0,0,0-1.443,6.795,56.506,56.506,0,0,1-1.793,7.94A28.665,28.665,0,0,1,60.4,229.676a.262.262,0,0,1-.136.037" transform="translate(-13.091 -19.48)" fill="#ff6302"/>
              <path id="Path_2069" data-name="Path 2069" d="M267.8,178.188a.234.234,0,0,1-.047,0,.261.261,0,0,1-.214-.306c.858-4.886-3.352-9.376-7.825-10.5-5.178-1.3-10.454.8-13.969,2.791l-.281.16c-1.89,1.075-4.027,2.3-6.177,1.661-1.8-.532-2.868-2.138-3.9-3.691-.325-.492-.662-1-1.014-1.456a11.345,11.345,0,0,0-14.213-2.738.265.265,0,0,1-.268-.457,11.9,11.9,0,0,1,14.9,2.872c.363.471.706.987,1.035,1.485,1.024,1.543,1.991,3,3.61,3.477,1.936.572,3.967-.591,5.763-1.613l.283-.16c3.6-2.043,9.011-4.194,14.361-2.843,4.7,1.187,9.128,5.933,8.215,11.108a.264.264,0,0,1-.259.219" transform="translate(-3.6 -21.004)" fill="#ff6302"/>
              <path id="Path_2070" data-name="Path 2070" d="M211.561,127.811a16.954,16.954,0,0,1-2.624-.2.265.265,0,1,1,.084-.523c6.569,1.036,13.008-2.223,17.89-5.175.947-.573,1.891-1.162,2.836-1.753,4.481-2.8,9.116-5.7,14.34-6.811,1.449-.307,2.944-.475,4.39-.638a36.1,36.1,0,0,0,5.373-.878c3.673-.992,6.306-3.2,7.043-5.909a.269.269,0,0,1,.325-.185.265.265,0,0,1,.187.325c-.788,2.892-3.561,5.24-7.416,6.281a36.619,36.619,0,0,1-5.454.893c-1.432.161-2.914.327-4.338.63-5.133,1.09-9.726,3.962-14.168,6.74-.948.593-1.894,1.184-2.845,1.759-4.312,2.607-9.83,5.447-15.623,5.447" transform="translate(-4.256 -24.357)" fill="#ff6302"/>
              <path id="Path_2071" data-name="Path 2071" d="M190.351,81.448a.265.265,0,0,1-.252-.346,24.552,24.552,0,0,1,16.355-15.744c1.5-.42,3.05-.694,4.551-.961,1.283-.227,2.608-.462,3.886-.784a27.747,27.747,0,0,0,15.3-10.289.265.265,0,1,1,.427.314,28.278,28.278,0,0,1-15.6,10.488c-1.3.327-2.632.565-3.923.793-1.488.264-3.028.536-4.5.949a24.009,24.009,0,0,0-15.994,15.4.265.265,0,0,1-.252.183" transform="translate(-5.363 -27.477)" fill="#ff6302"/>
              <path id="Path_2072" data-name="Path 2072" d="M135.657,73.329a.265.265,0,0,1-.2-.437c1.917-2.257,3.9-4.59,4.9-7.421,1.087-3.079.619-6.31-1.192-8.234a12.076,12.076,0,0,0-2.606-1.924c-.446-.271-.908-.553-1.344-.856-1.005-.7-2.7-2.168-2.711-4.145-.013-1.887,1.391-3.235,2.75-4.54.451-.433.917-.882,1.315-1.337a9.071,9.071,0,0,0-1.354-12.695.265.265,0,1,1,.317-.425,9.6,9.6,0,0,1,1.437,13.468c-.412.472-.888.929-1.348,1.37-1.337,1.284-2.6,2.5-2.587,4.155.014,1.738,1.562,3.072,2.483,3.713.425.295.878.572,1.317.839a12.6,12.6,0,0,1,2.717,2.013c1.946,2.067,2.458,5.51,1.305,8.773-1.031,2.924-3.137,5.4-5,7.589a.264.264,0,0,1-.2.093" transform="translate(-8.784 -28.781)" fill="#ff6302"/>
              <path id="Path_2073" data-name="Path 2073" d="M33.595,174.534a.271.271,0,0,1-.113-.025.266.266,0,0,1-.127-.353c2.272-4.838,4.379-6.418,7.108-8.119,3.095-1.931,7.155-1.9,9.3-1.718,1.108.1,2.226.25,3.309.4a37.925,37.925,0,0,0,5.7.495c2.009-.028,5.719-.47,8.006-3.126a.265.265,0,0,1,.4.345c-2.423,2.813-6.3,3.282-8.4,3.311a39.523,39.523,0,0,1-5.778-.5c-1.075-.148-2.188-.3-3.282-.4a14.992,14.992,0,0,0-8.972,1.64c-2.651,1.654-4.7,3.188-6.907,7.9a.263.263,0,0,1-.239.153" transform="translate(-14.675 -21.015)" fill="#ff6302"/>
              <path id="Path_2074" data-name="Path 2074" d="M118.868,95.335l-.035,0a.265.265,0,0,1-.228-.3c.6-4.424,1.005-9.419-1.811-12.719a16.14,16.14,0,0,0-3.029-2.537,13.92,13.92,0,0,1-3.532-3.157,7.373,7.373,0,0,1,1.452-9.719.265.265,0,0,1,.324.42,6.824,6.824,0,0,0-1.344,8.994,13.309,13.309,0,0,0,3.406,3.03,16.541,16.541,0,0,1,3.126,2.625c2.957,3.466,2.548,8.6,1.932,13.136a.266.266,0,0,1-.263.229" transform="translate(-10.179 -26.667)" fill="#ff6302"/>
              <path id="Path_2075" data-name="Path 2075" d="M168.45,93.885a.265.265,0,0,1-.245-.163,14.655,14.655,0,0,1,1.719-14.08,28.618,28.618,0,0,1,2.124-2.459c.623-.667,1.268-1.357,1.837-2.083a7.814,7.814,0,0,0,1.945-5.329.265.265,0,0,1,.528-.054,8.127,8.127,0,0,1-2.056,5.71c-.583.743-1.235,1.442-1.866,2.118a28.18,28.18,0,0,0-2.086,2.411,14.116,14.116,0,0,0-1.657,13.561.263.263,0,0,1-.142.346.268.268,0,0,1-.1.02" transform="translate(-6.726 -26.51)" fill="#ff6302"/>
              <path id="Path_2076" data-name="Path 2076" d="M128.913,254.812a.265.265,0,0,1-.247-.171c-1.923-5.063-.223-10.738,1.522-15.66l.056-.158c1.771-4.994,3.6-10.159,2.293-15.151a.265.265,0,0,1,.513-.135c1.352,5.15-.507,10.393-2.307,15.462l-.055.158c-1.713,4.834-3.385,10.4-1.528,15.295a.264.264,0,0,1-.153.342.271.271,0,0,1-.094.017" transform="translate(-9.062 -17.37)" fill="#ff6302"/>
              <path id="Path_2077" data-name="Path 2077" d="M176.554,254.4a.267.267,0,0,1-.208-.1c-2.374-3-1.573-7.155-.883-9.363.382-1.228.878-2.437,1.356-3.605a29.405,29.405,0,0,0,1.8-5.348c1.112-5.62-1.283-11.442-3.18-15.331-.544-1.114-1.118-2.221-1.689-3.328-1.885-3.641-3.833-7.405-4.728-11.472a.264.264,0,0,1,.2-.316.269.269,0,0,1,.316.2c.88,4,2.813,7.732,4.682,11.342.574,1.11,1.148,2.22,1.694,3.339,1.932,3.958,4.368,9.888,3.224,15.664a29.755,29.755,0,0,1-1.83,5.446c-.474,1.159-.965,2.357-1.342,3.563-1.118,3.587-.828,6.822.795,8.877a.265.265,0,0,1-.208.429" transform="translate(-6.614 -18.428)" fill="#ff6302"/>
              <path id="Path_2078" data-name="Path 2078" d="M218.194,237.736a.27.27,0,0,1-.153-.048c-5.193-3.626-7.682-9.984-9.608-15.657l-.263-.775c-1.9-5.6-3.855-11.395-8.129-15.371a.265.265,0,0,1,.36-.389c4.372,4.068,6.353,9.926,8.271,15.59l.262.774c1.9,5.594,4.348,11.859,9.412,15.393a.265.265,0,0,1-.152.482" transform="translate(-4.776 -18.435)" fill="#ff6302"/>
              <path id="Path_2308" data-name="Path 2308" d="M56.676,88.326a1.2,1.2,0,1,1-1.2-1.2,1.2,1.2,0,0,1,1.2,1.2" transform="translate(-13.431 -25.462)" fill="#ff6302"/>
              <path id="Path_2309" data-name="Path 2309" d="M124.207,39.887a1.8,1.8,0,1,1-1.8-1.8,1.8,1.8,0,0,1,1.8,1.8" transform="translate(-9.49 -28.376)" fill="#ff6302"/>
              <path id="Path_2310" data-name="Path 2310" d="M162.991,66.083a1.351,1.351,0,1,1-1.352-1.352,1.352,1.352,0,0,1,1.352,1.352" transform="translate(-7.133 -26.793)" fill="#ff6302"/>
              <path id="Path_2311" data-name="Path 2311" d="M238.477,81.857a2.1,2.1,0,1,1-2.1-2.1,2.1,2.1,0,0,1,2.1,2.1" transform="translate(-2.738 -25.9)" fill="#ff6302"/>
              <path id="Path_2312" data-name="Path 2312" d="M204.91,89.026a1.051,1.051,0,1,1-1.051-1.051,1.051,1.051,0,0,1,1.051,1.051" transform="translate(-4.607 -25.412)" fill="#ff6302"/>
              <path id="Path_2313" data-name="Path 2313" d="M261.421,128.194a1.952,1.952,0,1,1-1.951-1.951,1.952,1.952,0,0,1,1.951,1.951" transform="translate(-1.357 -23.139)" fill="#ff6302"/>
              <path id="Path_2314" data-name="Path 2314" d="M270.357,156.757a.751.751,0,1,1-.751-.751.751.751,0,0,1,.751.751" transform="translate(-0.683 -21.37)" fill="#ff6302"/>
              <path id="Path_2315" data-name="Path 2315" d="M230.989,157.625a1.051,1.051,0,1,1-1.051-1.051,1.051,1.051,0,0,1,1.051,1.051" transform="translate(-3.058 -21.337)" fill="#ff6302"/>
              <path id="Path_2316" data-name="Path 2316" d="M217.417,178.051a1.351,1.351,0,1,1-1.352-1.352,1.352,1.352,0,0,1,1.352,1.352" transform="translate(-3.9 -20.141)" fill="#ff6302"/>
              <path id="Path_2317" data-name="Path 2317" d="M222.286,211.95a1.8,1.8,0,1,1-1.8-1.8,1.8,1.8,0,0,1,1.8,1.8" transform="translate(-3.664 -18.154)" fill="#ff6302"/>
              <path id="Path_2318" data-name="Path 2318" d="M260.753,206.664a1.051,1.051,0,1,1-1.051-1.051,1.051,1.051,0,0,1,1.051,1.051" transform="translate(-1.29 -18.424)" fill="#ff6302"/>
              <path id="Path_2319" data-name="Path 2319" d="M234.441,232.343a1.5,1.5,0,1,1-1.5-1.5,1.5,1.5,0,0,1,1.5,1.5" transform="translate(-2.906 -16.925)" fill="#ff6302"/>
              <path id="Path_2320" data-name="Path 2320" d="M195.874,238.429a1.351,1.351,0,1,1-1.352-1.352,1.351,1.351,0,0,1,1.352,1.352" transform="translate(-5.18 -16.554)" fill="#ff6302"/>
              <path id="Path_2321" data-name="Path 2321" d="M198.107,208.648a1.051,1.051,0,1,1-1.051-1.051,1.051,1.051,0,0,1,1.051,1.051" transform="translate(-5.011 -18.306)" fill="#ff6302"/>
              <path id="Path_2322" data-name="Path 2322" d="M143.433,226.807a1.351,1.351,0,1,1-1.352-1.352,1.352,1.352,0,0,1,1.352,1.352" transform="translate(-8.295 -17.245)" fill="#ff6302"/>
              <path id="Path_2323" data-name="Path 2323" d="M161.807,247.617a.9.9,0,1,1-.9-.9.9.9,0,0,1,.9.9" transform="translate(-7.15 -15.982)" fill="#ff6302"/>
              <path id="Path_2324" data-name="Path 2324" d="M85.572,211.766a1.051,1.051,0,1,1-1.051-1.051,1.051,1.051,0,0,1,1.051,1.051" transform="translate(-11.696 -18.12)" fill="#ff6302"/>
              <path id="Path_2325" data-name="Path 2325" d="M119.371,249.218a1.652,1.652,0,1,1-1.652-1.652,1.652,1.652,0,0,1,1.652,1.652" transform="translate(-9.76 -15.931)" fill="#ff6302"/>
              <path id="Path_2326" data-name="Path 2326" d="M117.2,206.831a1.5,1.5,0,1,0,1.5-1.5,1.5,1.5,0,0,0-1.5,1.5" transform="translate(-9.692 -18.44)" fill="#ff6302"/>
              <path id="Path_2327" data-name="Path 2327" d="M56.493,218.77a2.1,2.1,0,1,1-2.1-2.1,2.1,2.1,0,0,1,2.1,2.1" transform="translate(-13.549 -17.767)" fill="#ff6302"/>
              <path id="Path_2328" data-name="Path 2328" d="M51.29,176.2a1.2,1.2,0,1,1-1.2-1.2,1.2,1.2,0,0,1,1.2,1.2" transform="translate(-13.751 -20.242)" fill="#ff6302"/>
              <path id="Path_2329" data-name="Path 2329" d="M67.147,186.255A1.051,1.051,0,1,1,66.1,185.2a1.051,1.051,0,0,1,1.051,1.051" transform="translate(-12.791 -19.636)" fill="#ff6302"/>
              <path id="Path_2330" data-name="Path 2330" d="M40.568,156.241a1.652,1.652,0,1,1-1.652-1.652,1.652,1.652,0,0,1,1.652,1.652" transform="translate(-14.441 -21.455)" fill="#ff6302"/>
              <path id="Path_2331" data-name="Path 2331" d="M38.5,127.428a.9.9,0,1,1-.9-.9.9.9,0,0,1,.9.9" transform="translate(-14.475 -23.122)" fill="#ff6302"/>
              <path id="Path_2332" data-name="Path 2332" d="M61.228,143.468a1.351,1.351,0,1,1-1.352-1.352,1.352,1.352,0,0,1,1.352,1.352" transform="translate(-13.178 -22.196)" fill="#ff6302"/>
              <path id="Path_2333" data-name="Path 2333" d="M38.051,106.368a1.952,1.952,0,1,1-1.952-1.952,1.951,1.951,0,0,1,1.952,1.952" transform="translate(-14.626 -24.435)" fill="#ff6302"/>
              <path id="Path_2334" data-name="Path 2334" d="M80.186,83.073a1.051,1.051,0,1,1-1.051-1.05,1.051,1.051,0,0,1,1.051,1.05" transform="translate(-12.016 -25.765)" fill="#ff6302"/>
              <path id="Path_2335" data-name="Path 2335" d="M146.25,84.357a1.2,1.2,0,1,1-1.2-1.2,1.2,1.2,0,0,1,1.2,1.2" transform="translate(-8.11 -25.698)" fill="#ff6302"/>
              <path id="Path_2336" data-name="Path 2336" d="M88.69,64.365a1.051,1.051,0,1,1-1.051-1.051,1.051,1.051,0,0,1,1.051,1.051" transform="translate(-11.511 -26.877)" fill="#ff6302"/>
              <path id="Path_2337" data-name="Path 2337" d="M157.022,201.428a1.2,1.2,0,1,1-1.2-1.2,1.2,1.2,0,0,1,1.2,1.2" transform="translate(-7.47 -18.743)" fill="#ff6302"/>
              <path id="Path_2338" data-name="Path 2338" d="M28.374,216.852a1.6,1.6,0,1,1-1.6-1.6,1.6,1.6,0,0,1,1.6,1.6" transform="translate(-15.16 -17.851)" fill="#ff6302"/>
              <path id="Path_2339" data-name="Path 2339" d="M18.524,188.306a1.4,1.4,0,1,1-1.4-1.4,1.4,1.4,0,0,1,1.4,1.4" transform="translate(-15.721 -19.535)" fill="#ff6302"/>
              <path id="Path_2340" data-name="Path 2340" d="M50.317,51.509a1.8,1.8,0,1,1-1.8-1.8,1.8,1.8,0,0,1,1.8,1.8" transform="translate(-13.88 -27.685)" fill="#ff6302"/>
              <path id="Path_2341" data-name="Path 2341" d="M160.369,31.323a2.4,2.4,0,1,1-2.4-2.4,2.4,2.4,0,0,1,2.4,2.4" transform="translate(-7.414 -28.92)" fill="#ff6302"/>
              <path id="Path_2342" data-name="Path 2342" d="M273.265,93.062a1.4,1.4,0,1,1-1.4-1.4,1.4,1.4,0,0,1,1.4,1.4" transform="translate(-0.588 -25.193)" fill="#ff6302"/>
              <path id="Path_2343" data-name="Path 2343" d="M254.178,182.259a1.4,1.4,0,1,1-1.4-1.4,1.4,1.4,0,0,1,1.4,1.4" transform="translate(-1.722 -19.894)" fill="#ff6302"/>
              <path id="Path_2344" data-name="Path 2344" d="M195.784,260.495a1.4,1.4,0,1,1-1.4-1.4,1.4,1.4,0,0,1,1.4,1.4" transform="translate(-5.191 -15.247)" fill="#ff6302"/>
              <path id="Path_2345" data-name="Path 2345" d="M159.879,257.849a1.4,1.4,0,1,1-1.4-1.4,1.4,1.4,0,0,1,1.4,1.4" transform="translate(-7.324 -15.404)" fill="#ff6302"/>
            </g>
          </g>
        </g>
      </g>
    </g>
  </g>
</svg>
