<svg xmlns="http://www.w3.org/2000/svg" xmlns:xlink="http://www.w3.org/1999/xlink" width="73.145" height="73.145" viewBox="0 0 73.145 73.145">
  <defs>
    <filter id="Oval" x="0" y="0" width="73.145" height="73.145" filterUnits="userSpaceOnUse">
      <feOffset dy="2" input="SourceAlpha"/>
      <feGaussianBlur stdDeviation="4" result="blur"/>
      <feFlood flood-color="#222b45" flood-opacity="0.2"/>
      <feComposite operator="in" in2="blur"/>
      <feComposite in="SourceGraphic"/>
    </filter>
  </defs>
  <g id="Group_1578" data-name="Group 1578" transform="translate(-172.409 -279.354)">
    <circle id="Ellipse_16" data-name="Ellipse 16" cx="35" cy="35" r="35" transform="translate(173 280)" fill="#ff6302" opacity="0.32"/>
    <g id="Group" transform="translate(187.771 292.716)">
      <g transform="matrix(1, 0, 0, 1, -15.36, -13.36)" filter="url(#Oval)">
        <circle id="Oval-2" data-name="Oval" cx="15.77" cy="15.77" r="15.77" transform="matrix(0.89, -0.45, 0.45, 0.89, 15.36, 27.68)" fill="#ff6302" stroke="#fff" stroke-miterlimit="10" stroke-width="5"/>
      </g>
      <g id="vuesax_bold_send-2" data-name="vuesax/bold/send-2" transform="translate(12.198 13.597)">
        <g id="send-2">
          <path id="Vector" d="M10.2.3,3.419,2.551c-4.559,1.525-4.559,4.011,0,5.528l2.013.668L6.1,10.76c1.517,4.559,4.011,4.559,5.528,0l2.261-6.774C14.9.944,13.243-.716,10.2.3Zm.24,4.041L7.587,7.207a.562.562,0,0,1-.8,0,.567.567,0,0,1,0-.8L9.645,3.542a.563.563,0,0,1,.8.8Z" transform="translate(1.921 1.925)" fill="#fff"/>
          <path id="Vector-2" data-name="Vector" d="M0,0H18.025V18.025H0Z" transform="translate(18.025 18.025) rotate(180)" fill="none" opacity="0"/>
        </g>
      </g>
    </g>
  </g>
</svg>
