<svg xmlns="http://www.w3.org/2000/svg" width="165.372" height="141.447" viewBox="0 0 165.372 141.447">
  <g id="notification_1_" data-name="notification (1)" transform="translate(-50.5 -139.779)">
    <g id="Group_24472" data-name="Group 24472" transform="translate(58.399 168.377)">
      <circle id="Ellipse_610" data-name="Ellipse 610" cx="13.292" cy="13.292" r="13.292" transform="translate(0 0)" fill="none" stroke="#d3d3d3" stroke-miterlimit="10" stroke-width="1" stroke-dasharray="12.06 12.06"/>
    </g>
    <g id="Group_24473" data-name="Group 24473" transform="translate(63.78 139.779)">
      <path id="Path_19652" data-name="Path 19652" d="M151.883,166.844c-5.343,2.408-10.785,5.079-14.545,9.581a7.97,7.97,0,0,0-2.226,5.277c.2,3.645,4.37,5.8,8.015,5.8s7.19-1.352,10.835-1.352c1.88,0,4.238.924,4.205,2.8a4.133,4.133,0,0,1-1.765,2.754q-9.647,8.608-19.294,17.233c-2.144,1.913-4.354,3.925-5.459,6.563-1.121,2.655-.792,6.135,1.517,7.85,1.517,1.138,3.529,1.27,5.426,1.319,8.592.148,17.151-1.171,25.611-2.721a456.683,456.683,0,0,0,87.435-25.347c5.162-2.078,10.7-4.634,13.16-9.614,2.836-5.772-.2-13.655-6.168-16.046-3.562-1.418-7.586-1.022-11.362-1.715s-7.833-3.282-7.866-7.141c-.066-6.366,10.224-8.773,10.521-15.122.165-3.364-2.9-6.2-6.184-6.926s-6.7.148-9.911,1.154C233.843,141.2,175.581,156.191,151.883,166.844Z" transform="translate(-131.027 -139.779)" fill="#f7f7f7"/>
    </g>
    <path id="Path_19653" data-name="Path 19653" d="M211.452,928.188H52.479a1.985,1.985,0,0,1-1.979-1.979v-9.729a1.985,1.985,0,0,1,1.979-1.979H211.452a1.985,1.985,0,0,1,1.979,1.979v9.729A1.985,1.985,0,0,1,211.452,928.188Z" transform="translate(0 -646.962)" fill="#f2f2f2"/>
    <g id="Group_24475" data-name="Group 24475" transform="translate(154.612 154.775)">
      <path id="Path_19654" data-name="Path 19654" d="M813.248,913.029c-.1,2.408-3.43,7.454-2.87,8.41s6.3,2.474,7.52,0c1.2-2.474-1.1-6.646-1.1-8.41S813.248,913.029,813.248,913.029Z" transform="translate(-789.126 -799.854)" fill="#1371b7"/>
      <path id="Path_19655" data-name="Path 19655" d="M720.478,912.876c-1.451,2.523-8.13,6.745-8.658,8.048s12.418-.05,15.172-3.364c-.99-2.985-1.765-5.359-1.765-5.359Z" transform="translate(-706.862 -799.817)" fill="#1371b7"/>
      <path id="Path_19656" data-name="Path 19656" d="M761.865,511.21c1.715,1.237,6.25,11.643,4.75,36.758a86.9,86.9,0,0,1,3.018,27.837h-4.255s-3.727-24.7-4.6-26.567-9.7-28.348-6.431-37.979C757.627,501.629,761.865,511.21,761.865,511.21Z" transform="translate(-741.784 -461.411)" fill="#0b4870"/>
      <path id="Path_19657" data-name="Path 19657" d="M713.127,503.407c1.715,1.237,2.622,13.523,1.121,38.655a89.972,89.972,0,0,1,2.853,28.958h-6.5s-1.319-25.825-2.177-27.688c-.874-1.864-9.7-27.227-6.415-36.857C705.277,496.827,713.127,503.407,713.127,503.407Z" transform="translate(-698.076 -456.608)" fill="#0b4870"/>
      <path id="Path_19658" data-name="Path 19658" d="M693.321,366.7s-5.277,1.2-6.514,4.964-3,14.149-2.408,15.007,1.913,2.16,2.738,1.055S693.321,366.7,693.321,366.7Z" transform="translate(-683.876 -344.275)" fill="#1e88d8"/>
      <path id="Path_19659" data-name="Path 19659" d="M719.075,349.348c-1.1-1.567-8.048-3.348-8.048-3.348s-7.883,3.546-8.377,4.931-1.748,8.064-2.754,9.73.857,7.174.857,7.174L698,381.8s13.473.346,19.839-1.253a8.421,8.421,0,0,0,1.583,1.9C738.2,370.225,720.18,350.931,719.075,349.348Zm-.181,29.4c-.4-2.919-2.441-6.6-2.688-10.307-.3-4.568,1.847-9.12,3.018-9.812.016.016.033.049.049.066C725.54,366.746,722.572,377,718.894,378.751Z" transform="translate(-695.333 -326.989)" fill="#2a94f4"/>
      <path id="Path_19660" data-name="Path 19660" d="M720.709,370.857l-4.04,1.7L713.7,363.8l4.024-1.7Z" transform="translate(-708.444 -340.434)" fill="#ff6302"/>
      <path id="Path_19661" data-name="Path 19661" d="M714.5,390.366s1.5-3.331,2.507-3.051,4.007.841,4.007,1.666c0,.841-4.255,2.226-4.255,2.226h-1.5Z" transform="translate(-709.112 -361.477)" fill="#ffd4b0"/>
      <path id="Path_19662" data-name="Path 19662" d="M805.689,558.614c1.6-.759,3.546-4.9-.544-4.914-1.88,0-2.045,4.024-2.045,4.024Z" transform="translate(-783.101 -500.437)" fill="#ffd4b0"/>
      <path id="Path_19663" data-name="Path 19663" d="M742.273,237.312c-.775-2.589,0-6.349,2.935-6.58s6.86,2.573,6.629,4.914-4.106,4.387-4.106,4.387Z" transform="translate(-732.07 -230.719)" fill="#1371b7"/>
      <path id="Path_19664" data-name="Path 19664" d="M704.6,260.882c0,4.436,2.738,7.339,6.563,7.339s7.256-.3,7.256-4.733-2.952-8.988-6.778-8.988S704.6,256.446,704.6,260.882Z" transform="translate(-700.845 -250.578)" fill="#1371b7"/>
      <g id="Group_24474" data-name="Group 24474" transform="translate(4.326 8.426)">
        <path id="Path_19665" data-name="Path 19665" d="M749.9,319.4c.759,1.385,2.754,4.453,2.754,4.453l-2.82,8.328-1.682-5.689-.247-4.3Z" transform="translate(-741.33 -313.202)" fill="#ffc99c"/>
        <path id="Path_19666" data-name="Path 19666" d="M716.743,284.763c1.5,2.754.346,7.388-1.9,8.905s-4.651-.231-5.8-3.5c-1.5-2.754-1.336-6.135.907-7.652S715.242,282.009,716.743,284.763Z" transform="translate(-708.062 -281.814)" fill="#ffe3ca"/>
        <ellipse id="Ellipse_611" data-name="Ellipse 611" cx="0.874" cy="1.666" rx="0.874" ry="1.666" transform="translate(8.07 2.455)" fill="#ffe3ca"/>
      </g>
      <path id="Path_19667" data-name="Path 19667" d="M686.673,403.2c-2.853,4.189-8.031,14.463-2.16,15.6,1.4.264,4.288-13.11,4.519-14.265A4.171,4.171,0,0,0,686.673,403.2Z" transform="translate(-681.83 -374.756)" fill="#48b1ff"/>
      <path id="Path_19668" data-name="Path 19668" d="M716.6,273.735c1.814,2.82,6.1,5.821,8.41,4.617C726.33,274.84,720.723,270.124,716.6,273.735Z" transform="translate(-710.866 -265.559)" fill="#1371b7"/>
      <path id="Path_19669" data-name="Path 19669" d="M705.037,283.435c-.4,2.8-1.468,5.079-3.265,5.426C701.227,285.1,701.607,282.776,705.037,283.435Z" transform="translate(-698.313 -274.649)" fill="#1371b7"/>
      <ellipse id="Ellipse_612" data-name="Ellipse 612" cx="0.759" cy="2.787" rx="0.759" ry="2.787" transform="translate(13.336 13.074)" fill="none" stroke="#ffa42c" stroke-miterlimit="10" stroke-width="1"/>
    </g>
    <g id="Group_24476" data-name="Group 24476" transform="translate(177.179 147.041)">
      <path id="Path_19670" data-name="Path 19670" d="M818.757,203.259a3.134,3.134,0,0,1,1.27-1.913,2.781,2.781,0,0,1,2.292-.412,3.107,3.107,0,0,1,2,1.385,2.867,2.867,0,0,1,.429,2.292,2.952,2.952,0,0,1-1.385,1.913,3.089,3.089,0,0,1-2.408.4,2.759,2.759,0,0,1-1.88-1.369A3.158,3.158,0,0,1,818.757,203.259Zm7.075-19.377.858.2a2.48,2.48,0,0,1,1.847,3.084l-2.8,10.043a2.49,2.49,0,0,1-2.952,1.748h0a2.489,2.489,0,0,1-1.9-2.886l1.946-10.224A2.5,2.5,0,0,1,825.832,183.882Z" transform="translate(-818.669 -183.819)" fill="#ff6302"/>
    </g>
    <g id="Group_24477" data-name="Group 24477" transform="translate(178.267 148.525)">
      <path id="Path_19671" data-name="Path 19671" d="M825.357,212.259a3.134,3.134,0,0,1,1.27-1.913,2.78,2.78,0,0,1,2.292-.412,3.108,3.108,0,0,1,2,1.385,2.867,2.867,0,0,1,.429,2.292,2.951,2.951,0,0,1-1.385,1.913,3.089,3.089,0,0,1-2.408.4,2.758,2.758,0,0,1-1.88-1.369A3.158,3.158,0,0,1,825.357,212.259Zm7.075-19.377.857.2a2.48,2.48,0,0,1,1.847,3.084l-2.8,10.043a2.49,2.49,0,0,1-2.952,1.748h0a2.489,2.489,0,0,1-1.9-2.886l1.946-10.224A2.5,2.5,0,0,1,832.432,192.882Z" transform="translate(-825.269 -192.819)" fill="none" stroke="#ff6302" stroke-miterlimit="10" stroke-width="1"/>
    </g>
    <g id="Group_24478" data-name="Group 24478" transform="translate(75.715 153.486)">
      <path id="Path_19672" data-name="Path 19672" d="M285.969,259.855H219.379a1.985,1.985,0,0,1-1.979-1.979v-19a1.985,1.985,0,0,1,1.979-1.979h66.591a1.985,1.985,0,0,1,1.979,1.979v19A1.985,1.985,0,0,1,285.969,259.855Z" transform="translate(-215.091 -234.591)" fill="none" stroke="#cce9ff" stroke-miterlimit="10" stroke-width="1"/>
      <path id="Path_19673" data-name="Path 19673" d="M271.969,245.855H205.379a1.985,1.985,0,0,1-1.979-1.979v-19a1.985,1.985,0,0,1,1.979-1.979h66.591a1.985,1.985,0,0,1,1.979,1.979v19A1.985,1.985,0,0,1,271.969,245.855Z" transform="translate(-203.4 -222.9)" fill="#cce9ff"/>
      <circle id="Ellipse_613" data-name="Ellipse 613" cx="6.959" cy="6.959" r="6.959" transform="translate(3.397 4.519)" fill="#fff"/>
      <path id="Path_19674" data-name="Path 19674" d="M374.622,252.51H332.4a1.1,1.1,0,0,1-1.1-1.1h0a1.1,1.1,0,0,1,1.1-1.1h42.217a1.1,1.1,0,0,1,1.1,1.1h0A1.1,1.1,0,0,1,374.622,252.51Z" transform="translate(-310.208 -245.781)" fill="#a7dbfc"/>
      <path id="Path_19675" data-name="Path 19675" d="M374.622,286.31H332.4a1.1,1.1,0,0,1-1.1-1.1h0a1.105,1.105,0,0,1,1.1-1.1h42.217a1.105,1.105,0,0,1,1.1,1.1h0A1.1,1.1,0,0,1,374.622,286.31Z" transform="translate(-310.208 -274.008)" fill="#a7dbfc"/>
      <path id="Path_19676" data-name="Path 19676" d="M362.056,320.01H332.4a1.1,1.1,0,0,1-1.1-1.1h0a1.1,1.1,0,0,1,1.1-1.1h29.667a1.1,1.1,0,0,1,1.1,1.1h0A1.119,1.119,0,0,1,362.056,320.01Z" transform="translate(-310.208 -302.15)" fill="#a7dbfc"/>
    </g>
    <g id="Group_24479" data-name="Group 24479" transform="translate(75.715 183.846)">
      <path id="Path_19677" data-name="Path 19677" d="M285.969,443.955H219.379a1.985,1.985,0,0,1-1.979-1.979v-19A1.985,1.985,0,0,1,219.379,421h66.591a1.985,1.985,0,0,1,1.979,1.979v19A1.985,1.985,0,0,1,285.969,443.955Z" transform="translate(-215.091 -418.691)" fill="none" stroke="#cce9ff" stroke-miterlimit="10" stroke-width="1"/>
      <path id="Path_19678" data-name="Path 19678" d="M271.969,429.955H205.379a1.985,1.985,0,0,1-1.979-1.979v-19A1.985,1.985,0,0,1,205.379,407h66.591a1.985,1.985,0,0,1,1.979,1.979v19A1.985,1.985,0,0,1,271.969,429.955Z" transform="translate(-203.4 -407)" fill="#cce9ff"/>
      <path id="Path_19679" data-name="Path 19679" d="M288.942,436.61H229.8a1.1,1.1,0,0,1-1.1-1.1h0a1.1,1.1,0,0,1,1.1-1.1h59.137a1.1,1.1,0,0,1,1.1,1.1h0A1.1,1.1,0,0,1,288.942,436.61Z" transform="translate(-224.528 -429.881)" fill="#a7dbfc"/>
      <path id="Path_19680" data-name="Path 19680" d="M288.942,470.41H229.8a1.105,1.105,0,0,1-1.1-1.1h0a1.105,1.105,0,0,1,1.1-1.1h59.137a1.105,1.105,0,0,1,1.1,1.1h0A1.1,1.1,0,0,1,288.942,470.41Z" transform="translate(-224.528 -458.107)" fill="#a7dbfc"/>
      <path id="Path_19681" data-name="Path 19681" d="M271.593,504.11H229.8a1.1,1.1,0,0,1-1.1-1.1h0a1.1,1.1,0,0,1,1.1-1.1h41.8a1.1,1.1,0,0,1,1.1,1.1h0A1.119,1.119,0,0,1,271.593,504.11Z" transform="translate(-224.528 -486.25)" fill="#a7dbfc"/>
    </g>
    <g id="Group_24480" data-name="Group 24480" transform="translate(75.715 214.206)">
      <path id="Path_19682" data-name="Path 19682" d="M285.969,628.055H219.379a1.985,1.985,0,0,1-1.979-1.979v-19a1.985,1.985,0,0,1,1.979-1.979h66.591a1.985,1.985,0,0,1,1.979,1.979v19A1.985,1.985,0,0,1,285.969,628.055Z" transform="translate(-215.091 -602.791)" fill="none" stroke="#cce9ff" stroke-miterlimit="10" stroke-width="1"/>
      <path id="Path_19683" data-name="Path 19683" d="M271.969,614.055H205.379a1.985,1.985,0,0,1-1.979-1.979v-19a1.985,1.985,0,0,1,1.979-1.979h66.591a1.985,1.985,0,0,1,1.979,1.979v19A1.985,1.985,0,0,1,271.969,614.055Z" transform="translate(-203.4 -591.1)" fill="#cce9ff"/>
      <path id="Path_19684" data-name="Path 19684" d="M288.942,620.71H229.8a1.1,1.1,0,0,1-1.1-1.1h0a1.1,1.1,0,0,1,1.1-1.1h59.137a1.1,1.1,0,0,1,1.1,1.1h0A1.1,1.1,0,0,1,288.942,620.71Z" transform="translate(-224.528 -613.982)" fill="#a7dbfc"/>
      <path id="Path_19685" data-name="Path 19685" d="M288.942,654.51H229.8a1.1,1.1,0,0,1-1.1-1.1h0a1.1,1.1,0,0,1,1.1-1.1h59.137a1.1,1.1,0,0,1,1.1,1.1h0A1.116,1.116,0,0,1,288.942,654.51Z" transform="translate(-224.528 -642.208)" fill="#a7dbfc"/>
      <path id="Path_19686" data-name="Path 19686" d="M271.593,688.21H229.8a1.1,1.1,0,0,1-1.1-1.1h0A1.105,1.105,0,0,1,229.8,686h41.8a1.105,1.105,0,0,1,1.1,1.105h0A1.119,1.119,0,0,1,271.593,688.21Z" transform="translate(-224.528 -670.35)" fill="#a7dbfc"/>
    </g>
    <g id="Group_24485" data-name="Group 24485" transform="translate(82.616 160.858)">
      <g id="Group_24482" data-name="Group 24482" transform="translate(0 0)">
        <g id="Group_24481" data-name="Group 24481">
          <path id="Path_19687" data-name="Path 19687" d="M252.1,274.526l-.594-.973a2.974,2.974,0,0,1-.412-1.5v-.858a2.394,2.394,0,0,0-1.715-2.292v-.61a.693.693,0,1,0-1.385,0v.61a2.409,2.409,0,0,0-1.715,2.292v.858a3.02,3.02,0,0,1-.412,1.5l-.594.973a.15.15,0,0,0,0,.165.173.173,0,0,0,.148.083h6.5a.173.173,0,0,0,.148-.083C252.135,274.658,252.135,274.592,252.1,274.526Z" transform="translate(-245.25 -267.6)" fill="#a7dbfc"/>
        </g>
      </g>
      <g id="Group_24484" data-name="Group 24484" transform="translate(2.383 7.536)">
        <g id="Group_24483" data-name="Group 24483">
          <path id="Path_19688" data-name="Path 19688" d="M259.7,313.3a1.23,1.23,0,0,0,1.072.693,1.183,1.183,0,0,0,1.072-.693Z" transform="translate(-259.7 -313.3)" fill="#a7dbfc"/>
        </g>
      </g>
    </g>
    <g id="Group_24487" data-name="Group 24487" transform="translate(137.919 146.477)">
      <circle id="Ellipse_614" data-name="Ellipse 614" cx="8.163" cy="8.163" r="8.163" transform="translate(0 0)" fill="#ff6302"/>
      <g id="Group_24486" data-name="Group 24486" transform="translate(5.854 4.881)">
        <path id="Path_19689" data-name="Path 19689" d="M618.409,210a2.222,2.222,0,0,1,1.2.313,2.155,2.155,0,0,1,.808.825,2.241,2.241,0,0,1,.28,1.138,3.581,3.581,0,0,1-.38,1.451,7.983,7.983,0,0,1-.907,1.534,10.259,10.259,0,0,1-1.055,1.22,1.747,1.747,0,0,1-.3.214.472.472,0,0,1-.28.066.625.625,0,0,1-.429-.214.655.655,0,0,1-.231-.445.317.317,0,0,1,.049-.165c.033-.049.083-.132.148-.214.1-.115.3-.346.627-.693a9.994,9.994,0,0,0,.66-.775l-.016-.016a1.291,1.291,0,0,1-.577.115,1.811,1.811,0,0,1-.973-.28,2.04,2.04,0,0,1-.693-.759,2.16,2.16,0,0,1-.247-1.006,2.238,2.238,0,0,1,.3-1.121,2.369,2.369,0,0,1,.825-.841A2.041,2.041,0,0,1,618.409,210Zm0,3.232a.788.788,0,0,0,.627-.264.991.991,0,0,0,.247-.693,1.048,1.048,0,0,0-.231-.676.788.788,0,0,0-.643-.28.778.778,0,0,0-.627.28.977.977,0,0,0-.247.676,1.082,1.082,0,0,0,.231.676A.789.789,0,0,0,618.409,213.232Z" transform="translate(-616.1 -210)" fill="#fff"/>
      </g>
    </g>
    <g id="Group_24495" data-name="Group 24495" transform="translate(191.086 233.517)">
      <g id="Group_24493" data-name="Group 24493" transform="translate(0)">
        <g id="Group_24488" data-name="Group 24488" transform="translate(0 8.856)">
          <path id="Path_19690" data-name="Path 19690" d="M914.181,777.072A23.213,23.213,0,0,0,903,761.9a93.9,93.9,0,0,0,10.769,16.062Z" transform="translate(-903 -761.9)" fill="#1a87d8"/>
        </g>
        <g id="Group_24489" data-name="Group 24489" transform="translate(5.118 0.247)">
          <path id="Path_19691" data-name="Path 19691" d="M941.616,735.871a41.043,41.043,0,0,1-7.5-26.171,139.52,139.52,0,0,1,7.85,26.435Z" transform="translate(-934.036 -709.7)" fill="#2a94f4"/>
        </g>
        <g id="Group_24490" data-name="Group 24490" transform="translate(10.554 0.247)">
          <path id="Path_19692" data-name="Path 19692" d="M967.61,736.119a72.112,72.112,0,0,1,.4-13.869,24.23,24.23,0,0,1,5.524-12.55A50.275,50.275,0,0,1,967,737.026Z" transform="translate(-967 -709.7)" fill="#1a87d8"/>
        </g>
        <g id="Group_24491" data-name="Group 24491" transform="translate(9.411)">
          <path id="Path_19693" data-name="Path 19693" d="M962.037,735.278A36.631,36.631,0,0,1,963.39,708.2c2.441,8.79.3,18.107-1.864,26.963Z" transform="translate(-960.07 -708.2)" fill="#b0e1ff"/>
        </g>
        <g id="Group_24492" data-name="Group 24492" transform="translate(10.769 5.92)">
          <path id="Path_19694" data-name="Path 19694" d="M969.323,762.026A22.76,22.76,0,0,1,982.317,744.1,47.512,47.512,0,0,1,968.3,763.906Z" transform="translate(-968.3 -744.1)" fill="#2a94f4"/>
        </g>
      </g>
      <path id="Path_19695" data-name="Path 19695" d="M943.993,838l-.874,14.908a1.306,1.306,0,0,1-1.3,1.3h-10.34a1.305,1.305,0,0,1-1.3-1.3l-.2-3.364L929.3,838a1.306,1.306,0,0,1,1.3-1.3h12.088a1.3,1.3,0,0,1,1.121.627h0A1.337,1.337,0,0,1,943.993,838Z" transform="translate(-924.963 -815.509)" fill="#cce9ff"/>
      <g id="Group_24494" data-name="Group 24494" transform="translate(5.013 21.818)">
        <path id="Path_19696" data-name="Path 19696" d="M947.417,841.176l-.874,14.908a1.305,1.305,0,0,1-1.3,1.3H934.9a1.306,1.306,0,0,1-1.3-1.3l-.2-3.364c4.815-1.385,9.8-7.339,13.836-12.22A1.336,1.336,0,0,1,947.417,841.176Z" transform="translate(-933.4 -840.5)" fill="#cce9ff"/>
      </g>
    </g>
    <g id="Group_24503" data-name="Group 24503" transform="translate(51.242 240.295)">
      <g id="Group_24501" data-name="Group 24501" transform="translate(0)">
        <g id="Group_24496" data-name="Group 24496" transform="translate(0 7.306)">
          <path id="Path_19697" data-name="Path 19697" d="M64.235,806.117A19.155,19.155,0,0,0,55,793.6a76.181,76.181,0,0,0,8.889,13.242Z" transform="translate(-55 -793.6)" fill="#1a87d8"/>
        </g>
        <g id="Group_24497" data-name="Group 24497" transform="translate(4.224 0.198)">
          <path id="Path_19698" data-name="Path 19698" d="M86.878,772.087a33.734,33.734,0,0,1-6.2-21.587,115.235,115.235,0,0,1,6.481,21.818Z" transform="translate(-80.613 -750.5)" fill="#2a94f4"/>
        </g>
        <g id="Group_24498" data-name="Group 24498" transform="translate(8.724 0.214)">
          <path id="Path_19699" data-name="Path 19699" d="M108.395,772.384a60.267,60.267,0,0,1,.33-11.445,19.779,19.779,0,0,1,4.552-10.34,41.623,41.623,0,0,1-5.376,22.543Z" transform="translate(-107.9 -750.6)" fill="#1a87d8"/>
        </g>
        <g id="Group_24499" data-name="Group 24499" transform="translate(7.776)">
          <path id="Path_19700" data-name="Path 19700" d="M103.778,771.645A30.2,30.2,0,0,1,104.9,749.3c2.012,7.24.231,14.941-1.55,22.246Z" transform="translate(-102.154 -749.3)" fill="#b0e1ff"/>
        </g>
        <g id="Group_24500" data-name="Group 24500" transform="translate(8.889 4.865)">
          <path id="Path_19701" data-name="Path 19701" d="M109.741,793.592A18.794,18.794,0,0,1,120.46,778.8a39.419,39.419,0,0,1-11.56,16.343Z" transform="translate(-108.9 -778.8)" fill="#2a94f4"/>
        </g>
      </g>
      <path id="Path_19702" data-name="Path 19702" d="M88.821,856.372l-.726,12.3a1.07,1.07,0,0,1-1.072,1.072H78.5a1.07,1.07,0,0,1-1.072-1.072l-.165-2.787-.561-9.515a1.07,1.07,0,0,1,1.072-1.072h9.977a1.088,1.088,0,0,1,.923.528h0A1,1,0,0,1,88.821,856.372Z" transform="translate(-73.121 -837.819)" fill="#cce9ff"/>
      <g id="Group_24502" data-name="Group 24502" transform="translate(4.139 17.992)">
        <path id="Path_19703" data-name="Path 19703" d="M91.66,858.961l-.726,12.3a1.07,1.07,0,0,1-1.072,1.072H81.337a1.07,1.07,0,0,1-1.072-1.072l-.165-2.787c3.974-1.138,8.081-6.052,11.412-10.076A1.1,1.1,0,0,1,91.66,858.961Z" transform="translate(-80.1 -858.4)" fill="#cce9ff"/>
      </g>
    </g>
  </g>
</svg>
