<svg xmlns="http://www.w3.org/2000/svg" width="12" height="12" viewBox="0 0 12 12">
  <path id="Icon_awesome-calendar" data-name="Icon awesome-calendar" d="M.321,4.5H11.679A.3.3,0,0,1,12,4.781v6.094A1.214,1.214,0,0,1,10.714,12H1.286A1.214,1.214,0,0,1,0,10.875V4.781A.3.3,0,0,1,.321,4.5ZM12,3.469V2.625A1.214,1.214,0,0,0,10.714,1.5H9.429V.281A.3.3,0,0,0,9.107,0H8.036a.3.3,0,0,0-.321.281V1.5H4.286V.281A.3.3,0,0,0,3.964,0H2.893a.3.3,0,0,0-.321.281V1.5H1.286A1.214,1.214,0,0,0,0,2.625v.844a.3.3,0,0,0,.321.281H11.679A.3.3,0,0,0,12,3.469Z" fill="#ff6302"/>
</svg>
