<svg width="22" height="22" viewBox="0 0 22 22" fill="none" xmlns="http://www.w3.org/2000/svg">
<path d="M14.2487 1.59447C14.1198 1.38805 14.0063 1.21576 13.9021 1.0386C13.678 0.655017 13.7749 0.264932 14.1335 0.0845187C14.4921 -0.0958951 14.9494 0.01788 15.1863 0.374644C15.6553 1.08221 16.1154 1.79493 16.5666 2.51279C16.841 2.95407 16.7313 3.29783 16.2309 3.51888C15.4031 3.8854 14.5671 4.2381 13.7274 4.5843C13.2645 4.77609 12.8501 4.66557 12.6663 4.33074C12.4733 3.97886 12.6407 3.60828 13.0944 3.39861C13.3761 3.26939 13.6633 3.1548 14.0649 2.97602C13.6377 2.87362 13.3212 2.77935 12.9956 2.72165C7.91071 1.82283 2.84229 4.7834 1.73092 9.27506C1.19398 11.4408 1.57999 13.4644 2.75997 15.3994C2.89077 15.6139 2.96761 15.9276 2.89077 16.1454C2.82766 16.3242 2.50019 16.5363 2.28798 16.5379C2.05107 16.5379 1.68976 16.3705 1.59463 16.1893C1.12264 15.2913 0.580214 14.3949 0.319521 13.4425C-0.817464 9.2905 1.14276 5.08328 5.1995 2.78991C7.2512 1.63023 9.51145 1.14181 11.9309 1.2694C12.6828 1.31247 13.4255 1.47501 14.2487 1.59447Z" fill="#FF6302"/>
<path d="M7.56902 20.2279C7.68149 20.4087 7.80037 20.5888 7.90735 20.7754C8.12406 21.1534 8.01434 21.5516 7.65223 21.7236C7.29013 21.8955 6.84939 21.7722 6.6089 21.4097C6.14744 20.7137 5.69298 20.0143 5.24553 19.3113C4.95293 18.8498 5.06265 18.5107 5.59026 18.2779C6.40591 17.9188 7.22673 17.5692 8.05274 17.2291C8.53372 17.0296 8.97537 17.148 9.15002 17.4944C9.32467 17.8407 9.15002 18.2049 8.6855 18.4174C8.4057 18.5456 8.12132 18.6664 7.74916 18.8295C8.86473 19.1385 9.91171 19.2821 10.9797 19.235C13.5282 19.115 15.7346 18.282 17.5351 16.667C20.5699 13.9424 21.1771 9.81621 19.0466 6.46787C18.839 6.14341 18.689 5.83113 19.0054 5.50424C19.3812 5.11571 19.9308 5.2025 20.2719 5.71027C20.997 6.78611 21.4746 7.97871 21.6773 9.21921C22.0268 11.2865 21.6252 13.3987 20.5308 15.25C19.4364 17.1012 17.7059 18.5953 15.5901 19.5157C13.1103 20.6018 10.517 20.837 7.83146 20.2222C7.77293 20.2092 7.71258 20.1978 7.64858 20.1889C7.63943 20.1849 7.62572 20.1987 7.56902 20.2279Z" fill="#FF6302"/>
<path d="M10.8966 5.26221C14.5729 5.28802 17.1582 8.84307 15.4467 12.1783C14.5641 13.9012 13.1421 15.1962 11.5356 16.3229C11.164 16.5836 10.7086 16.6202 10.3361 16.3621C8.51514 15.1021 6.89368 13.6631 6.10987 11.6003C4.93505 8.50081 7.39857 5.26221 10.8966 5.26221ZM10.8789 6.64126C8.70668 6.55048 6.60946 8.65237 7.42858 11.0291C8.00849 12.7112 9.32896 13.8863 10.7448 14.9663C10.7975 14.9898 10.8556 15.0005 10.9138 14.9976C10.972 14.9947 11.0286 14.9782 11.0784 14.9497C12.345 13.987 13.4854 12.9169 14.1819 11.5029C15.4176 8.99297 13.2798 6.52967 10.8789 6.64126Z" fill="#FF6302"/>
<path d="M10.8774 11.2759C10.4993 11.2662 10.1403 11.1448 9.87419 10.9366C9.60811 10.7285 9.45514 10.4495 9.44669 10.1568C9.44104 9.54526 10.1446 9.00536 10.9226 9.02109C11.3 9.0352 11.6568 9.1587 11.9219 9.36703C12.187 9.57536 12.341 9.85326 12.3533 10.1454C12.3486 10.4461 12.1911 10.7332 11.9149 10.9448C11.6387 11.1563 11.2661 11.2753 10.8774 11.2759Z" fill="#FF6302"/>
</svg>
