<svg xmlns="http://www.w3.org/2000/svg" width="24.487" height="21.7" viewBox="0 0 24.487 21.7">
  <g id="Group_139" data-name="Group 139" transform="translate(0)">
    <path id="Path_569" data-name="Path 569" d="M197.973,389.011a1.019,1.019,0,0,1,.041,1.441,1.006,1.006,0,0,1-.714.323,1.021,1.021,0,0,1-.726-.278,10.31,10.31,0,0,1-1.212-1.355,1,1,0,0,1-.2-.755,1.02,1.02,0,0,1,1.824-.474,8.639,8.639,0,0,0,.983,1.1Z" transform="translate(-190.382 -371.751)" fill="#ff6302"/>
    <path id="Path_570" data-name="Path 570" d="M369.178,146.562a1.014,1.014,0,0,1,.282,1.416,1.011,1.011,0,0,1-1.412.282l-4.407-2.936a.853.853,0,0,1-.339-.635v-5.856a1.02,1.02,0,0,1,2.041,0V143.6a.851.851,0,0,0,.339.634Z" transform="translate(-350.685 -133.702)" fill="#ff6302"/>
    <path id="Path_571" data-name="Path 571" d="M95.71,59.085a10.606,10.606,0,0,1,3.088-6.21,10.847,10.847,0,1,1,3.44,17.663,1,1,0,0,1-.547-.555,1.031,1.031,0,0,1,0-.78,1.028,1.028,0,0,1,1.339-.543,8.7,8.7,0,0,0,3.432.694,8.809,8.809,0,1,0-6.228-15.039,8.585,8.585,0,0,0-2.473,4.806c-.026.224.082.276.242.117l.844-.842a1.019,1.019,0,0,1,1.441,1.441l-3,3.006a.816.816,0,0,1-1.154,0l-3.006-3.006a1.019,1.019,0,0,1,0-1.441,1.015,1.015,0,0,1,1.445,0l.807.806c.16.159.307.106.329-.118Z" transform="translate(-92.831 -49.696)" fill="#ff6302"/>
  </g>
</svg>
