<svg xmlns="http://www.w3.org/2000/svg" width="17.75" height="20.5" viewBox="0 0 17.75 20.5">
  <g id="Vector" fill="none">
    <path d="M17.5,6.7A8.626,8.626,0,0,0,8.88,0H8.87A8.624,8.624,0,0,0,.25,6.69C-.92,11.85,2.24,16.22,5.1,18.97a5.422,5.422,0,0,0,7.55,0C15.51,16.22,18.67,11.86,17.5,6.7ZM8.88,11.71a3.15,3.15,0,1,1,3.15-3.15A3.15,3.15,0,0,1,8.88,11.71Z" stroke="none"/>
    <path d="M 8.869978904724121 1.799999237060547 C 7.356128692626953 1.799999237060547 5.858928680419922 2.259090423583984 4.654189109802246 3.09269905090332 C 3.283578872680664 4.04109001159668 2.392329216003418 5.38560962677002 2.00541877746582 7.088040351867676 C 1.019279479980469 11.43717956542969 3.822399139404297 15.24444007873535 6.348058700561523 17.67296981811523 C 7.03632926940918 18.33526039123535 7.935508728027344 18.70000076293945 8.879979133605957 18.70000076293945 C 9.824468612670898 18.70000076293945 10.71792888641357 18.33736991882324 11.3957691192627 17.67889976501465 L 11.40237903594971 17.67250061035156 C 12.99826908111572 16.13798904418945 14.19675922393799 14.55169010162354 14.96453857421875 12.95765018463135 C 15.91587924957275 10.98252010345459 16.17830848693848 9.011059761047363 15.7447395324707 7.098919868469238 C 15.35704898834229 5.39307975769043 14.46634864807129 4.046379089355469 13.09738922119141 3.096220016479492 C 11.89306831359863 2.260339736938477 10.39529895782471 1.799999237060547 8.879979133605957 1.799999237060547 L 8.869978904724121 1.799999237060547 M 8.879979133605957 13.51000022888184 C 6.150539398193359 13.51000022888184 3.92997932434082 11.2894401550293 3.92997932434082 8.560000419616699 C 3.92997932434082 5.830559730529785 6.150539398193359 3.610000610351562 8.879979133605957 3.610000610351562 C 11.60941886901855 3.610000610351562 13.82997894287109 5.830559730529785 13.82997894287109 8.560000419616699 C 13.82997894287109 11.2894401550293 11.60941886901855 13.51000022888184 8.879979133605957 13.51000022888184 M 8.869978904724121 0 C 8.879979133605957 0 8.879979133605957 0 8.879979133605957 0 C 12.41997909545898 0 16.44997978210449 2.079999923706055 17.49997901916504 6.699999809265137 C 18.66997909545898 11.85999965667725 15.50997924804688 16.21999931335449 12.64997863769531 18.96999931335449 C 11.59997940063477 19.98999977111816 10.2399787902832 20.5 8.879979133605957 20.5 C 7.519979476928711 20.5 6.159978866577148 19.98999977111816 5.099979400634766 18.96999931335449 C 2.239978790283203 16.21999931335449 -0.9200210571289062 11.85000038146973 0.2499790191650391 6.689999580383301 C 1.299978256225586 2.069999694824219 5.33997917175293 0 8.869978904724121 0 Z M 8.879979133605957 11.71000003814697 C 10.61997890472412 11.71000003814697 12.02997970581055 10.30000019073486 12.02997970581055 8.560000419616699 C 12.02997970581055 6.819999694824219 10.61997890472412 5.409999847412109 8.879979133605957 5.409999847412109 C 7.139979362487793 5.409999847412109 5.729978561401367 6.819999694824219 5.729978561401367 8.560000419616699 C 5.729978561401367 10.30000019073486 7.139979362487793 11.71000003814697 8.879979133605957 11.71000003814697 Z" stroke="none" fill="#ff6302"/>
  </g>
</svg>
