<svg xmlns="http://www.w3.org/2000/svg" width="23.002" height="21.526" viewBox="0 0 23.002 21.526">
  <g id="Group_22891" data-name="Group 22891" transform="translate(-139.5 -460.921)">
    <g id="noun-hand-2582531" transform="translate(141 472.035)">
      <g id="Path_15515" data-name="Path 15515" transform="translate(-108.223 -278.392)" fill="none" stroke-linecap="round" stroke-linejoin="round">
        <path d="M127.871,278.568a2.052,2.052,0,0,0-2.193.336l-3.938,3.251a.777.777,0,0,1-.518.153h-3.368s-.422-.071-.422-.443a.437.437,0,0,1,.452-.444h2.94s.908-.087.908-.815c0,0,.079-.837-.952-.837l-5.785-.1a8.009,8.009,0,0,0-3.881,1.078l-2.892,2.279,4.324,4.274,1.13-1.134a.591.591,0,0,1,.47-.26h6.926a3.526,3.526,0,0,0,2.279-1l4.751-5.4a.636.636,0,0,0-.232-.94Z" stroke="none"/>
        <path d="M 127.0486831665039 278.3915710449219 C 126.6601486206055 278.3915405273438 126.1734619140625 278.5032043457031 125.677604675293 278.9041748046875 L 121.7397918701172 282.1556091308594 C 121.7397918701172 282.1556091308594 121.5774230957031 282.3088073730469 121.2222747802734 282.3088073730469 L 117.854133605957 282.3089599609375 C 117.854133605957 282.3089599609375 117.4326248168945 282.2377319335938 117.4326248168945 281.8661499023438 C 117.4326248168945 281.8661499023438 117.4326248168945 281.4220581054688 117.8845291137695 281.4220581054688 L 120.8250122070312 281.4220581054688 C 120.8250122070312 281.4220581054688 121.7330093383789 281.3354187011719 121.7330093383789 280.6074523925781 C 121.7330093383789 280.6074523925781 121.8121795654297 279.7705078125 120.78076171875 279.7705078125 L 114.9956588745117 279.6728210449219 C 114.9956741333008 279.6724853515625 112.8754730224609 279.6464233398438 111.1150436401367 280.7511901855469 L 108.2230224609375 283.030517578125 L 112.5468597412109 287.3045349121094 L 113.6773300170898 286.1701049804688 C 113.6773300170898 286.1701049804688 113.8396987915039 285.9100036621094 114.1468505859375 285.9100036621094 L 121.0731048583984 285.9100036621094 C 121.0731048583984 285.9100036621094 122.518440246582 285.8587341308594 123.3517990112305 284.9068908691406 L 128.1029052734375 279.5083312988281 C 128.1030578613281 279.5083312988281 128.4913024902344 278.9890441894531 127.8710632324219 278.5685119628906 L 127.8708190917969 278.5683898925781 C 127.8708190917969 278.5683898925781 127.5374526977539 278.3916015625 127.0486831665039 278.3915710449219 M 127.048583984375 276.8915405273438 C 127.0486221313477 276.8915405273438 127.0487594604492 276.8915405273438 127.0488052368164 276.8915405273438 C 127.8318099975586 276.8916320800781 128.3941955566406 277.1496276855469 128.5633239746094 277.2378234863281 C 128.6148071289062 277.2645874023438 128.6648254394531 277.29443359375 128.7128448486328 277.3269653320312 C 129.5613403320312 277.9022521972656 129.912109375 278.8338623046875 129.6282958984375 279.7582397460938 C 129.5246276855469 280.0958862304688 129.3747253417969 280.3428955078125 129.2077331542969 280.5234069824219 L 124.4778289794922 285.8978881835938 C 123.2551498413086 287.2944030761719 121.3405532836914 287.4014587402344 121.1262817382812 287.4090576171875 C 121.1085662841797 287.4096984863281 121.0908355712891 287.4100036621094 121.0731048583984 287.4100036621094 L 114.5593719482422 287.4100036621094 L 113.609375 288.3633422851562 C 113.0262832641602 288.9484558105469 112.0798568725586 288.9520874023438 111.4923629760742 288.3713073730469 L 107.1685180664062 284.0973205566406 C 106.8626556396484 283.7949523925781 106.7012786865234 283.3758850097656 106.7253875732422 282.9464721679688 C 106.7494812011719 282.5170593261719 106.9567413330078 282.11865234375 107.2945251464844 281.8524475097656 L 110.1865386962891 279.5730895996094 C 110.2285842895508 279.5399780273438 110.2723693847656 279.5091247558594 110.3177108764648 279.4806518554688 C 112.3013458251953 278.23583984375 114.5517120361328 278.1727600097656 114.9826889038086 278.1727600097656 L 115.0126724243164 278.1729125976562 C 115.0139312744141 278.1729431152344 115.0197296142578 278.1730041503906 115.02099609375 278.1730346679688 L 120.7956466674805 278.2705383300781 C 121.7593460083008 278.2747497558594 122.3360137939453 278.6864013671875 122.6504592895508 279.031982421875 C 122.7276458740234 279.1168212890625 122.7948989868164 279.2035827636719 122.8534164428711 279.2908630371094 L 124.7225494384766 277.7474975585938 C 124.7264938354492 277.7442626953125 124.7304534912109 277.7409973144531 124.7344360351562 277.73779296875 C 125.419059753418 277.1841735839844 126.2192840576172 276.8915405273438 127.048583984375 276.8915405273438 Z" stroke="none" fill="#ff6302"/>
      </g>
    </g>
    <g id="Group_22890" data-name="Group 22890" transform="translate(146.628 461.703)">
      <g id="noun-rupee-bag-258052" transform="translate(0 0)">
        <path id="Path_15513" data-name="Path 15513" d="M132.364,193.6c-.087-.349-.218-2.286-3.457-3.709,0,0-.039-.015-.095-.035a3.163,3.163,0,0,1-3.145.166A5.191,5.191,0,0,0,123,192.392c-2.371,4.758,3.452,4.587,3.452,4.587,2.847.066,6.523.2,5.912-3.381Z" transform="translate(-122.433 -186.669)" fill="none" stroke="#ff6302" stroke-width="1.5"/>
        <path id="Path_15514" data-name="Path 15514" d="M240.777,47.9s1.669.9,2.765-.147a3.81,3.81,0,0,1,.437-2.389c.164-.213.115-.818-.605-.344a2.818,2.818,0,0,1-2.765.344s-.965-.262-.605.687.775,1.849.775,1.849Z" transform="translate(-237.341 -44.842)" fill="none" stroke="#ff6302" stroke-width="1.5"/>
      </g>
      <g id="vuesax_bold_ranking" data-name="vuesax/bold/ranking" transform="translate(2.038 5.166)">
        <g id="ranking" transform="translate(0)">
          <path id="Vector" d="M0,0H5.923V4.31H0Z" fill="none" opacity="0"/>
          <path id="Vector-2" data-name="Vector" d="M2.171.264,2.5.916a.4.4,0,0,0,.262.192l.59.1c.378.064.466.336.195.607l-.459.461a.4.4,0,0,0-.1.336l.131.57c.1.449-.136.624-.533.39l-.553-.328a.4.4,0,0,0-.365,0l-.555.326c-.4.234-.637.059-.533-.39l.131-.57a.408.408,0,0,0-.1-.336L.157,1.817c-.271-.271-.183-.545.195-.607l.59-.1A.408.408,0,0,0,1.2.918L1.53.267C1.7-.089,2-.089,2.171.264Z" transform="translate(1.111 0.124)" fill="#ff6302"/>
        </g>
      </g>
    </g>
  </g>
</svg>
