<svg width="22" height="22" viewBox="0 0 22 22" fill="none" xmlns="http://www.w3.org/2000/svg">
<path d="M16.6997 13.0232C16.7111 13.0924 16.7058 13.1301 16.7201 13.1404C17.2415 13.5398 17.2015 14.1153 17.1963 14.6963C17.1827 16.0714 17.1963 17.4481 17.191 18.8232C17.191 19.4954 17.078 19.6377 16.4609 19.8625C16.3675 19.8971 16.2703 20.0591 16.2582 20.1723C16.2273 20.4577 16.2582 20.7486 16.2386 21.0372C16.2115 21.4987 15.9305 21.7825 15.4852 21.7911C14.8824 21.8022 14.2797 21.8037 13.6769 21.7911C13.2339 21.7817 12.9604 21.4924 12.9325 21.0277C12.9178 20.7921 12.9178 20.5557 12.9325 20.3201C12.9566 19.9663 12.824 19.8405 12.4766 19.8421C10.3429 19.8555 8.20833 19.8484 6.07228 19.8484C5.60816 19.8484 5.14328 19.8625 4.67915 19.8484C4.36119 19.8366 4.20824 19.9459 4.23838 20.2981C4.25119 20.5338 4.25119 20.77 4.23838 21.0057C4.22708 21.4845 3.94755 21.7864 3.48492 21.7919C2.88216 21.8019 2.2794 21.8019 1.67664 21.7919C1.47943 21.7936 1.28921 21.7158 1.14562 21.5748C1.00202 21.4337 0.916134 21.2403 0.905853 21.0348C0.894551 20.8647 0.894551 20.6939 0.905853 20.5238C0.920169 20.166 0.957841 19.846 0.453781 19.7831C0.162948 19.747 0.00170868 19.4301 0.00170868 19.0921C0.00170868 17.3356 -0.00582622 15.58 0.0107498 13.8244C0.0107498 13.6569 0.132056 13.4651 0.245074 13.3275C0.652692 12.8345 1.08141 12.3596 1.53047 11.8462C1.37375 11.7464 1.15374 11.6104 0.935991 11.4626C0.780026 11.3549 0.59091 11.2385 0.734066 10.9963C0.865167 10.7754 1.04223 10.8352 1.22532 10.9374C1.99459 11.3651 1.99535 11.3627 2.30426 10.5089C2.43687 10.1417 2.56119 9.77141 2.70359 9.40818C2.89664 8.8996 3.23294 8.46406 3.6681 8.15905C4.10326 7.85403 4.61683 7.69388 5.14102 7.69972C5.48007 7.69972 5.81912 7.69028 6.15742 7.69972C6.38346 7.70758 6.4784 7.60695 6.47237 7.3758C6.46634 7.14465 6.47237 6.90407 6.47237 6.6682C6.4784 6.04473 6.71423 5.79785 7.32226 5.79156C7.83687 5.78606 8.35223 5.77663 8.86609 5.79156C9.15918 5.801 9.29028 5.687 9.34303 5.38273C9.83503 2.54133 11.9583 0.438191 14.7061 0.0545158C16.2898 -0.159853 17.8923 0.262851 19.1881 1.23677C20.4839 2.21068 21.3759 3.66278 21.6828 5.2981C21.9897 6.93343 21.6886 8.62935 20.8406 10.0414C19.9926 11.4534 18.6613 12.4757 17.1172 12.9006C16.9785 12.9399 16.8474 12.98 16.6997 13.0232ZM15.6509 11.9815C15.9712 12.4611 16.0397 12.5012 16.329 12.4571C19.3881 11.9956 21.5136 9.01743 21.1858 5.91421C20.8505 2.73553 18.0115 0.129993 14.6526 0.657547C12.2694 1.03257 10.4242 2.89985 9.91264 5.36386C9.86291 5.59973 9.87271 5.75147 10.1553 5.81515C10.532 5.90006 10.7113 6.1886 10.7121 6.59194C10.7121 6.86711 10.6894 7.14622 10.7256 7.4159C10.7399 7.51968 10.8853 7.67377 10.981 7.68321C11.3299 7.71544 11.6833 7.69579 12.0359 7.69736C12.5667 7.69313 13.086 7.85846 13.5241 8.17117C13.9622 8.48387 14.2982 8.92897 14.4869 9.4467C14.6925 9.99705 14.8832 10.5474 15.0851 11.0978C15.1318 11.2259 15.1959 11.3478 15.2667 11.5042C15.5982 11.2983 15.8868 11.1166 16.1776 10.9374C16.3517 10.8297 16.537 10.7581 16.6658 10.9885C16.7947 11.2188 16.6402 11.3509 16.4692 11.4602L15.6509 11.9815ZM8.59485 15.9912H1.13566C0.545701 15.9912 0.545702 15.9912 0.544948 16.6241C0.544948 17.3451 0.553236 18.066 0.538167 18.7862C0.530633 19.1384 0.650432 19.269 0.999281 19.2658C2.53105 19.2501 4.06358 19.2658 5.59535 19.2556C6.57484 19.2477 6.44976 19.4584 6.46935 18.3396C6.47463 18.033 6.37141 17.93 6.0753 17.9332C4.86977 17.9473 3.66425 17.9434 2.45872 17.9332C2.23269 17.9332 1.88233 18.0472 1.87555 17.6438C1.86877 17.2216 2.22741 17.3569 2.44817 17.3561C6.54194 17.3493 10.6357 17.3477 14.7295 17.3514C14.8425 17.3514 14.9676 17.3262 15.0648 17.3679C15.1619 17.4095 15.3013 17.5314 15.2908 17.6037C15.2621 17.7327 15.1871 17.8452 15.0813 17.9182C15.0128 17.9685 14.8869 17.9363 14.7867 17.9363H11.5469C10.6985 17.9363 10.7113 17.9363 10.703 18.8412C10.703 19.1699 10.8025 19.2642 11.1121 19.2619C12.7946 19.2485 14.4778 19.2454 16.1603 19.2619C16.5197 19.2619 16.6229 19.1204 16.6184 18.7799C16.6093 18.033 16.6184 17.2861 16.6184 16.5392C16.6184 16.0022 16.6048 15.9888 16.091 15.9888C13.592 15.9899 11.0933 15.9907 8.59485 15.9912ZM2.5092 11.5278H14.575C14.5351 11.3706 14.5125 11.2487 14.4718 11.1347C14.3151 10.6763 14.1568 10.2227 13.9911 9.77456C13.6392 8.81144 12.9521 8.30354 11.9801 8.2941C9.71975 8.2713 7.45939 8.27917 5.20506 8.2941C4.50661 8.2941 3.84884 8.53547 3.49999 9.18568C3.11347 9.89721 2.85504 10.6905 2.5092 11.5278ZM11.852 15.4047C12.2936 15.4047 12.6432 15.3858 12.9905 15.4102C13.2821 15.4306 13.3815 15.3182 13.4094 15.0171C13.4915 14.1483 14.1305 13.535 14.96 13.4997C15.223 13.4887 15.4874 13.4997 15.7504 13.4894C15.8522 13.4786 15.953 13.4592 16.0518 13.4313L16.0992 13.3149C15.8348 13.0586 15.5507 12.8212 15.3119 12.5405C15.058 12.2409 14.7739 12.1316 14.3904 12.1324C10.5614 12.145 6.73231 12.1655 2.90401 12.1214C1.94185 12.1096 1.64876 12.8935 1.09572 13.4226C1.39376 13.4804 1.69685 13.5049 1.99987 13.4957C3.06751 13.506 3.63637 14.0327 3.79685 15.1381C3.81042 15.2309 3.90309 15.3819 3.96487 15.385C4.39284 15.4062 4.8223 15.396 5.32561 15.396C5.18472 15.0815 5.08225 14.8622 4.98731 14.6389C4.7334 14.0406 5.04759 13.5044 5.67672 13.5012C7.62314 13.4923 9.56881 13.4923 11.5137 13.5012C12.127 13.5012 12.439 14.0178 12.2069 14.6067C12.1059 14.8465 11.9944 15.0768 11.8483 15.4047H11.852ZM8.59937 14.0854C7.85948 14.0854 7.11958 14.0917 6.37969 14.0854C5.27739 14.0728 5.35801 14.0429 5.82666 15.0619C5.94646 15.3213 6.09564 15.4165 6.37442 15.4133C7.69146 15.3976 9.01151 15.4063 10.3248 15.4063C11.2063 15.4063 11.2063 15.4063 11.5846 14.5556C11.7526 14.1782 11.7044 14.0893 11.3088 14.0838C10.4016 14.0823 9.49824 14.0854 8.5956 14.0854H8.59937ZM8.55943 19.2587C8.81033 19.2587 9.06048 19.2634 9.31289 19.2587C10.2668 19.2367 10.1485 19.4458 10.1696 18.3656C10.1756 18.0511 10.0874 17.9214 9.76496 17.9332C9.1524 17.956 8.53834 17.9284 7.92503 17.9426C6.87019 17.9662 7.04876 17.7067 7.02088 18.9317C7.01485 19.1958 7.1226 19.2705 7.35692 19.2627C7.75249 19.2485 8.15558 19.2579 8.55567 19.2587H8.55943ZM8.57526 7.69658H9.32871C10.2374 7.69658 10.2329 7.69658 10.1643 6.73817C10.1462 6.47636 10.0437 6.36944 9.78757 6.37415C9.17275 6.38516 8.55718 6.37415 7.9416 6.37887C6.91314 6.39224 7.03294 6.19096 7.02088 7.38051C7.02088 7.61638 7.10527 7.70601 7.33131 7.69972C7.74194 7.68793 8.15709 7.69658 8.57149 7.69658H8.57526ZM1.85294 15.4015C2.21611 15.4015 2.58003 15.3945 2.94244 15.4015C3.17978 15.4078 3.25512 15.3009 3.2182 15.0658C3.13608 14.5359 2.70585 14.1066 2.192 14.0854C1.73993 14.0673 1.28785 14.0783 0.835781 14.0854C0.398778 14.0854 0.5344 14.4534 0.561524 14.6617C0.591662 14.9172 0.315899 15.3504 0.835028 15.3968C1.17107 15.4283 1.51088 15.4039 1.84918 15.4039L1.85294 15.4015ZM13.9971 15.4015C14.8071 15.4015 15.5959 15.4228 16.3833 15.3921C16.7645 15.3779 16.6199 15.01 16.6093 14.8048C16.5965 14.5595 16.7939 14.2065 16.3833 14.087C16.3708 14.0854 16.3581 14.0854 16.3456 14.087C15.8807 14.087 15.4151 14.065 14.9525 14.0948C14.3339 14.1334 13.9135 14.6971 13.9933 15.4023L13.9971 15.4015ZM2.57551 21.207H2.76236C3.82549 21.207 3.66651 21.2856 3.68986 20.2022C3.69438 19.949 3.6002 19.8445 3.36437 19.8468C2.83695 19.8508 2.31406 19.8397 1.79041 19.857C1.6902 19.857 1.51163 19.9632 1.50862 20.0277C1.49129 20.3752 1.45738 20.747 1.56136 21.0631C1.59903 21.1787 2.00062 21.1692 2.23947 21.2038C2.35127 21.2131 2.46356 21.2141 2.57551 21.207ZM14.6089 19.8468C14.5464 19.8468 14.4838 19.8468 14.4206 19.8468C13.3243 19.8696 13.5285 19.6691 13.5013 20.8689C13.4961 21.1103 13.6144 21.1991 13.8193 21.2007C14.3331 21.2038 14.8465 21.2038 15.3594 21.2007C15.565 21.2007 15.6841 21.1063 15.6773 20.8665C15.6464 19.6778 15.8717 19.8657 14.7589 19.8445L14.6089 19.8468Z" fill="#FF6302"/>
<path d="M15.8069 6.11235L16.6154 5.85368C16.8263 5.78607 17.0674 5.71531 17.1563 6.00071C17.2437 6.27352 17.0057 6.34743 16.8165 6.41583C16.4398 6.55185 16.0586 6.68314 15.6788 6.81287C15.391 6.91115 15.2313 6.77985 15.2267 6.48187C15.2139 5.72396 15.2079 4.96526 15.232 4.20813C15.2358 4.08548 15.4061 3.97226 15.4995 3.84961C15.5922 3.96518 15.7557 4.07525 15.7647 4.1979C15.7971 4.65313 15.7775 5.11149 15.7813 5.56907C15.7828 5.72317 15.7956 5.87648 15.8069 6.11235Z" fill="#FF6302"/>
<path d="M19.7558 4.89991C19.5297 5.01548 19.4084 5.1287 19.3037 5.11455C19.2133 5.10275 19.0603 4.91799 19.0776 4.85745C19.1131 4.7403 19.2434 4.58857 19.3466 4.57834C19.4499 4.56812 19.5508 4.72851 19.7558 4.89991Z" fill="#FF6302"/>
<path d="M13.9466 2.73625C13.7394 2.87462 13.6317 3.00277 13.527 3.00042C13.435 3.00042 13.2632 2.82981 13.2753 2.76455C13.3002 2.64269 13.4162 2.47679 13.5179 2.45557C13.6196 2.43434 13.7342 2.59001 13.9466 2.73625Z" fill="#FF6302"/>
<path d="M19.6352 6.76343C19.7663 6.99929 19.8891 7.11801 19.8846 7.23516C19.8846 7.32243 19.7158 7.46631 19.6201 7.47103C19.5244 7.47574 19.3753 7.31378 19.376 7.22808C19.3768 7.10779 19.4988 6.99065 19.6352 6.76343Z" fill="#FF6302"/>
<path d="M16.1286 2.21751C15.9576 2.35981 15.8476 2.51706 15.7715 2.50055C15.657 2.47617 15.5651 2.33072 15.4641 2.23716C15.5613 2.14203 15.6479 1.99737 15.7602 1.96985C15.8386 1.95019 15.9531 2.0925 16.1286 2.21751Z" fill="#FF6302"/>
<path d="M18.3008 3.00282C18.1072 3.14513 17.9995 3.2835 17.8925 3.28508C17.8058 3.28508 17.6378 3.10503 17.6499 3.03034C17.6689 2.96605 17.7023 2.90742 17.7474 2.85929C17.7925 2.81117 17.8479 2.77494 17.909 2.75359C17.9889 2.73394 18.1057 2.87153 18.3008 3.00282Z" fill="#FF6302"/>
<path d="M18.8381 9.89402C18.6964 9.67781 18.5661 9.56381 18.5638 9.44745C18.5638 9.35939 18.7145 9.20608 18.8132 9.19664C18.8953 9.18799 19.0618 9.33973 19.0664 9.42701C19.0716 9.54415 18.9571 9.66759 18.8381 9.89402Z" fill="#FF6302"/>
<path d="M11.904 3.99658C12.0298 4.20179 12.1617 4.32443 12.1414 4.40542C12.112 4.52178 11.9718 4.60747 11.8791 4.70654C11.791 4.61219 11.6358 4.51942 11.6335 4.42271C11.6305 4.31343 11.7661 4.201 11.904 3.99658Z" fill="#FF6302"/>
</svg>
