<svg xmlns="http://www.w3.org/2000/svg" xmlns:xlink="http://www.w3.org/1999/xlink" width="232.242" height="232.153" viewBox="0 0 232.242 232.153">
  <defs>
    <linearGradient id="linear-gradient" x1="0.5" y1="1" x2="0.5" gradientUnits="objectBoundingBox">
      <stop offset="0.21" stop-color="#fff" stop-opacity="0"/>
      <stop offset="1" stop-color="#fff" stop-opacity="0.2"/>
    </linearGradient>
    <clipPath id="clip-path">
      <path id="Path_19624" data-name="Path 19624" d="M36.758,185.807v22.945a1.481,1.481,0,0,1-.084.464,2.021,2.021,0,0,1-.116.274,1.723,1.723,0,0,1-.613.683L5.057,228a.548.548,0,0,1-.613.028.437.437,0,0,1-.125-.149.734.734,0,0,1-.079-.353V204.581a1.393,1.393,0,0,1,.079-.464,1.858,1.858,0,0,1,.739-.957l30.879-17.827h0a.553.553,0,0,1,.613-.033.413.413,0,0,1,.125.153A.734.734,0,0,1,36.758,185.807Z" transform="translate(-4.239 -185.223)" fill="none"/>
    </clipPath>
    <clipPath id="clip-path-2">
      <path id="Path_19632" data-name="Path 19632" d="M457.768,63.1V89.963a1.742,1.742,0,0,1-.1.539,3.139,3.139,0,0,1-.135.32,2.076,2.076,0,0,1-.72.8l-36.169,20.9a.646.646,0,0,1-.72.033.465.465,0,0,1-.149-.177.892.892,0,0,1-.088-.413V85.077a1.622,1.622,0,0,1,.093-.52,1.889,1.889,0,0,1,.139-.334,2.007,2.007,0,0,1,.725-.8l36.16-20.879h0a.65.65,0,0,1,.725-.037.512.512,0,0,1,.149.177A.929.929,0,0,1,457.768,63.1Z" transform="translate(-419.689 -62.41)" fill="none"/>
    </clipPath>
    <clipPath id="clip-path-3">
      <path id="Path_19641" data-name="Path 19641" d="M240.819,48.05v57.039a3.622,3.622,0,0,1-.2,1.143,4.819,4.819,0,0,1-.293.678,4.283,4.283,0,0,1-1.523,1.7l-76.774,44.33a1.356,1.356,0,0,1-1.528.074,1.082,1.082,0,0,1-.311-.376,1.909,1.909,0,0,1-.186-.878V94.717a3.648,3.648,0,0,1,.19-1.11,4.94,4.94,0,0,1,.3-.711,4.269,4.269,0,0,1,1.537-1.7L238.785,46.87h0a1.394,1.394,0,0,1,1.533-.074,1.082,1.082,0,0,1,.311.376A1.909,1.909,0,0,1,240.819,48.05Z" transform="translate(-159.998 -46.601)" fill="none"/>
    </clipPath>
  </defs>
  <g id="Слой_2" data-name="Слой 2" transform="translate(-1.669)">
    <g id="Слой_1" data-name="Слой 1" transform="translate(1.669)">
      <g id="Mobile" transform="translate(22.599 118.017)">
        <path id="Path_19580" data-name="Path 19580" d="M100.379,375.84,53.03,348.505c-4.008-2.322-3.507-6.359,1.124-9.034l114.374-66.022c4.645-2.675,11.635-2.963,15.644-.65l47.349,27.335c4.009,2.322,3.507,6.363-1.124,9.034L116.023,375.194C111.392,377.865,104.388,378.158,100.379,375.84Z" transform="translate(-50.323 -263.269)" fill="#d6d8e5" opacity="0.4"/>
        <path id="Path_19581" data-name="Path 19581" d="M113.292,368.087,65.948,340.752c-4.013-2.322-3.507-6.363,1.124-9.034l114.37-66.036c4.645-2.671,11.612-2.963,15.648-.646l47.345,27.335c4.008,2.322,3.507,6.359-1.124,9.034l-114.37,66.031C124.31,370.112,117.305,370.4,113.292,368.087Z" transform="translate(-57.24 -259.111)" fill="#b1b4c4"/>
        <path id="Path_19582" data-name="Path 19582" d="M63.24,416.247V411.89l5.114,1.928Z" transform="translate(-57.24 -338.591)" fill="#b1b4c4"/>
        <path id="Path_19583" data-name="Path 19583" d="M454.484,328.98v-4.19l-4.064,2.62Z" transform="translate(-264.582 -291.948)" fill="#b1b4c4"/>
        <path id="Path_19584" data-name="Path 19584" d="M113.292,360.139,65.948,332.8c-4.013-2.322-3.507-6.359,1.124-9.034l114.37-66.031c4.645-2.675,11.612-2.963,15.648-.65l47.345,27.335c4.008,2.322,3.507,6.363-1.124,9.034l-114.37,66.036C124.31,362.164,117.305,362.457,113.292,360.139Z" transform="translate(-57.24 -254.856)" fill="#616e84"/>
        <ellipse id="Ellipse_601" data-name="Ellipse 601" cx="0.506" cy="0.878" rx="0.506" ry="0.878" transform="translate(13.104 82.284) rotate(-30)" fill="#757b89"/>
        <ellipse id="Ellipse_602" data-name="Ellipse 602" cx="0.506" cy="0.878" rx="0.506" ry="0.878" transform="translate(15.384 83.602) rotate(-30)" fill="#757b89"/>
        <ellipse id="Ellipse_603" data-name="Ellipse 603" cx="0.506" cy="0.878" rx="0.506" ry="0.878" transform="translate(17.663 84.914) rotate(-30)" fill="#757b89"/>
        <ellipse id="Ellipse_604" data-name="Ellipse 604" cx="0.506" cy="0.878" rx="0.506" ry="0.878" transform="translate(19.94 86.233) rotate(-30)" fill="#757b89"/>
        <ellipse id="Ellipse_605" data-name="Ellipse 605" cx="0.506" cy="0.878" rx="0.506" ry="0.878" transform="translate(39.512 97.528) rotate(-30)" fill="#757b89"/>
        <ellipse id="Ellipse_606" data-name="Ellipse 606" cx="0.506" cy="0.878" rx="0.506" ry="0.878" transform="translate(41.787 98.847) rotate(-30)" fill="#757b89"/>
        <ellipse id="Ellipse_607" data-name="Ellipse 607" cx="0.506" cy="0.878" rx="0.506" ry="0.878" transform="translate(44.066 100.16) rotate(-30)" fill="#757b89"/>
        <ellipse id="Ellipse_608" data-name="Ellipse 608" cx="0.506" cy="0.878" rx="0.506" ry="0.878" transform="translate(46.348 101.477) rotate(-30)" fill="#757b89"/>
        <path id="Path_19585" data-name="Path 19585" d="M114.957,452.453l-6.257-3.618a1.7,1.7,0,0,1-.72-1.37h0c0-.53.32-.771.72-.543l6.257,3.618a1.7,1.7,0,0,1,.72,1.37h0C115.653,452.439,115.333,452.681,114.957,452.453Z" transform="translate(-81.199 -357.305)" fill="#757b89"/>
        <path id="Path_19586" data-name="Path 19586" d="M420.833,354.014l-5.825,3.363c-.367.209-.669,0-.669-.506h0a1.607,1.607,0,0,1,.669-1.277l5.825-3.358c.367-.214.664,0,.664.5h0A1.6,1.6,0,0,1,420.833,354.014Z" transform="translate(-245.26 -306.601)" fill="#757b89"/>
        <path id="Path_19587" data-name="Path 19587" d="M401.633,365.094l-5.825,3.363c-.367.214-.669,0-.669-.506h0a1.607,1.607,0,0,1,.669-1.273l5.825-3.363c.367-.214.664,0,.664.506h0A1.589,1.589,0,0,1,401.633,365.094Z" transform="translate(-234.978 -312.534)" fill="#757b89"/>
        <path id="Path_19588" data-name="Path 19588" d="M113.292,358.7,65.948,331.362c-4.013-2.322-3.507-6.359,1.124-9.034L181.441,256.3c4.645-2.675,11.612-2.968,15.648-.65l47.345,27.335c4.008,2.322,3.507,6.359-1.124,9.034l-114.37,66.031C124.31,360.722,117.305,361.01,113.292,358.7Z" transform="translate(-57.24 -254.083)" fill="#20232d"/>
        <path id="Path_19589" data-name="Path 19589" d="M248.1,287.35l-18.486-10.683-.042.028a8.728,8.728,0,0,1-7.9,0c-2.169-1.259-2.183-3.307,0-4.566l.046-.028-18.486-10.683a11.237,11.237,0,0,0-10.168,0L81.67,325.749c-2.787,1.621-2.787,4.25,0,5.871l44.874,25.909a11.237,11.237,0,0,0,10.168,0L248.1,293.217C250.909,291.6,250.909,288.971,248.1,287.35Z" transform="translate(-65.991 -257.36)" fill="#fff"/>
        <path id="Path_19590" data-name="Path 19590" d="M248.086,293.242,136.694,357.555a11.39,11.39,0,0,1-9.318.418,7.517,7.517,0,0,1-.845-.418l-44.878-25.89a4.747,4.747,0,0,1-1.575-1.393c-1.059-1.5-.534-3.284,1.575-4.5L193.04,261.462a11.266,11.266,0,0,1,10.168,0l18.486,10.683h-.046c-2.183,1.259-2.183,3.3,0,4.566a8.713,8.713,0,0,0,7.9,0l.046-.028,18.486,10.683C250.892,289,250.892,291.621,248.086,293.242Z" transform="translate(-65.973 -257.385)" opacity="0.5" fill="url(#linear-gradient)"/>
        <ellipse id="Ellipse_609" data-name="Ellipse 609" cx="2.123" cy="1.226" rx="2.123" ry="1.226" transform="translate(156.292 16.534)" fill="#2b303f"/>
        <path id="Path_19591" data-name="Path 19591" d="M389.707,292.091a.385.385,0,0,1,0-.725,1.393,1.393,0,0,1,1.259,0,.381.381,0,0,1,0,.725A1.393,1.393,0,0,1,389.707,292.091Z" transform="translate(-231.933 -273.969)" fill="#fff" opacity="0.1"/>
      </g>
      <path id="Path_19592" data-name="Path 19592" d="M406.834,309.92l-.8-.465,1.342-.776.8.464Z" transform="translate(-218.211 -165.303)" fill="#e9eaf2"/>
      <path id="Path_19593" data-name="Path 19593" d="M409.144,310.9l-.8-.464,1.877-1.082.8.464Z" transform="translate(-219.448 -165.662)" fill="#e9eaf2"/>
      <path id="Path_19594" data-name="Path 19594" d="M411.454,311.691l-.8-.464,2.68-1.547.8.465Z" transform="translate(-220.685 -165.839)" fill="#e9eaf2"/>
      <path id="Path_19595" data-name="Path 19595" d="M413.764,312.314l-.8-.465,3.753-2.169.8.465Z" transform="translate(-221.922 -165.839)" fill="#e9eaf2"/>
      <path id="Path_19596" data-name="Path 19596" d="M420.749,317.179l-1.249-.725,2.5-1.445,1.25.725Z" transform="translate(-225.425 -168.693)" fill="#e9eaf2"/>
      <path id="Path_19597" data-name="Path 19597" d="M424.344,319.254l-1.254-.72,2.5-1.445,1.249.72Z" transform="translate(-227.347 -169.807)" fill="#e9eaf2"/>
      <path id="Path_19598" data-name="Path 19598" d="M427.934,321.324l-1.254-.72,2.5-1.445,1.249.72Z" transform="translate(-229.27 -170.915)" fill="#e9eaf2"/>
      <path id="Path_19599" data-name="Path 19599" d="M309.394,283.343l-5.755-3.326c-.8-.465-.7-1.259.223-1.788l5.309-3.066a3.433,3.433,0,0,1,3.1-.13l5.755,3.321c.794.465.7,1.263-.223,1.793l-5.309,3.066A3.451,3.451,0,0,1,309.394,283.343Z" transform="translate(-163.091 -147.12)" fill="#e9eaf2"/>
      <path id="Path_19600" data-name="Path 19600" d="M361.482,313.418,327.8,293.974c-.794-.465-.692-1.263.223-1.793l5.314-3.066a3.437,3.437,0,0,1,3.1-.13l33.68,19.443c.794.464.7,1.263-.223,1.793l-5.309,3.066A3.465,3.465,0,0,1,361.482,313.418Z" transform="translate(-176.033 -154.592)" fill="#e9eaf2"/>
      <path id="Path_19601" data-name="Path 19601" d="M284.3,297.833l-5.755-3.326c-.794-.465-.7-1.259.223-1.788l5.309-3.066a3.433,3.433,0,0,1,3.1-.13l5.755,3.307c.794.464.7,1.263-.223,1.793l-5.309,3.066A3.451,3.451,0,0,1,284.3,297.833Z" transform="translate(-149.651 -154.879)" fill="#e9eaf2"/>
      <path id="Path_19602" data-name="Path 19602" d="M336.386,327.908l-33.675-19.443c-.794-.464-.7-1.263.223-1.793l5.309-3.066a3.451,3.451,0,0,1,3.1-.13l33.675,19.443c.794.464.7,1.263-.223,1.793l-5.309,3.066A3.465,3.465,0,0,1,336.386,327.908Z" transform="translate(-162.595 -162.352)" fill="#e9eaf2"/>
      <g id="Group_24459" data-name="Group 24459" transform="translate(116.694 141.066)" opacity="0.6">
        <path id="Path_19603" data-name="Path 19603" d="M259.2,312.323,253.441,309c-.794-.465-.7-1.259.223-1.788l5.314-3.066a3.423,3.423,0,0,1,3.1-.13l5.76,3.321c.794.464.692,1.263-.223,1.793L262.3,312.2A3.437,3.437,0,0,1,259.2,312.323Z" transform="translate(-252.904 -303.705)" fill="#e9eaf2"/>
        <path id="Path_19604" data-name="Path 19604" d="M311.291,342.4l-33.68-19.443c-.794-.465-.7-1.263.223-1.793l5.309-3.066a3.451,3.451,0,0,1,3.1-.13l33.68,19.443c.794.464.692,1.263-.223,1.793l-5.314,3.066A3.456,3.456,0,0,1,311.291,342.4Z" transform="translate(-265.848 -311.178)" fill="#e9eaf2"/>
      </g>
      <path id="Path_19605" data-name="Path 19605" d="M234.124,326.813l-5.741-3.326c-.794-.464-.692-1.259.223-1.788l5.314-3.07a3.437,3.437,0,0,1,3.1-.125l5.764,3.316c.794.464.7,1.263-.223,1.793l-5.351,3.07A3.437,3.437,0,0,1,234.124,326.813Z" transform="translate(-122.792 -170.398)" fill="#e9eaf2"/>
      <path id="Path_19606" data-name="Path 19606" d="M286.193,356.888l-33.68-19.443c-.794-.464-.692-1.263.223-1.793l5.314-3.066a3.437,3.437,0,0,1,3.1-.13l33.68,19.443c.794.464.692,1.263-.223,1.793l-5.314,3.066A3.456,3.456,0,0,1,286.193,356.888Z" transform="translate(-135.714 -177.871)" fill="#e9eaf2"/>
      <path id="Path_19607" data-name="Path 19607" d="M209.006,341.3l-5.755-3.326c-.794-.465-.7-1.259.223-1.788l5.309-3.07a3.446,3.446,0,0,1,3.1-.125l5.755,3.321c.794.464.7,1.263-.223,1.793l-5.309,3.084A3.451,3.451,0,0,1,209.006,341.3Z" transform="translate(-109.332 -178.158)" fill="#e9eaf2"/>
      <path id="Path_19608" data-name="Path 19608" d="M261.076,371.356l-33.694-19.462c-.794-.464-.692-1.263.223-1.793l5.314-3.066a3.446,3.446,0,0,1,3.1-.13L269.7,366.349c.794.465.7,1.263-.223,1.793l-5.309,3.066A3.465,3.465,0,0,1,261.076,371.356Z" transform="translate(-122.256 -185.609)" fill="#e9eaf2"/>
      <g id="Group_24460" data-name="Group 24460" transform="translate(81.723 161.257)" opacity="0.6">
        <path id="Path_19609" data-name="Path 19609" d="M183.906,355.793l-5.755-3.326c-.794-.464-.7-1.259.223-1.788l5.309-3.07a3.447,3.447,0,0,1,3.1-.125l5.755,3.326c.8.464.7,1.263-.223,1.793l-5.309,3.066A3.451,3.451,0,0,1,183.906,355.793Z" transform="translate(-177.614 -347.174)" fill="#e9eaf2"/>
        <path id="Path_19610" data-name="Path 19610" d="M236,385.868l-33.675-19.443c-.794-.465-.7-1.263.223-1.793l5.309-3.066a3.451,3.451,0,0,1,3.1-.13l33.661,19.443c.794.464.7,1.263-.223,1.793l-5.309,3.066A3.465,3.465,0,0,1,236,385.868Z" transform="translate(-190.558 -354.647)" fill="#e9eaf2"/>
      </g>
      <path id="Path_19611" data-name="Path 19611" d="M158.812,370.283l-5.76-3.326c-.794-.464-.692-1.259.223-1.788l5.314-3.07a3.437,3.437,0,0,1,3.1-.125l5.76,3.321c.794.465.692,1.263-.223,1.793l-5.314,3.066A3.437,3.437,0,0,1,158.812,370.283Z" transform="translate(-82.451 -193.677)" fill="#e9eaf2"/>
      <path id="Path_19612" data-name="Path 19612" d="M210.9,400.348l-33.68-19.453c-.794-.464-.7-1.263.223-1.793l5.309-3.066a3.451,3.451,0,0,1,3.1-.13l33.68,19.443c.794.464.692,1.263-.223,1.793l-5.323,3.075a3.456,3.456,0,0,1-3.089.13Z" transform="translate(-95.393 -201.14)" fill="#e9eaf2"/>
      <g id="Group_24461" data-name="Group 24461" transform="translate(58.422 174.717)" opacity="0.6">
        <path id="Path_19613" data-name="Path 19613" d="M133.742,384.773l-5.76-3.326c-.794-.464-.692-1.259.223-1.788l5.314-3.07a3.446,3.446,0,0,1,3.1-.125l5.741,3.335c.794.465.7,1.263-.223,1.793l-5.314,3.066A3.437,3.437,0,0,1,133.742,384.773Z" transform="translate(-127.448 -376.154)" fill="#e9eaf2"/>
        <path id="Path_19614" data-name="Path 19614" d="M185.8,414.848,152.123,395.4c-.794-.464-.692-1.263.223-1.793l5.314-3.066a3.437,3.437,0,0,1,3.1-.13l33.68,19.443c.794.465.7,1.263-.223,1.793l-5.314,3.066A3.456,3.456,0,0,1,185.8,414.848Z" transform="translate(-140.375 -383.627)" fill="#e9eaf2"/>
      </g>
      <g id="Group_24462" data-name="Group 24462" transform="translate(46.752 181.429)" opacity="0.6">
        <path id="Path_19615" data-name="Path 19615" d="M108.616,399.241l-5.755-3.344c-.794-.464-.7-1.259.223-1.788l5.309-3.07a3.447,3.447,0,0,1,3.1-.125l5.755,3.321c.794.464.7,1.263-.223,1.793l-5.309,3.066A3.451,3.451,0,0,1,108.616,399.241Z" transform="translate(-102.324 -390.604)" fill="#e9eaf2"/>
        <path id="Path_19616" data-name="Path 19616" d="M160.7,429.343,127.028,409.9c-.8-.465-.7-1.259.218-1.788l5.314-3.066a3.447,3.447,0,0,1,3.1-.13l33.675,19.443c.794.464.7,1.263-.223,1.793l-5.309,3.066A3.465,3.465,0,0,1,160.7,429.343Z" transform="translate(-115.265 -398.104)" fill="#e9eaf2"/>
      </g>
      <path id="Path_19617" data-name="Path 19617" d="M34.184,184.366v22.945a1.356,1.356,0,0,1-.084.464,1.566,1.566,0,0,1-.116.274,1.723,1.723,0,0,1-.613.683L2.483,226.569a.548.548,0,0,1-.613.037.413.413,0,0,1-.125-.153.78.78,0,0,1-.074-.353V203.154a1.519,1.519,0,0,1,.074-.464,2.22,2.22,0,0,1,.121-.288,1.77,1.77,0,0,1,.618-.683l30.879-17.845h0a.548.548,0,0,1,.618-.028.5.5,0,0,1,.125.149.794.794,0,0,1,.079.372Z" transform="translate(-1.669 -98.408)" fill="#ddb545"/>
      <path id="Path_19618" data-name="Path 19618" d="M2.23,274.364l1.189.655.074-2.109Z" transform="translate(-1.97 -146.148)" fill="#ddb545"/>
      <path id="Path_19619" data-name="Path 19619" d="M70.445,183.88l1.282.7-1.807,2.164Z" transform="translate(-38.219 -98.471)" fill="#ddb545"/>
      <path id="Path_19620" data-name="Path 19620" d="M36.758,185.807v22.945a1.481,1.481,0,0,1-.084.464,2.021,2.021,0,0,1-.116.274,1.723,1.723,0,0,1-.613.683L5.057,228a.548.548,0,0,1-.613.028.437.437,0,0,1-.125-.149.734.734,0,0,1-.079-.353V204.581a1.393,1.393,0,0,1,.079-.464,1.858,1.858,0,0,1,.739-.957l30.879-17.827h0a.553.553,0,0,1,.613-.033.413.413,0,0,1,.125.153A.734.734,0,0,1,36.758,185.807Z" transform="translate(-3.046 -99.19)" fill="#ffd44d"/>
      <g id="Group_24463" data-name="Group 24463" transform="translate(1.194 86.033)" clip-path="url(#clip-path)">
        <path id="Path_19621" data-name="Path 19621" d="M4.375,252.728,20.5,231.19l16.094,2.843v2.276L4.24,254.985Z" transform="translate(-4.24 -209.839)" opacity="0.12"/>
        <path id="Path_19622" data-name="Path 19622" d="M18.226,227.581l-16.09-2.657L.655,224.45,0,250.619l2.174-1.584Z" transform="translate(-1.969 -206.23)" opacity="0.05"/>
        <path id="Path_19623" data-name="Path 19623" d="M39.24,204.189l16.094-21.241,1.482-2.178.655,25.407-2.137.855Z" transform="translate(-22.983 -182.838)" opacity="0.05"/>
      </g>
      <path id="Path_19625" data-name="Path 19625" d="M454.748,61.421V88.287a1.743,1.743,0,0,1-.1.539,3.169,3.169,0,0,1-.135.32,2.011,2.011,0,0,1-.72.8l-36.169,20.9a.65.65,0,0,1-.72.033.51.51,0,0,1-.149-.176.892.892,0,0,1-.088-.413V83.4a1.62,1.62,0,0,1,.093-.52,2.332,2.332,0,0,1,.139-.334,2.007,2.007,0,0,1,.725-.8l36.16-20.892h0a.641.641,0,0,1,.72-.037.464.464,0,0,1,.149.177A.929.929,0,0,1,454.748,61.421Z" transform="translate(-223.909 -32.516)" fill="#ddb545"/>
      <path id="Path_19626" data-name="Path 19626" d="M417.33,166.795l1.393.766.088-2.471Z" transform="translate(-224.263 -88.408)" fill="#ddb545"/>
      <path id="Path_19627" data-name="Path 19627" d="M497.213,60.83l1.5.827L496.6,64.188Z" transform="translate(-266.713 -32.575)" fill="#ddb545"/>
      <path id="Path_19628" data-name="Path 19628" d="M457.768,63.1V89.963a1.742,1.742,0,0,1-.1.539,3.139,3.139,0,0,1-.135.32,2.076,2.076,0,0,1-.72.8l-36.169,20.9a.646.646,0,0,1-.72.033.465.465,0,0,1-.149-.177.892.892,0,0,1-.088-.413V85.077a1.622,1.622,0,0,1,.093-.52,1.889,1.889,0,0,1,.139-.334,2.007,2.007,0,0,1,.725-.8l36.16-20.879h0a.65.65,0,0,1,.725-.037.512.512,0,0,1,.149.177A.929.929,0,0,1,457.768,63.1Z" transform="translate(-225.526 -33.422)" fill="#ffd44d"/>
      <g id="Group_24464" data-name="Group 24464" transform="translate(194.163 28.989)" clip-path="url(#clip-path-2)">
        <path id="Path_19629" data-name="Path 19629" d="M419.839,141.451l18.891-25.221,18.844,3.33v2.666L419.69,144.1Z" transform="translate(-419.69 -91.232)" opacity="0.12"/>
        <path id="Path_19630" data-name="Path 19630" d="M436.068,112,417.224,108.9l-1.732-.557-.771,30.647,2.545-1.853Z" transform="translate(-417.028 -87.006)" opacity="0.05"/>
        <path id="Path_19631" data-name="Path 19631" d="M460.68,84.613l18.844-24.868,1.732-2.555.766,29.755-2.5,1Z" transform="translate(-441.64 -59.615)" opacity="0.05"/>
      </g>
      <path id="Path_19633" data-name="Path 19633" d="M235.563,31.119a.753.753,0,0,0-.26-.33,2.448,2.448,0,0,0-.743-.246L195.334,19.27,156.109,75.839a4.8,4.8,0,0,0-.7,1.008,4.727,4.727,0,0,0-.3.711,3.645,3.645,0,0,0-.19,1.11V135.73a1.988,1.988,0,0,0,.186.882,1.078,1.078,0,0,0,.316.372,1.356,1.356,0,0,0,1.524-.07l76.784-44.33a4.645,4.645,0,0,0,1.816-2.378,3.521,3.521,0,0,0,.2-1.147V32a1.951,1.951,0,0,0-.186-.878Z" transform="translate(-83.737 -10.319)" fill="#ddb545"/>
      <path id="Path_19634" data-name="Path 19634" d="M326.647,43.93l2.411,1.431-3.368,2.471Z" transform="translate(-175.188 -23.525)" fill="#ceb95f"/>
      <path id="Path_19635" data-name="Path 19635" d="M158.466,270.977,156,269.49l3.8-2.74Z" transform="translate(-84.316 -142.849)" fill="#ddb545"/>
      <path id="Path_19636" data-name="Path 19636" d="M241.93,19.27l2.355,1.417L284.2,32.15l-1.983-1.175a15.26,15.26,0,0,0-2.369-.808Z" transform="translate(-130.333 -10.319)" fill="#c19b3d"/>
      <path id="Path_19637" data-name="Path 19637" d="M240.819,48.209v57.039a3.622,3.622,0,0,1-.2,1.143,4.818,4.818,0,0,1-.293.678,4.282,4.282,0,0,1-1.523,1.7L162.024,153.1a1.356,1.356,0,0,1-1.528.074,1.082,1.082,0,0,1-.311-.376,1.909,1.909,0,0,1-.186-.878V94.875a3.647,3.647,0,0,1,.19-1.11,4.94,4.94,0,0,1,.3-.711,4.269,4.269,0,0,1,1.537-1.7l76.756-44.321-1.31.9c.613-.348,2.48-1.259,2.852-.98a1.082,1.082,0,0,1,.311.376A1.909,1.909,0,0,1,240.819,48.209Z" transform="translate(-86.457 -25.114)" fill="#ffd44d"/>
      <g id="Group_24465" data-name="Group 24465" transform="translate(73.541 21.646)" clip-path="url(#clip-path-3)">
        <path id="Path_19638" data-name="Path 19638" d="M160.492,214.2,200.4,160.85l40.011,7.069v5.657l-80.425,46.43Z" transform="translate(-159.994 -107.783)" opacity="0.12"/>
        <path id="Path_19639" data-name="Path 19639" d="M194.755,151.88l-40.006-6.6-3.674-1.18-1.635,65.056,5.4-3.929Z" transform="translate(-154.344 -98.813)" opacity="0.05"/>
        <path id="Path_19640" data-name="Path 19640" d="M246.82,93.574l40.006-52.793L290.5,35.36l1.635,63.165-5.309,2.118Z" transform="translate(-206.493 -40.581)" opacity="0.05"/>
      </g>
      <path id="Path_19642" data-name="Path 19642" d="M161.05,79.893,200.972,22.32,240.89,33.788,200.972,86.665Z" transform="translate(-87.02 -11.953)" fill="#ffd44d"/>
      <path id="Path_19643" data-name="Path 19643" d="M240.89,33.788l-9.034,11.97L200.972,86.665l-30.879-5.239-9.043-1.533,9.043-13.043,22.249-32.087,8.63-12.444,8.63,2.48,22.253,6.4Z" transform="translate(-87.02 -11.953)" opacity="0.3"/>
      <path id="Path_19644" data-name="Path 19644" d="M242.282,0V33.805L211.4,74.712,180.52,69.473V35.658Z" transform="translate(-97.447)" fill="#fafbff"/>
      <path id="Path_19645" data-name="Path 19645" d="M207.17,88.459l-15.24,8.8V79.662l15.24-8.8Z" transform="translate(-103.557 -37.947)" fill="#e9eaf2"/>
      <path id="Path_19646" data-name="Path 19646" d="M245.84,66.129l-15.24,8.8v-17.6l15.24-8.8Z" transform="translate(-124.266 -25.989)" fill="#e9eaf2"/>
      <path id="Path_19647" data-name="Path 19647" d="M284.5,43.809l-15.244,8.8v-17.6l15.244-8.8Z" transform="translate(-144.969 -14.036)" fill="#e9eaf2"/>
      <path id="Path_19648" data-name="Path 19648" d="M243.093,76.3,191.93,105.832v-3.061L243.093,73.23Z" transform="translate(-103.557 -39.216)" fill="#e9eaf2"/>
      <path id="Path_19649" data-name="Path 19649" d="M235.465,96.91v3.066L195.938,122.8l-4.018-.409v-.334Z" transform="translate(-103.552 -51.897)" fill="#e9eaf2"/>
      <path id="Path_19650" data-name="Path 19650" d="M236.845,119.58v3.066l-23.3,13.451-4.812-.283Z" transform="translate(-112.554 -64.037)" fill="#e9eaf2"/>
      <path id="Path_19651" data-name="Path 19651" d="M243.086,138.77v1.872l-1.6,2.113L232,148.236l-4.129-.678Z" transform="translate(-122.804 -74.314)" fill="#e9eaf2"/>
    </g>
  </g>
</svg>
