<svg xmlns="http://www.w3.org/2000/svg" width="52.559" height="35.039" viewBox="0 0 52.559 35.039">
  <path id="_216502_video_icon" data-name="216502_video_icon" d="M53.37,10.378a2.506,2.506,0,0,0-2.433-.11l-6.39,3.2v-.956A7.518,7.518,0,0,0,37.039,5H9.508A7.518,7.518,0,0,0,2,12.508V32.531a7.518,7.518,0,0,0,7.508,7.508H37.039a7.518,7.518,0,0,0,7.508-7.508v-.956l6.39,3.194a2.5,2.5,0,0,0,3.622-2.237V12.508A2.506,2.506,0,0,0,53.37,10.378Zm-38.856,15.9a3.754,3.754,0,1,1,3.754-3.754A3.752,3.752,0,0,1,14.514,26.274Z" transform="translate(-2 -5)" fill="#ff6302"/>
</svg>
