<svg width="61" height="61" viewBox="0 0 61 61" fill="none" xmlns="http://www.w3.org/2000/svg">
<path d="M58.26 26.246H60.56V34.314H58.26V26.246ZM53.7278 36.6762H56.0277V23.8838H53.7278V36.6762ZM49.2716 43.2929H51.5716V17.2671H49.2716V43.2929ZM45.0354 48.3987H47.3354V12.3994H45.0354V48.39V48.3987ZM40.5003 39.6074H42.8003V20.9526H40.5003V39.6074ZM35.8933 53.7231H38.1932V6.03863H35.886V53.7231H35.8933ZM31.3596 60.56H33.6595V0H31.3596V60.56ZM26.9034 51.2106H29.2033V9.34923H26.9034V51.2108V51.2106ZM22.2935 39.3228H24.5934V21.678H22.2935V39.3228ZM17.8374 35.1165H20.1374V25.4279H17.8374V35.1325V35.1165ZM13.3813 40.2999H15.6812V20.2533H13.3813V40.3063V40.2999ZM8.99698 50.004H11.2969V9.40882H8.99711V50.0111L8.99698 50.004ZM4.54095 43.8022H6.84091V16.4092H4.54095V43.809V43.8022ZM0 36.6762H2.29996V23.8838H0V36.6762Z" fill="#FF6302"/>
</svg>
