<svg xmlns="http://www.w3.org/2000/svg" width="80.708" height="56.918" viewBox="0 0 80.708 56.918">
  <g id="Group_21825" data-name="Group 21825" transform="translate(0.001 -0.001)">
    <path id="Path_4607" data-name="Path 4607" d="M204.9,164.083a7.675,7.675,0,1,1,5.418-2.248A7.666,7.666,0,0,1,204.9,164.083Zm12.042-19.708h-3.833l-.889-2.33A3.424,3.424,0,0,0,209.273,140h-8.751a3.424,3.424,0,0,0-2.961,2.054l-.889,2.33h-3.815a4.385,4.385,0,0,0-4.375,4.376v15.323a4.384,4.384,0,0,0,4.375,4.376h24.084a4.384,4.384,0,0,0,4.375-4.376V148.759a4.384,4.384,0,0,0-4.375-4.384ZM204.9,151.49a4.927,4.927,0,1,0,3.484,1.443A4.927,4.927,0,0,0,204.9,151.49Z" transform="translate(-164.544 -125.77)" fill="#ff6302" fill-rule="evenodd"/>
    <path id="Union_14" data-name="Union 14" d="M-5415.435-2234.081a1.777,1.777,0,0,1-1.541-.89,1.777,1.777,0,0,1,0-1.778,1.778,1.778,0,0,1,1.541-.888h12.451v-12.452a1.78,1.78,0,0,1,.89-1.54,1.779,1.779,0,0,1,1.778,0,1.779,1.779,0,0,1,.89,1.54v14.231a1.778,1.778,0,0,1-.521,1.257,1.775,1.775,0,0,1-1.257.521Zm-62.919,0a1.779,1.779,0,0,1-1.258-.521,1.778,1.778,0,0,1-.521-1.257v-14.231a1.779,1.779,0,0,1,.89-1.54,1.779,1.779,0,0,1,1.778,0,1.78,1.78,0,0,1,.89,1.54v12.452h12.451a1.778,1.778,0,0,1,1.541.888,1.777,1.777,0,0,1,0,1.778,1.777,1.777,0,0,1-1.541.89Zm76.259-39.37a1.778,1.778,0,0,1-.89-1.54v-12.451h-12.451a1.778,1.778,0,0,1-1.541-.888,1.78,1.78,0,0,1,0-1.78,1.778,1.778,0,0,1,1.541-.888h14.23a1.78,1.78,0,0,1,1.257.52,1.785,1.785,0,0,1,.521,1.259v14.229a1.778,1.778,0,0,1-.89,1.54,1.775,1.775,0,0,1-.889.238A1.777,1.777,0,0,1-5402.095-2273.452Zm-77.149,0a1.778,1.778,0,0,1-.89-1.54v-14.229a1.785,1.785,0,0,1,.521-1.259,1.783,1.783,0,0,1,1.258-.52h14.229a1.778,1.778,0,0,1,1.541.888,1.78,1.78,0,0,1,0,1.78,1.778,1.778,0,0,1-1.541.888h-12.451v12.451a1.778,1.778,0,0,1-.89,1.54,1.778,1.778,0,0,1-.889.238A1.775,1.775,0,0,1-5479.244-2273.452Z" transform="translate(5480.133 2291)" fill="#ff6302"/>
  </g>
</svg>
