<svg xmlns="http://www.w3.org/2000/svg" width="60.559" height="60.559" viewBox="0 0 60.559 60.559">
  <g id="vuesax_bold_microphone-2" data-name="vuesax/bold/microphone-2" transform="translate(-236 -188)">
    <g id="microphone-2" transform="translate(236 188)">
      <path id="Vector" d="M37.7.025a1.755,1.755,0,0,0-1.766,1.766V5.778a16.2,16.2,0,1,1-32.4,0V1.766A1.755,1.755,0,0,0,1.766,0,1.755,1.755,0,0,0,0,1.766V5.753A19.748,19.748,0,0,0,17.966,25.384v5.375a1.766,1.766,0,1,0,3.533,0V25.384A19.75,19.75,0,0,0,39.464,5.753V1.766A1.783,1.783,0,0,0,37.7.025Z" transform="translate(10.547 22.987)" fill="#ff6302"/>
      <path id="Vector-2" data-name="Vector" d="M11.153,0A11.156,11.156,0,0,0,0,11.153V24.072a11.153,11.153,0,0,0,22.306,0V11.153A11.156,11.156,0,0,0,11.153,0Zm3.305,17.537a1.455,1.455,0,0,1-1.413,1.085,1.948,1.948,0,0,1-.378-.05,5.518,5.518,0,0,0-3,0,1.463,1.463,0,1,1-.757-2.826,8.667,8.667,0,0,1,4.542,0A1.468,1.468,0,0,1,14.458,17.537Zm1.337-4.9a1.463,1.463,0,0,1-1.388.959,1.748,1.748,0,0,1-.5-.076,7.933,7.933,0,0,0-5.5,0,1.489,1.489,0,0,1-1.892-.883,1.451,1.451,0,0,1,.883-1.867,11,11,0,0,1,7.519,0A1.461,1.461,0,0,1,15.8,12.642Z" transform="translate(19.126 5.047)" fill="#ff6302"/>
      <path id="Vector-3" data-name="Vector" d="M0,0H60.559V60.559H0Z" fill="none" opacity="0"/>
    </g>
  </g>
</svg>
