<svg xmlns="http://www.w3.org/2000/svg" width="60" height="60" viewBox="0 0 60 60">
  <g id="Finger_print_Login" data-name="Finger print Login" transform="translate(-251 -558)">
    <g id="Ellipse_659" data-name="Ellipse 659" transform="translate(251 558)" fill="none" stroke="#ff6302" stroke-width="1">
      <circle cx="30" cy="30" r="30" stroke="none"/>
      <circle cx="30" cy="30" r="29.5" fill="none"/>
    </g>
    <path id="Icon_material-fingerprint" data-name="Icon material-fingerprint" d="M33.689,7.909a.909.909,0,0,1-.453-.119,22.4,22.4,0,0,0-10.977-2.8,22.4,22.4,0,0,0-10.977,2.8,1,1,0,0,1-1.34-.4,1.011,1.011,0,0,1,.394-1.352,24.891,24.891,0,0,1,23.807-.02.977.977,0,0,1,.414,1.332A.965.965,0,0,1,33.689,7.909ZM5.487,18.343a1.021,1.021,0,0,1-.572-.179,1,1,0,0,1-.236-1.391,20.428,20.428,0,0,1,7.39-6.5,22.579,22.579,0,0,1,20.319-.02,20.5,20.5,0,0,1,7.39,6.459,1,1,0,0,1-.236,1.391.977.977,0,0,1-1.38-.239,18.548,18.548,0,0,0-6.681-5.843,20.611,20.611,0,0,0-18.526.02,18.744,18.744,0,0,0-6.7,5.883.857.857,0,0,1-.769.417ZM17.8,42.333a.921.921,0,0,1-.69-.3,20.074,20.074,0,0,1-3.961-5.247,17.763,17.763,0,0,1-2.069-8.626A10.957,10.957,0,0,1,22.239,17.449,10.957,10.957,0,0,1,33.393,28.162a.985.985,0,1,1-1.971,0,8.974,8.974,0,0,0-9.184-8.725,8.974,8.974,0,0,0-9.184,8.725,15.676,15.676,0,0,0,1.833,7.652,18.8,18.8,0,0,0,3.646,4.81,1.027,1.027,0,0,1,0,1.411A1.076,1.076,0,0,1,17.8,42.333Zm14.131-3.677a10.54,10.54,0,0,1-10.8-10.494.985.985,0,1,1,1.971,0,8.531,8.531,0,0,0,8.829,8.487,12.918,12.918,0,0,0,2.05-.2,1,1,0,0,1,.335,1.968,13.348,13.348,0,0,1-2.385.239ZM27.974,42.75a1.145,1.145,0,0,1-.256-.04,15.345,15.345,0,0,1-7.331-4.174,14.564,14.564,0,0,1-4.277-10.375,6.074,6.074,0,0,1,12.14,0,4.107,4.107,0,0,0,8.2,0c0-7.493-6.405-13.575-14.288-13.575A14.375,14.375,0,0,0,9.133,22.6,12.877,12.877,0,0,0,7.97,28.162a19.9,19.9,0,0,0,1.32,7.175.98.98,0,1,1-1.833.7,22.308,22.308,0,0,1-1.439-7.871,15.039,15.039,0,0,1,1.34-6.44,16.341,16.341,0,0,1,14.8-9.142c8.967,0,16.259,6.976,16.259,15.562a6.074,6.074,0,0,1-12.14,0,3.983,3.983,0,0,0-4.1-3.856,3.983,3.983,0,0,0-4.1,3.856,12.57,12.57,0,0,0,3.685,8.964,13.374,13.374,0,0,0,6.445,3.677.987.987,0,0,1,.69,1.212.963.963,0,0,1-.926.755Z" transform="translate(258.771 565.5)" fill="#ff6302"/>
  </g>
</svg>
