<svg xmlns="http://www.w3.org/2000/svg" width="236" height="48" viewBox="0 0 236 48">
  <g id="Group_22151" data-name="Group 22151" transform="translate(-79 -665)">
    <g id="Group_22150" data-name="Group 22150" transform="translate(0 68)">
      <g id="Button_2" data-name="Button 2" transform="translate(79 597)">
        <rect id="Rectangle_3698" data-name="Rectangle 3698" width="236" height="48" rx="10" fill="#f14336"/>
      </g>
      <text id="Login_with_Google" data-name="Login with Google" transform="translate(146 627)" fill="#fff" font-size="16" font-family="Syne-Regular, Syne"><tspan x="0" y="0">Login with Google</tspan></text>
      <path id="Rectangle_3858" data-name="Rectangle 3858" d="M10,0H48a0,0,0,0,1,0,0V38A10,10,0,0,1,38,48H10A10,10,0,0,1,0,38V10A10,10,0,0,1,10,0Z" transform="translate(79 597)" fill="#cc392e"/>
    </g>
    <g id="search" transform="translate(94 678.638)">
      <path id="Path_489" data-name="Path 489" d="M4.593,145.195l-.721,2.693-2.637.056a10.38,10.38,0,0,1-.076-9.676h0l2.347.43,1.028,2.333a6.184,6.184,0,0,0,.058,4.163Z" transform="translate(0 -132.672)" fill="#fbbb00"/>
      <path id="Path_490" data-name="Path 490" d="M271.581,208.176a10.358,10.358,0,0,1-3.694,10.016h0l-2.956-.151-.418-2.612a6.176,6.176,0,0,0,2.657-3.153h-5.541v-4.1h9.953Z" transform="translate(-251.039 -199.75)" fill="#518ef8"/>
      <path id="Path_491" data-name="Path 491" d="M46.122,315.327h0a10.365,10.365,0,0,1-15.614-3.17l3.358-2.749a6.163,6.163,0,0,0,8.88,3.155Z" transform="translate(-29.274 -296.886)" fill="#28b446"/>
      <path id="Path_492" data-name="Path 492" d="M44.441,2.385,41.084,5.134A6.162,6.162,0,0,0,32,8.36L28.625,5.6h0A10.364,10.364,0,0,1,44.441,2.385Z" transform="translate(-27.465)" fill="#f14336"/>
    </g>
  </g>
</svg>
