<svg xmlns="http://www.w3.org/2000/svg" width="18" height="18" viewBox="0 0 18 18">
  <g id="vuesax_bold_clock" data-name="vuesax/bold/clock" transform="translate(-172 -188)" opacity="0.39">
    <g id="clock" transform="translate(172 188)">
      <path id="Vector" d="M7.492,0a7.492,7.492,0,1,0,7.492,7.492A7.5,7.5,0,0,0,7.492,0Zm3.259,10.167a.559.559,0,0,1-.487.277.5.5,0,0,1-.285-.082L7.657,8.975a2.21,2.21,0,0,1-1-1.768V4.136a.562.562,0,1,1,1.124,0V7.207a1.107,1.107,0,0,0,.457.8l2.323,1.386A.555.555,0,0,1,10.751,10.167Z" transform="translate(1.508 1.508)" fill="#292d32"/>
      <path id="Vector-2" data-name="Vector" d="M0,0H18V18H0Z" transform="translate(18 18) rotate(180)" fill="none" opacity="0"/>
    </g>
  </g>
</svg>
