<svg width="30" height="30" viewBox="0 0 30 30" fill="none" xmlns="http://www.w3.org/2000/svg">
<path d="M12 0.5H18C24.3513 0.5 29.5 5.64873 29.5 12V18C29.5 24.3513 24.3513 29.5 18 29.5H12C5.64873 29.5 0.5 24.3513 0.5 18V12C0.5 5.64873 5.64873 0.5 12 0.5Z" fill="white" stroke="#E0E0E0"/>
<path d="M8.084 16.125L7.516 15H11.495L11.04 13.875H7.326L6.758 12.75H12.669L12.215 11.625H6.65L6 10.5H8.842C8.84213 10.3026 8.88144 10.1071 8.95765 9.925C9.03387 9.74287 9.14547 9.57768 9.286 9.439C9.57162 9.15727 9.95681 8.99953 10.358 9H19.45V12H21.724L23.998 15V18.75H22.484C22.4837 19.0461 22.4247 19.3391 22.3104 19.6122C22.1961 19.8853 22.0287 20.133 21.818 20.341C21.3894 20.7631 20.812 20.9996 20.2105 20.9996C19.609 20.9996 19.0316 20.7631 18.603 20.341C18.3923 20.133 18.2249 19.8853 18.1106 19.6122C17.9963 19.3391 17.9373 19.0461 17.937 18.75H14.905C14.9047 19.0461 14.8457 19.3391 14.7314 19.6122C14.6171 19.8853 14.4497 20.133 14.239 20.341C13.8104 20.7631 13.233 20.9996 12.6315 20.9996C12.03 20.9996 11.4526 20.7631 11.024 20.341C10.8133 20.133 10.6459 19.8853 10.5316 19.6122C10.4173 19.3391 10.3583 19.0461 10.358 18.75H8.842V16.125H8.084ZM20.21 19.875C20.5095 19.8744 20.7967 19.7562 21.01 19.546C21.1154 19.4421 21.1991 19.3182 21.2563 19.1817C21.3134 19.0451 21.3429 18.8985 21.3429 18.7505C21.3429 18.6025 21.3134 18.4559 21.2563 18.3193C21.1991 18.1828 21.1154 18.0589 21.01 17.955C20.7957 17.7437 20.5069 17.6252 20.206 17.6252C19.9051 17.6252 19.6163 17.7437 19.402 17.955C19.2966 18.0589 19.2129 18.1828 19.1557 18.3193C19.0986 18.4559 19.0691 18.6025 19.0691 18.7505C19.0691 18.8985 19.0986 19.0451 19.1557 19.1817C19.2129 19.3182 19.2966 19.4421 19.402 19.546C19.6175 19.7584 19.9084 19.8767 20.211 19.875H20.21ZM21.35 13.125H19.45V15H22.83L21.35 13.125ZM12.634 19.875C12.9335 19.8744 13.2207 19.7562 13.434 19.546C13.5394 19.4421 13.6231 19.3182 13.6803 19.1817C13.7374 19.0451 13.7669 18.8985 13.7669 18.7505C13.7669 18.6025 13.7374 18.4559 13.6803 18.3193C13.6231 18.1828 13.5394 18.0589 13.434 17.955C13.2197 17.7437 12.9309 17.6252 12.63 17.6252C12.3291 17.6252 12.0403 17.7437 11.826 17.955C11.7206 18.0589 11.6369 18.1828 11.5797 18.3193C11.5226 18.4559 11.4931 18.6025 11.4931 18.7505C11.4931 18.8985 11.5226 19.0451 11.5797 19.1817C11.6369 19.3182 11.7206 19.4421 11.826 19.546C12.0407 19.7577 12.3305 19.8759 12.632 19.875H12.634Z" fill="#FF6302"/>
</svg>
