<svg width="30" height="30" viewBox="0 0 30 30" fill="none" xmlns="http://www.w3.org/2000/svg">
<path d="M12 0.5H18C24.3513 0.5 29.5 5.64873 29.5 12V18C29.5 24.3513 24.3513 29.5 18 29.5H12C5.64873 29.5 0.5 24.3513 0.5 18V12C0.5 5.64873 5.64873 0.5 12 0.5Z" fill="white" stroke="#E0E0E0"/>
<mask id="mask0_465_5771" style="mask-type:luminance" maskUnits="userSpaceOnUse" x="8" y="8" width="14" height="14">
<path d="M22 8H8V22H22V8Z" fill="white"/>
</mask>
<g mask="url(#mask0_465_5771)">
<path d="M13.019 8C12.8156 7.99999 12.615 8.04724 12.433 8.138L9.599 9.554C9.3813 9.66327 9.19829 9.83095 9.07043 10.0383C8.94257 10.2456 8.8749 10.4844 8.875 10.728V15.55L10.625 15.025V12.375C10.625 12.1429 10.7172 11.9204 10.8813 11.7563C11.0454 11.5922 11.2679 11.5 11.5 11.5H18.5C18.7321 11.5 18.9546 11.5922 19.1187 11.7563C19.2828 11.9204 19.375 12.1429 19.375 12.375V15.024L21.125 15.549V10.728C21.1249 10.4842 21.0569 10.2453 20.9287 10.0379C20.8005 9.83055 20.6171 9.66299 20.399 9.554L17.569 8.138C17.3864 8.04693 17.1851 7.99968 16.981 8H13.019ZM21.125 16.463L16.31 15.019C16.2692 15.0066 16.2267 15.0002 16.184 15H15.438V22H18.938C19.2253 22.0001 19.5098 21.9437 19.7752 21.8338C20.0407 21.724 20.2819 21.5629 20.4851 21.3598C20.6883 21.1567 20.8495 20.9156 20.9594 20.6502C21.0694 20.3848 21.126 20.1003 21.126 19.813L21.125 16.463ZM14.563 22V15H13.816C13.7733 14.9998 13.7309 15.0059 13.69 15.018L8.875 16.463V19.812C8.87487 20.0994 8.93137 20.3839 9.04128 20.6495C9.15119 20.915 9.31236 21.1562 9.51556 21.3594C9.71876 21.5626 9.96001 21.7238 10.2255 21.8337C10.4911 21.9436 10.7756 22.0001 11.063 22H14.563ZM13.688 9.75H16.313C16.4254 9.75538 16.5314 9.80382 16.6091 9.88528C16.6868 9.96673 16.7301 10.075 16.7301 10.1875C16.7301 10.3 16.6868 10.4083 16.6091 10.4897C16.5314 10.5712 16.4254 10.6196 16.313 10.625H13.688C13.5756 10.6196 13.4696 10.5712 13.3919 10.4897C13.3142 10.4083 13.2709 10.3 13.2709 10.1875C13.2709 10.075 13.3142 9.96673 13.3919 9.88528C13.4696 9.80382 13.5756 9.75538 13.688 9.75ZM18.501 12.375V14.762L16.561 14.18C16.439 14.1435 16.3123 14.125 16.185 14.125H15.438V12.375H18.501ZM14.564 12.375V14.125H13.816C13.6883 14.1249 13.5613 14.1434 13.439 14.18L11.5 14.762V12.375H14.564ZM11.063 16.75C11.1641 16.75 11.2621 16.7851 11.3402 16.8492C11.4184 16.9133 11.4719 17.0026 11.4916 17.1017C11.5113 17.2009 11.4961 17.3038 11.4484 17.393C11.4008 17.4822 11.3237 17.552 11.2303 17.5907C11.1368 17.6294 11.0329 17.6345 10.9362 17.6052C10.8394 17.5758 10.7558 17.5139 10.6997 17.4298C10.6435 17.3457 10.6182 17.2448 10.6281 17.1442C10.638 17.0436 10.6825 16.9495 10.754 16.878C10.836 16.7961 10.9471 16.7501 11.063 16.75ZM18.938 16.75C19.0391 16.75 19.1371 16.7851 19.2152 16.8492C19.2934 16.9133 19.3469 17.0026 19.3666 17.1017C19.3863 17.2009 19.3711 17.3038 19.3234 17.393C19.2758 17.4822 19.1987 17.552 19.1053 17.5907C19.0118 17.6294 18.9079 17.6345 18.8112 17.6052C18.7144 17.5758 18.6308 17.5139 18.5747 17.4298C18.5185 17.3457 18.4932 17.2448 18.5031 17.1442C18.513 17.0436 18.5575 16.9495 18.629 16.878C18.711 16.7961 18.8221 16.7501 18.938 16.75ZM12.375 19.375C12.3749 19.5774 12.3046 19.7736 12.176 19.93C12.0475 20.0864 11.8688 20.1934 11.6702 20.2327C11.4716 20.2721 11.2656 20.2414 11.0871 20.1459C10.9086 20.0504 10.7688 19.8959 10.6914 19.7088C10.6141 19.5218 10.6039 19.3137 10.6628 19.12C10.7217 18.9263 10.8459 18.759 11.0142 18.6467C11.1826 18.5343 11.3847 18.4838 11.5862 18.5037C11.7876 18.5236 11.9759 18.6128 12.119 18.756C12.2002 18.8373 12.2647 18.9338 12.3086 19.04C12.3525 19.1462 12.3751 19.2601 12.375 19.375ZM18.5 20.25C18.2976 20.2499 18.1014 20.1796 17.945 20.051C17.7886 19.9225 17.6816 19.7438 17.6423 19.5452C17.6029 19.3466 17.6336 19.1406 17.7291 18.9621C17.8246 18.7836 17.9791 18.6438 18.1662 18.5664C18.3532 18.4891 18.5613 18.4789 18.755 18.5378C18.9487 18.5967 19.116 18.7209 19.2283 18.8892C19.3407 19.0576 19.3912 19.2597 19.3713 19.4612C19.3514 19.6626 19.2622 19.8509 19.119 19.994C19.0377 20.0752 18.9412 20.1397 18.835 20.1836C18.7288 20.2275 18.6149 20.2501 18.5 20.25Z" fill="#FF6302"/>
</g>
</svg>
