<svg width="39" height="39" viewBox="0 0 39 39" fill="none" xmlns="http://www.w3.org/2000/svg">
<path d="M10.5 1H28.5C33.7467 1 38 5.2533 38 10.5V28.5C38 33.7467 33.7467 38 28.5 38H10.5C5.2533 38 1 33.7467 1 28.5V10.5C1 5.2533 5.2533 1 10.5 1Z" fill="white" stroke="#E0E0E0"/>
<path d="M18.6168 12.8311C15.4265 12.8311 12.831 15.4265 12.831 18.6168C12.831 21.8071 15.4265 24.4026 18.6168 24.4026C21.807 24.4026 24.4025 21.8071 24.4025 18.6168C24.4025 15.4265 21.807 12.8311 18.6168 12.8311ZM18.6168 10.8311C22.9167 10.8311 26.4025 14.3169 26.4025 18.6168C26.4025 22.9168 22.9167 26.4026 18.6168 26.4026C14.3168 26.4026 10.831 22.9168 10.831 18.6168C10.831 14.3169 14.3168 10.8311 18.6168 10.8311Z" fill="#0A0A0A"/>
<path d="M26.4172 26.8326C26.31 26.8326 26.2032 26.7898 26.1315 26.7181L23.7048 24.2914C23.5476 24.1342 23.5494 23.8715 23.708 23.7036C23.7836 23.6297 23.8843 23.5891 23.9921 23.5891C24.1038 23.5891 24.2106 23.6323 24.2932 23.7108L26.716 26.1336C26.8711 26.2887 26.8714 26.5466 26.719 26.7147C26.6333 26.7898 26.5241 26.8326 26.4172 26.8326Z" fill="#0A0A0A"/>
<path d="M26.4172 27.3326C26.1824 27.3326 25.9475 27.2413 25.7779 27.0717L23.3512 24.645C22.9989 24.2927 22.9989 23.7186 23.3512 23.3533C23.7035 23.001 24.2775 23.001 24.6429 23.3533L27.0696 25.78C27.4219 26.1323 27.4219 26.7064 27.0696 27.0717C26.8869 27.2413 26.6521 27.3326 26.4172 27.3326Z" fill="#0A0A0A"/>
</svg>
