<svg width="30" height="30" viewBox="0 0 30 30" fill="none" xmlns="http://www.w3.org/2000/svg">
<path d="M12 0.5H18C24.3513 0.5 29.5 5.64873 29.5 12V18C29.5 24.3513 24.3513 29.5 18 29.5H12C5.64873 29.5 0.5 24.3513 0.5 18V12C0.5 5.64873 5.64873 0.5 12 0.5Z" fill="white" stroke="#E0E0E0"/>
<path d="M21.206 10.7483L14.71 14.5073L8.21301 10.7483C8.34656 10.5175 8.53693 10.3247 8.76601 10.1883L13.92 7.20731C14.161 7.07141 14.4329 7 14.7095 7C14.9861 7 15.2581 7.07141 15.499 7.20731L20.654 10.1833C20.8833 10.3214 21.0733 10.5159 21.206 10.7483Z" fill="#FE7551"/>
<path d="M14.71 14.5093V22.0093C14.4612 22.0088 14.2158 21.9521 13.992 21.8433L8.792 18.8353C8.55155 18.6969 8.35178 18.4976 8.21276 18.2574C8.07374 18.0173 8.00036 17.7448 8 17.4673V11.5463C8.00079 11.2658 8.07417 10.9902 8.213 10.7463L14.71 14.5093Z" fill="#FF6238"/>
<path d="M21.42 11.5463V17.4663C21.4196 17.7431 21.3465 18.015 21.208 18.2547C21.0696 18.4944 20.8706 18.6936 20.631 18.8323L15.405 21.8473C15.1879 21.9513 14.9507 22.0065 14.71 22.0093V14.5093L21.21 10.7493C21.347 10.9926 21.4193 11.267 21.42 11.5463Z" fill="#FF6302"/>
</svg>
