<svg width="20" height="20" viewBox="0 0 20 20" fill="none" xmlns="http://www.w3.org/2000/svg">
<path d="M8.14815 5.92592C8.14815 5.63292 8.23504 5.34649 8.39783 5.10286C8.56061 4.85923 8.79199 4.66934 9.06269 4.55721C9.3334 4.44508 9.63128 4.41575 9.91865 4.47291C10.206 4.53007 10.47 4.67117 10.6772 4.87836C10.8844 5.08555 11.0255 5.34952 11.0826 5.6369C11.1398 5.92428 11.1105 6.22216 10.9983 6.49286C10.8862 6.76357 10.6963 6.99494 10.4527 7.15773C10.2091 7.32052 9.92264 7.40741 9.62963 7.40741C9.23672 7.40741 8.8599 7.25132 8.58207 6.97349C8.30423 6.69566 8.14815 6.31884 8.14815 5.92592ZM20 10C20 11.9778 19.4135 13.9112 18.3147 15.5557C17.2159 17.2002 15.6541 18.4819 13.8268 19.2388C11.9996 19.9957 9.98891 20.1937 8.0491 19.8078C6.10929 19.422 4.32746 18.4696 2.92894 17.0711C1.53041 15.6725 0.578004 13.8907 0.192152 11.9509C-0.1937 10.0111 0.00433291 8.00043 0.761209 6.17316C1.51809 4.3459 2.79981 2.78412 4.4443 1.6853C6.08879 0.58649 8.02219 0 10 0C12.6513 0.00294095 15.1931 1.05745 17.0678 2.93218C18.9425 4.80691 19.9971 7.34874 20 10ZM17.7778 10C17.7778 8.4617 17.3216 6.95795 16.467 5.6789C15.6124 4.39985 14.3976 3.40295 12.9764 2.81427C11.5552 2.22559 9.99137 2.07156 8.48263 2.37167C6.97389 2.67178 5.58803 3.41254 4.50028 4.50028C3.41254 5.58802 2.67178 6.97389 2.37167 8.48263C2.07157 9.99137 2.22559 11.5552 2.81427 12.9764C3.40296 14.3976 4.39985 15.6123 5.6789 16.467C6.95795 17.3216 8.4617 17.7778 10 17.7778C12.0621 17.7756 14.0391 16.9554 15.4973 15.4973C16.9554 14.0391 17.7756 12.0621 17.7778 10ZM11.1111 13.3963V10.3704C11.1111 9.87923 10.916 9.4082 10.5687 9.06091C10.2214 8.71362 9.7504 8.51852 9.25926 8.51852C8.99686 8.51813 8.74279 8.61061 8.54205 8.7796C8.34131 8.94858 8.20685 9.18316 8.16249 9.44178C8.11813 9.70041 8.16673 9.96638 8.29968 10.1926C8.43264 10.4188 8.64136 10.5907 8.88889 10.6778V13.7037C8.88889 14.1948 9.084 14.6659 9.43129 15.0132C9.77858 15.3604 10.2496 15.5556 10.7407 15.5556C11.0031 15.5559 11.2572 15.4635 11.458 15.2945C11.6587 15.1255 11.7932 14.8909 11.8375 14.6323C11.8819 14.3737 11.8333 14.1077 11.7003 13.8815C11.5674 13.6552 11.3586 13.4834 11.1111 13.3963Z" fill="url(#paint0_linear_612_5719)"/>
<defs>
<linearGradient id="paint0_linear_612_5719" x1="10" y1="0" x2="10" y2="20" gradientUnits="userSpaceOnUse">
<stop stop-color="#FF6302"/>
<stop offset="1" stop-color="#FBC403"/>
</linearGradient>
</defs>
</svg>
