<svg xmlns="http://www.w3.org/2000/svg" width="9.271" height="12.169" viewBox="0 0 9.271 12.169">
  <g id="Page-1" transform="translate(0 -0.5)">
    <g id="Core" transform="translate(0 0.5)">
      <g id="https">
        <path id="Shape" d="M8.113,4.056H7.533V2.9A2.869,2.869,0,0,0,4.636,0a2.869,2.869,0,0,0-2.9,2.9V4.056H1.159A1.162,1.162,0,0,0,0,5.215V11.01a1.162,1.162,0,0,0,1.159,1.159H8.113A1.162,1.162,0,0,0,9.271,11.01V5.215A1.162,1.162,0,0,0,8.113,4.056ZM4.636,9.271A1.159,1.159,0,1,1,5.795,8.113,1.162,1.162,0,0,1,4.636,9.271Zm1.8-5.215H2.839V2.9a1.8,1.8,0,0,1,3.593,0V4.056Z" fill="#ff6302" fill-rule="evenodd"/>
      </g>
    </g>
  </g>
</svg>
