<svg width="48" height="48" viewBox="0 0 48 48" fill="none" xmlns="http://www.w3.org/2000/svg">
<path d="M12 0.5H36C42.3513 0.5 47.5 5.64873 47.5 12V36C47.5 42.3513 42.3513 47.5 36 47.5H12C5.64873 47.5 0.5 42.3513 0.5 36V12C0.5 5.64873 5.64873 0.5 12 0.5Z" fill="white" stroke="#E0E0E0"/>
<path d="M32.796 26.401H19.379V25.73C19.3779 25.0191 19.0948 24.3377 18.5918 23.8354C18.0887 23.3331 17.4069 23.051 16.696 23.051H14.683C13.9714 23.051 13.289 23.3337 12.7858 23.8369C12.2827 24.34 12 25.0224 12 25.734V27.747C12 28.4586 12.2827 29.141 12.7858 29.6442C13.289 30.1474 13.9714 30.43 14.683 30.43H33.467C33.8193 30.43 34.1682 30.3606 34.4937 30.2258C34.8193 30.091 35.115 29.8933 35.3642 29.6442C35.6133 29.3951 35.8109 29.0993 35.9458 28.7738C36.0806 28.4482 36.15 28.0994 36.15 27.747V26.401H32.796Z" fill="#FD7B2B"/>
<path d="M18.708 17.684H16.794C16.2522 17.633 15.7067 17.7311 15.2166 17.9676C14.7264 18.2042 14.3102 18.5701 14.013 19.026L12 23.026V26.405H20.721V19.697C20.721 19.1631 20.5089 18.6511 20.1314 18.2736C19.7539 17.8961 19.2419 17.684 18.708 17.684Z" fill="#FF6302"/>
<path d="M18.038 23.051H13.338L14.68 20.368C14.873 19.9912 15.1592 19.6701 15.5114 19.4352C15.8636 19.2003 16.27 19.0595 16.692 19.026H18.034L18.038 23.051Z" fill="white"/>
<path d="M18.709 30.43C18.7092 30.7825 18.6398 31.1316 18.505 31.4573C18.3702 31.783 18.1725 32.0789 17.9232 32.3282C17.674 32.5774 17.378 32.7751 17.0523 32.91C16.7266 33.0448 16.3775 33.1141 16.025 33.114C15.6726 33.114 15.3237 33.0446 14.9981 32.9097C14.6725 32.7748 14.3767 32.5771 14.1275 32.3278C13.8784 32.0786 13.6808 31.7827 13.546 31.4571C13.4112 31.1314 13.3419 30.7824 13.342 30.43C13.342 29.7184 13.6247 29.036 14.1279 28.5328C14.631 28.0297 15.3135 27.747 16.025 27.747C16.3775 27.7469 16.7265 27.8162 17.0521 27.951C17.3777 28.0857 17.6736 28.2833 17.9229 28.5325C18.1721 28.7816 18.3698 29.0775 18.5047 29.403C18.6396 29.7286 18.709 30.0776 18.709 30.43Z" fill="#0A0A0A"/>
<path d="M17.367 30.43C17.367 30.6063 17.3322 30.7809 17.2647 30.9438C17.1972 31.1067 17.0983 31.2547 16.9735 31.3793C16.8488 31.5039 16.7008 31.6027 16.5378 31.6701C16.3749 31.7375 16.2003 31.7721 16.024 31.772C15.6682 31.7715 15.3272 31.6297 15.076 31.3779C14.8247 31.126 14.6837 30.7847 14.684 30.429C14.6845 30.0736 14.826 29.7329 15.0774 29.4817C15.3288 29.2305 15.6696 29.0893 16.025 29.089C16.3807 29.089 16.7219 29.2302 16.9735 29.4817C17.2252 29.7332 17.3667 30.0742 17.367 30.43Z" fill="white"/>
<path d="M34.809 30.43C34.8091 30.7825 34.7398 31.1316 34.605 31.4573C34.4701 31.783 34.2724 32.0789 34.0232 32.3282C33.7739 32.5774 33.478 32.7751 33.1523 32.91C32.8266 33.0448 32.4775 33.1141 32.125 33.114C31.7726 33.114 31.4236 33.0446 31.098 32.9097C30.7725 32.7748 30.4766 32.5771 30.2275 32.3278C29.9783 32.0786 29.7807 31.7827 29.646 31.4571C29.5112 31.1314 29.4419 30.7824 29.442 30.43C29.442 29.7184 29.7247 29.036 30.2278 28.5328C30.731 28.0297 31.4134 27.747 32.125 27.747C32.4774 27.7469 32.8264 27.8162 33.1521 27.951C33.4777 28.0857 33.7736 28.2833 34.0228 28.5325C34.2721 28.7816 34.4698 29.0775 34.6047 29.403C34.7396 29.7286 34.809 30.0776 34.809 30.43Z" fill="#0A0A0A"/>
<path d="M33.4671 30.43C33.4671 30.6063 33.4323 30.7809 33.3648 30.9438C33.2973 31.1067 33.1984 31.2547 33.0736 31.3793C32.9489 31.5039 32.8009 31.6027 32.6379 31.6701C32.475 31.7375 32.3004 31.7721 32.1241 31.772C31.7683 31.7715 31.4273 31.6297 31.1761 31.3779C30.9248 31.126 30.7838 30.7847 30.7841 30.429C30.7846 30.0736 30.9261 29.7329 31.1775 29.4817C31.4289 29.2305 31.7697 29.0893 32.1251 29.089C32.4808 29.089 32.822 29.2302 33.0736 29.4817C33.3253 29.7332 33.4668 30.0742 33.4671 30.43Z" fill="white"/>
<path d="M28.1 30.43C28.1002 30.7825 28.0308 31.1316 27.896 31.4573C27.7612 31.783 27.5635 32.0789 27.3142 32.3282C27.0649 32.5774 26.769 32.7751 26.4433 32.91C26.1176 33.0448 25.7685 33.1141 25.416 33.114C25.0636 33.114 24.7146 33.0446 24.3891 32.9097C24.0635 32.7748 23.7677 32.5771 23.5185 32.3278C23.2694 32.0786 23.0718 31.7827 22.937 31.4571C22.8022 31.1314 22.7329 30.7824 22.733 30.43C22.733 29.7184 23.0157 29.036 23.5189 28.5328C24.022 28.0297 24.7045 27.747 25.416 27.747C25.7685 27.7469 26.1174 27.8162 26.4431 27.951C26.7687 28.0857 27.0646 28.2833 27.3138 28.5325C27.5631 28.7816 27.7608 29.0775 27.8957 29.403C28.0306 29.7286 28.1 30.0776 28.1 30.43Z" fill="#0A0A0A"/>
<path d="M26.7591 30.43C26.7591 30.6063 26.7243 30.7809 26.6568 30.9438C26.5893 31.1067 26.4904 31.2547 26.3656 31.3793C26.2409 31.5039 26.0929 31.6027 25.9299 31.6701C25.767 31.7375 25.5924 31.7721 25.4161 31.772C25.0603 31.7715 24.7193 31.6297 24.4681 31.3779C24.2168 31.126 24.0758 30.7847 24.0761 30.429C24.0766 30.0736 24.2181 29.7329 24.4695 29.4817C24.7209 29.2305 25.0616 29.0893 25.4171 29.089C25.7728 29.089 26.114 29.2302 26.3656 29.4817C26.6173 29.7332 26.7588 30.0742 26.7591 30.43Z" fill="white"/>
<path d="M33.466 15H24.745C24.0334 15 23.351 15.2827 22.8478 15.7858C22.3447 16.289 22.062 16.9714 22.062 17.683V26.4H36.15V17.683C36.15 17.3306 36.0806 16.9816 35.9457 16.656C35.8108 16.3304 35.6131 16.0346 35.3638 15.7855C35.1146 15.5363 34.8187 15.3387 34.4931 15.2039C34.1674 15.0692 33.8184 14.9999 33.466 15Z" fill="#FF6302"/>
</svg>
