<svg width="100" height="40" viewBox="0 0 100 40" fill="none" xmlns="http://www.w3.org/2000/svg">
<path fill-rule="evenodd" clip-rule="evenodd" d="M63.8845 0.267334L68.1145 10.3392L65.3552 11.746L63.5157 7.3668L57.7558 24.0314C57.6397 24.4877 57.4211 24.8759 57.1001 25.1961C56.7791 25.5138 56.408 25.713 55.9823 25.7911C55.5566 25.8718 55.1445 25.8188 54.7461 25.6373C54.3499 25.4533 54.0267 25.1659 53.7808 24.7776L49.1456 15.4621L52.0505 13.4175L55.2925 20.3984L60.6289 5.65748L56.7085 7.65672L55.4291 4.61626L63.8845 0.267334Z" fill="#FF6302"/>
<path d="M49.5532 27.1851H63.7275V30.6667H49.5532V27.1851Z" fill="#FBC403"/>
<path fill-rule="evenodd" clip-rule="evenodd" d="M17.2113 30.1676C17.0656 30.3315 16.8949 30.4601 16.7014 30.5483C16.5078 30.6365 16.3075 30.6819 16.0981 30.6819C15.8886 30.6819 15.686 30.6365 15.4925 30.5483C15.299 30.4601 15.1305 30.3315 14.9825 30.1676L14.9779 30.1626C14.6752 29.8248 14.5226 29.4189 14.5226 28.9424V28.2995C14.1925 28.602 13.8465 28.8793 13.4799 29.1289C13.036 29.434 12.5716 29.6911 12.0844 29.9029C11.5994 30.1147 11.1008 30.2786 10.5886 30.392C10.0764 30.5055 9.55957 30.571 9.03595 30.5836C8.5146 30.5962 7.99325 30.5584 7.47645 30.4702C6.96194 30.3819 6.45652 30.2433 5.96249 30.0567C5.46619 29.8701 4.99265 29.6357 4.53505 29.3558C4.07744 29.076 3.64716 28.7533 3.2442 28.3877C2.83896 28.0247 2.46559 27.6238 2.12637 27.1851C1.78715 26.749 1.48436 26.2826 1.218 25.7859C0.953908 25.2893 0.730798 24.7699 0.548668 24.2304C0.368814 23.6909 0.232216 23.1362 0.138874 22.569C0.0478092 22.0042 0 21.432 0 20.8571C0 20.2798 0.0455322 19.7075 0.138874 19.1428C0.22994 18.5755 0.366537 18.0209 0.548668 17.4814C0.728522 16.9418 0.951631 16.4225 1.21572 15.9258C1.48209 15.4292 1.7826 14.9628 2.1241 14.5241C2.46331 14.0879 2.83668 13.6871 3.23964 13.3215C3.64489 12.956 4.07517 12.6333 4.53277 12.3534C4.9881 12.0736 5.46391 11.8391 5.95794 11.6525C6.45197 11.4635 6.95738 11.3273 7.47418 11.2366C7.99097 11.1483 8.51004 11.1105 9.03139 11.1231C9.55502 11.1382 10.0718 11.2013 10.5841 11.3147C11.0963 11.4282 11.5949 11.592 12.0821 11.8038C12.567 12.0156 13.0337 12.2727 13.4777 12.5753C13.8442 12.8274 14.1948 13.1047 14.5249 13.4123L14.5226 4.97159H14.5181C14.5181 4.49006 14.6752 4.08163 14.9848 3.74633L14.9893 3.74128C15.1373 3.57993 15.3058 3.45388 15.4993 3.36816C15.6905 3.27992 15.8909 3.23706 16.0981 3.23706C16.3052 3.23706 16.5056 3.27992 16.6968 3.36816C16.888 3.45388 17.0588 3.57993 17.2045 3.74128L17.209 3.74633C17.5209 4.08163 17.678 4.49258 17.678 4.97159V28.9424C17.678 29.4239 17.5232 29.8348 17.2159 30.1727L17.2113 30.1676ZM4.84012 25.2666C5.23625 25.7002 5.67792 26.0632 6.16967 26.3532C6.65914 26.6431 7.17821 26.8498 7.72461 26.9708C8.271 27.0919 8.81967 27.1246 9.37516 27.0692C9.93066 27.0112 10.4657 26.8675 10.9825 26.6381C11.4993 26.4061 11.9728 26.0985 12.4076 25.7153C12.8425 25.3296 13.2158 24.8834 13.5323 24.3766C13.8465 23.8724 14.0878 23.3253 14.2585 22.7404C14.427 22.1555 14.5158 21.558 14.5249 20.9429H14.5203V20.7563H14.5249C14.5226 20.4991 14.5044 20.247 14.4725 19.9924C14.4407 19.7403 14.3951 19.4907 14.3359 19.2436C14.2767 18.9991 14.2039 18.7571 14.1197 18.5201C14.0331 18.2831 13.933 18.0537 13.8214 17.8293C13.7099 17.6049 13.5869 17.3906 13.4503 17.1839C13.316 16.9771 13.168 16.7805 13.0109 16.5939C12.8539 16.4048 12.6877 16.2309 12.5101 16.067C12.3325 15.9006 12.1481 15.7494 11.9523 15.6107C11.7588 15.4695 11.5585 15.3435 11.3513 15.2325C11.1418 15.1191 10.9301 15.0233 10.7115 14.9376C10.493 14.8544 10.2699 14.7863 10.0422 14.7333C9.81683 14.6804 9.58917 14.6401 9.35695 14.6174C9.12701 14.5947 8.89479 14.5896 8.66485 14.5972C8.43264 14.6048 8.2027 14.63 7.97504 14.6678C7.7451 14.7081 7.51971 14.7636 7.2966 14.8342C7.07349 14.9023 6.85721 14.988 6.64321 15.0863C6.4292 15.1872 6.22203 15.3006 6.02169 15.4267C5.82134 15.5552 5.62783 15.6939 5.44342 15.8477C5.25902 16.0015 5.08372 16.1653 4.91524 16.3443C4.74905 16.5208 4.59196 16.7074 4.44626 16.9066C4.30055 17.1032 4.16623 17.3099 4.0433 17.5267C3.92036 17.7436 3.81108 17.9679 3.71318 18.1974C3.61529 18.4293 3.52878 18.6663 3.4582 18.9083C3.38535 19.1503 3.32843 19.3974 3.2829 19.647C3.23964 19.8991 3.21005 20.1512 3.19184 20.4059C3.1759 20.6605 3.17362 20.9151 3.18728 21.1698C3.19867 21.4244 3.22371 21.6765 3.26469 21.9286C3.30567 22.1807 3.35803 22.4278 3.42633 22.6723C3.49463 22.9144 3.57431 23.1539 3.66765 23.3858C3.76327 23.6203 3.87027 23.8472 3.98866 24.064C4.10704 24.2833 4.23909 24.4926 4.38251 24.6943C4.52366 24.896 4.6762 25.0851 4.84012 25.2666Z" fill="black"/>
<path fill-rule="evenodd" clip-rule="evenodd" d="M41.0704 30.1703C40.9224 30.3342 40.7517 30.4577 40.5604 30.5485C40.3669 30.6367 40.1643 30.6796 39.9549 30.6796C39.7454 30.6796 39.5451 30.6367 39.3516 30.5485C39.158 30.4577 38.9873 30.3342 38.8416 30.1703L38.837 30.1653C38.5274 29.8274 38.3749 29.4165 38.3749 28.9375V4.96923C38.3749 4.48769 38.5297 4.07927 38.8416 3.74144L38.8461 3.7364C38.9941 3.57505 39.1626 3.45151 39.3538 3.36328C39.5473 3.27504 39.7454 3.23218 39.9526 3.23218C40.162 3.23218 40.3601 3.27504 40.5536 3.36328C40.7449 3.45151 40.9133 3.57505 41.0613 3.7364L41.0659 3.74144C41.3778 4.07927 41.5326 4.48769 41.5348 4.96671V28.9375C41.5348 29.419 41.38 29.83 41.0704 30.1703Z" fill="black"/>
<path fill-rule="evenodd" clip-rule="evenodd" d="M46.3545 30.1677C46.2065 30.3341 46.038 30.4601 45.8445 30.5484C45.651 30.6391 45.4484 30.682 45.2389 30.682C45.0295 30.682 44.8291 30.6391 44.6356 30.5484C44.4421 30.4601 44.2714 30.3341 44.1257 30.1677L44.1211 30.1626C43.816 29.8248 43.6658 29.4189 43.6658 28.9424V12.9585C43.6658 12.482 43.8206 12.0736 44.1257 11.7383L44.1302 11.7333C44.2782 11.5694 44.4467 11.4459 44.6379 11.3576C44.8314 11.2694 45.0317 11.224 45.2389 11.224C45.4461 11.224 45.6464 11.2669 45.8377 11.3526C46.0312 11.4408 46.2019 11.5644 46.3476 11.7257L46.3522 11.7308C46.6641 12.0686 46.8189 12.477 46.8212 12.9585V28.9399C46.8212 29.4214 46.6664 29.8324 46.359 30.1702L46.3545 30.1677ZM46.9282 4.44221C47.1035 4.44221 47.2788 4.417 47.4495 4.36657C47.6203 4.31615 47.7819 4.24052 47.9345 4.14472C48.087 4.04639 48.2259 3.9279 48.3511 3.78924C48.4763 3.6531 48.5833 3.49931 48.6721 3.33039C48.7609 3.16148 48.8269 2.98248 48.8724 2.7934C48.918 2.60683 48.9407 2.41523 48.9407 2.21858C48.9407 2.02446 48.918 1.83285 48.8724 1.64629C48.8269 1.45721 48.7586 1.27821 48.6698 1.10929C48.581 0.940377 48.4763 0.786588 48.3511 0.650448C48.2259 0.511786 48.0847 0.393294 47.9322 0.297492C47.7796 0.199168 47.618 0.126056 47.4473 0.0756335C47.2765 0.0252112 47.1012 0 46.9259 0C46.7483 0 46.573 0.0252112 46.4023 0.0756335C46.2315 0.126056 46.0699 0.199168 45.9174 0.297492C45.7648 0.395815 45.626 0.511786 45.5007 0.650448C45.3755 0.786588 45.2685 0.940377 45.1797 1.10929C45.0909 1.27821 45.0249 1.45721 44.9771 1.64629C44.9316 1.83285 44.9088 2.02446 44.9088 2.21858C44.9088 2.41523 44.9316 2.60683 44.9771 2.7934C45.0226 2.98248 45.0909 3.16148 45.1775 3.33039C45.2662 3.49931 45.3732 3.6531 45.4985 3.78924C45.6237 3.9279 45.7625 4.04639 45.9151 4.14472C46.0676 4.24052 46.2315 4.31615 46.4023 4.36657C46.573 4.417 46.7461 4.44221 46.9236 4.44221H46.9282Z" fill="black"/>
<path fill-rule="evenodd" clip-rule="evenodd" d="M32.4329 29.371C32.1551 29.5475 31.8683 29.7063 31.5746 29.8475C31.2809 29.9912 30.9804 30.1147 30.6753 30.2206C30.368 30.3265 30.0583 30.4122 29.7442 30.4803C29.43 30.5484 29.1113 30.5988 28.7925 30.629C28.4715 30.6593 28.1528 30.6694 27.8318 30.6618C27.5108 30.6542 27.1921 30.6265 26.8733 30.5786C26.5569 30.5332 26.2404 30.4677 25.9285 30.382C25.6189 30.2988 25.3116 30.1954 25.0111 30.0744C24.7083 29.9534 24.4146 29.8122 24.1277 29.6559C23.8409 29.4996 23.5608 29.3256 23.2899 29.1365C23.0213 28.9449 22.7595 28.7407 22.5113 28.5189C22.2609 28.297 22.0218 28.06 21.7965 27.8104C21.5688 27.5608 21.3548 27.2961 21.1544 27.0213C20.9541 26.744 20.7697 26.4591 20.5967 26.1591C20.4236 25.8616 20.2688 25.554 20.1254 25.2364C19.9843 24.9187 19.859 24.5935 19.7498 24.2632C19.6405 23.9304 19.5471 23.5926 19.472 23.2497C19.3969 22.9043 19.3377 22.5589 19.2967 22.2085C19.2535 21.8581 19.2307 21.5051 19.2239 21.1522C19.217 20.7992 19.2284 20.4462 19.2557 20.0933C19.2853 19.7429 19.3309 19.3924 19.3923 19.047C19.4561 18.6991 19.5358 18.3588 19.6314 18.0209C19.7293 17.6831 19.8431 17.3528 19.9706 17.0301C20.1004 16.7074 20.2461 16.3923 20.4077 16.0872C20.5671 15.7797 20.7424 15.4847 20.9313 15.1998C21.1226 14.9149 21.3252 14.6426 21.5415 14.383C21.76 14.1208 21.9877 13.8762 22.229 13.6418C22.4703 13.4098 22.723 13.1905 22.9871 12.9888C23.2489 12.7871 23.5221 12.6005 23.8022 12.4316C24.0845 12.2602 24.3736 12.1089 24.6696 11.9728C24.9655 11.8392 25.2683 11.7207 25.5757 11.6223C25.883 11.524 26.1949 11.4433 26.5114 11.3828C26.8278 11.3223 27.1465 11.2795 27.4653 11.2568C27.7863 11.2341 28.1073 11.229 28.426 11.2467C28.747 11.2618 29.0657 11.2971 29.3822 11.3501C29.7009 11.403 30.0128 11.4761 30.3224 11.5694C30.6321 11.6602 30.9371 11.7711 31.2354 11.8971C31.5359 12.0257 31.8273 12.1719 32.1119 12.3358C32.3964 12.4997 32.6719 12.6787 32.9383 12.8753C33.2046 13.072 33.4596 13.2838 33.7055 13.5107C33.9514 13.7376 34.1859 13.9796 34.4067 14.2342C34.6298 14.4889 34.837 14.7586 35.0328 15.0385C35.2286 15.3183 35.4084 15.6107 35.5746 15.9133C35.7408 16.2133 35.8933 16.5259 36.0277 16.8461C36.1643 17.1663 36.2827 17.494 36.3874 17.8293C36.4898 18.1621 36.5763 18.5025 36.6446 18.8479C36.7152 19.1933 36.7676 19.5412 36.8017 19.8916C36.8359 20.2446 36.8541 20.5975 36.8541 20.9505C36.8541 21.4295 36.6993 21.8379 36.3919 22.1757L36.3874 22.1808C36.08 22.5211 35.7089 22.69 35.2741 22.69H22.5751C22.7299 23.2775 22.9598 23.8296 23.2603 24.3439C23.5631 24.8582 23.9274 25.312 24.3508 25.7078C24.7743 26.1062 25.241 26.4263 25.751 26.6709C26.2586 26.918 26.7891 27.0768 27.3423 27.1499C27.8933 27.223 28.4419 27.2079 28.9906 27.1045C29.5393 27.0012 30.0606 26.8121 30.5592 26.5398C31.0555 26.265 31.5063 25.9196 31.9115 25.5011C32.3168 25.0826 32.6605 24.6061 32.9383 24.0767V24.0741C33.043 23.875 33.175 23.7086 33.339 23.5674C33.5029 23.4287 33.685 23.3304 33.8854 23.2699C34.0857 23.2094 34.2883 23.1943 34.4932 23.222C34.6981 23.2523 34.8916 23.3228 35.0715 23.4338L35.0942 23.4464C35.2741 23.5623 35.4266 23.7111 35.5519 23.8926C35.6793 24.0716 35.7681 24.2733 35.8228 24.4952C35.8774 24.7145 35.8911 24.9389 35.866 25.1658C35.841 25.3927 35.7772 25.6045 35.6748 25.8036L35.6657 25.8187C34.8734 27.3213 33.7943 28.5063 32.4283 29.3735L32.4329 29.371ZM24.1368 16.4024C23.3833 17.1814 22.8642 18.1167 22.5751 19.2084H33.4756C33.4073 18.9512 33.3253 18.7016 33.2297 18.4571C33.1318 18.2125 33.0225 17.9756 32.8973 17.7461C32.7744 17.5192 32.6378 17.2999 32.4875 17.0881C32.3395 16.8789 32.1779 16.6822 32.0049 16.4931C31.8341 16.3066 31.6497 16.1326 31.4585 15.9713C31.265 15.8099 31.0646 15.6637 30.8552 15.5301C30.6434 15.3965 30.4272 15.2805 30.204 15.1771C29.9809 15.0763 29.7533 14.988 29.5188 14.92C29.2866 14.8494 29.0498 14.7964 28.8085 14.7586C28.5694 14.7208 28.3281 14.7031 28.0868 14.6981C27.8455 14.6956 27.6041 14.7107 27.3628 14.741C27.1238 14.7737 26.887 14.8216 26.6502 14.8847C26.4157 14.9502 26.1858 15.0309 25.9604 15.1292C25.735 15.225 25.5165 15.3385 25.3047 15.4645C25.093 15.5931 24.8881 15.7368 24.6923 15.8931C24.4965 16.0494 24.3121 16.2183 24.1346 16.4024H24.1368Z" fill="black"/>
<path fill-rule="evenodd" clip-rule="evenodd" d="M79.4954 29.3558C79.2176 29.5323 78.933 29.6911 78.6394 29.8323C78.3434 29.9735 78.0452 30.097 77.7378 30.2029C77.4327 30.3088 77.1231 30.3971 76.8067 30.4651C76.4925 30.5332 76.176 30.5836 75.855 30.6139C75.5363 30.6441 75.2153 30.6542 74.8943 30.6467C74.5756 30.6391 74.2546 30.6114 73.9381 30.5635C73.6194 30.5181 73.3052 30.4525 72.9933 30.3668C72.6814 30.2836 72.3741 30.1802 72.0736 30.0592C71.773 29.9357 71.4794 29.797 71.1902 29.6407C70.9034 29.4844 70.6233 29.3105 70.3547 29.1214C70.0838 28.9298 69.8242 28.723 69.5738 28.5037C69.3234 28.2818 69.0843 28.0449 68.859 27.7953C68.6336 27.5457 68.4196 27.281 68.2192 27.0062C68.0189 26.7288 67.8322 26.4414 67.6592 26.1439C67.4884 25.8464 67.3313 25.5389 67.1902 25.2212C67.0468 24.9036 66.9215 24.5783 66.8123 24.2455C66.703 23.9153 66.6119 23.5774 66.5345 23.2321C66.4594 22.8892 66.4002 22.5438 66.3592 22.1934C66.3182 21.8429 66.2932 21.49 66.2864 21.137C66.2795 20.784 66.2909 20.4311 66.3182 20.0781C66.3478 19.7252 66.3934 19.3773 66.4548 19.0294C66.5186 18.684 66.5983 18.3411 66.6962 18.0058C66.7918 17.6679 66.9056 17.3377 67.0354 17.015C67.1629 16.6898 67.3086 16.3771 67.4702 16.0696C67.6296 15.7645 67.8049 15.4695 67.9961 15.1846C68.1851 14.8998 68.3877 14.625 68.6062 14.3653C68.8225 14.1056 69.0525 13.8585 69.2938 13.6266C69.5351 13.3921 69.7855 13.1753 70.0496 12.9736C70.3114 12.7694 70.5846 12.5829 70.8647 12.4139C71.147 12.245 71.4361 12.0912 71.7321 11.9576C72.028 11.8215 72.3308 11.7055 72.6382 11.6072C72.9478 11.5063 73.2597 11.4282 73.5739 11.3652C73.8903 11.3047 74.209 11.2643 74.5278 11.2391C74.8488 11.2164 75.1698 11.2139 75.4908 11.229C75.8095 11.2441 76.1282 11.2794 76.447 11.3324C76.7634 11.3878 77.0776 11.461 77.3872 11.5517C77.6968 11.6425 77.9996 11.7534 78.3001 11.882C78.5984 12.0106 78.8898 12.1543 79.1744 12.3181C79.4589 12.482 79.7344 12.661 80.0008 12.8577C80.2671 13.0543 80.5244 13.2661 80.7703 13.493C81.0162 13.7224 81.2484 13.9619 81.4715 14.2191C81.6923 14.4737 81.9018 14.7409 82.0976 15.0208C82.2911 15.3031 82.4732 15.5931 82.6394 15.8956C82.8056 16.1981 82.9558 16.5082 83.0924 16.8284C83.2268 17.1486 83.3474 17.4763 83.4499 17.8117C83.5523 18.147 83.6388 18.4873 83.7094 18.8327C83.7777 19.1756 83.8301 19.526 83.8642 19.8764C83.9006 20.2269 83.9166 20.5798 83.9166 20.9328C83.9166 21.4118 83.7618 21.8202 83.4544 22.1606L83.4499 22.1656C83.1425 22.5034 82.7714 22.6749 82.3389 22.6749H69.6376C69.7946 23.2623 70.0223 23.8119 70.3251 24.3262C70.6279 24.8405 70.9922 25.2968 71.4156 25.6927C71.8391 26.0885 72.3058 26.4087 72.8135 26.6557C73.3234 26.9003 73.8539 27.0591 74.4048 27.1347C74.958 27.2079 75.5067 27.1927 76.0554 27.0894C76.6018 26.9835 77.1254 26.7969 77.6217 26.5221C78.1203 26.2498 78.5711 25.9044 78.9763 25.4834C79.3815 25.0649 79.723 24.5909 80.0031 24.0615V24.0565C80.1055 23.8598 80.2398 23.6909 80.4037 23.5522C80.5677 23.4136 80.7498 23.3127 80.9501 23.2522C81.1505 23.1942 81.3531 23.1766 81.558 23.2068C81.7629 23.2346 81.9564 23.3052 82.1363 23.4186L82.1567 23.4312C82.3366 23.5447 82.4891 23.6934 82.6166 23.8749C82.7418 24.0565 82.8329 24.2581 82.8875 24.4775C82.9422 24.6993 82.9558 24.9212 82.9308 25.1481C82.9058 25.375 82.842 25.5893 82.7396 25.7885L82.7305 25.8036C81.9382 27.3062 80.8591 28.4886 79.4931 29.3558H79.4954ZM71.1993 16.3872C70.448 17.1662 69.9267 18.1016 69.6376 19.1932H80.5381C80.472 18.9361 80.3901 18.6865 80.2922 18.4419C80.1966 18.1974 80.085 17.9604 79.9621 17.731C79.8391 17.5016 79.7025 17.2822 79.5523 17.073C79.402 16.8637 79.2427 16.6645 79.0696 16.478C78.8966 16.2914 78.7145 16.1175 78.521 15.9561C78.3297 15.7948 78.1271 15.6485 77.9177 15.5149C77.7082 15.3813 77.4919 15.2653 77.2688 15.162C77.0457 15.0586 76.8158 14.9729 76.5836 14.9023C76.3491 14.8342 76.1123 14.7787 75.8732 14.7435C75.6342 14.7056 75.3929 14.6855 75.1516 14.6829C74.9102 14.6804 74.6689 14.6956 74.4276 14.7258C74.1885 14.7561 73.9495 14.804 73.715 14.8695C73.4805 14.9351 73.2506 15.0157 73.0252 15.1115C72.7998 15.2099 72.5812 15.3208 72.3695 15.4494C72.1555 15.5779 71.9529 15.7191 71.7571 15.878C71.5613 16.0343 71.3746 16.2032 71.1993 16.3872Z" fill="black"/>
<path fill-rule="evenodd" clip-rule="evenodd" d="M88.7089 11.7333C88.8569 11.8921 88.9707 12.0762 89.0504 12.2854C89.146 12.2249 89.2416 12.1619 89.3418 12.0989C90.3025 11.5114 91.3316 11.219 92.4289 11.219C92.8615 11.219 93.2303 11.3879 93.5376 11.7207L93.5422 11.7257C93.6902 11.8896 93.8063 12.0762 93.886 12.2905C93.9679 12.5022 94.0089 12.7241 94.0089 12.956C94.0089 13.1855 93.9679 13.4073 93.886 13.6216C93.8063 13.8334 93.6902 14.0225 93.5422 14.1838C93.2326 14.5242 92.8615 14.6931 92.4244 14.6931C92.2104 14.6931 91.9986 14.7158 91.7892 14.7612C91.5797 14.8065 91.3748 14.8746 91.179 14.9654C90.981 15.0561 90.7943 15.1671 90.6167 15.2982C90.4369 15.4293 90.2729 15.578 90.1227 15.7444C89.9724 15.9108 89.8358 16.0923 89.7174 16.289C89.5991 16.4856 89.4989 16.6923 89.4169 16.9092C89.335 17.126 89.2735 17.3503 89.2325 17.5823C89.1915 17.8142 89.1711 18.0462 89.1711 18.2832V28.9324C89.1733 29.2853 89.0845 29.608 88.907 29.9005C88.7294 30.1929 88.4926 30.4072 88.1967 30.5408C87.903 30.677 87.5979 30.7097 87.2837 30.6392C86.9718 30.5711 86.7009 30.4097 86.4755 30.1601C86.1682 29.8223 86.0134 29.4114 86.0134 28.9298V12.9586C86.0134 12.477 86.1705 12.0686 86.4824 11.7308L86.4869 11.7257C86.6326 11.5644 86.8034 11.4409 86.9946 11.3526C87.1858 11.2669 87.3862 11.224 87.5933 11.224C87.8005 11.224 88.0009 11.2669 88.1921 11.3526C88.3856 11.4409 88.5541 11.5644 88.7021 11.7257L88.7089 11.7333Z" fill="black"/>
<path d="M96.7454 11.6714V11.5806L96.9821 11.5503V10.1587H96.9275C96.7567 10.1587 96.6361 10.1662 96.5632 10.1789L96.5359 10.4915H96.4357V10.0276H97.8837V10.4915H97.7835L97.7471 10.1789C97.6856 10.1662 97.5649 10.1587 97.3828 10.1587H97.3282V11.5503L97.5649 11.5806V11.6714H96.7454Z" fill="black"/>
<path d="M98.8981 11.6714H98.8343L98.2879 10.2797V11.5503L98.4883 11.5806V11.6714H97.951V11.5806L98.1422 11.5503V10.1486L97.951 10.1183V10.0276H98.5429L98.9618 11.1066L99.3989 10.0276H100V10.1183L99.8087 10.1486V11.5503L100 11.5806V11.6714H99.2532V11.5806L99.4536 11.5503V10.2797L98.8981 11.6714Z" fill="black"/>
<path d="M67.9004 36.8949C67.9004 36.7688 67.8822 36.668 67.8458 36.5924C67.8094 36.5193 67.7593 36.4814 67.7001 36.4814C67.6568 36.4814 67.609 36.5066 67.5544 36.552C67.5043 36.5999 67.4565 36.6604 67.4087 36.7335L67.2448 37.742C67.2675 37.7697 67.3017 37.7924 67.3449 37.8126C67.3859 37.8277 67.4269 37.8328 67.4633 37.8328C67.5407 37.8328 67.6136 37.7899 67.6819 37.7017C67.7479 37.6159 67.8003 37.4974 67.8367 37.3487C67.8777 37.2025 67.9004 37.0512 67.9004 36.8949ZM67.4815 38.0143C67.3586 38.0143 67.2357 38.0042 67.1082 37.984C66.9852 37.9639 66.876 37.9311 66.7803 37.8832L67.1628 35.5234L67.008 35.4831L67.0262 35.3621H67.6363L67.5089 36.1587C67.4838 36.2999 67.4588 36.4184 67.436 36.5117C67.502 36.4108 67.5749 36.3352 67.6546 36.2797C67.7388 36.2268 67.8208 36.1991 67.9004 36.1991C68.0325 36.1991 68.1395 36.2571 68.2192 36.3705C68.2966 36.4789 68.3375 36.6277 68.3375 36.8142C68.3375 37.031 68.2966 37.2327 68.2192 37.4193C68.1463 37.6084 68.0461 37.7571 67.9186 37.863C67.7912 37.9639 67.6455 38.0143 67.4815 38.0143Z" fill="black"/>
<path d="M69.972 36.3604C69.972 36.4764 69.9265 36.61 69.8354 36.7638L69.0978 38.0849C68.9931 38.2714 68.9065 38.4101 68.8337 38.4983C68.7608 38.5916 68.6834 38.6622 68.606 38.7101C68.5332 38.7631 68.4535 38.7908 68.3693 38.7908C68.3146 38.7908 68.2691 38.7858 68.2327 38.7807C68.1962 38.7731 68.1507 38.7631 68.0961 38.7505L68.1689 38.3067H68.2691L68.3055 38.5387C68.3306 38.5639 68.3693 38.579 68.4239 38.579C68.4899 38.579 68.5628 38.5336 68.6425 38.4479C68.7199 38.3672 68.82 38.2109 68.943 37.984L68.5878 36.4109L68.4876 36.3705L68.5059 36.2495H69.0067L69.2617 37.4193L69.5622 36.8747C69.5918 36.8218 69.6169 36.7613 69.6351 36.6932C69.6578 36.6277 69.6715 36.5773 69.6715 36.542C69.6715 36.5092 69.6647 36.4815 69.6533 36.4613C69.6465 36.4411 69.6351 36.426 69.6169 36.4109C69.6032 36.3983 69.5713 36.3857 69.5167 36.3705L69.5349 36.2495H69.9265C69.9561 36.2772 69.972 36.3151 69.972 36.3604Z" fill="black"/>
<path fill-rule="evenodd" clip-rule="evenodd" d="M87.3588 39.9824H88.0851C88.2513 39.7883 88.8819 39.1075 89.1483 38.8101H88.422L87.3588 39.9824Z" fill="black"/>
<path fill-rule="evenodd" clip-rule="evenodd" d="M78.5483 39.9774C78.7099 39.1984 79.0195 37.7361 79.229 36.8083C79.0355 36.8083 76.5494 36.8083 76.5426 36.8159C76.4697 36.9042 75.6501 37.7966 75.4589 37.9832C75.9688 37.9832 77.4441 37.9832 77.624 37.9857C77.5761 38.1748 77.5101 38.4521 77.46 38.6765C76.7406 38.7597 76.0212 38.7547 75.3018 38.6614C74.1271 38.4798 74.1908 36.652 75.7913 36.2008C77.1436 36.105 78.4982 36.0924 79.8528 36.1579L78.999 40.0001H80.365L80.8044 38.021C80.8135 38.0059 80.8272 37.9958 80.8431 37.9908H83.0241C83.2472 37.726 83.8528 37.0075 84.0076 36.826H81.0685L81.2165 36.1604C82.4117 36.1604 83.7094 36.1705 84.9365 36.1831C84.7749 36.8739 84.2603 39.2211 84.0896 39.9824H87.1038L88.167 38.8101H85.7219C85.9314 37.7714 86.4687 35.4419 86.5984 34.852C83.4658 34.852 80.488 34.8873 77.3667 34.8469C76.5904 34.7839 75.83 34.8772 75.0855 35.1293C73.1413 35.9688 72.5721 38.0134 73.4873 39.2034C73.9039 39.7455 74.5414 39.995 75.5773 39.9875C76.5904 40.0026 76.5904 39.9976 78.546 39.9824L78.5483 39.9774Z" fill="black"/>
</svg>
