<svg id="Layer_x0020_1" xmlns="http://www.w3.org/2000/svg" width="190.358" height="76.678" viewBox="0 0 190.358 76.678">
  <g id="_2251614336640" transform="translate(5.447 5.945)">
    <g id="Group_24737" data-name="Group 24737" transform="translate(86.265)">
      <path id="Path_20017" data-name="Path 20017" d="M1603.064,102.24l7.428,16.052-4.847,2.243-3.23-6.98L1592.3,140.113a3.914,3.914,0,0,1-6.98,1.188l-8.138-14.846,5.1-3.257,5.693,11.124,9.372-23.491-6.886,3.187-2.243-4.847,14.847-6.931Z" transform="translate(-1577.18 -102.24)" fill="#ff6302" fill-rule="evenodd"/>
      <rect id="Rectangle_4871" data-name="Rectangle 4871" width="24.89" height="5.549" transform="translate(0.716 42.898)" fill="#fbc403"/>
    </g>
    <g id="Group_24738" data-name="Group 24738" transform="translate(0 4.728)">
      <path id="Path_20018" data-name="Path 20018" d="M123.872,226.466a2.749,2.749,0,0,1-3.915,0l-.008-.008a2.766,2.766,0,0,1-.8-1.946v-1.026a15.613,15.613,0,0,1-1.829,1.325,15.51,15.51,0,1,1-.006-26.382,15.71,15.71,0,0,1,1.84,1.333l-.006-13.452h-.008a2.745,2.745,0,0,1,.822-1.954l.008-.008a2.757,2.757,0,0,1,3.89,0l.008.008a2.747,2.747,0,0,1,.821,1.956v38.2a2.764,2.764,0,0,1-.812,1.963l0,0Zm-21.724-7.81a9.967,9.967,0,0,0,17.006-6.891h-.008v-.3h.008a9.963,9.963,0,1,0-17.006,7.189Z" transform="translate(-93.68 -183.54)" fill-rule="evenodd"/>
      <path id="Path_20019" data-name="Path 20019" d="M1256.6,226.468a2.763,2.763,0,0,1-3.916,0l-.008-.008a2.766,2.766,0,0,1-.812-1.954v-38.2a2.748,2.748,0,0,1,.821-1.956l.008-.008a2.757,2.757,0,0,1,3.89,0l.008.008a2.745,2.745,0,0,1,.822,1.954v38.2A2.763,2.763,0,0,1,1256.6,226.468Z" transform="translate(-1184.512 -183.54)" fill-rule="evenodd"/>
      <path id="Path_20020" data-name="Path 20020" d="M1393.414,237.816a2.749,2.749,0,0,1-3.915,0l-.008-.008a2.765,2.765,0,0,1-.8-1.946V210.389a2.756,2.756,0,0,1,.811-1.947l.008-.008a2.752,2.752,0,0,1,3.893-.009l.008.008a2.747,2.747,0,0,1,.821,1.956v25.468a2.764,2.764,0,0,1-.812,1.963Zm1.006-41a3.54,3.54,0,1,0-.008,0h.008Z" transform="translate(-1312.048 -194.889)" fill-rule="evenodd"/>
      <path id="Path_20021" data-name="Path 20021" d="M696.006,431.452a15.481,15.481,0,1,1,7.764-13.421,2.763,2.763,0,0,1-.812,1.954l-.008.008a2.764,2.764,0,0,1-1.955.812h-22.3a9.972,9.972,0,0,0,18.2,2.21l0-.006a2.752,2.752,0,0,1,3.745-1.018l.039.02a2.77,2.77,0,0,1,1.021,3.756l-.016.024A15.545,15.545,0,0,1,696,431.454Zm-14.568-20.669a9.977,9.977,0,0,0-2.743,4.472h19.141a9.96,9.96,0,0,0-16.4-4.472Z" transform="translate(-639.087 -389.796)" fill-rule="evenodd"/>
    </g>
    <g id="Group_24739" data-name="Group 24739" transform="translate(116.317 14.176)">
      <path id="Path_20022" data-name="Path 20022" d="M2117.226,431.042a15.482,15.482,0,1,1,7.764-13.422,2.765,2.765,0,0,1-.812,1.954l-.008.008a2.763,2.763,0,0,1-1.954.812h-22.3a9.972,9.972,0,0,0,18.2,2.21l0-.006a2.753,2.753,0,0,1,3.746-1.018l.038.02a2.77,2.77,0,0,1,1.021,3.756l-.016.024a15.546,15.546,0,0,1-5.686,5.663Zm-14.568-20.669a9.977,9.977,0,0,0-2.743,4.472h19.141a9.96,9.96,0,0,0-16.4-4.472Z" transform="translate(-2093.98 -398.859)" fill-rule="evenodd"/>
      <path id="Path_20023" data-name="Path 20023" d="M2695.378,403.332a2.779,2.779,0,0,1,.6.883c.167-.1.337-.2.509-.3a11.189,11.189,0,0,1,5.423-1.4,2.765,2.765,0,0,1,1.946.8l.008.008a2.749,2.749,0,0,1,0,3.915l0,0a2.764,2.764,0,0,1-1.962.812,5.71,5.71,0,0,0-5.712,5.721v16.973a2.77,2.77,0,0,1-4.733,1.958l0,0a2.764,2.764,0,0,1-.812-1.963V405.287a2.748,2.748,0,0,1,.821-1.956l.008-.008a2.757,2.757,0,0,1,3.89,0l.008.008Z" transform="translate(-2655.954 -399.235)" fill-rule="evenodd"/>
      <text id="TM" transform="translate(52.928 4)" font-size="4" font-family="Inter" font-weight="700"><tspan x="0" y="0">TM</tspan></text>
    </g>
    <g id="Group_24740" data-name="Group 24740" transform="translate(117.154 54.094)">
      <text id="by" transform="translate(0 6)" font-size="6" font-family="SegoeUI-SemiboldItalic, Segoe UI" font-weight="600" font-style="italic"><tspan x="0" y="0">by</tspan></text>
      <path id="Path_20024" data-name="Path 20024" d="M2731.19,1160.4h1.275c.293-.306,1.4-1.391,1.866-1.867h-1.273l-1.868,1.868Z" transform="translate(-2694.974 -1151.201)" fill-rule="evenodd"/>
      <path id="Path_20025" data-name="Path 20025" d="M2309.148,1057.948c.284-1.241.827-3.572,1.195-5.052-.34,0-4.706,0-4.72.015-.128.137-1.567,1.561-1.9,1.858.893,0,3.484,0,3.8.006-.085.3-.2.74-.287,1.1a17.213,17.213,0,0,1-3.79-.026c-2.064-.287-1.953-3.2.859-3.922a66.381,66.381,0,0,1,7.132-.066l-1.5,6.121h2.4l.77-3.153a.171.171,0,0,1,.069-.049h3.83c.39-.419,1.454-1.565,1.727-1.856h-5.16l.259-1.06c2.1,0,4.378.015,6.53.037-.281,1.1-1.186,4.843-1.484,6.056l5.29,0,1.868-1.868-4.292,0c.368-1.656,1.309-5.368,1.539-6.309-5.5,0-10.733.057-16.211-.007a10.9,10.9,0,0,0-4.005.449c-3.416,1.338-4.417,4.595-2.807,6.494.729.86,1.849,1.258,3.669,1.248,1.778.025,1.777.016,5.212-.007Z" transform="translate(-2288.402 -1048.755)" fill-rule="evenodd"/>
    </g>
  </g>
  <rect id="Rectangle_4872" data-name="Rectangle 4872" width="190.358" height="76.678" fill="none"/>
</svg>
