<svg id="Naira" xmlns="http://www.w3.org/2000/svg" width="30" height="25" viewBox="0 0 30 25">
  <path id="Path_14552" data-name="Path 14552" d="M28.886,59.11h-4.1V55.1h4.1a1.134,1.134,0,0,0,0-2.268h-4.1V47.277a2.717,2.717,0,0,0-.468-1.77A1.487,1.487,0,0,0,23.1,45a1.425,1.425,0,0,0-1.176.5,2.748,2.748,0,0,0-.463,1.774v5.559h-7.7l-3.275-5.045c-.28-.45-.544-.872-.8-1.277a5.668,5.668,0,0,0-.668-.883A1.975,1.975,0,0,0,7.473,45a2.225,2.225,0,0,0-1.259.386,2.111,2.111,0,0,0-.824.971,5.054,5.054,0,0,0-.221,1.7v4.777H1.114a1.134,1.134,0,0,0,0,2.268H5.168v4.007H1.114a1.134,1.134,0,0,0,0,2.268H5.168v6.347a2.657,2.657,0,0,0,.485,1.752A1.493,1.493,0,0,0,6.874,70a1.518,1.518,0,0,0,1.213-.524,2.6,2.6,0,0,0,.493-1.75V61.378h6.971l3.772,5.888c.262.389.533.782.8,1.167a5.494,5.494,0,0,0,.79.905,2.453,2.453,0,0,0,.8.5,2.926,2.926,0,0,0,1,.16c1.02,0,2.065-.318,2.065-2.676V61.378h4.1a1.134,1.134,0,0,0,0-2.268ZM21.464,55.1V59.11h-3.63l-2.6-4.006ZM8.58,50.5l1.5,2.336H8.58Zm0,8.61V55.1h2.95L14.1,59.11ZM21.464,64.7l-2.157-3.324h2.157V64.7Z" transform="translate(0 -45.001)" fill="#ff6302"/>
</svg>
