<svg xmlns="http://www.w3.org/2000/svg" xmlns:xlink="http://www.w3.org/1999/xlink" width="1920" zoomAndPan="magnify" viewBox="0 0 1440 1439.999935" height="1920" preserveAspectRatio="xMidYMid meet" version="1.0"><path fill="#a3a6aa" d="M 709.539062 152.648438 C 941.945312 152.648438 1117.820312 341.085938 1117.820312 592.335938 C 1117.820312 843.585938 847.726562 1116.820312 709.539062 1258.148438 C 571.351562 1116.820312 301.257812 827.882812 301.257812 592.335938 C 301.257812 356.789062 477.132812 152.648438 709.539062 152.648438 M 709.539062 27.023438 C 398.617188 27.023438 175.632812 281.414062 175.632812 592.335938 C 175.632812 903.257812 536.804688 1261.289062 665.570312 1390.054688 C 666.265625 1390.8125 666.984375 1391.554688 667.71875 1392.277344 C 668.453125 1392.996094 669.207031 1393.699219 669.976562 1394.382812 C 670.746094 1395.066406 671.535156 1395.730469 672.339844 1396.371094 C 673.144531 1397.011719 673.96875 1397.632812 674.804688 1398.234375 C 675.644531 1398.832031 676.496094 1399.410156 677.363281 1399.964844 C 678.230469 1400.519531 679.113281 1401.054688 680.007812 1401.5625 C 680.902344 1402.074219 681.808594 1402.558594 682.730469 1403.023438 C 683.648438 1403.484375 684.582031 1403.921875 685.523438 1404.339844 C 686.46875 1404.753906 687.421875 1405.140625 688.382812 1405.507812 C 689.347656 1405.871094 690.320312 1406.214844 691.300781 1406.527344 C 692.28125 1406.84375 693.269531 1407.132812 694.265625 1407.394531 C 695.261719 1407.660156 696.261719 1407.898438 697.269531 1408.109375 C 698.277344 1408.320312 699.289062 1408.507812 700.308594 1408.664062 C 701.324219 1408.824219 702.347656 1408.957031 703.371094 1409.0625 C 704.394531 1409.171875 705.421875 1409.25 706.453125 1409.304688 C 707.480469 1409.355469 708.507812 1409.382812 709.539062 1409.382812 C 710.570312 1409.382812 711.597656 1409.355469 712.628906 1409.304688 C 713.65625 1409.25 714.683594 1409.171875 715.707031 1409.0625 C 716.730469 1408.957031 717.753906 1408.824219 718.769531 1408.664062 C 719.789062 1408.507812 720.800781 1408.320312 721.808594 1408.109375 C 722.816406 1407.898438 723.820312 1407.660156 724.816406 1407.394531 C 725.8125 1407.132812 726.796875 1406.84375 727.78125 1406.527344 C 728.761719 1406.210938 729.730469 1405.871094 730.695312 1405.507812 C 731.660156 1405.140625 732.613281 1404.753906 733.554688 1404.339844 C 734.496094 1403.921875 735.429688 1403.484375 736.347656 1403.023438 C 737.269531 1402.558594 738.175781 1402.074219 739.070312 1401.5625 C 739.96875 1401.054688 740.847656 1400.519531 741.714844 1399.964844 C 742.582031 1399.410156 743.4375 1398.832031 744.273438 1398.234375 C 745.109375 1397.632812 745.933594 1397.011719 746.738281 1396.371094 C 747.542969 1395.730469 748.332031 1395.066406 749.101562 1394.382812 C 749.875 1393.699219 750.625 1392.996094 751.363281 1392.277344 C 752.097656 1391.554688 752.8125 1390.8125 753.507812 1390.054688 C 882.273438 1261.289062 1243.445312 909.539062 1243.445312 592.335938 C 1243.445312 275.132812 1020.460938 27.023438 709.539062 27.023438 Z M 709.539062 27.023438 " fill-opacity="1" fill-rule="nonzero"/><path fill="#a3a6aa" d="M 709.539062 278.273438 C 704.914062 278.273438 700.289062 278.386719 695.671875 278.613281 C 691.050781 278.839844 686.4375 279.179688 681.835938 279.632812 C 677.230469 280.085938 672.640625 280.652344 668.066406 281.332031 C 663.488281 282.011719 658.933594 282.800781 654.394531 283.703125 C 649.859375 284.605469 645.347656 285.621094 640.859375 286.742188 C 636.371094 287.867188 631.914062 289.101562 627.488281 290.445312 C 623.0625 291.785156 618.671875 293.238281 614.316406 294.796875 C 609.960938 296.355469 605.644531 298.019531 601.371094 299.789062 C 597.097656 301.558594 592.871094 303.433594 588.6875 305.410156 C 584.507812 307.390625 580.375 309.46875 576.296875 311.648438 C 572.214844 313.828125 568.191406 316.109375 564.226562 318.488281 C 560.257812 320.863281 556.351562 323.339844 552.503906 325.910156 C 548.65625 328.480469 544.875 331.140625 541.160156 333.898438 C 537.445312 336.652344 533.800781 339.5 530.222656 342.433594 C 526.648438 345.367188 523.148438 348.386719 519.71875 351.496094 C 516.292969 354.601562 512.941406 357.789062 509.671875 361.0625 C 506.398438 364.332031 503.210938 367.679688 500.105469 371.109375 C 497 374.535156 493.976562 378.039062 491.042969 381.613281 C 488.109375 385.191406 485.261719 388.835938 482.507812 392.550781 C 479.753906 396.265625 477.089844 400.046875 474.519531 403.894531 C 471.949219 407.738281 469.476562 411.648438 467.097656 415.613281 C 464.71875 419.582031 462.441406 423.605469 460.257812 427.6875 C 458.078125 431.765625 456 435.894531 454.019531 440.078125 C 452.042969 444.261719 450.167969 448.488281 448.398438 452.761719 C 446.628906 457.035156 444.964844 461.351562 443.40625 465.707031 C 441.847656 470.0625 440.398438 474.453125 439.054688 478.878906 C 437.710938 483.304688 436.476562 487.761719 435.355469 492.25 C 434.230469 496.738281 433.21875 501.25 432.3125 505.785156 C 431.410156 510.324219 430.621094 514.878906 429.941406 519.453125 C 429.265625 524.03125 428.699219 528.621094 428.246094 533.222656 C 427.789062 537.828125 427.449219 542.441406 427.222656 547.058594 C 426.996094 551.679688 426.882812 556.304688 426.882812 560.929688 C 426.882812 565.554688 426.996094 570.179688 427.222656 574.796875 C 427.449219 579.417969 427.789062 584.03125 428.246094 588.632812 C 428.699219 593.238281 429.265625 597.828125 429.941406 602.402344 C 430.621094 606.980469 431.410156 611.535156 432.3125 616.074219 C 433.21875 620.609375 434.230469 625.121094 435.355469 629.609375 C 436.476562 634.097656 437.710938 638.554688 439.054688 642.980469 C 440.398438 647.40625 441.847656 651.796875 443.40625 656.152344 C 444.964844 660.507812 446.628906 664.824219 448.398438 669.097656 C 450.167969 673.371094 452.042969 677.597656 454.019531 681.78125 C 456 685.960938 458.078125 690.09375 460.257812 694.171875 C 462.441406 698.253906 464.71875 702.277344 467.097656 706.242188 C 469.476562 710.210938 471.949219 714.117188 474.519531 717.964844 C 477.089844 721.8125 479.753906 725.589844 482.507812 729.308594 C 485.261719 733.023438 488.109375 736.667969 491.042969 740.246094 C 493.976562 743.820312 497 747.320312 500.105469 750.75 C 503.210938 754.175781 506.398438 757.527344 509.671875 760.796875 C 512.941406 764.066406 516.292969 767.257812 519.71875 770.363281 C 523.148438 773.46875 526.648438 776.492188 530.222656 779.425781 C 533.800781 782.359375 537.445312 785.207031 541.160156 787.960938 C 544.875 790.714844 548.65625 793.378906 552.503906 795.949219 C 556.351562 798.519531 560.257812 800.992188 564.226562 803.371094 C 568.191406 805.75 572.214844 808.027344 576.296875 810.210938 C 580.375 812.390625 584.507812 814.46875 588.6875 816.449219 C 592.871094 818.425781 597.097656 820.300781 601.371094 822.070312 C 605.644531 823.839844 609.960938 825.503906 614.316406 827.0625 C 618.671875 828.621094 623.0625 830.070312 627.488281 831.414062 C 631.914062 832.757812 636.371094 833.992188 640.859375 835.113281 C 645.347656 836.238281 649.859375 837.25 654.394531 838.152344 C 658.933594 839.058594 663.488281 839.847656 668.066406 840.527344 C 672.640625 841.203125 677.230469 841.769531 681.835938 842.222656 C 686.4375 842.679688 691.050781 843.019531 695.671875 843.246094 C 700.289062 843.472656 704.914062 843.585938 709.539062 843.585938 C 714.164062 843.585938 718.789062 843.472656 723.410156 843.246094 C 728.027344 843.019531 732.640625 842.679688 737.246094 842.222656 C 741.847656 841.769531 746.4375 841.203125 751.015625 840.527344 C 755.589844 839.847656 760.144531 839.058594 764.683594 838.152344 C 769.21875 837.25 773.730469 836.238281 778.21875 835.113281 C 782.707031 833.992188 787.164062 832.757812 791.589844 831.414062 C 796.015625 830.070312 800.40625 828.621094 804.761719 827.0625 C 809.117188 825.503906 813.433594 823.839844 817.707031 822.070312 C 821.980469 820.300781 826.207031 818.425781 830.390625 816.449219 C 834.574219 814.46875 838.703125 812.390625 842.78125 810.210938 C 846.863281 808.027344 850.886719 805.75 854.855469 803.371094 C 858.820312 800.992188 862.730469 798.519531 866.574219 795.949219 C 870.421875 793.378906 874.203125 790.714844 877.917969 787.960938 C 881.632812 785.207031 885.277344 782.359375 888.855469 779.425781 C 892.429688 776.492188 895.933594 773.46875 899.359375 770.363281 C 902.789062 767.257812 906.136719 764.066406 909.40625 760.796875 C 912.679688 757.527344 915.867188 754.175781 918.972656 750.75 C 922.082031 747.320312 925.101562 743.820312 928.035156 740.246094 C 930.96875 736.667969 933.816406 733.023438 936.570312 729.308594 C 939.328125 725.589844 941.988281 721.8125 944.558594 717.964844 C 947.128906 714.117188 949.605469 710.210938 951.980469 706.242188 C 954.359375 702.277344 956.640625 698.253906 958.820312 694.171875 C 961 690.09375 963.078125 685.960938 965.058594 681.78125 C 967.035156 677.597656 968.910156 673.371094 970.679688 669.097656 C 972.449219 664.824219 974.113281 660.507812 975.671875 656.152344 C 977.230469 651.796875 978.683594 647.40625 980.023438 642.980469 C 981.367188 638.554688 982.601562 634.097656 983.726562 629.609375 C 984.847656 625.121094 985.863281 620.609375 986.765625 616.074219 C 987.667969 611.535156 988.457031 606.980469 989.136719 602.402344 C 989.816406 597.828125 990.382812 593.238281 990.835938 588.632812 C 991.289062 584.03125 991.628906 579.417969 991.855469 574.796875 C 992.082031 570.179688 992.195312 565.554688 992.195312 560.929688 C 992.195312 556.304688 992.082031 551.679688 991.855469 547.058594 C 991.628906 542.441406 991.289062 537.828125 990.835938 533.222656 C 990.382812 528.621094 989.816406 524.03125 989.136719 519.453125 C 988.457031 514.878906 987.667969 510.324219 986.765625 505.785156 C 985.863281 501.25 984.847656 496.738281 983.726562 492.25 C 982.601562 487.761719 981.367188 483.304688 980.023438 478.878906 C 978.683594 474.453125 977.230469 470.0625 975.671875 465.707031 C 974.113281 461.351562 972.449219 457.035156 970.679688 452.761719 C 968.910156 448.488281 967.035156 444.261719 965.058594 440.078125 C 963.078125 435.894531 961 431.765625 958.820312 427.6875 C 956.640625 423.605469 954.359375 419.582031 951.980469 415.613281 C 949.605469 411.648438 947.128906 407.738281 944.558594 403.894531 C 941.988281 400.046875 939.328125 396.265625 936.570312 392.550781 C 933.816406 388.835938 930.96875 385.191406 928.035156 381.613281 C 925.101562 378.039062 922.082031 374.535156 918.972656 371.109375 C 915.867188 367.679688 912.679688 364.332031 909.40625 361.0625 C 906.136719 357.789062 902.789062 354.601562 899.359375 351.496094 C 895.933594 348.386719 892.429688 345.367188 888.855469 342.433594 C 885.277344 339.5 881.632812 336.652344 877.917969 333.898438 C 874.203125 331.140625 870.421875 328.480469 866.574219 325.910156 C 862.730469 323.339844 858.820312 320.863281 854.855469 318.488281 C 850.886719 316.109375 846.863281 313.828125 842.78125 311.648438 C 838.703125 309.46875 834.574219 307.390625 830.390625 305.410156 C 826.207031 303.433594 821.980469 301.558594 817.707031 299.789062 C 813.433594 298.019531 809.117188 296.355469 804.761719 294.796875 C 800.40625 293.238281 796.015625 291.785156 791.589844 290.445312 C 787.164062 289.101562 782.707031 287.867188 778.21875 286.742188 C 773.730469 285.621094 769.21875 284.605469 764.683594 283.703125 C 760.144531 282.800781 755.589844 282.011719 751.015625 281.332031 C 746.4375 280.652344 741.847656 280.085938 737.246094 279.632812 C 732.640625 279.179688 728.027344 278.839844 723.410156 278.613281 C 718.789062 278.386719 714.164062 278.273438 709.539062 278.273438 Z M 709.539062 403.898438 C 719.152344 403.941406 728.703125 404.75 738.183594 406.332031 C 747.667969 407.914062 756.964844 410.242188 766.070312 413.320312 L 565.070312 617.460938 C 560.625 608.71875 557.339844 599.5625 555.210938 589.988281 C 553.085938 580.417969 552.183594 570.730469 552.507812 560.929688 C 552.507812 558.359375 552.570312 555.789062 552.699219 553.222656 C 552.824219 550.65625 553.011719 548.09375 553.265625 545.539062 C 553.515625 542.980469 553.832031 540.429688 554.207031 537.886719 C 554.585938 535.347656 555.023438 532.816406 555.527344 530.292969 C 556.027344 527.773438 556.589844 525.265625 557.214844 522.773438 C 557.839844 520.28125 558.523438 517.804688 559.269531 515.34375 C 560.015625 512.886719 560.820312 510.445312 561.6875 508.027344 C 562.554688 505.605469 563.476562 503.210938 564.460938 500.835938 C 565.445312 498.460938 566.484375 496.113281 567.585938 493.789062 C 568.683594 491.464844 569.839844 489.171875 571.050781 486.90625 C 572.261719 484.640625 573.527344 482.402344 574.847656 480.199219 C 576.171875 477.996094 577.546875 475.824219 578.972656 473.6875 C 580.402344 471.550781 581.878906 469.449219 583.410156 467.386719 C 584.941406 465.320312 586.523438 463.296875 588.152344 461.308594 C 589.78125 459.324219 591.460938 457.378906 593.1875 455.472656 C 594.914062 453.570312 596.683594 451.707031 598.5 449.890625 C 600.320312 448.074219 602.179688 446.300781 604.082031 444.578125 C 605.988281 442.851562 607.933594 441.171875 609.921875 439.542969 C 611.90625 437.910156 613.933594 436.332031 615.996094 434.800781 C 618.058594 433.269531 620.160156 431.789062 622.296875 430.363281 C 624.433594 428.933594 626.605469 427.558594 628.808594 426.238281 C 631.015625 424.917969 633.25 423.652344 635.515625 422.441406 C 637.78125 421.230469 640.078125 420.074219 642.398438 418.976562 C 644.722656 417.875 647.070312 416.835938 649.445312 415.851562 C 651.820312 414.867188 654.21875 413.941406 656.636719 413.078125 C 659.058594 412.210938 661.496094 411.40625 663.957031 410.660156 C 666.414062 409.914062 668.890625 409.226562 671.382812 408.605469 C 673.875 407.980469 676.382812 407.417969 678.902344 406.914062 C 681.425781 406.414062 683.957031 405.976562 686.5 405.597656 C 689.039062 405.21875 691.589844 404.90625 694.148438 404.652344 C 696.707031 404.402344 699.265625 404.214844 701.835938 404.085938 C 704.402344 403.960938 706.96875 403.898438 709.539062 403.898438 Z M 709.539062 717.960938 C 699.925781 717.917969 690.378906 717.105469 680.894531 715.527344 C 671.410156 713.945312 662.117188 711.617188 653.007812 708.539062 L 854.007812 504.398438 C 858.453125 513.140625 861.738281 522.296875 863.867188 531.867188 C 865.996094 541.441406 866.894531 551.128906 866.570312 560.929688 C 866.570312 563.5 866.507812 566.066406 866.382812 568.632812 C 866.253906 571.203125 866.066406 573.761719 865.816406 576.320312 C 865.5625 578.878906 865.25 581.429688 864.871094 583.96875 C 864.492188 586.511719 864.054688 589.042969 863.554688 591.566406 C 863.050781 594.085938 862.488281 596.59375 861.863281 599.085938 C 861.242188 601.578125 860.554688 604.054688 859.808594 606.511719 C 859.0625 608.972656 858.257812 611.410156 857.390625 613.832031 C 856.527344 616.25 855.601562 618.648438 854.617188 621.023438 C 853.632812 623.398438 852.59375 625.746094 851.492188 628.070312 C 850.394531 630.390625 849.242188 632.6875 848.027344 634.953125 C 846.816406 637.21875 845.550781 639.457031 844.230469 641.660156 C 842.910156 643.863281 841.535156 646.035156 840.105469 648.171875 C 838.679688 650.308594 837.199219 652.410156 835.667969 654.472656 C 834.136719 656.535156 832.558594 658.5625 830.925781 660.550781 C 829.296875 662.535156 827.617188 664.480469 825.890625 666.386719 C 824.167969 668.289062 822.394531 670.148438 820.578125 671.96875 C 818.761719 673.785156 816.898438 675.554688 814.996094 677.28125 C 813.089844 679.007812 811.144531 680.6875 809.160156 682.316406 C 807.171875 683.945312 805.148438 685.527344 803.082031 687.058594 C 801.019531 688.589844 798.917969 690.066406 796.78125 691.496094 C 794.644531 692.921875 792.472656 694.296875 790.269531 695.621094 C 788.066406 696.941406 785.832031 698.207031 783.5625 699.417969 C 781.296875 700.628906 779.003906 701.785156 776.679688 702.882812 C 774.355469 703.984375 772.007812 705.023438 769.632812 706.007812 C 767.257812 706.992188 764.863281 707.914062 762.441406 708.78125 C 760.023438 709.648438 757.582031 710.453125 755.125 711.199219 C 752.664062 711.945312 750.1875 712.628906 747.695312 713.253906 C 745.203125 713.878906 742.695312 714.441406 740.175781 714.941406 C 737.652344 715.445312 735.121094 715.882812 732.582031 716.261719 C 730.039062 716.636719 727.488281 716.953125 724.929688 717.203125 C 722.375 717.457031 719.8125 717.644531 717.246094 717.769531 C 714.679688 717.898438 712.109375 717.960938 709.539062 717.960938 Z M 709.539062 717.960938 " fill-opacity="1" fill-rule="nonzero"/></svg>