<svg width="73" height="59" viewBox="0 0 73 59" fill="none" xmlns="http://www.w3.org/2000/svg">
<path d="M15.5 48V47.5H15H10C6.97614 47.5 4.5 45.0239 4.5 42V8C4.5 4.97614 6.97614 2.5 10 2.5H62C65.0239 2.5 67.5 4.97614 67.5 8V42C67.5 45.0239 65.0239 47.5 62 47.5H30.8H30.6055L30.4621 47.6314L19.6621 57.5314L19.6541 57.5388L19.6464 57.5464C19.2432 57.9497 18.6716 58.2 18 58.2C17.3428 58.2 16.7587 57.9592 16.2378 57.5306C15.7481 57.0322 15.5 56.3692 15.5 55.7V48ZM10 44.5H18.5V53.4V54.5407L19.3388 53.7677L29.3953 44.5H62C63.3761 44.5 64.5 43.3761 64.5 42V8C64.5 6.62386 63.3761 5.5 62 5.5H10C8.62386 5.5 7.5 6.62386 7.5 8V42C7.5 43.3761 8.62386 44.5 10 44.5Z" fill="#A3A6AA" stroke="#A3A6AA"/>
<path d="M15.5 48V47.5H15H10C6.97614 47.5 4.5 45.0239 4.5 42V8C4.5 4.97614 6.97614 2.5 10 2.5H62C65.0239 2.5 67.5 4.97614 67.5 8V42C67.5 45.0239 65.0239 47.5 62 47.5H30.8H30.6055L30.4621 47.6314L19.6621 57.5314L19.6541 57.5388L19.6464 57.5464C19.2432 57.9497 18.6716 58.2 18 58.2C17.3428 58.2 16.7587 57.9592 16.2378 57.5306C15.7481 57.0322 15.5 56.3692 15.5 55.7V48ZM10 44.5H18.5V53.4V54.5407L19.3388 53.7677L29.3953 44.5H62C63.3761 44.5 64.5 43.3761 64.5 42V8C64.5 6.62386 63.3761 5.5 62 5.5H10C8.62386 5.5 7.5 6.62386 7.5 8V42C7.5 43.3761 8.62386 44.5 10 44.5Z" fill="#A3A6AA" stroke="#A3A6AA"/>
<path d="M15.5 48V47.5H15H10C6.97614 47.5 4.5 45.0239 4.5 42V8C4.5 4.97614 6.97614 2.5 10 2.5H62C65.0239 2.5 67.5 4.97614 67.5 8V42C67.5 45.0239 65.0239 47.5 62 47.5H30.8H30.6055L30.4621 47.6314L19.6621 57.5314L19.6541 57.5388L19.6464 57.5464C19.2432 57.9497 18.6716 58.2 18 58.2C17.3428 58.2 16.7587 57.9592 16.2378 57.5306C15.7481 57.0322 15.5 56.3692 15.5 55.7V48ZM10 44.5H18.5V53.4V54.5407L19.3388 53.7677L29.3953 44.5H62C63.3761 44.5 64.5 43.3761 64.5 42V8C64.5 6.62386 63.3761 5.5 62 5.5H10C8.62386 5.5 7.5 6.62386 7.5 8V42C7.5 43.3761 8.62386 44.5 10 44.5Z" fill="#A3A6AA" stroke="#A3A6AA"/>
<path d="M2 2L71 48" stroke="#A3A6AA" stroke-width="3" stroke-linecap="round"/>
</svg>
