<svg xmlns="http://www.w3.org/2000/svg" width="333.361" height="317.433" viewBox="0 0 333.361 317.433">
  <g id="Layer_3" transform="translate(-0.003 -0.005)">
    <g id="Group_24561" data-name="Group 24561" transform="translate(0.003 0.005)">
      <g id="Group_24727" data-name="Group 24727">
        <path id="Path_19712" data-name="Path 19712" d="M305.238,64.9c24.1,43.056,26.9,95.382,18.085,138.232-9.124,43.39-29.869,77.295-59.849,95.97-30.271,18.855-66.049,20.943-104.449,16.14-38.079-5.319-78.777-17.527-111.259-39.172-65.7-40.255-65.617-127.1,12.689-210.778,77.708-83.4,198.135-90.482,244.783-.392Z" transform="translate(-0.003 -0.005)" fill="#eaf4fe"/>
        <path id="Path_19713" data-name="Path 19713" d="M999.749,168.75c-9.73,0-17.7,7.122-18.474,16.179a15.654,15.654,0,0,0-2.1-.158c-7.786,0-14.139,5.765-14.629,13.043H1035.6c-.174-9.537-8.313-17.223-18.373-17.307A18.5,18.5,0,0,0,999.749,168.75Z" transform="translate(-702.237 -122.859)" fill="#c5e1f9"/>
        <path id="Path_19714" data-name="Path 19714" d="M838.206,156c-6.211,0-11.3,3.41-11.792,7.745-.438-.044-.884-.076-1.338-.076-4.969,0-9.023,2.76-9.336,6.244h45.351c-.111-4.566-5.306-8.246-11.727-8.286-1.626-3.277-6-5.629-11.156-5.629Z" transform="translate(-593.896 -113.577)" fill="#c5e1f9"/>
        <path id="Path_19715" data-name="Path 19715" d="M72.06,923.64a103.932,103.932,0,0,0,28.164,24.876c32.482,21.645,73.18,33.853,111.259,39.172,38.4,4.8,74.181,2.714,104.449-16.141,17.723-11.039,32.218-27.408,42.993-47.907Z" transform="translate(-52.464 -672.454)" fill="#c5e1f9"/>
      </g>
      <g id="Group_24560" data-name="Group 24560" transform="translate(42.563 62.584)">
        <rect id="Rectangle_4814" data-name="Rectangle 4814" width="23.19" height="1.743" transform="matrix(0.623, 0.782, -0.782, 0.623, 25.121, 96.523)" fill="#0561fc"/>
        <path id="Path_19716" data-name="Path 19716" d="M539.02,566l42.68,3.837,9.551,52.27-3.837.96s8.175,3.263,13.9,3.837c5.994.6,6.715,4.316,6.715,4.316l-26.616.96-.955-3.837-7.873-42.2-31.163-1.439-2.4-18.7Z" transform="translate(-434.995 -474.659)" fill="#281617"/>
        <path id="Path_19717" data-name="Path 19717" d="M633.773,457.3l9.268-1.341,1.705-.247s.525,4.425-1.515,6.163-9.4-.155-10.4-.9c-.324-.239-25.83,2.486-26.323,2.271-5.428-2.385-6.426-10.658-6.179-11.123.275-.519,33.445,5.173,33.445,5.173Z" transform="translate(-479.605 -391.725)" fill="#c57d58"/>
        <path id="Path_19718" data-name="Path 19718" d="M448.13,366.634s3.13-17.3,14.082-11.123,28.944,24.1,28.944,24.1l4.561,1.221a25.307,25.307,0,0,1,1.855,8.651c0,4.324-2.5,4.958-2.5,4.958s-29.727-4.944-46.937-27.807Z" transform="translate(-368.823 -320.442)" fill="#c5e1f9"/>
        <g id="Group_24556" data-name="Group 24556" transform="translate(12.366 37.334)">
          <path id="Path_19719" data-name="Path 19719" d="M308.482,793.591a15.7,15.7,0,0,1-14.419,9.064c-10.712,0-25.542,0-36.251-7.416s-41.2-27.6-41.2-30.9-1.648-7,4.531-7c18.969,0,67.559,10.3,74.975,13.182s12.358,23.07,12.358,23.07Z" transform="translate(-212.491 -651.297)" fill="#003e99"/>
          <g id="Group_24552" data-name="Group 24552" transform="translate(171.753 109.344)">
            <path id="Path_19720" data-name="Path 19720" d="M863.69,769.48a30.16,30.16,0,1,0,30.16,30.16,30.159,30.159,0,0,0-30.16-30.16Zm0,49.724a19.564,19.564,0,1,1,19.564-19.564A19.565,19.565,0,0,1,863.69,819.2Z" transform="translate(-833.53 -769.48)" fill="#212957"/>
            <path id="Path_19721" data-name="Path 19721" d="M887.985,802.85a21.085,21.085,0,1,0,21.085,21.085A21.084,21.084,0,0,0,887.985,802.85Zm0,34.764a13.679,13.679,0,1,1,13.679-13.679A13.679,13.679,0,0,1,887.985,837.614Z" transform="translate(-857.825 -793.775)" fill="#7eb3ff"/>
            <circle id="Ellipse_647" data-name="Ellipse 647" cx="16.448" cy="16.448" r="16.448" transform="translate(11.3 16.546) rotate(-9.22)" fill="#c5e1f9"/>
          </g>
          <path id="Path_19722" data-name="Path 19722" d="M859.823,734.95a34.316,34.316,0,0,0-30.04-17c-18.768,0-33.983,14.294-33.983,31.927,0,.577.019,1.148.049,1.716Z" transform="translate(-634.308 -622.62)" fill="#fd9f02"/>
          <path id="Path_19723" data-name="Path 19723" d="M836.285,732.266a45.221,45.221,0,0,1,26.556,8.561,34.6,34.6,0,0,0-27.949-13.777c-13.755,0-25.6,7.683-30.943,18.727A45.272,45.272,0,0,1,836.285,732.266Z" transform="translate(-640.242 -629.245)" fill="#fdb702"/>
          <g id="Group_24553" data-name="Group 24553" transform="translate(7.332 109.344)">
            <path id="Path_19724" data-name="Path 19724" d="M259.1,769.48a30.16,30.16,0,1,0,30.16,30.16A30.159,30.159,0,0,0,259.1,769.48Zm0,49.724a19.564,19.564,0,1,1,19.564-19.564A19.565,19.565,0,0,1,259.1,819.2Z" transform="translate(-228.94 -769.48)" fill="#212957"/>
            <path id="Path_19725" data-name="Path 19725" d="M283.395,802.85a21.085,21.085,0,1,0,21.085,21.085A21.084,21.084,0,0,0,283.395,802.85Zm0,34.764a13.679,13.679,0,1,1,13.679-13.679A13.679,13.679,0,0,1,283.395,837.614Z" transform="translate(-253.235 -793.775)" fill="#7eb3ff"/>
            <circle id="Ellipse_648" data-name="Ellipse 648" cx="16.448" cy="16.448" r="16.448" transform="translate(8.668 21.257) rotate(-22.5)" fill="#c5e1f9"/>
          </g>
          <path id="Path_19726" data-name="Path 19726" d="M201.985,588.474s74.358,21.832,81.154,22.453,2.472,6.179,6.179,9.885,13.595,10.506,15.447,11.123,43.254-2.472,50.053-4.327,44.492-53.76,44.492-53.76-17.919-38.93-30.9-44.492-16.684,4.327-16.684,4.327,13.595,27.19,12.358,35.221-1.235,27.807-11.123,32.131-27.807,1.855-31.514,0-18.539-6.179-8.034-26.57c9.456-18.357-68.241-26.167-83.833-26.983-1.727-.09-2.679,2.679-2.679,2.679,7,14.83-8.284,23.1-16.75,30.84l-8.175,7.473Z" transform="translate(-201.98 -484.08)" fill="#fdb702"/>
          <path id="Path_19727" data-name="Path 19727" d="M300.453,585.505l90.835,29.042s6.8-5.562,6.8-10.506-4.944-14.83-13.6-17.3-69.827-6.179-69.827-6.179-10.506-2.472-14.212,4.944Z" transform="translate(-273.671 -522.306)" fill="#0561fc"/>
          <path id="Path_19728" data-name="Path 19728" d="M244.5,667.913c-10.574,3.038-23.263,11.593-32.787,18.9,12.847,3.824,72.454,21.487,78.513,21.993,2.124.177,3.163.8,3.7,1.673,5.956-3.652,9.73-7.7,10.514-9.624,1.855-4.544-.617-12.5-5.561-28.966S260.809,663.227,244.5,667.913Z" transform="translate(-209.064 -581.816)" fill="#fd9f02"/>
          <path id="Path_19729" data-name="Path 19729" d="M202.76,718.705s22.863-11.359,50.053-11.928c25.449-.533,35.221,1.705,33.369,13.065s-2.472,17.041-19.774,14.767c-12.978-1.705-39.858-5.964-54.309-10.862-4.819-1.632-8.254-3.337-9.336-5.042Z" transform="translate(-202.548 -614.433)" fill="#fdb702"/>
          <path id="Path_19730" data-name="Path 19730" d="M586.622,520.215c-3.345-1.433-4.531,0-6.013,1.645,3.255,9.711,24.313,37.486,23.725,48.612-.617,11.74-10.506,21.629-14.83,28.425s-12.978,13.595-21.629,14.212c-7.9.566-54.954-6.6-63.066-7.849,5.061,1.156,1.518,6.239,4.979,9.7,3.707,3.707,13.6,10.506,15.447,11.123s43.254-2.472,50.053-4.327S619.781,568,619.781,568s-20.184-42.226-33.162-47.788Z" transform="translate(-422.454 -478.231)" fill="#fd9f02"/>
          <path id="Path_19731" data-name="Path 19731" d="M637.187,674.063a8.119,8.119,0,0,1-.073,1.428c-1.235,8.034-1.235,27.807-11.123,32.131s-27.807,1.855-31.514,0-18.539-6.179-8.034-26.57c0,0-8.444-1.235-9.268,8.651s.824,18.539,10.71,21.833,30.527,3.361,35.841,1.235c10.3-4.12,15.243-19.774,15.654-28.014.106-2.1-.794-6.021-2.192-10.7Z" transform="translate(-475.004 -590.666)" fill="#fd9f02"/>
          <path id="Path_19732" data-name="Path 19732" d="M229.185,680.179s-1.479-.56-.965-3.96,3.913-7.517,4.737-9.064a5.6,5.6,0,0,1,4.427-3.193c2.059-.1,7.106-.1,9.372,0s-15.578,15.025-17.574,16.214Z" transform="translate(-221.005 -583.258)" fill="#fdb702"/>
          <path id="Path_19733" data-name="Path 19733" d="M240.739,663.91c-1.338.008-2.559.033-3.348.073a5.6,5.6,0,0,0-4.427,3.193c-.824,1.545-4.223,5.665-4.737,9.064a8.912,8.912,0,0,0-.106,1.305c4.077-3.968,10.72-10.837,12.619-13.633Z" transform="translate(-221.011 -583.276)" fill="#dd000b"/>
          <path id="Path_19734" data-name="Path 19734" d="M733.318,466.937s-7.416-13.6-7.209-14.419,2.679-8.858,8.034-11.33.824-4.944,5.561-4.944,5.561-.411,8.858-.207,6.592,1.441,6.8,8.651,1.855,11.947-.824,12.154a64.839,64.839,0,0,1-9.064-.207c-2.265-.207-3.707,3.5-3.748,4.324-.217,4.577-8.406,5.975-8.406,5.975Z" transform="translate(-583.566 -417.333)" fill="#fdb702"/>
          <path id="Path_19735" data-name="Path 19735" d="M815.7,445.2c-.179-6.328-2.741-8.053-5.594-8.52a3.893,3.893,0,0,0-.99,3.715l3.554,13.47a3.908,3.908,0,0,0,3.312,2.869c.984-1.518-.117-5.719-.283-11.536Z" transform="translate(-643.909 -417.842)" fill="#b1b3ae"/>
          <path id="Path_19736" data-name="Path 19736" d="M712.367,484.385l8.561-4.944a2.342,2.342,0,0,0,.854-3.19h0a2.342,2.342,0,0,0-3.19-.854l-8.561,4.944a2.342,2.342,0,0,0-.854,3.19h0A2.342,2.342,0,0,0,712.367,484.385Z" transform="translate(-571.016 -445.804)" fill="#b1b3ae"/>
          <g id="Group_24554" data-name="Group 24554" transform="translate(141.209)">
            <path id="Path_19737" data-name="Path 19737" d="M730.1,377.234s-2.654-9.663-4.683-9.818-3.236,3.4-3.813,7.775-.846,9.026,1.7,8.278S729.641,379,730.1,377.234Z" transform="translate(-721.218 -367.412)" fill="#b1b3ae"/>
            <rect id="Rectangle_4815" data-name="Rectangle 4815" width="1.24" height="14.691" transform="translate(7.602 9.431) rotate(-9.32)" fill="#b1b3ae"/>
          </g>
          <g id="Group_24555" data-name="Group 24555" transform="translate(146.335 4.364)">
            <path id="Path_19738" data-name="Path 19738" d="M746.359,390.361s-1.071-6.628-2.437-6.883-2.453,2.015-3.176,4.884-1.259,5.939.528,5.635,4.64-2.494,5.086-3.633Z" transform="translate(-740.069 -383.458)" fill="#b1b3ae"/>
            <path id="Path_19739" data-name="Path 19739" d="M760.524,419.251l-.424-11.784.846-.057.424,11.784Z" transform="translate(-754.652 -400.896)" fill="#b1b3ae"/>
          </g>
        </g>
        <g id="Group_24558" data-name="Group 24558" transform="translate(62.315)">
          <path id="Path_19740" data-name="Path 19740" d="M591.033,793.378v3.356h16.543a12.52,12.52,0,0,0-8.153-5.515c-5.515-.96-8.393,2.157-8.393,2.157Z" transform="translate(-535.176 -638.495)" fill="#281617"/>
          <path id="Path_19741" data-name="Path 19741" d="M402.532,412.413s-11.1,2.083-13.516-21.357-4.1-28.261-3.051-37.647c1.235-11.123,11.74-14.83,11.74-14.83l14,2.472s10.138,3.647,11.1,8.855-2.415,26.045-.965,29.692,6.758,15.626,6.758,15.626l-26.069,17.19Z" transform="translate(-385.648 -309.087)" fill="#c5e1f9"/>
          <path id="Path_19742" data-name="Path 19742" d="M433.22,557.3s4.316-13.908,17.742-15.825,15.825-1.917,15.825-1.917,9.11,12.469,18.7,66.177c.378,2.11-11.988,5.755-11.988,5.755l-14.386-47.954s-18.224,5.754-25.9-6.233Z" transform="translate(-420.283 -455.409)" fill="#003e99"/>
          <line id="Line_168" data-name="Line 168" x2="16.064" y2="58.742" transform="translate(37.155 97.338)" fill="none" stroke="#9ac7f7" stroke-miterlimit="10" stroke-width="2.65"/>
          <g id="Group_24557" data-name="Group 24557" transform="translate(16.362)">
            <path id="Path_19743" data-name="Path 19743" d="M459.432,252.1s-8.164-3.288-10.09-5.725,3.144-2.279,2.328-6.146c-1.186-5.632,6.032-12.755,7.286-6.565s-2.064,7.854-1.466,5.1.253-10.484,7.993-8.227,9.336,7.873,2.263,8.863,9.271-5.134,7.805-.038-5.95,3.473-7.522,3.06,7.18-2.486,5.1,2.768-7.275,6.579-13.7,6.916Z" transform="translate(-448.062 -230.131)" fill="#212a54"/>
            <path id="Path_19744" data-name="Path 19744" d="M450.7,305.21a44.354,44.354,0,0,1-2.839,6.812c-2.3,3.72-5.415,9.937,7.987,8.784,2.249-.193-2.929-7.6.623-10.353S450.7,305.21,450.7,305.21Z" transform="translate(-445.812 -284.792)" fill="#d5865d"/>
            <path id="Path_19745" data-name="Path 19745" d="M455.356,304.37s1.42,2.056-1.686,7.7c0,.005,3.905,2.722,6.976.71a3.7,3.7,0,0,1,1.545-2.937c3.549-2.749-6.834-5.469-6.834-5.469Z" transform="translate(-451.533 -284.18)" fill="#c57d58"/>
            <path id="Path_19746" data-name="Path 19746" d="M466.949,265.734a23.324,23.324,0,0,1-1.863,10.245c-2.358,5.994-5.85,6.948-10.742,4.618s-3.9-8.632-3.37-10.106-4.58-1.662-2.516-4.8,3.775-1.221,3.628.2.242,3.418,1.637,2.63.781-6.75,3-5.205,6.173,3.9,10.228,2.412Z" transform="translate(-447.38 -254.108)" fill="#d5865d"/>
          </g>
        </g>
        <path id="Path_19747" data-name="Path 19747" d="M387.74,375.674s3.2-17.3,14.392-11.123,29.58,24.1,29.58,24.1l5.657,1.855s9.342,10.938,4.963,12.978c-2.654,1.235-6.622,0-6.622,0S405.33,398.537,387.74,375.674Z" transform="translate(-324.856 -327.024)" fill="#9ac7f7"/>
        <path id="Path_19748" data-name="Path 19748" d="M599.663,470.906l9.268-1.341,1.705-.247s.525,4.425-1.515,6.162-9.4-.155-10.4-.9c-.324-.239-25.83,2.486-26.323,2.271-5.428-2.385-6.426-10.658-6.179-11.123.275-.519,33.445,5.173,33.445,5.173Z" transform="translate(-454.772 -401.634)" fill="#d5865d"/>
        <path id="Path_19749" data-name="Path 19749" d="M725.693,481.99l-2.978,4.5-3.4-.577,2.809-6.889Z" transform="translate(-566.254 -411.334)" fill="#d5865d"/>
        <g id="Group_24559" data-name="Group 24559" transform="translate(0 35.672)">
          <rect id="Rectangle_4816" data-name="Rectangle 4816" width="59.517" height="59.884" transform="translate(0.003 0.057)" fill="#f6bc00"/>
          <path id="Path_19750" data-name="Path 19750" d="M156.513,361.51H216.03v3.516a7.4,7.4,0,0,1-7.4,7.4H163.907a7.4,7.4,0,0,1-7.4-7.4V361.51h0Z" transform="translate(-156.51 -361.453)" fill="#f68f05"/>
          <rect id="Rectangle_4817" data-name="Rectangle 4817" width="5.118" height="12.621" transform="translate(10.734)" fill="#0561fc"/>
          <rect id="Rectangle_4818" data-name="Rectangle 4818" width="5.118" height="12.621" transform="translate(42.68)" fill="#0561fc"/>
          <rect id="Rectangle_4819" data-name="Rectangle 4819" width="39.015" height="27.038" transform="translate(11.063 16.225)" fill="#ffa403"/>
        </g>
        <rect id="Rectangle_4820" data-name="Rectangle 4820" width="47.415" height="2.396" transform="translate(1.001 95.937)" fill="#0561fc"/>
      </g>
    </g>
  </g>
</svg>
