<svg xmlns="http://www.w3.org/2000/svg" xmlns:xlink="http://www.w3.org/1999/xlink" width="351.678" height="259.565" viewBox="0 0 351.678 259.565">
  <defs>
    <clipPath id="clip-path">
      <path id="Path_19757" data-name="Path 19757" d="M717.434,619.08S687.28,596.3,687.28,553.32s25.984-55.5,38.173-83.083S775.18,373.36,853.446,373.36,950,418.27,965.4,436.876s68.647,51.967,68.647,103.934-21.813,78.592-21.813,78.592Z" transform="translate(-687.28 -373.36)" fill="#f0f5ff"/>
    </clipPath>
    <clipPath id="clip-path-2">
      <path id="Path_19763" data-name="Path 19763" d="M795.452,1875.75s-64.144-16.912-70.271-94.217C760.776,1805.45,785.168,1832.44,795.452,1875.75Z" transform="translate(-725.18 -1781.53)" fill="#8fbbef"/>
    </clipPath>
    <clipPath id="clip-path-3">
      <path id="Path_19767" data-name="Path 19767" d="M1044.17,1334.83s-29.5,48.913,30.414,139.517C1085.14,1434.97,1066.11,1350.83,1044.17,1334.83Z" transform="translate(-1036.905 -1334.83)" fill="#bbd7ff"/>
    </clipPath>
    <clipPath id="clip-path-4">
      <rect id="Rectangle_4854" data-name="Rectangle 4854" width="94.928" height="195.147" rx="10" fill="#ebf5ff"/>
    </clipPath>
    <clipPath id="clip-path-5">
      <path id="Path_19790" data-name="Path 19790" d="M1546.98,1822.88a5.559,5.559,0,0,0-2.425-2.8.447.447,0,0,0-.69.153,5.346,5.346,0,0,1-7.386,1.144,17.122,17.122,0,0,1-1.561-1.432,3.714,3.714,0,0,0-1.53,1.016,7.264,7.264,0,0,0-1.918,5.039c-.041,2.733-.013,5.468-.008,8.2a4.191,4.191,0,0,0,.728,2.412,4.953,4.953,0,0,0,3.059,2.011c0-1.4-.007-2.711,0-4.023a4.318,4.318,0,1,1,8.636,0c.007,1.178,0,2.355,0,3.537,0,.141.012.284.019.427a.765.765,0,0,0,.163.007,4.529,4.529,0,0,0,3.6-4.421v-8a8,8,0,0,0-.687-3.27Z" transform="translate(-1531.449 -1819.95)" fill="#fc6"/>
    </clipPath>
    <clipPath id="clip-path-6">
      <path id="Path_19794" data-name="Path 19794" d="M1540.98,1750.83c-1.2.076-2.4.14-3.6.243a1.341,1.341,0,0,0-.4.114,4.473,4.473,0,0,0-8.644-.11l-.115-.012c-1.185-.084-2.371-.156-3.556-.233a.8.8,0,0,0-.943.715c-.02.455.3.763.832.8.485.031.971.053,1.456.093a10.1,10.1,0,0,1,2.174.239,4.478,4.478,0,0,0,8.912.158,2.071,2.071,0,0,1,1.068-.306c.972-.048,1.942-.122,2.913-.185.537-.034.863-.338.845-.786a.8.8,0,0,0-.942-.73Zm-8.346,4.407a2.933,2.933,0,1,1,2.937-2.9,2.933,2.933,0,0,1-2.937,2.9Z" transform="translate(-1523.712 -1747.807)" fill="#d14913"/>
    </clipPath>
    <clipPath id="clip-path-7">
      <path id="Path_19798" data-name="Path 19798" d="M1584.22,1762.8a2.933,2.933,0,1,0,2.077.873,2.933,2.933,0,0,0-2.077-.873Z" transform="translate(-1581.281 -1762.8)" fill="#f2c070"/>
    </clipPath>
    <clipPath id="clip-path-8">
      <path id="Path_19804" data-name="Path 19804" d="M2686.03,807.136s-.535-3.953,4.224-8.18,7.86-1.337,12.722.218,6.843-3.953,13.153-.375,8.019,12.778,6.843,26.572,5.667,18.819,8.661,27.16-6.416,17.963-.641,25.77,15.718,15.293,12.082,28.335-13.152,18.713-30.793,14.863-64.156,3.953-58.81-15.4,4.384-20.957,11.334-32.613S2686.03,807.136,2686.03,807.136Z" transform="translate(-2653.043 -796.756)" fill="#0a0a0a"/>
    </clipPath>
    <clipPath id="clip-path-9">
      <path id="Path_19810" data-name="Path 19810" d="M2678.68,908.752s-3.635-5.775,0-16.36,19.142-19.782,37-13.688,23.524,19.676,18.712,35.607-14.222,28.764-26.736,26.3S2678.68,908.752,2678.68,908.752Z" transform="translate(-2677.061 -876.755)" fill="#ef7422"/>
    </clipPath>
    <clipPath id="clip-path-10">
      <path id="Path_19815" data-name="Path 19815" d="M3211.33,2132.67c-.256.22.749,5.667,4.6,17.429s7.057,14.225,11.979,14.225,9.73-7.913,11.762-15.4c1.942-7.157,7.271-34.324,7.271-34.324l-11.126-2.143-6.737,18.124s-.882-3.288-1.844-6.335C3223.67,2123.81,3215.44,2129.13,3211.33,2132.67Z" transform="translate(-3211.29 -2112.46)" fill="#c57d58"/>
    </clipPath>
    <clipPath id="clip-path-11">
      <path id="Path_19825" data-name="Path 19825" d="M2588.63,1390.92s-1.63,14.756-.1,21.091,10.827,10.559,20.531,13.126,3.9,12.708,5.453,25.448c3.529,28.978-3.3,27.924-6.523,37-3.9,10.956-5.854,16.607-5.24,22.134,1.124,10.1,3.476,8.554,5.56,22.829h-69.285a152.338,152.338,0,0,1,7.912-18.659c4.651-8.984-5.239-25.77-7.645-42.29s-3.422-40.793.589-44.963,22.509-6.041,25.876-9.891,3.689-17.165,3.689-17.165Z" transform="translate(-2537.175 -1390.92)" fill="#ff6302"/>
    </clipPath>
    <clipPath id="clip-path-12">
      <path id="Path_19821" data-name="Path 19821" d="M2666.78,1396.36c.427-.1,5.346,10.266,7.594,19.461,20.1-.1,35.475,1.069,35.475,1.069s3.207-7.378,5.159-20.958c-7.485-19.038-10.906-28.015-10.906-29.512s-41.274,5.132-41.274,5.453S2666.78,1396.36,2666.78,1396.36Z" transform="translate(-2662.83 -1366.197)" fill="#fcb8a5"/>
    </clipPath>
    <clipPath id="clip-path-13">
      <path id="Path_19845" data-name="Path 19845" d="M2329.34,2189.04l-1.6,7.164,38.708-17.964s6.95,4.278,5.453,11.976c-20.958,13.688-45.444,27.909-51.86,30.475s-12.724-1.391-13.153-8.769,3.745-29.3,3.745-29.3Z" transform="translate(-2306.853 -2178.24)" fill="#c57d58"/>
    </clipPath>
    <clipPath id="clip-path-14">
      <path id="Path_19850" data-name="Path 19850" d="M2319.21,1725.06c6.042,4.642,6.736,15.558,5.618,31.6s-2.245,23.738-7.7,26.3-18.206-.962-24.864-5.453c-2.647-6.416-6.335-9.623-2-16.841s8.9-11.709,11.548-19.087S2312.64,1720.01,2319.21,1725.06Z" transform="translate(-2288.27 -1723.998)" fill="#fff"/>
    </clipPath>
    <clipPath id="clip-path-15">
      <rect id="Rectangle_4857" data-name="Rectangle 4857" width="308.273" height="5.133" rx="2.566" fill="#677b99"/>
    </clipPath>
    <clipPath id="clip-path-16">
      <rect id="Rectangle_4860" data-name="Rectangle 4860" width="55.014" height="28.069" rx="14.034" fill="#5b9fdd"/>
    </clipPath>
    <clipPath id="clip-path-17">
      <path id="Path_19862" data-name="Path 19862" d="M3410.77,1928.47s-5.793,1.56-8.138,3.335-1.248,3.518-.155,3.778l1.09.259s-4.07.536-4.188,2.732,3.656,2.116,3.656,2.116-3.537,1-3.3,3.3,7.8,1.012,8.375,1.094a21.933,21.933,0,0,1,3.191,1.7s-5.224.281-6.211.491a1.845,1.845,0,0,0-1.1,2.831c.831,1.35,3.236,1.248,4.551,2.144s.537,3.008.537,3.008a7.337,7.337,0,0,0,4.8-.528c2.074-1.2,3.039-4.618,3.357-7.361s1.982-4.431,1.8-6.219-.728-4.348-.892-6.351-.921-3.377-3.053-4.912a5.993,5.993,0,0,0-4.32-1.417Z" transform="translate(-3399.374 -1928.47)" fill="#d5865d"/>
    </clipPath>
    <clipPath id="clip-path-18">
      <path id="Path_19865" data-name="Path 19865" d="M2524.93,488.621l-.391-.831h15.76l12.454,5.272-8.316,1.864-10.844-.188-5.686-4.016Z" transform="translate(-2524.54 -487.79)" fill="#ffeed7"/>
    </clipPath>
    <clipPath id="clip-path-19">
      <path id="Path_19869" data-name="Path 19869" d="M2524.3,487.79l12.547,5.4v17.218l-12.575-6.721Z" transform="translate(-2524.27 -487.79)" fill="#ffcd92"/>
    </clipPath>
  </defs>
  <g id="Group_24766" data-name="Group 24766" transform="translate(-12687.607 -306.279)">
    <path id="Path_19751" data-name="Path 19751" d="M717.434,619.08S687.28,596.3,687.28,553.32s25.984-55.5,38.173-83.083S775.18,373.36,853.446,373.36,950,418.27,965.4,436.876s68.647,51.967,68.647,103.934-21.813,78.592-21.813,78.592Z" transform="translate(12004.325 -55.803)" fill="#f0f5ff"/>
    <g id="Group_24563" data-name="Group 24563" transform="translate(12691.605 317.557)" clip-path="url(#clip-path)">
      <path id="Path_19752" data-name="Path 19752" d="M681.9,1581.79c-91.616-22.647-97.783-55.5-97.079-65.789-14.443,75.816,26.112,132.509,26.112,132.509h309.8c26.774-18.274,32.724-82.022,17.85-130.894C938.588,1581.79,795.369,1609.84,681.9,1581.79Z" transform="translate(-592.692 -1397.129)" fill="#dce7f9"/>
      <path id="Path_19753" data-name="Path 19753" d="M611.6,1488.46q.29-1.524.609-3.061C612.326,1484.84,611.767,1486.01,611.6,1488.46Z" transform="translate(-619.473 -1369.586)" fill="#dce7f9"/>
      <g id="Group_24562" data-name="Group 24562" transform="translate(110.926 12.052)" opacity="0.5">
        <path id="Path_19754" data-name="Path 19754" d="M1754.33,779.667a.587.587,0,0,1-.074,0,.78.78,0,0,1-.7-.849,17.61,17.61,0,0,1,.549-2.728.78.78,0,1,1,1.506.4,16.943,16.943,0,0,0-.5,2.468A.78.78,0,0,1,1754.33,779.667Z" transform="translate(-1753.548 -745.708)" fill="#5b9fdd"/>
        <path id="Path_19755" data-name="Path 19755" d="M1983.06,717.407a.78.78,0,0,1-.476-1.4c1.4-1.076,2.764-2.191,4.041-3.313a.781.781,0,1,1,1.031,1.172c-1.3,1.144-2.69,2.283-4.123,3.38A.777.777,0,0,1,1983.06,717.407Zm10.1-9.325a.78.78,0,0,1-.584-1.3c1.16-1.311,2.265-2.672,3.282-4.045a.78.78,0,1,1,1.254.929c-1.04,1.41-2.177,2.809-3.368,4.151a.778.778,0,0,1-.584.264Zm7.857-11.26a.779.779,0,0,1-.688-1.144c.81-1.524,1.56-3.107,2.226-4.705a.78.78,0,1,1,1.44.6c-.685,1.643-1.457,3.27-2.289,4.836a.78.78,0,0,1-.686.412Zm4.941-12.815a.779.779,0,0,1-.756-.974c.423-1.653.786-3.369,1.081-5.1a.78.78,0,1,1,1.539.261c-.3,1.769-.674,3.53-1.108,5.224a.779.779,0,0,1-.755.586Zm2.008-13.595h-.04a.78.78,0,0,1-.74-.819c.07-1.36.1-2.76.1-4.161q0-.53-.006-1.063a.78.78,0,0,1,.771-.79h.009a.78.78,0,0,1,.78.771q.006.543.006,1.082c0,1.43-.035,2.858-.1,4.244a.78.78,0,0,1-.776.735Zm-.388-13.749a.779.779,0,0,1-.775-.7c-.169-1.7-.385-3.447-.642-5.2a.78.78,0,1,1,1.544-.226c.261,1.782.479,3.557.65,5.276a.78.78,0,0,1-.7.854.335.335,0,0,0-.075,0Zm-2.148-13.595a.78.78,0,0,1-.763-.624c-.353-1.664-.749-3.392-1.175-5.119a.78.78,0,1,1,1.515-.374c.431,1.744.832,3.484,1.188,5.171a.779.779,0,0,1-.765.942Zm-3.417-13.333a.782.782,0,0,1-.748-.558q-.2-.668-.4-1.342c-.373-1.219-.771-2.451-1.185-3.659a.78.78,0,1,1,1.476-.507c.416,1.226.824,2.474,1.2,3.711q.208.679.407,1.352a.78.78,0,0,1-.748,1Zm-4.645-12.947a.78.78,0,0,1-.718-.473c-.682-1.594-1.413-3.2-2.171-4.771a.78.78,0,1,1,1.406-.677c.769,1.593,1.508,3.225,2.2,4.834a.779.779,0,0,1-.411,1.024.759.759,0,0,1-.3.061Zm-6.138-12.309a.779.779,0,0,1-.678-.393c-.856-1.5-1.769-3.017-2.7-4.5a.781.781,0,1,1,1.322-.832c.944,1.506,1.862,3.039,2.728,4.556a.78.78,0,0,1-.676,1.167Zm-7.438-11.576a.778.778,0,0,1-.636-.327c-1-1.4-2.052-2.819-3.127-4.221a.78.78,0,1,1,1.238-.95c1.086,1.416,2.149,2.849,3.159,4.265a.781.781,0,0,1-.635,1.234Zm-8.478-10.845a.778.778,0,0,1-.6-.276c-1.106-1.3-2.268-2.639-3.454-3.967a.78.78,0,0,1,1.163-1.04c1.2,1.338,2.367,2.682,3.481,4a.78.78,0,0,1-.595,1.285Zm-9.238-10.21a.78.78,0,0,1-.564-.24c-1.167-1.218-2.4-2.487-3.677-3.771a.781.781,0,1,1,1.108-1.1c1.28,1.29,2.523,2.565,3.7,3.79a.779.779,0,0,1-.563,1.32Zm-9.733-9.748a.773.773,0,0,1-.543-.221c-1.15-1.114-2.393-2.311-3.8-3.657a.781.781,0,1,1,1.079-1.129c1.412,1.352,2.658,2.549,3.811,3.665a.78.78,0,0,1-.543,1.341Zm-9.961-9.513a.777.777,0,0,1-.538-.214c-1.132-1.076-2.472-2.35-3.825-3.647a.78.78,0,0,1,1.08-1.127c1.352,1.3,2.689,2.568,3.821,3.641a.78.78,0,0,1-.538,1.346Zm-9.909-9.571a.773.773,0,0,1-.549-.227c-1.336-1.326-2.554-2.558-3.724-3.766a.781.781,0,1,1,1.121-1.086c1.163,1.2,2.374,2.426,3.7,3.745a.78.78,0,0,1-.55,1.334Zm-9.489-9.978a.777.777,0,0,1-.585-.263c-1.213-1.373-2.37-2.735-3.439-4.048a.78.78,0,1,1,1.21-.985c1.057,1.3,2.2,2.642,3.4,4a.78.78,0,0,1-.585,1.3Zm-8.613-10.725a.781.781,0,0,1-.607-.288c-1.092-1.347-2.245-2.675-3.426-3.945a.781.781,0,1,1,1.144-1.063c1.206,1.3,2.381,2.651,3.5,4.025a.779.779,0,0,1-.6,1.271ZM1791.59,512.8a.781.781,0,0,1-.669-1.182,35.452,35.452,0,0,1,3.121-4.4.781.781,0,0,1,1.2,1,33.873,33.873,0,0,0-2.984,4.2.778.778,0,0,1-.674.38Zm117.213-.358a.777.777,0,0,1-.511-.19c-1.308-1.133-2.675-2.24-4.062-3.29a.782.782,0,0,1,.942-1.248c1.415,1.07,2.809,2.2,4.143,3.354a.78.78,0,0,1-.511,1.374Zm-11.123-8.081a.779.779,0,0,1-.4-.112c-1.476-.9-3.01-1.759-4.557-2.57a.781.781,0,0,1,.728-1.383c1.575.826,3.136,1.706,4.64,2.617a.78.78,0,0,1-.4,1.447Zm-96.92-1.72a.78.78,0,0,1-.475-1.4,43.975,43.975,0,0,1,4.457-3,.78.78,0,0,1,.792,1.344,42.82,42.82,0,0,0-4.3,2.89.77.77,0,0,1-.474.161Zm84.626-4.448a.778.778,0,0,1-.294-.058c-1.6-.652-3.247-1.272-4.9-1.841a.78.78,0,1,1,.508-1.475c1.682.578,3.358,1.208,4.983,1.873a.78.78,0,0,1-.3,1.5Zm-72.6-2.153a.78.78,0,0,1-.28-1.508c1.617-.624,3.322-1.191,5.067-1.7a.781.781,0,1,1,.433,1.5c-1.7.492-3.365,1.048-4.941,1.652a.776.776,0,0,1-.285.047Zm59.52-2.111a.8.8,0,0,1-.189-.024c-1.678-.416-3.4-.8-5.115-1.137a.78.78,0,0,1,.3-1.531c1.742.34,3.49.728,5.193,1.155a.78.78,0,0,1-.188,1.538Zm-46.242-1.435a.78.78,0,0,1-.133-1.549c1.739-.3,3.508-.567,5.257-.79a.78.78,0,1,1,.2,1.548c-1.726.219-3.471.482-5.186.779a.752.752,0,0,1-.131.011Zm32.7-1.007a.646.646,0,0,1-.089-.005c-1.722-.2-3.479-.354-5.221-.469a.782.782,0,1,1,.1-1.56c1.768.117,3.549.277,5.3.475a.78.78,0,0,1-.087,1.555Zm-19.024-.545a.781.781,0,0,1-.042-1.56c1.768-.1,3.552-.153,5.313-.169a.78.78,0,1,1,.015,1.56c-1.738.016-3.5.072-5.242.166Z" transform="translate(-1786.932 -489.21)" fill="#5b9fdd"/>
        <path id="Path_19756" data-name="Path 19756" d="M3542.77,2717.48a.78.78,0,0,1-.4-1.451c.758-.449,1.515-.912,2.247-1.372a.781.781,0,0,1,.832,1.321c-.744.468-1.511.937-2.28,1.393A.781.781,0,0,1,3542.77,2717.48Z" transform="translate(-3355.932 -2483.029)" fill="#5b9fdd"/>
      </g>
      <rect id="Rectangle_4821" data-name="Rectangle 4821" width="68.592" height="38.115" transform="translate(272.154 159.095)" fill="#efc597"/>
      <rect id="Rectangle_4822" data-name="Rectangle 4822" width="30.788" height="38.115" transform="translate(272.154 159.095)" fill="#e0af79"/>
      <rect id="Rectangle_4823" data-name="Rectangle 4823" width="9.336" height="25.375" transform="translate(319.017 159.207)" fill="#ed8869"/>
      <rect id="Rectangle_4824" data-name="Rectangle 4824" width="86.338" height="47.976" transform="translate(254.408 197.367)" fill="#efc597"/>
      <rect id="Rectangle_4825" data-name="Rectangle 4825" width="38.754" height="47.976" transform="translate(254.408 197.367)" fill="#e0af79"/>
      <rect id="Rectangle_4826" data-name="Rectangle 4826" width="11.751" height="31.941" transform="translate(313.395 197.509)" fill="#ed8869"/>
    </g>
    <path id="Path_19758" data-name="Path 19758" d="M654.787,743.466c-6.913-16.706-7.8-34.365-2.648-52.483,4.646-16.312,13.155-29.371,19.481-37.464,7.386-9.452,11.536-17.346,16.333-26.487a264.006,264.006,0,0,1,15.373-26.379,79.953,79.953,0,0,1,14.63-15.813,152.4,152.4,0,0,1,17.165-12.491,191.383,191.383,0,0,1,20.3-11.219l.907,1.988a189.046,189.046,0,0,0-20.066,11.093,149.7,149.7,0,0,0-16.909,12.3,77.6,77.6,0,0,0-14.218,15.354,258.479,258.479,0,0,0-15.253,26.178c-4.649,8.849-9.04,17.209-16.55,26.815-6.2,7.935-14.552,20.745-19.1,36.717-5.019,17.633-4.156,34.809,2.564,51.049Z" transform="translate(12038.766 -224.039)" fill="#f0f5ff"/>
    <path id="Path_19759" data-name="Path 19759" d="M1023.04,2251.53c-2.447-2.935-8.073-2.446-10.152,2.569-9.173-2.809-17.245,4.525-15.411,14.555-2.446-1.1-6.97,1.1-6.242,6.849-1.834-.856-12.964-2.568-15.533,8.323s7.461,12.6,7.461,12.6l40.24-.978s20.793-17.857,20.793-40.24C1040.05,2242.48,1026.59,2245.29,1023.04,2251.53Z" transform="translate(11746.282 -1733.856)" fill="#639ee5"/>
    <path id="Path_19760" data-name="Path 19760" d="M795.452,1875.75s-64.144-16.912-70.271-94.217C760.776,1805.45,785.168,1832.44,795.452,1875.75Z" transform="translate(11970.368 -1317.478)" fill="#8fbbef"/>
    <g id="Group_24565" data-name="Group 24565" transform="translate(12695.548 464.052)" clip-path="url(#clip-path-2)">
      <g id="Group_24564" data-name="Group 24564" transform="translate(26.405 17.341)" opacity="0.69">
        <path id="Path_19761" data-name="Path 19761" d="M979,2007.72c19.549,18.274,50.36,26.561,53.547,15.937s-50.785-75.434-50.785-75.434S1000.89,1992.63,979,2007.72Z" transform="translate(-979 -1948.22)" fill="#66a2dd"/>
      </g>
      <path id="Path_19762" data-name="Path 19762" d="M882.931,2031.71l-1.048-1.058-2.1-2.11c-.177-.174-.344-.356-.52-.536l-.511-.541-1.025-1.079-1.025-1.079c-.173-.178-.337-.363-.5-.547l-.5-.552-2-2.2c-.654-.745-1.3-1.5-1.946-2.249l-.973-1.125-.946-1.145-.947-1.144c-.312-.384-.636-.761-.936-1.155l-1.842-2.333c-.312-.386-.6-.787-.9-1.182l-.9-1.188c-.3-.4-.6-.788-.893-1.188l-.869-1.208c-.577-.805-1.165-1.6-1.721-2.425l-.844-1.225c-.281-.408-.567-.812-.832-1.229l-1.635-2.484-1.588-2.517-1.543-2.542-1.492-2.576-1.438-2.6c-.936-1.748-1.859-3.508-2.716-5.3-.445-.887-.856-1.791-1.279-2.691l-.607-1.361c-.208-.454-.4-.911-.594-1.367q-.588-1.369-1.128-2.761c-.362-.926-.706-1.861-1.018-2.809.231.969.52,1.925.812,2.878s.624,1.9.96,2.836c.172.468.334.937.52,1.406l.542,1.4c.379.924.746,1.853,1.144,2.767.2.459.4.918.6,1.373l.624,1.362.312.68.327.674.651,1.353c.442.9.906,1.782,1.363,2.671l1.429,2.636c1.934,3.5,4.046,6.9,6.291,10.214s4.619,6.535,7.122,9.656c.3.4.63.776.949,1.162l.958,1.155.957,1.154.986,1.131c.661.75,1.316,1.506,1.982,2.251l2.038,2.2.51.549c.171.183.339.367.52.544l1.049,1.072c.7.714,1.4,1.431,2.106,2.135l2.159,2.081,1.085,1.04,1.11,1.006a159.149,159.149,0,0,0,18.792,14.806,236.041,236.041,0,0,1-18.013-15.633Z" transform="translate(-831.747 -1954.156)" fill="#15406b"/>
    </g>
    <path id="Path_19764" data-name="Path 19764" d="M1044.17,1334.83s-29.5,48.913,30.414,139.517C1085.14,1434.97,1066.11,1350.83,1044.17,1334.83Z" transform="translate(11691.072 -917.249)" fill="#bbd7ff"/>
    <g id="Group_24566" data-name="Group 24566" transform="translate(12727.978 417.581)" clip-path="url(#clip-path-3)">
      <path id="Path_19765" data-name="Path 19765" d="M1124,1618.99c22.63,29.961,33.785,30.6,33.785,30.6s8.607-89.247-15.3-121.12C1142.49,1528.47,1151.09,1597.64,1124,1618.99Z" transform="translate(-1114.939 -1508.325)" fill="#9dc7f9"/>
      <path id="Path_19766" data-name="Path 19766" d="M1143.26,1567.53c-.633-2.527-1.207-5.067-1.8-7.6l-.854-3.812-.208-.953-.208-.955-.41-1.91-.41-1.91-.39-1.913-.392-1.914c-.135-.637-.252-1.278-.379-1.915-.245-1.279-.506-2.555-.736-3.837l-.358-1.92-.178-.96-.167-.962q-1.372-7.691-2.417-15.439-.52-3.874-.905-7.765c-.066-.649-.13-1.3-.184-1.947l-.084-.974-.074-.976c-.028-.325-.049-.65-.072-.975s-.045-.651-.06-.977-.036-.651-.048-.977c-.008-.163-.014-.327-.018-.489l-.007-.245v-.245c-.056.651-.073,1.306-.083,1.959-.007.327-.009.653-.01.98s0,.655,0,.981l.011.981.023.98c.012.653.036,1.307.061,1.96s.052,1.308.089,1.96l.052.98.063.979c.079,1.306.185,2.609.284,3.914.446,5.213,1.08,10.409,1.848,15.585q.582,3.88,1.26,7.747c.218,1.29.458,2.576.7,3.861l.363,1.929.383,1.924c.5,2.568,1.065,5.122,1.613,7.681.585,2.549,1.158,5.1,1.784,7.641,2.458,10.169,5.34,20.23,8.531,30.186s6.714,19.8,10.634,29.488c-3.145-9.964-6.242-19.925-9.148-29.942S1145.71,1577.66,1143.26,1567.53Z" transform="translate(-1122.829 -1488.157)" fill="#15406b"/>
    </g>
    <circle id="Ellipse_649" data-name="Ellipse 649" cx="23.871" cy="23.871" r="23.871" transform="translate(12863.764 340.038) rotate(-45)" fill="#b6d4ff"/>
    <circle id="Ellipse_650" data-name="Ellipse 650" cx="20.604" cy="20.604" r="20.604" transform="translate(12981.008 433.359) rotate(-45)" fill="#b6d4ff"/>
    <path id="Path_19768" data-name="Path 19768" d="M3694.17,1386.96a6.984,6.984,0,0,0-2.9.027c-.1.029-.208.058-.312.09-3.048.954-5.043,4.294-4.761,7.827a24.968,24.968,0,0,0,3.129,9.822c.529.991,1.4,2.437,2.14,3.622a1.55,1.55,0,0,0,2.69.019l.013-.022a36.516,36.516,0,0,0,4.616-10,12.984,12.984,0,0,0,.452-5.679,6.99,6.99,0,0,0-5.068-5.706Zm-1.483,10.52a3.379,3.379,0,1,1,3-3.358,3.2,3.2,0,0,1-3.007,3.358Z" transform="translate(9317.421 -963.832)" fill="#fff"/>
    <rect id="Rectangle_4827" data-name="Rectangle 4827" width="103.644" height="203.12" rx="10" transform="translate(12766.639 357.27)" fill="#bf8932"/>
    <rect id="Rectangle_4828" data-name="Rectangle 4828" width="103.644" height="203.12" rx="10" transform="translate(12760.763 357.27)" fill="#eac77a"/>
    <rect id="Rectangle_4829" data-name="Rectangle 4829" width="94.928" height="195.147" rx="10" transform="translate(12765.121 361.272)" fill="#ebf5ff"/>
    <g id="Group_24567" data-name="Group 24567" transform="translate(12765.121 361.272)" clip-path="url(#clip-path-4)">
      <rect id="Rectangle_4830" data-name="Rectangle 4830" width="32.399" height="41.541" transform="translate(28.012 81.872)" fill="#cce3ff"/>
      <rect id="Rectangle_4831" data-name="Rectangle 4831" width="16.488" height="24.335" transform="translate(31.075 12.284)" fill="#cce3ff"/>
      <rect id="Rectangle_4832" data-name="Rectangle 4832" width="23.256" height="34.324" transform="translate(-6.024 1.552)" fill="#cce3ff"/>
      <rect id="Rectangle_4833" data-name="Rectangle 4833" width="17.551" height="18.761" transform="translate(30.544 49.956)" fill="#cce3ff"/>
      <rect id="Rectangle_4834" data-name="Rectangle 4834" width="23.256" height="24.861" transform="translate(-7.83 46.906)" fill="#cce3ff"/>
      <path id="Path_19769" data-name="Path 19769" d="M2019.97,825.476l15.4,13.472h22.93V810.88l-38.333,1.443Z" transform="translate(-1954.844 -809.079)" fill="#cce3ff"/>
      <path id="Path_19770" data-name="Path 19770" d="M2080.31,1188.95l-7.218,6.416v11.869h29.672l-.482-18.285Z" transform="translate(-2002.438 -1147.818)" fill="#cce3ff"/>
      <rect id="Rectangle_4835" data-name="Rectangle 4835" width="31.436" height="26.144" transform="translate(66.827 67.757)" fill="#cce3ff"/>
      <rect id="Rectangle_4836" data-name="Rectangle 4836" width="17.803" height="19.087" transform="translate(79.338 100.157)" fill="#cce3ff"/>
      <rect id="Rectangle_4837" data-name="Rectangle 4837" width="7.218" height="12.511" transform="translate(64.1 101.76)" fill="#cce3ff"/>
      <rect id="Rectangle_4838" data-name="Rectangle 4838" width="13.299" height="32.399" transform="translate(44.141 88.448)" fill="#7bb5ef"/>
      <rect id="Rectangle_4839" data-name="Rectangle 4839" width="11.46" height="32.399" transform="translate(30.275 88.448)" fill="#7bb5ef"/>
      <path id="Path_19771" data-name="Path 19771" d="M1378,1580.87s.427,7.8.427,18.819c0-11.652,16.788-18.5,17.109-18.819S1378,1580.87,1378,1580.87Z" transform="translate(-1379.659 -1498.841)" fill="#cce3ff"/>
      <path id="Path_19772" data-name="Path 19772" d="M1337.9,1693.75h22.028v-27.37C1346.13,1671.3,1337.9,1693.75,1337.9,1693.75Z" transform="translate(-1343.731 -1575.58)" fill="#cce3ff"/>
      <rect id="Rectangle_4840" data-name="Rectangle 4840" width="17.322" height="34.484" transform="translate(-0.858 125.338)" fill="#cce3ff"/>
      <path id="Path_19773" data-name="Path 19773" d="M1347.15,2425.5h16.04v-20.209h5.935v-9.142H1351.16Z" transform="translate(-1352.019 -2229.43)" fill="#cce3ff"/>
      <rect id="Rectangle_4841" data-name="Rectangle 4841" width="21.653" height="8.822" transform="translate(22.559 167.04)" fill="#cce3ff"/>
      <rect id="Rectangle_4842" data-name="Rectangle 4842" width="27.107" height="15.558" transform="translate(18.549 181.796)" fill="#cce3ff"/>
      <rect id="Rectangle_4843" data-name="Rectangle 4843" width="19.889" height="29.672" transform="translate(53.033 166.078)" fill="#cce3ff"/>
      <rect id="Rectangle_4844" data-name="Rectangle 4844" width="19.889" height="29.672" transform="translate(78.856 166.078)" fill="#cce3ff"/>
      <path id="Path_19774" data-name="Path 19774" d="M1664.84,2062.45l32.081-26.3H1664.76Z" transform="translate(-1636.587 -1906.882)" fill="#cce3ff"/>
      <path id="Path_19775" data-name="Path 19775" d="M1744.93,2063.06h55.014v-26.14h-23.1Z" transform="translate(-1708.417 -1907.572)" fill="#cce3ff"/>
      <path id="Path_19776" data-name="Path 19776" d="M2125.74,2064.77l13.393,3.368V2056.19H2125.74Z" transform="translate(-2049.611 -1924.837)" fill="#7bb5ef"/>
      <path id="Path_19777" data-name="Path 19777" d="M2125.61,2177.09h12.831v-7.138l-13.473-3.529Z" transform="translate(-2048.921 -2023.6)" fill="#7bb5ef"/>
      <rect id="Rectangle_4845" data-name="Rectangle 4845" width="14.435" height="10.746" transform="translate(57.925 142.5)" fill="#7bb5ef"/>
      <rect id="Rectangle_4846" data-name="Rectangle 4846" width="8.982" height="21.599" transform="translate(70.088 70.056)" fill="#7bb5ef"/>
      <rect id="Rectangle_4847" data-name="Rectangle 4847" width="3.825" height="70.335" transform="translate(22.065 5.162)" fill="#5b9fdd"/>
      <rect id="Rectangle_4848" data-name="Rectangle 4848" width="25.924" height="25.649" transform="translate(25.89 45.385)" fill="none"/>
      <path id="Path_19778" data-name="Path 19778" d="M1324.15,844.687h-4.675v36.5h-25.923V843.2h-3.825v37.982H1253v2.24h36.729v29.156h-31.662v5.238h31.661v81.619h-25.285v3.188h50.625v35.539h3.347v-35.541h23.636v35.539h3.347v-35.539h19.443v-3.185h-71.287V965.968h-1.86v-2.923h1.86V915.793h30.188v-6.512h.408v-6.525h67.391v-2.241h-67.389v-24.53h67.391v-2.24h-67.391Zm-4.675,64.385h-25.923v-25.65h25.923Z" transform="translate(-1267.663 -838.037)" fill="#bfd2ef"/>
      <path id="Path_19779" data-name="Path 19779" d="M1342.23,1034.99h-4.182V999.453h-22.8v35.539h-4.179V999.453h-50.624v-4.018h25.286V914.648h-31.662v-6.07h31.661V880.254H1249v-3.072h36.729V839.2h4.657v37.982h25.089v-36.5h5.506V869.74h67.391v3.072h-67.39v23.7h67.391v3.073h-67.391v6.525h-.41v6.509h-30.19V959.87h-1.86v2.089h1.86v33.469h71.29v4.02h-19.44Zm-3.347-.832h2.515V998.621h19.443v-2.353h-71.29V962.8h-1.86v-3.755h1.86V911.793h30.188v-6.512h.408v-6.525h67.391v-1.409h-67.389V871.985h67.391v-1.408h-67.391V841.519h-3.843v36.5h-26.755V840.032h-2.993v37.982h-36.729v1.408h36.729V909.41H1254.9v4.406h31.661v82.452h-25.285v2.355H1311.9v35.539h2.515V998.621h24.468ZM1316.31,905.9h-26.755V879.422h26.755Zm-25.924-.832h25.091V880.254h-25.09Z" transform="translate(-1264.079 -834.453)" fill="#6884af"/>
      <rect id="Rectangle_4849" data-name="Rectangle 4849" width="70.812" height="2.921" transform="translate(25.89 125.008)" fill="#bfd2ef"/>
      <path id="Path_19780" data-name="Path 19780" d="M1710.46,1994.95h-71.64v-3.75h71.645Zm-70.812-.832h69.98v-2.089h-69.98Z" transform="translate(-1613.346 -1866.608)" fill="#6884af"/>
      <rect id="Rectangle_4850" data-name="Rectangle 4850" width="1.859" height="2.921" transform="translate(24.03 125.008)" fill="#bfd2ef"/>
      <path id="Path_19781" data-name="Path 19781" d="M1623.63,1994.95h-2.692v-3.75h2.692Zm-1.86-.832h1.028v-2.089h-1.028Z" transform="translate(-1597.326 -1866.608)" fill="#6884af"/>
      <rect id="Rectangle_4851" data-name="Rectangle 4851" width="1.275" height="62.26" transform="translate(23.287 11.537)" fill="#fff"/>
      <rect id="Rectangle_4852" data-name="Rectangle 4852" width="22.736" height="1.382" transform="translate(-0.565 76.347)" fill="#fff"/>
      <rect id="Rectangle_4853" data-name="Rectangle 4853" width="110.19" height="12.831" transform="translate(-8.878 -3.457)" fill="#fff"/>
      <path id="Path_19782" data-name="Path 19782" d="M1373.71,974.724h10.2s-6.374-1.806-6.374-7.33V790.442c0-15.538,7.862-11.422,7.862-11.422l.371-1.7-12.054.9Z" transform="translate(-1375.816 -779.011)" fill="#bf8932"/>
    </g>
    <path id="Path_19783" data-name="Path 19783" d="M1863.35,1040.14v.007a11.52,11.52,0,0,0-4.785.044c-.172.048-.343.1-.514.15-5.021,1.571-8.308,7.074-7.841,12.894a41.17,41.17,0,0,0,5.156,16.18c.871,1.632,2.31,4.014,3.525,5.966a2.55,2.55,0,0,0,4.432.03l.022-.034a59.835,59.835,0,0,0,7.6-16.474,21.379,21.379,0,0,0,.745-9.354,11.507,11.507,0,0,0-8.34-9.409Zm-2.443,17.329c-2.731,0-4.946-2.477-4.946-5.531s2.215-5.531,4.946-5.531,4.946,2.476,4.946,5.531-2.213,5.532-4.943,5.532Z" transform="translate(10962.416 -653.02)" fill="#ba2020"/>
    <path id="Path_19784" data-name="Path 19784" d="M1671,1456.23h-75.965v-82h32.176a1.665,1.665,0,0,0,1.665-1.664V1356.53a1.665,1.665,0,0,0-3.329,0v14.37h-32.176a1.665,1.665,0,0,0-1.665,1.665v85.329a1.665,1.665,0,0,0,1.665,1.665H1671a1.665,1.665,0,0,0,0-3.329Z" transform="translate(11193.985 -935.196)" fill="#175ea5"/>
    <path id="Path_19785" data-name="Path 19785" d="M1641.29,1728.02q-.584.058-1.166.134a1.139,1.139,0,0,0-1.085,1.145.5.5,0,0,1-.194.341,3.152,3.152,0,0,0-1.137,1.388c-.175.365-.039.589.238.832a2.64,2.64,0,0,1,1.2-1.8,4.176,4.176,0,0,0,1.022.323,7.68,7.68,0,0,0,1.487-.165,1.115,1.115,0,0,0-.363-2.2Z" transform="translate(11152.842 -1269.531)" fill="#fc6"/>
    <path id="Path_19786" data-name="Path 19786" d="M1539.04,1732.85a.667.667,0,0,1-.254-.427,1.092,1.092,0,0,0-.9-1.053,12.776,12.776,0,0,0-1.446-.186,1.116,1.116,0,0,0-1.144.987,1.1,1.1,0,0,0,.817,1.2,11.156,11.156,0,0,0,1.568.189.815.815,0,0,0,.564-.173.444.444,0,0,1,.751.073c.355.477.66.994,1.028,1.561.051-.195.208-.442.148-.624a2.821,2.821,0,0,0-1.132-1.547Z" transform="translate(11244.541 -1272.373)" fill="#fc6"/>
    <path id="Path_19787" data-name="Path 19787" d="M1546.98,1822.88a5.559,5.559,0,0,0-2.425-2.8.447.447,0,0,0-.69.153,5.346,5.346,0,0,1-7.386,1.144,17.122,17.122,0,0,1-1.561-1.432,3.714,3.714,0,0,0-1.53,1.016,7.264,7.264,0,0,0-1.918,5.039c-.041,2.733-.013,5.468-.008,8.2a4.191,4.191,0,0,0,.728,2.412,4.953,4.953,0,0,0,3.059,2.011c0-1.4-.007-2.711,0-4.023a4.318,4.318,0,1,1,8.636,0c.007,1.178,0,2.355,0,3.537,0,.141.012.284.019.427a.765.765,0,0,0,.163.007,4.529,4.529,0,0,0,3.6-4.421v-8a8,8,0,0,0-.687-3.27Z" transform="translate(11247.977 -1351.901)" fill="#fc6"/>
    <g id="Group_24569" data-name="Group 24569" transform="translate(12779.426 468.049)" clip-path="url(#clip-path-5)">
      <path id="Path_19788" data-name="Path 19788" d="M1603.64,1838.91h0a.662.662,0,0,0-.664.664v4.838a.664.664,0,0,0,.664.664h0a.664.664,0,0,0,.664-.664v-4.838A.664.664,0,0,0,1603.64,1838.91Z" transform="translate(-1595.538 -1836.938)" fill="#ffe5b6"/>
      <g id="Group_24568" data-name="Group 24568" transform="translate(-1.592 8.315)" opacity="0.55">
        <path id="Path_19789" data-name="Path 19789" d="M1532.05,1904.77c-1.457,0-1.523-3.966-6.234-3.966s-4.214,3.537-6.3,3.258-2.94-3.082-2.94-3.082-.425,3.152-.425,4.391.354,4.32.354,5.029,3.121.991,3.755,1.062a93.284,93.284,0,0,0,13.173-1.31c4.179-.885,2.09-4.958.6-10.27C1534.6,1903.53,1533.51,1904.77,1532.05,1904.77Z" transform="translate(-1516.15 -1899.88)" fill="#e2a02b"/>
      </g>
    </g>
    <path id="Path_19791" data-name="Path 19791" d="M1585.32,1957.98a3.161,3.161,0,0,0-6.319-.024q-.031,2.92,0,5.841a3.162,3.162,0,1,0,6.323-.017c.009-.947,0-1.893,0-2.84C1585.33,1959.96,1585.34,1958.97,1585.32,1957.98Z" transform="translate(11205.382 -1472.811)" fill="#495870"/>
    <path id="Path_19792" data-name="Path 19792" d="M1540.98,1750.83c-1.2.076-2.4.14-3.6.243a1.341,1.341,0,0,0-.4.114,4.473,4.473,0,0,0-8.644-.11l-.115-.012c-1.185-.084-2.371-.156-3.556-.233a.8.8,0,0,0-.943.715c-.02.455.3.763.832.8.485.031.971.053,1.456.093a10.1,10.1,0,0,1,2.174.239,4.478,4.478,0,0,0,8.912.158,2.071,2.071,0,0,1,1.068-.306c.972-.048,1.942-.122,2.913-.185.537-.034.863-.338.845-.786a.8.8,0,0,0-.942-.73Zm-8.346,4.407a2.933,2.933,0,1,1,2.937-2.9,2.933,2.933,0,0,1-2.937,2.9Z" transform="translate(11254.909 -1287.264)" fill="#d14913"/>
    <g id="Group_24570" data-name="Group 24570" transform="translate(12778.621 460.543)" clip-path="url(#clip-path-6)">
      <path id="Path_19793" data-name="Path 19793" d="M1527.68,1788.3c-3.4,0-3.692-3.427-4.648-3.537s-4.807-.452-4.807-.452l.318.718,3.825.929,1.992,2.816s3.294,1.04,3.373,1.062,3.081-.824,3.081-.824l6.507-4.754s-4.276.585-4.967.664S1531.07,1788.3,1527.68,1788.3Z" transform="translate(-1518.791 -1780.468)" fill="#aa2c00"/>
    </g>
    <path id="Path_19795" data-name="Path 19795" d="M1584.22,1762.8a2.933,2.933,0,1,0,2.077.873,2.933,2.933,0,0,0-2.077-.873Z" transform="translate(11203.329 -1300.697)" fill="#f2c070"/>
    <g id="Group_24572" data-name="Group 24572" transform="translate(12784.61 462.103)" clip-path="url(#clip-path-7)">
      <path id="Path_19796" data-name="Path 19796" d="M1580.99,1757a2.935,2.935,0,1,0,2.076.873A2.935,2.935,0,0,0,1580.99,1757Z" transform="translate(-1578.387 -1757.603)" fill="#ffeed2"/>
      <g id="Group_24571" data-name="Group 24571" transform="translate(0.313 0.243)" opacity="0.43">
        <path id="Path_19797" data-name="Path 19797" d="M1585.19,1765.76c-.956,1-1.04,1.853-.744,1.953s-.039.026.817-1.282c.537-.82,2.026-.8,1.953-1.115S1585.85,1765.07,1585.19,1765.76Z" transform="translate(-1584.293 -1765.132)" fill="#fff"/>
      </g>
    </g>
    <path id="Path_19799" data-name="Path 19799" d="M1568.79,1917.71c-2.591-.026-4.751,2.684-4.778,6.079l-.006.847c-.013,1.913,1.154,3.473,2.6,3.473h4.283c1.443,0,2.607-1.56,2.6-3.473q0-.4-.006-.8C1573.44,1920.47,1571.34,1917.74,1568.79,1917.71Z" transform="translate(11218.805 -1439.49)" fill="#e8762a"/>
    <path id="Path_19800" data-name="Path 19800" d="M1836.22,1040.14a.044.044,0,0,1,0,.007,11.52,11.52,0,0,0-4.786.044c-.172.048-.343.1-.514.15-5.021,1.571-8.308,7.074-7.842,12.894a41.175,41.175,0,0,0,5.157,16.18c.871,1.632,2.31,4.014,3.525,5.966a2.55,2.55,0,0,0,4.432.03l.021-.034a59.785,59.785,0,0,0,7.6-16.473,21.35,21.35,0,0,0,.745-9.355,11.5,11.5,0,0,0-8.338-9.409Zm-2.443,17.328c-2.732,0-4.946-2.477-4.946-5.531s2.214-5.531,4.946-5.531a5.263,5.263,0,0,1,4.946,5.531c0,3.055-2.213,5.533-4.943,5.533Z" transform="translate(10986.723 -653.019)" fill="#f95a5a"/>
    <path id="Path_19801" data-name="Path 19801" d="M3323.56,994.328l-.3-.666c6.118-2.727,9.67-6.667,10.557-11.714.681-3.879-.255-8.47-2.7-13.276a43.552,43.552,0,0,0-8.236-11.045c-5.039-4.859-4.429-11.313-3.782-18.146.532-5.618,1.083-11.438-1.4-16.921-4.219-9.331-4.44-11.608-5.032-17.7-.188-1.933-.422-4.339-.842-7.485-1.587-11.912-3.407-12.82-3.484-12.852a.244.244,0,0,0,.046.011l.113-.72c.384.061,2.384,1,4.047,13.464.421,3.159.656,5.573.845,7.512.583,6,.8,8.243,4.97,17.465,2.559,5.658,2,11.571,1.457,17.289-.624,6.658-1.225,12.937,3.562,17.553a44.244,44.244,0,0,1,8.381,11.236c2.525,4.947,3.485,9.7,2.776,13.732C3333.6,987.374,3329.91,991.5,3323.56,994.328Z" transform="translate(9655.939 -513.159)" fill="#0a0a0a"/>
    <path id="Path_19802" data-name="Path 19802" d="M2686.03,807.136s-.535-3.953,4.224-8.18,7.86-1.337,12.722.218,6.843-3.953,13.153-.375,8.019,12.778,6.843,26.572,5.667,18.819,8.661,27.16-6.416,17.963-.641,25.77,15.718,15.293,12.082,28.335-13.152,18.713-30.793,14.863-64.156,3.953-58.81-15.4,4.384-20.957,11.334-32.613S2686.03,807.136,2686.03,807.136Z" transform="translate(10243.064 -435.153)" fill="#0a0a0a"/>
    <g id="Group_24573" data-name="Group 24573" transform="translate(12896.107 361.604)" clip-path="url(#clip-path-8)">
      <path id="Path_19803" data-name="Path 19803" d="M2842.52,948.467c-10.518-7.756-14.343-19.761-10.3-32.617s-9.35-9.562-6.481-25.6,2.338-27.73-8.925-30.279-14.449,7.225-14.449,7.225-15.937,54.609-16.362,56.1-7.012,14.025-6.374,30.811-6.269,26.349,32.936,35.274S2853.04,956.224,2842.52,948.467Z" transform="translate(-2766.359 -853.01)" fill="#0a0a0a"/>
    </g>
    <path id="Path_19805" data-name="Path 19805" d="M3004.41,862.207c-2.567.481-4.491,3.609-4.491,3.609l20.209,14.194s4.01-3.448.24-10.025S3006.98,861.726,3004.41,862.207Z" transform="translate(9932.273 -493.726)" fill="#fff"/>
    <path id="Path_19806" data-name="Path 19806" d="M2678.68,908.752s-3.635-5.775,0-16.36,19.142-19.782,37-13.688,23.524,19.676,18.712,35.607-14.222,28.764-26.736,26.3S2678.68,908.752,2678.68,908.752Z" transform="translate(10221.545 -506.829)" fill="#0a0a0a"/>
    <g id="Group_24576" data-name="Group 24576" transform="translate(12898.606 369.926)" clip-path="url(#clip-path-9)">
      <path id="Path_19807" data-name="Path 19807" d="M2963.85,1109.36h-6.335s.32.562,3.849,3.047c9.864-1.123,14.115-9.944,14.115-9.944s.48,0-1.284-2.165C2970.99,1105.91,2963.85,1109.36,2963.85,1109.36Z" transform="translate(-2928.343 -1077.044)" fill="#a3a6aa"/>
      <g id="Group_24574" data-name="Group 24574" transform="translate(8.532 23.393)" opacity="0.29">
        <path id="Path_19808" data-name="Path 19808" d="M2796.36,1119.68c-9.243-1.274-4.462-7.436-8.181-10.2s-21.462-.318-29.112-7.862c18.062,19.655,21.25,39.948,21.462,42.392s1.382,6.374,10.091,2.444,18.167-18.278,19.232-22.528,2.231-20.824,2.231-20.824S2805.6,1120.95,2796.36,1119.68Z" transform="translate(-2759.07 -1101.62)" fill="#a3a6aa"/>
      </g>
      <g id="Group_24575" data-name="Group 24575" transform="translate(5.203 3.642)" opacity="0.42">
        <path id="Path_19809" data-name="Path 19809" d="M2735.86,911.76s-6.845,3.35-8.793,7.884c10.8,4.25,27.075,2.567,27.075,2.567S2736.6,917.008,2735.86,911.76Z" transform="translate(-2727.07 -911.76)" fill="#fff"/>
      </g>
    </g>
    <path id="Path_19811" data-name="Path 19811" d="M3206,1743.26c-1.6-11.652-9.765-13.152-9.765-13.152l-4.456,2.138L3189,1792.56a35.143,35.143,0,0,1,19.461-10.907s4.7-5.025,4.057-11.013S3207.61,1754.92,3206,1743.26Z" transform="translate(9762.863 -1271.408)" fill="#fff8eb"/>
    <path id="Path_19812" data-name="Path 19812" d="M3211.33,2132.67c-.256.22.749,5.667,4.6,17.429s7.057,14.225,11.979,14.225,9.73-7.913,11.762-15.4c1.942-7.157,7.271-34.324,7.271-34.324l-11.126-2.143-6.737,18.124s-.882-3.288-1.844-6.335C3223.67,2123.81,3215.44,2129.13,3211.33,2132.67Z" transform="translate(9742.893 -1613.981)" fill="#d5865d"/>
    <g id="Group_24578" data-name="Group 24578" transform="translate(12954.183 498.479)" clip-path="url(#clip-path-10)">
      <path id="Path_19813" data-name="Path 19813" d="M3234.58,2206.33l-2.656,3.931s6.747-2.444,9.031,1.009,2.231,13.653,2.231,13.653l4.515-13.016-.85-7.862Z" transform="translate(-3229.774 -2194.521)" fill="#c57d58"/>
      <g id="Group_24577" data-name="Group 24577" transform="translate(-5.024 2.562)">
        <path id="Path_19814" data-name="Path 19814" d="M3195.03,2138.31c5.737,6.694,1.992,27.569-.8,34.663s-11.713,10.678-17.373,3.665-7.889-24.542-7.889-24.542l-5.972-2.63s.956,15.3,1.274,20.24,6.056,17.85,8.447,19.6,10.837,1.115,14.184.8,7.49-4.622,7.49-4.622l12.276-48.288a33.505,33.505,0,0,0-11.637,1.114Z" transform="translate(-3163 -2137.086)" fill="#d5865d"/>
      </g>
    </g>
    <path id="Path_19816" data-name="Path 19816" d="M2588.63,1390.92s-1.63,14.756-.1,21.091,10.827,10.559,20.531,13.126,3.9,12.708,5.453,25.448c3.529,28.978-3.3,27.924-6.523,37-3.9,10.956-5.854,16.607-5.24,22.134,1.124,10.1,3.476,8.554,5.56,22.829h-69.285a152.338,152.338,0,0,1,7.912-18.659c4.651-8.984-5.239-25.77-7.645-42.29s-3.422-40.793.589-44.963,22.509-6.041,25.876-9.891,3.689-17.165,3.689-17.165Z" transform="translate(10346.879 -967.505)" fill="#ff6302"/>
    <g id="Group_24581" data-name="Group 24581" transform="translate(12884.054 423.416)" clip-path="url(#clip-path-11)">
      <path id="Path_19817" data-name="Path 19817" d="M2606.16,1864.46c-18.327.16-38.407,1.116-43.507-.478s.956-15.937-9.883-32.193c-1.753,31.555-7.172,46.854-7.172,46.854l7.331,32.193s-2.071,4.94,4.463.8,20.717-22.471,33.467-26.136,27.256-.479,32.354-8.128,8.287-14.821,6.533-19.443C2629.75,1857.92,2624.49,1864.3,2606.16,1864.46Z" transform="translate(-2544.724 -1785.926)" fill="#e25904"/>
      <path id="Path_19818" data-name="Path 19818" d="M2666.78,1396.36c.427-.1,5.346,10.266,7.594,19.461,20.1-.1,35.475,1.069,35.475,1.069s3.207-7.378,5.159-20.958c-7.485-19.038-10.906-28.015-10.906-29.512s-41.274,5.132-41.274,5.453S2666.78,1396.36,2666.78,1396.36Z" transform="translate(-2649.758 -1368.769)" fill="#d5865d"/>
      <g id="Group_24580" data-name="Group 24580" transform="translate(13.072 -2.572)" clip-path="url(#clip-path-12)">
        <path id="Path_19819" data-name="Path 19819" d="M2828.77,1367.3c0,.239.479,11.315.479,11.315s20.16-3.665,22.152-13.7l-1.592-7.252S2828.77,1367.06,2828.77,1367.3Z" transform="translate(-2811.507 -1358.548)" fill="#c57d58"/>
        <g id="Group_24579" data-name="Group 24579" transform="translate(1.513 28.515)" opacity="0.57">
          <path id="Path_19820" data-name="Path 19820" d="M2721.36,1660.33c-12.643.744-32.458-.85-32.458-.85s-.532-1.062-2.763-7.012-8.765-12.165-8.765-12.165l5.418,24.808,41.861-.208,5.634-22.1-4.786-1.168a85.612,85.612,0,0,1-4.141,18.7Z" transform="translate(-2677.37 -1640.3)" fill="#ea937f"/>
        </g>
      </g>
      <path id="Path_19822" data-name="Path 19822" d="M2476.98,2538.71l-16.681,22.241,83.832,2.78s-2.139-16.467-4.919-27.8C2507.35,2550.9,2476.98,2538.71,2476.98,2538.71Z" transform="translate(-2468.297 -2416.812)" fill="#344058"/>
      <path id="Path_19823" data-name="Path 19823" d="M2544.06,1817.44c11.581-2.232,9.828-20.182,10.678-34.37a53.817,53.817,0,0,0-4.412-24.808S2539.81,1805.33,2544.06,1817.44Z" transform="translate(-2542.436 -1720.045)" fill="#344058"/>
      <path id="Path_19824" data-name="Path 19824" d="M2617.11,2312.2a33.841,33.841,0,0,0,.567,3.93,7.344,7.344,0,0,1,.681,1.146L2649.28,2296l-19.682,6.138Z" transform="translate(-2608.794 -2201.843)" fill="#344058"/>
    </g>
    <path id="Path_19826" data-name="Path 19826" d="M2670.18,1075.07s-.535,6.2-2.139,17.215-.855,22.887,6.416,27.16,25.449-3.745,29.726-12.724c5.774-2.352,9.517-11.548,4.919-15.293s-6.523,2.352-6.523,2.352l1.284-12.3s-21.6-1.07-25.984-12.3a20.86,20.86,0,0,1-7.7,5.89Z" transform="translate(10230.261 -679.245)" fill="#d5865d"/>
    <g id="Group_24603" data-name="Group 24603" transform="translate(12897.594 389.946)">
      <g id="Group_24582" data-name="Group 24582" transform="translate(1.469 -3.804)" opacity="0.57">
        <path id="Path_19827" data-name="Path 19827" d="M2681.66,1041.07l-.213,3.134a34.075,34.075,0,0,0,8.234-5.047c6.322,7.862,19.5,11.634,27.677,12.588l.425-5.418-29.8-13.706Z" transform="translate(-2681.45 -1032.62)" fill="#0a0a0a"/>
      </g>
    </g>
    <path id="Path_19841" data-name="Path 19841" d="M2329.34,2189.04l-1.6,7.164,38.708-17.964s6.95,4.278,5.453,11.976c-20.958,13.688-45.444,27.909-51.86,30.475s-12.724-1.391-13.153-8.769,3.745-29.3,3.745-29.3Z" transform="translate(10553.239 -1672.918)" fill="#d5865d"/>
    <g id="Group_24589" data-name="Group 24589" transform="translate(12860.093 505.322)" clip-path="url(#clip-path-13)">
      <path id="Path_19842" data-name="Path 19842" d="M2315.83,2254.6l-1.009,5.684.053-.208s7.862,7.611,20.266,3.593c3.16-2.159,3.373-3.537,3.373-3.537l-2.659-2.345Z" transform="translate(-2313.991 -2246.656)" fill="#344058"/>
      <g id="Group_24587" data-name="Group 24587" transform="translate(-1.717 12.884)">
        <path id="Path_19843" data-name="Path 19843" d="M2299.61,2327.75c-7.527-.407-9-5.084-9.265-6.469,1.284,8.316,3.448,11.409,3.448,11.409l11.634,3.027,52.272-33.626S2308.46,2328.23,2299.61,2327.75Z" transform="translate(-2290.35 -2302.09)" fill="#c57d58"/>
      </g>
      <g id="Group_24588" data-name="Group 24588" transform="translate(-1.775 31.689)" opacity="0.57">
        <path id="Path_19844" data-name="Path 19844" d="M2289.85,2483.24c-.019-.127-.039-.255-.058-.385a3.881,3.881,0,0,0,.058.385Z" transform="translate(-2289.79 -2482.85)" fill="#ea937f"/>
      </g>
    </g>
    <circle id="Ellipse_651" data-name="Ellipse 651" cx="3.609" cy="3.609" r="3.609" transform="translate(12930.99 424.86)" fill="#fff"/>
    <path id="Path_19846" data-name="Path 19846" d="M2788.12,1086.58q-1.111-.065-2.214-.208a33.044,33.044,0,0,1-4.356-.85,28.92,28.92,0,0,1-4.176-1.456,24.552,24.552,0,0,1-3.864-2.111,22.083,22.083,0,0,1-3.382-2.783,21.389,21.389,0,0,1-3.832-5.28c-.173-.319-.323-.651-.481-.978-.079-.163-.147-.333-.219-.5s-.149-.332-.208-.5a27.527,27.527,0,0,1-1.3-4.161l-1.212.3a28.651,28.651,0,0,0,1.5,4.291c.073.175.16.343.24.52s.159.344.248.512c.176.337.345.676.537,1a22.728,22.728,0,0,0,2.609,3.719c.5.573,1.024,1.116,1.572,1.637a22.682,22.682,0,0,0,3.588,2.748,25.16,25.16,0,0,0,4.021,2.018,29.279,29.279,0,0,0,4.281,1.328,33.23,33.23,0,0,0,4.414.7q1.112.1,2.228.129c.744.016,1.488.012,2.229-.042C2789.6,1086.64,2788.86,1086.62,2788.12,1086.58Z" transform="translate(10144.654 -677.954)" fill="#0a0a0a"/>
    <path id="Path_19847" data-name="Path 19847" d="M2321.62,2222.72l-.588,4.01s5.774,6.416,20.531,5.722a34.742,34.742,0,0,1,1.873-5.507l-19.462-6.042Z" transform="translate(10540.537 -1711.14)" fill="#ff6302"/>
    <path id="Path_19848" data-name="Path 19848" d="M2319.21,1725.06c6.042,4.642,6.736,15.558,5.618,31.6s-2.245,23.738-7.7,26.3-18.206-.962-24.864-5.453c-2.647-6.416-6.335-9.623-2-16.841s8.9-11.709,11.548-19.087S2312.64,1720.01,2319.21,1725.06Z" transform="translate(10569.889 -1265.932)" fill="#fff"/>
    <g id="Group_24591" data-name="Group 24591" transform="translate(12858.159 458.067)" clip-path="url(#clip-path-14)">
      <g id="Group_24590" data-name="Group 24590" transform="translate(-12.126 0.54)" opacity="0.36">
        <path id="Path_19849" data-name="Path 19849" d="M2205.99,1774.92c-7.49,12.588-33.786-1.115-33.786-1.115s-2.868,11.954,5.261,15.458,24.7,4.144,37.77,4.786,6.055-6.693,8.287-29.005,2.071-23.586-8.925-35.858C2218.74,1747.83,2213.48,1762.33,2205.99,1774.92Z" transform="translate(-2171.711 -1729.19)" fill="#fcdea4"/>
      </g>
    </g>
    <rect id="Rectangle_4855" data-name="Rectangle 4855" width="308.273" height="5.133" rx="2.566" transform="translate(12714.381 560.711)" fill="#677b99"/>
    <g id="Group_24592" data-name="Group 24592" transform="translate(12714.381 560.711)" clip-path="url(#clip-path-15)">
      <rect id="Rectangle_4856" data-name="Rectangle 4856" width="311.246" height="3.696" transform="translate(-1.885 2.725)" fill="#4a5f7c"/>
    </g>
    <rect id="Rectangle_4858" data-name="Rectangle 4858" width="55.014" height="28.069" rx="10" transform="translate(12929.788 477.147)" fill="#92d0ff"/>
    <rect id="Rectangle_4859" data-name="Rectangle 4859" width="55.014" height="28.069" rx="10" transform="translate(12929.788 478.912)" fill="#5b9fdd"/>
    <g id="Group_24593" data-name="Group 24593" transform="translate(12929.788 478.912)" clip-path="url(#clip-path-16)">
      <path id="Path_19851" data-name="Path 19851" d="M2988.16,2018.52c.1-2.816-8.446-.1-9.4-1.7s5.366-3.081,4.675-4.728-11.209,2.289-16.841,3.878-1.168-2.55-1.965-4.091-5.9,4.356-5.9,4.356.8,16.362.9,16.521,19.709,1.009,23.586-.053,1.488-3.559,2.393-5.259,2.816-3.294,2.072-4.463-5.472,2.656-9.4,1.435S2988.05,2021.34,2988.16,2018.52Z" transform="translate(-2960.609 -2002.545)" fill="#328acc"/>
      <path id="Path_19852" data-name="Path 19852" d="M3452.38,2105.54C3452.67,2105.49,3452.72,2105.45,3452.38,2105.54Z" transform="translate(-3402.903 -2086.646)" fill="#328acc"/>
      <path id="Path_19853" data-name="Path 19853" d="M3408.95,2019.24c-.425-.292-8.473-1.144-9.349-.424s-1.115,2.177,0,6.3c.8,2.949,3.929,2.682,4.82,2.527.342-.089.29-.051,0,0-.074.019-.166.044-.278.076-2.231.638-3,2.948.585,4.356s4.568,3.453,4.568,3.453,2.393-10.439,2.471-12.749S3409.37,2019.53,3408.95,2019.24Z" transform="translate(-3354.939 -2008.735)" fill="#328acc"/>
    </g>
    <path id="Path_19854" data-name="Path 19854" d="M3335.45,1960.17h-10.185a3.128,3.128,0,0,0-3.128,3.128h0a3.127,3.127,0,0,0,3.128,3.127h10.185a3.127,3.127,0,0,0,3.127-3.127h0a3.127,3.127,0,0,0-3.128-3.128Z" transform="translate(9643.575 -1477.534)" fill="#1d64cc"/>
    <circle id="Ellipse_652" data-name="Ellipse 652" cx="2.281" cy="2.281" r="2.281" transform="translate(12974.893 483.581)" fill="#123b6d"/>
    <circle id="Ellipse_653" data-name="Ellipse 653" cx="2.281" cy="2.281" r="2.281" transform="translate(12967.406 483.581)" fill="#123b6d"/>
    <path id="Path_19855" data-name="Path 19855" d="M2879.74,2004.67c-1.723.52-10.244,3.451-10.244,3.451s7.081-5.43,9.068-5.868,8.273-1.84,7.743-4.15-10,.223-11.854,1.478-9.259,5.41-9.259,5.41a13.1,13.1,0,0,0,3.347-5.365c1.912-5.047-1.345-3.528-2.936-1.893s-5.487,6.23-8.2,9.55-6.693,9.779-6.693,9.779l6.153,10.807a131.266,131.266,0,0,0,13.524-3.017c5.075-1.591,10.892-3.342,13.048-4.309s5.519-3.887,5.061-5.2-4.208.995-6.192,1.725-6.658-.467-6.658-.467,4.088-1.228,8.7-2.58,7.188-3.938,6.471-5.041-6.578,1.408-8.361,1.812-8.46.906-8.46.906,4.473-2.758,6.9-3.348,11.529-1.679,10.939-4.1S2881.46,2004.15,2879.74,2004.67Z" transform="translate(10065.961 -1509.787)" fill="#d5865d"/>
    <path id="Path_19856" data-name="Path 19856" d="M3410.77,1928.47s-5.793,1.56-8.138,3.335-1.248,3.518-.155,3.778l1.09.259s-4.07.536-4.188,2.732,3.656,2.116,3.656,2.116-3.537,1-3.3,3.3,7.8,1.012,8.375,1.094a21.933,21.933,0,0,1,3.191,1.7s-5.224.281-6.211.491a1.845,1.845,0,0,0-1.1,2.831c.831,1.35,3.236,1.248,4.551,2.144s.537,3.008.537,3.008a7.337,7.337,0,0,0,4.8-.528c2.074-1.2,3.039-4.618,3.357-7.361s1.982-4.431,1.8-6.219-.728-4.348-.892-6.351-.921-3.377-3.053-4.912a5.993,5.993,0,0,0-4.32-1.417Z" transform="translate(9574.376 -1449.132)" fill="#d5865d"/>
    <g id="Group_24595" data-name="Group 24595" transform="translate(12973.75 479.338)" clip-path="url(#clip-path-17)">
      <path id="Path_19857" data-name="Path 19857" d="M3419.1,1980.19c-.128-.04-.254-.082-.387-.115l-.2-.052c-.069-.016-.138-.027-.208-.041l-.1-.019-.115-.011a1.407,1.407,0,0,0-.229-.008l-.221.013-.2.027c-.136.017-.267.038-.4.06s-.262.044-.391.071c-1.035.2-2.051.448-3.062.717s-1.994.556-2.981.871h.054l-.083.008.029-.008c-.264-.006-.529,0-.792-.006h-.846c-.565.005-1.13.019-1.7.049.559.1,1.117.185,1.676.261q.42.061.839.1c.279.029.56.072.841.1h.03l.052-.011c1.018-.222,2.037-.451,3.049-.692s2.026-.486,3.033-.715l.376-.082c.125-.027.25-.053.373-.074l.184-.033.167-.021a.834.834,0,0,1,.161,0h.08l.089.011a11.118,11.118,0,0,1,1.482.318c1,.262,2,.567,3.012.845a24.332,24.332,0,0,0-2.861-1.316C3419.6,1980.36,3419.35,1980.27,3419.1,1980.19Z" transform="translate(-3406.449 -1974.591)" fill="#c57d58"/>
      <path id="Path_19858" data-name="Path 19858" d="M3439.1,1996.87h-.054l-.029.008Z" transform="translate(-3434.896 -1989.754)" fill="#344058"/>
      <path id="Path_19859" data-name="Path 19859" d="M3413.83,2030.04a4.989,4.989,0,0,0-1.719-.251,15.247,15.247,0,0,0-3.283.466,25.848,25.848,0,0,0-3.134.973l.026-.007-.027.007h0c-.267.071-.534.149-.8.223s-.549.156-.823.239c-.549.162-1.1.333-1.638.52.571-.06,1.138-.136,1.7-.221.283-.039.566-.084.848-.131s.564-.089.845-.139h0l.025-.007c.511-.149,1.041-.277,1.561-.407s1.041-.249,1.569-.361a20.173,20.173,0,0,1,3.144-.452,4.622,4.622,0,0,1,1.492.139c.508.162,1.013.34,1.514.538,1.007.38,2,.806,3,1.239a20.474,20.474,0,0,0-2.8-1.7C3414.84,2030.47,3414.34,2030.24,3413.83,2030.04Z" transform="translate(-3402.112 -2019.25)" fill="#c57d58"/>
      <path id="Path_19860" data-name="Path 19860" d="M3433.78,2043.55l-.026.007h0Z" transform="translate(-3430.174 -2031.578)" fill="#344058"/>
      <g id="Group_24594" data-name="Group 24594" transform="translate(3.438 3.512)" opacity="0.79">
        <path id="Path_19861" data-name="Path 19861" d="M3447.9,1970.78c-.208,1.839-2.163,4.132-2.365,6.388s-.846,5.312-2.856,4.855-2.9-1.064-5.275-1.055a16.942,16.942,0,0,1-4.981-.936s3.8,5.922,4.356,6.785a4.23,4.23,0,0,0,4.4,1.282c1.7-.662,5.071-.692,6.9-5.066a38.22,38.22,0,0,0,2.2-10.386l-2.349-10.413S3448.11,1968.94,3447.9,1970.78Z" transform="translate(-3432.42 -1962.23)" fill="#d5865d"/>
      </g>
    </g>
    <path id="Path_19863" data-name="Path 19863" d="M2524.93,488.621l-.391-.831h15.76l12.454,5.272-8.316,1.864-10.844-.188-5.686-4.016Z" transform="translate(10358.199 -158.329)" fill="#ffeed7"/>
    <g id="Group_24596" data-name="Group 24596" transform="translate(12882.739 329.461)" clip-path="url(#clip-path-18)">
      <path id="Path_19864" data-name="Path 19864" d="M2568.15,506.42l.894,2.668,1.556-1.68,17.094-.031-2.925-.957Z" transform="translate(-2563.613 -504.482)" fill="#ffa488"/>
    </g>
    <path id="Path_19866" data-name="Path 19866" d="M2631.82,553.97a9.624,9.624,0,0,0,.81,2l15.677-.148V538.64l-15.743.11-1.387.6Z" transform="translate(10262.653 -203.889)" fill="#ffae4d"/>
    <path id="Path_19867" data-name="Path 19867" d="M2524.3,487.79l12.547,5.4v17.218l-12.575-6.721Z" transform="translate(10358.441 -158.329)" fill="#ffcd92"/>
    <g id="Group_24597" data-name="Group 24597" transform="translate(12882.711 329.461)" clip-path="url(#clip-path-19)">
      <path id="Path_19868" data-name="Path 19868" d="M2567.52,513.1l2.516,1.354v-9.27l-2.516-1.246Z" transform="translate(-2563.021 -502.26)" fill="#ff7443"/>
    </g>
    <g id="Group_24598" data-name="Group 24598" transform="translate(12884.644 467.156)" opacity="0.65">
      <path id="Path_19870" data-name="Path 19870" d="M2550.46,1811.52c-.095-.24-.484-.145-.4.1a36.211,36.211,0,0,1,1.288,15.8,55.544,55.544,0,0,1-1.611,7.957,37.67,37.67,0,0,1-2.754,7.476c-1.311,2.565-3.026,4.937-4.117,7.611-.135.334.4.54.572.241,1.339-2.307,2.765-4.577,4.043-6.915a33.656,33.656,0,0,0,2.858-7.437,50.6,50.6,0,0,0,1.93-16,28.041,28.041,0,0,0-1.809-8.833Z" transform="translate(-2542.851 -1811.376)" fill="#fff"/>
    </g>
    <g id="Group_24599" data-name="Group 24599" transform="translate(12941.463 387.188)" opacity="0.21">
      <path id="Path_19871" data-name="Path 19871" d="M3102.46,1042.9c-.025-.3-.489-.3-.467,0,.217,2.945.323,5.9.345,8.85.01,1.416.03,2.833.031,4.248a18.109,18.109,0,0,1-.648,4.24,45.548,45.548,0,0,1-2.568,8.115,35.16,35.16,0,0,1-4.069,7c-.926,1.2-1.826,2.427-2.864,3.53s-2.22,2.062-3.145,3.24a.222.222,0,0,0,.312.312,44.717,44.717,0,0,0,5.618-5.9,37.448,37.448,0,0,0,4.3-6.991,42.824,42.824,0,0,0,2.719-7.97,30.3,30.3,0,0,0,.866-4.161,35.424,35.424,0,0,0,.008-4.214C3102.87,1049.76,3102.74,1046.33,3102.46,1042.9Z" transform="translate(-3089.026 -1042.677)" fill="#fff"/>
    </g>
    <g id="Group_24600" data-name="Group 24600" transform="translate(12940.66 386.827)" opacity="0.21">
      <path id="Path_19872" data-name="Path 19872" d="M3091.58,1039.35c-.646,3.755-1.181,7.533-2.017,11.253a14.821,14.821,0,0,1-.853,2.748c-.365.832-.779,1.64-1.144,2.473a20.231,20.231,0,0,1-2.723,4.429,26.589,26.589,0,0,1-3.47,4.2c-.187.159.056.469.262.34a12.227,12.227,0,0,0,3.112-3.545,30.631,30.631,0,0,0,2.877-4.352c.4-.832.759-1.684,1.145-2.522a15.094,15.094,0,0,0,.973-2.5c.5-1.9.816-3.849,1.144-5.781.372-2.211.7-4.429,1.065-6.64C3092,1039.21,3091.62,1039.1,3091.58,1039.35Z" transform="translate(-3081.306 -1039.208)" fill="#fff"/>
    </g>
    <g id="Group_24601" data-name="Group 24601" transform="translate(12957.378 366.886)" opacity="0.21">
      <path id="Path_19873" data-name="Path 19873" d="M3259.53,928.631c-1.9-2.577-3.861-5.23-4.065-8.537a15.657,15.657,0,0,1,.5-4.535c.173-.746.312-1.5.5-2.24a14.237,14.237,0,0,1,.806-2.13,9.436,9.436,0,0,0,.58-2.121,17.214,17.214,0,0,0,.345-2.22,10.661,10.661,0,0,0-.958-4.377c-.591-1.474-1.262-2.913-1.906-4.369-.323-.728-.6-1.481-.958-2.2-.339-.686-.764-1.321-1.145-1.977a17.651,17.651,0,0,1-1-2.168,12.86,12.86,0,0,1-.838-2.133c-.157-.7-.439-1.37-.584-2.073-.153-.738-.126-1.494-.287-2.234a10.242,10.242,0,0,1-.225-2.581,8.782,8.782,0,0,0-.241-2.2,14.813,14.813,0,0,1,.123-4.981c.194-1.686.167-3.417.243-5.117.079-1.769.163-3.537.17-5.306a22,22,0,0,0-.409-4.7,13.345,13.345,0,0,0-.709-2.372c-.3-.7-.674-1.364-1.011-2.046-.678-1.371-1.082-2.879-1.835-4.213a9.556,9.556,0,0,0-2.671-3.109,17.357,17.357,0,0,0-1.873-1.164.051.051,0,0,0-.052.088,11,11,0,0,1,3.491,2.849,17.594,17.594,0,0,1,1.977,4.228c.552,1.447,1.4,2.794,1.846,4.281a17.81,17.81,0,0,1,.712,4.851c.051,3.433-.335,6.855-.443,10.28-.051,1.6-.454,3.175-.457,4.785a10.779,10.779,0,0,0,.3,2.185,12.278,12.278,0,0,1,.1,2.54,13.29,13.29,0,0,0,.338,2.259c.117.7.079,1.41.255,2.1.085.338.229.654.325.988.1.365.163.744.255,1.112a15.131,15.131,0,0,0,.847,2.045,17.511,17.511,0,0,0,.923,2.032c.363.637.772,1.248,1.114,1.9.742,1.405,1.312,2.938,1.952,4.394a26.255,26.255,0,0,1,1.664,4.384,10.16,10.16,0,0,1-.208,4.563,10.279,10.279,0,0,1-.761,2.158,11.567,11.567,0,0,0-.655,2.081,36.639,36.639,0,0,0-.851,4.3,12.215,12.215,0,0,0,.249,4.2,13.141,13.141,0,0,0,1.908,4.083,46.751,46.751,0,0,0,2.8,3.881c.752.926,1.627,1.753,2.362,2.691.271.344.706.885.61,1.359-.064.312.416.449.483.133.188-.925-.537-1.8-1.078-2.477C3261.23,930.743,3260.34,929.728,3259.53,928.631Z" transform="translate(-3242.007 -847.532)" fill="#fff"/>
    </g>
    <g id="Group_24602" data-name="Group 24602" transform="translate(12966.21 420.427)" opacity="0.21">
      <path id="Path_19874" data-name="Path 19874" d="M3341.49,1404.48a28.558,28.558,0,0,0-.888-2.975,8.662,8.662,0,0,0-1.592-2.393,15.784,15.784,0,0,1-1.858-2.339,10.824,10.824,0,0,0-1.316-2.437c-.341-.354-.728-.665-1.058-1.028a12.151,12.151,0,0,1-1.107-1.49c-.609-.913-1.18-1.852-1.79-2.765s-1.237-1.833-1.811-2.778a11.069,11.069,0,0,1-1.276-2.957c-.276-1.018-.638-2.014-.87-3.044a20.4,20.4,0,0,1-.445-3.366,16.605,16.605,0,0,1,.027-3.68c.1-.6.317-1.174.423-1.776a16.621,16.621,0,0,0,.188-1.725c.092-1.333.534-2.594.7-3.913a25.528,25.528,0,0,0-.006-3.566.069.069,0,0,0-.136,0,29.073,29.073,0,0,1-.031,3.358c-.134,1.156-.562,2.255-.756,3.4a23.8,23.8,0,0,1-.567,3.253,9.817,9.817,0,0,0-.416,2.924,20.986,20.986,0,0,0,.709,6.467c.3.995.529,2.021.869,3a13.09,13.09,0,0,0,1.375,2.615c.6.959,1.237,1.894,1.845,2.846.594.93,1.152,1.885,1.8,2.781a9.317,9.317,0,0,0,.917,1.127,15.46,15.46,0,0,1,1.106,1.1,5.15,5.15,0,0,1,.624,1.352,6.714,6.714,0,0,0,.752,1.312c.557.774,1.222,1.457,1.835,2.185a7.431,7.431,0,0,1,1.456,2.713c.312,1.023.514,2.066.916,3.06a6.039,6.039,0,0,1,.666,2.888,18.156,18.156,0,0,1-.745,3.128,37.2,37.2,0,0,1-1.16,3.581,13.282,13.282,0,0,1-1.383,2.6,4.2,4.2,0,0,0-.936,2.193c0,.274.448.352.491.067a5.343,5.343,0,0,1,1.1-2.045,11.135,11.135,0,0,0,1.2-2.093,37.57,37.57,0,0,0,1.967-5.951,6.582,6.582,0,0,0,.208-2.713A29.728,29.728,0,0,0,3341.49,1404.48Z" transform="translate(-3326.901 -1362.191)" fill="#fff"/>
    </g>
  </g>
</svg>
