<svg xmlns="http://www.w3.org/2000/svg" width="22" height="22" viewBox="0 0 22 22">
  <g id="vuesax_bold_routing-2" data-name="vuesax/bold/routing-2" transform="translate(-108.001 -316)">
    <g id="routing-2" transform="translate(108.001 316)">
      <path id="Vector" d="M4.979,14.208H2.522A2.522,2.522,0,0,1,.863,9.79L8.187,3.383a1.144,1.144,0,0,0-.752-2.008H4.979A.693.693,0,0,1,4.291.688.693.693,0,0,1,4.979,0H7.435A2.488,2.488,0,0,1,9.791,1.632a2.5,2.5,0,0,1-.7,2.787L1.77,10.826a1.144,1.144,0,0,0,.752,2.008H4.979a.688.688,0,1,1,0,1.375Z" transform="translate(6.02 3.896)" fill="#ff6302"/>
      <path id="Vector-2" data-name="Vector" d="M4.583,0H1.833A1.839,1.839,0,0,0,0,1.833v2.75A1.839,1.839,0,0,0,1.833,6.417h2.75A1.839,1.839,0,0,0,6.417,4.583V1.833A1.839,1.839,0,0,0,4.583,0ZM3.218,4.125a.917.917,0,0,1,0-1.833h.009a.917.917,0,1,1-.009,1.833Z" transform="translate(13.749 13.75)" fill="#ff6302"/>
      <path id="Vector-3" data-name="Vector" d="M3.208,0A3.208,3.208,0,1,0,6.417,3.208,3.212,3.212,0,0,0,3.208,0Zm.037,4.125a.917.917,0,1,1,0-1.833h.009a.917.917,0,1,1-.009,1.833Z" transform="translate(1.805 1.833)" fill="#ff6302"/>
      <path id="Vector-4" data-name="Vector" d="M0,0H22V22H0Z" transform="translate(22 22) rotate(180)" fill="none" opacity="0"/>
    </g>
  </g>
</svg>
