<svg width="776" height="762" viewBox="0 0 776 762" fill="none" xmlns="http://www.w3.org/2000/svg">
<g clip-path="url(#clip0_172_830)">
<path d="M0 370.5C7.5 351.3 16.1 332.5 22.3 312.9C26.5 299.6 28.1 285.4 29.8 271.5C31.2 259.7 30.7 247.8 31.8 236C33.4 219.6 40.1 205.2 51.7 193.6C60.1 185.2 68.9 177.2 78.3 169.9C93.7 157.8 105.5 143 113.7 125.2C117.4 117.2 121.6 109.4 125.9 101.7C137 81.6001 153.6 67.4001 175.8 62.9001C211.5 55.6001 242.7 40.8001 270.7 17.2001C290.1 0.800076 314 -3.59993 338.5 2.90007C371.2 11.6001 403.5 11.9001 436.3 3.10007C462.9 -4.09993 487.2 2.80007 508.9 19.5001C510.5 20.7001 512.2 21.8001 513.7 23.2001C535.4 42.9001 560.8 54.5001 589.6 59.8001C620.6 65.5001 643 83.2001 655.4 112.3C667.2 140.1 685.3 162.2 709.6 180C734.5 198.3 746.6 223.7 745.3 254.8C744.1 284.3 750 311.8 764 338C779.4 366.5 778.5 395.4 764.4 424.5C757.7 438.3 751.6 452.7 748.1 467.5C745.1 480.1 745.3 493.6 745.6 506.7C746.2 538.7 734.3 564.5 708.5 583.2C684.8 600.5 667.3 622.2 655.8 649.2C643.1 679.1 620.1 697 588.2 702.9C560.5 708 536.2 719.5 514.8 738.1C500.8 750.3 484.8 760.3 465.6 761.1C453.7 761.6 441.2 760.9 429.7 758C401.3 750.7 373.5 750.6 345.3 758.3C314.9 766.7 287.1 760.8 263.2 740.1C240.5 720.4 214.8 708 185.3 702.4C160 697.6 139.2 684.9 126.3 661.5C121.8 653.5 122.6 646.9 128.9 643.1C134.7 639.6 141.4 641.7 145.7 649.5C155.2 666.8 170.6 675.4 188.9 679.9C195.8 681.6 202.6 683.3 209.5 684.9C228.7 689.4 246.1 697.5 261.5 710C265.8 713.5 270.5 716.5 274.7 720.2C294.7 738.1 317.5 742.5 343.1 735.5C351.8 733.1 360.9 731.9 369.8 730.1C393.9 725.3 416.9 732 440.1 736.9C459.9 741.1 477.6 737.9 493.7 725.5C497.1 722.9 500.8 720.6 504 717.7C525.7 698.4 551 686.7 579.4 681.4C585.1 680.4 590.6 678.5 596.1 676.8C610.5 672.4 621.6 663.8 629 650.6C633.9 641.8 638.8 632.9 643.1 623.8C652.1 604.9 664.7 589.2 681.1 576.3C687.3 571.5 693.1 566.2 699.2 561.3C715.2 548.3 722.4 531.3 722.6 510.9C722.7 500.3 723.1 489.7 723.3 479C723.8 458.8 730.4 440.1 740 422.9C755.7 394.8 755.8 367.5 739.8 339.5C726.5 316.1 721.7 290.4 722.6 263.6C722.7 259.6 722.5 255.5 722.5 251.5C722.4 231.4 715.8 213.8 699.4 201.8C669.3 179.7 646.8 152.1 632.2 117.7C623.8 97.8001 607 87.4001 586.5 82.7001C579.4 81.0001 572.3 79.2001 565.2 77.5001C545.7 72.9001 528.3 64.2001 512.8 51.5001C506.1 46.1001 499.2 41.1001 492.3 35.9001C476.8 24.2001 459.5 21.3001 440.7 25.4001C429.1 27.9001 417.5 30.0001 405.8 32.3001C382 37.0001 359.1 30.4001 336.3 25.6001C315.9 21.3001 297.8 24.6001 281.4 37.5001C280 38.6001 278.4 39.5001 277.1 40.7001C252.5 63.0001 223.8 76.6001 191.1 82.4001C167.2 86.7001 150.2 100.2 140.8 122.7C128 153.3 108.1 178.2 81.1 197.5C61 211.9 52 231.8 53.2 256.4C54.6 288 48.5 318 33 346C20.1 369.3 20.9 392.4 32.6 416.3C40.1 431.6 46.2 447.9 50.3 464.4C53.4 476.9 53.3 490.6 52.8 503.6C51.8 530.3 61.6 551.1 83 567C92.5 574 101.1 582.4 109.9 590.3C112.9 593 115.6 596.1 117.8 599.5C121.3 604.8 120.9 610.1 116.2 614.6C111.8 618.8 105.2 618.5 100.4 614.1C87.3 602.2 74.6 590 61.2 578.5C40.3 560.6 30.1 538 30.2 510.5C30.2 503.7 29.9 496.8 29.9 490C29.9 472 25.7 455.2 18.2 438.7C11.4 423.5 6 407.5 0 391.8C0 384.7 0 377.6 0 370.5Z" fill="black"/>
<path d="M643.8 380.9C643.6 506.9 552.7 613.7 428.1 634.4C291.7 657.1 160.1 563.2 136 426C112.8 293.9 194 167.1 323.7 132.9C436 103.3 556.1 155 611.8 257C612.9 259 614.2 261 614.8 263.1C616.4 268.8 615.1 273.9 609.6 276.8C604 279.8 598.8 278.7 594.8 273.6C593.1 271.4 592 268.8 590.6 266.4C542.9 187.2 472.7 146.3 380.4 148.3C264.8 150.7 169.3 240.2 156.3 355C142.8 474.6 223.4 585.7 341.2 609.9C470.4 636.4 596.6 549 617.7 418.4C622.9 386 621.2 353.9 613.1 322.1C610.8 312.9 613.6 306.8 620.6 305.1C627.8 303.4 633.4 307.1 635.2 316.5C639.2 337.8 640.4 359.5 643.8 380.9Z" fill="black"/>
<path d="M370.7 262.8C382.3 249.5 393.7 236.3 405.3 223.3C427.2 198.8 464.8 205.6 474.8 235.9C479.4 250 477 263.2 467.5 274.3C445.8 299.7 424 324.9 401.6 349.6C385.5 367.4 360.1 367.5 343 350.5C332.2 339.8 321.8 328.9 311.3 317.9C294.8 300.6 294.3 276.8 309.8 260.7C325.6 244.3 349.6 244.1 367.5 260.2C368.5 261 369.4 261.7 370.7 262.8ZM339.5 270.3C331.5 271.8 326.4 275.2 323.6 281.4C320.3 288.6 321.8 295.3 327.2 300.9C337.5 311.6 347.8 322.4 358.4 332.9C367.9 342.3 377.5 341.8 386.4 331.7C406.7 308.6 427 285.4 447.2 262.2C455.2 253 455.3 242.6 447.7 236C439.7 229 430.2 230.3 422 239.5C411 252 400 264.5 389.1 277.1C371.9 296.9 371.7 296.7 352.9 278.7C349.2 275.2 344 273.1 339.5 270.3Z" fill="black"/>
<path d="M473.1 445.2C473.1 430.5 473 415.9 473.1 401.2C473.2 390.2 477.3 386.2 488.3 386C495.6 385.9 502.9 385.8 510.3 386C534.7 386.6 551.3 399.2 558 422.8C563.1 440.6 562.7 458.4 554.6 475.3C546 493.3 531.6 503 511.6 503.8C503.5 504.1 495.4 504.1 487.4 504C477.8 503.9 473.6 499.8 473.5 490C473.3 475.1 473.4 460.2 473.4 445.2C473.3 445.2 473.2 445.2 473.1 445.2ZM497.1 479.7C511.5 480.8 524.9 481.4 532.9 467C540.4 453.5 539.2 429.9 530.4 418.6C521.4 407.1 509.2 409.7 497.1 410.3C497.1 433.7 497.1 456.3 497.1 479.7Z" fill="black"/>
<path d="M347.2 480.6C346.4 480.6 345.7 480.7 344.9 480.6C332.4 478.7 323.3 481.2 320.4 495.9C319 502.9 312.1 505.3 306.1 503.1C299.7 500.7 296.9 494.8 299.5 487.7C311 457 322.8 426.4 334.4 395.7C336.7 389.6 341.2 386.2 347.6 386.2C353.7 386.3 358 389.7 360.2 395.5C371.8 426.2 383.4 456.8 394.8 487.6C397.4 494.7 394.5 500.8 388.1 503.1C382.1 505.3 375.3 502.9 373.9 495.8C370.9 481.3 362 478.5 349.4 480.6C348.7 480.7 347.9 480.6 347.2 480.6ZM347.3 425.9C342.9 437.6 339.4 447.2 335.7 457.2C344.5 457.2 351.4 457.2 359.1 457.2C355.2 447 351.6 437.4 347.3 425.9Z" fill="black"/>
<path d="M238.2 463.3C238.2 472.9 238.3 481.7 238.2 490.6C238.1 498.8 233.6 503.9 226.9 503.9C220.2 503.9 215.4 498.7 215.4 490.6C215.3 460.3 215.3 429.9 215.4 399.6C215.4 391.4 219.3 386.5 226.8 386.3C237.9 386 249.1 385.7 260 387.2C278.6 389.6 292.2 406.3 292 424.7C291.8 443.3 278.1 459.2 259.5 461.9C252.7 462.8 245.9 462.8 238.2 463.3ZM238.2 440.1C245.4 439.6 251.7 439.9 257.7 438.6C264.5 437.1 268.4 431.9 268.8 425C269.2 418.3 265.9 412.7 259.7 410.8C253.8 409.1 247.3 409.3 241.1 409.2C240.2 409.2 238.4 411.9 238.4 413.4C238.1 421.8 238.2 430.1 238.2 440.1Z" fill="black"/>
<path d="M444.7 445.2C444.7 460.6 444.8 476.1 444.7 491.5C444.7 497.4 442 502.6 436.1 503.2C432.3 503.6 427.6 501.3 424.3 498.9C422.4 497.5 421.9 493.4 421.9 490.5C421.7 460.2 421.7 429.8 421.9 399.5C421.9 391.3 426.7 386.2 433.4 386.3C440.1 386.4 444.6 391.5 444.7 399.8C444.9 414.8 444.7 430 444.7 445.2Z" fill="black"/>
<path d="M375.9 81.4C376.2 77.6 376.1 73.5 376.9 69.6C378.1 64 382.3 61 387.8 61C393.4 61 398.1 64 398.6 69.6C399.4 77.8 399.4 86.2 398.7 94.4C398.1 100.4 393.4 103.5 387.4 103.3C381.7 103.1 377.8 100 376.8 94.4C376 90.3 376.2 86 375.9 81.4Z" fill="black"/>
<path d="M399.7 680.3C399.4 684.1 399.6 688.2 398.8 692.1C397.6 698.1 393.3 701.3 387.4 701.1C381.9 701 377.3 697.9 376.8 692.2C376.1 684.2 376 676.1 376.7 668.1C377.2 662.1 381.6 658.8 387.7 658.8C393.7 658.8 397.7 662.1 398.8 668C399.6 672 399.5 676.1 399.7 680.3Z" fill="black"/>
<path d="M674.2 342.2C666.6 342.6 661.1 338.7 660.6 332.3C660 325.5 663.4 321.1 669.9 319.6C676.5 318.1 683.2 316.8 689.9 316C696 315.3 701.6 319.7 702.4 325.6C703.3 332 700.2 336.3 694.3 338.5C692.4 339.2 690.4 339.5 688.4 339.8C683.5 340.7 678.5 341.5 674.2 342.2Z" fill="black"/>
<path d="M675.1 420.1C680.3 421 687 422 693.6 423.6C699.9 425.1 703.6 430.8 702.5 436.6C701.4 442.8 695.7 447.1 689.2 446.2C682.7 445.3 676.3 444.2 669.9 442.7C663.1 441.1 659.4 435.2 660.6 429.3C661.9 423.2 666.9 419.7 675.1 420.1Z" fill="black"/>
<path d="M101 342.2C95.2999 341.2 88.2999 340.3 81.4999 338.5C75.3999 336.9 72.3999 332.2 73.1999 325.9C73.8999 319.9 79.3999 315.3 85.4999 316.1C92.4999 316.9 99.3999 318.2 106.3 319.9C112.7 321.5 116.4 327.3 115 333C113.4 339.4 109 342.6 101 342.2Z" fill="black"/>
<path d="M102.1 419.8C109.9 420.1 114 423.5 114.9 429.8C115.8 435.7 113 440.5 107.1 442C99.8 443.9 92.4 445.5 84.9 446.1C78.6 446.7 74.3 442.8 73.1 436.6C72 430.3 75 425.4 81.1 423.8C88.5 421.9 96 421 102.1 419.8Z" fill="black"/>
<path d="M300.6 106.6C300.4 114.8 297.8 118.8 292.3 120.3C286.4 121.9 281.5 119.9 279 114.4C276 107.8 273.5 100.9 271.5 93.9C269.9 88.2 272.2 83.3 277.7 80.7C282.8 78.3 288.5 78.9 291.1 83.8C295.3 91.8 298 100.4 300.6 106.6Z" fill="black"/>
<path d="M506.2 89.8C502.2 99.8 499.7 108.6 495.1 116.2C493.4 119 486.2 120.8 482.8 119.6C479.4 118.4 475.1 112.3 475.7 109.1C477.2 100.6 480.2 92 484.4 84.5C486 81.7 492.9 79.9 496.6 80.8C500.3 81.7 502.9 86.6 506.2 89.8Z" fill="black"/>
<path d="M214.1 161.8C212.5 163.8 210.7 168.2 207.6 169.4C204.2 170.7 198.3 170.7 195.9 168.6C189.8 163.2 184.1 156.7 180 149.7C178.3 146.7 179.5 139.7 182.1 137.1C184.7 134.5 192.4 133 194.6 134.9C201.7 141.1 207.2 149 213.2 156.3C213.9 157.1 213.7 158.7 214.1 161.8Z" fill="black"/>
<path d="M573.2 171.2C563.8 170.2 558.8 160.7 563.7 153.6C567.9 147.4 573 141.7 578.3 136.3C582.3 132.2 588.1 131.6 591.9 135.5C594.8 138.4 597.9 145.2 596.4 147.6C591.3 155.8 584.5 162.8 578 170.1C576.9 171.2 574.2 171 573.2 171.2Z" fill="black"/>
<path d="M191.4 628.9C181.2 629.1 175.1 619.6 180 612.1C184.2 605.6 189.4 599.6 194.9 594.1C199.1 589.9 204.6 590 209.3 593.7C213.8 597.2 215.7 602.5 212.6 607.1C207.7 614.3 201.6 620.7 195.7 627.2C194.6 628.5 192.1 628.6 191.4 628.9Z" fill="black"/>
<path d="M597.5 620.1C595.8 622.1 593.6 626.5 590.3 627.7C586.9 628.9 581.2 628.3 578.6 626.1C572.8 621 568 614.7 563.4 608.4C560.1 603.8 560.7 597.9 565.3 594.9C568.7 592.7 575.9 591 578 592.9C585 599.1 590.6 607 596.6 614.3C597.4 615 597.1 616.6 597.5 620.1Z" fill="black"/>
<path d="M287.5 641.2C296.9 641.9 301.9 648 300.1 655.2C298.3 662.5 295.6 669.6 292.4 676.5C289.7 682.3 284.4 684 278.4 681.8C272.7 679.7 269.8 674.9 271.3 669.2C273.3 661.7 275.8 654.2 279.4 647.3C281.1 644.1 285.7 642.5 287.5 641.2Z" fill="black"/>
<path d="M504.8 668.9C504.3 676.6 501.7 680.6 496.1 682.1C490.5 683.6 485.7 681.9 483.3 676.8C480.1 669.8 477.4 662.3 475.4 654.8C473.9 649.4 476.4 644.7 481.7 642.4C486.8 640.1 492.5 640.7 495.1 645.7C499.3 653.6 502.1 662.3 504.8 668.9Z" fill="black"/>
<path d="M637.9 250.3C633.5 246.5 628.7 244.3 627.6 240.9C626.4 237.4 627.4 230.9 629.9 228.8C636.2 223.6 643.5 219.1 651.2 216.3C654.5 215.1 660.9 217.5 663.4 220.4C665.6 223 666 230.7 664 232.5C656.3 239 647.4 244 637.9 250.3Z" fill="black"/>
<path d="M666 533.6C666.3 543.1 658 549.3 650.4 545.9C643.6 542.8 637.1 538.8 630.8 534.6C625.8 531.2 624.9 525.9 627.5 520.5C630.1 515 635.5 512.5 640.7 514.8C648.4 518.2 655.7 522.9 662.7 527.7C664.7 529.1 665.4 532.4 666 533.6Z" fill="black"/>
<path d="M121.3 212.9C130.9 219.4 139.9 224.7 147.7 231.4C149.6 233 148.7 241 146.4 243.4C143.8 246.2 137.4 248 133.9 246.8C126.7 244.2 119.7 240.1 113.9 235.1C111.2 232.7 110 226.3 111 222.5C111.9 219.2 116.8 216.9 121.3 212.9Z" fill="black"/>
<path d="M121.2 549.4C116.7 545.3 111.8 543 110.9 539.5C109.9 535.7 111.2 529.4 114 527C119.8 522 126.8 517.9 134 515.3C137.5 514.1 143.9 516 146.4 518.9C148.7 521.4 149.4 529.3 147.5 531C139.8 537.7 130.8 542.9 121.2 549.4Z" fill="black"/>
</g>
<defs>
<clipPath id="clip0_172_830">
<rect width="775.3" height="761.9" fill="white"/>
</clipPath>
</defs>
</svg>
