<?xml version="1.0" encoding="utf-8"?>
<!-- Generator: Adobe Illustrator 26.0.1, SVG Export Plug-In . SVG Version: 6.00 Build 0)  -->
<svg version="1.1" id="Layer_1" xmlns="http://www.w3.org/2000/svg" xmlns:xlink="http://www.w3.org/1999/xlink" x="0px" y="0px"
	 viewBox="0 0 775.3 761.9" style="enable-background:new 0 0 775.3 761.9;" xml:space="preserve">
<style type="text/css">
	.st0{fill:#FFFFFF;}
</style>
<g>
	<path class="st0" d="M764.4,424.4c-6.7,13.8-12.8,28.2-16.4,43c-3,12.6-2.8,26.1-2.5,39.2c0.6,32-11.3,57.8-37.1,76.5
		c-23.7,17.3-41.2,39-52.7,66c-12.7,29.9-35.7,47.8-67.6,53.7c-27.7,5.1-52,16.6-73.4,35.2c-14,12.2-30,22.2-49.2,23
		c-11.9,0.5-24.4-0.2-35.9-3.1c-28.4-7.4-56.2-7.4-84.4,0.3c-30.4,8.4-58.2,2.5-82.1-18.3c-22.7-19.7-48.4-32.1-77.9-37.7
		c-25.3-4.8-46.1-17.5-59.1-40.9c-4.5-8-3.7-14.6,2.6-18.4l-15.1-27.7h0c-3.5,0.8-9.9,1.8-13.3-1.2c-13.1-11.9-25.8-24.1-39.2-35.6
		c-20.9-17.9-31-40.5-31-67.9c0-6.8-0.3-13.7-0.3-20.5c0-18-4.2-34.8-11.7-51.3C11.4,423.5,6,407.5,0,391.8v-21.2
		c7.5-19.2,16.1-38,22.3-57.6c4.2-13.3,5.8-27.5,7.5-41.4c1.4-11.8,0.9-23.7,2-35.5c1.6-16.4,8.3-30.8,19.9-42.4
		c8.4-8.4,17.2-16.4,26.6-23.7c15.4-12.1,27.2-26.9,35.4-44.7c3.7-8,8-15.8,12.2-23.5c11.1-20.1,27.7-34.3,49.9-38.8
		c35.7-7.3,66.9-22.1,94.9-45.7c19.4-16.4,43.3-20.8,67.9-14.3c32.7,8.7,65,9,97.7,0.2c26.7-7.2,50.9-0.3,72.6,16.4
		c1.6,1.2,3.3,2.3,4.8,3.7c21.7,19.7,47.1,31.3,76,36.7c31,5.7,53.4,23.5,65.8,52.5c11.8,27.8,29.9,49.9,54.2,67.7
		c24.9,18.3,37,43.7,35.7,74.7c-1.2,29.5,4.7,57.1,18.7,83.2C779.4,366.4,778.6,395.3,764.4,424.4z"/>
	<path d="M0,370.5c7.5-19.2,16.1-38,22.3-57.6c4.2-13.3,5.8-27.5,7.5-41.4c1.4-11.8,0.9-23.7,2-35.5c1.6-16.4,8.3-30.8,19.9-42.4
		c8.4-8.4,17.2-16.4,26.6-23.7c15.4-12.1,27.2-26.9,35.4-44.7c3.7-8,7.9-15.8,12.2-23.5c11.1-20.1,27.7-34.3,49.9-38.8
		c35.7-7.3,66.9-22.1,94.9-45.7C290.1,0.8,314-3.6,338.5,2.9c32.7,8.7,65,9,97.8,0.2c26.6-7.2,50.9-0.3,72.6,16.4
		c1.6,1.2,3.3,2.3,4.8,3.7c21.7,19.7,47.1,31.3,75.9,36.6c31,5.7,53.4,23.4,65.8,52.5c11.8,27.8,29.9,49.9,54.2,67.7
		c24.9,18.3,37,43.7,35.7,74.8c-1.2,29.5,4.7,57,18.7,83.2c15.4,28.5,14.5,57.4,0.4,86.5c-6.7,13.8-12.8,28.2-16.3,43
		c-3,12.6-2.8,26.1-2.5,39.2c0.6,32-11.3,57.8-37.1,76.5c-23.7,17.3-41.2,39-52.7,66c-12.7,29.9-35.7,47.8-67.6,53.7
		c-27.7,5.1-52,16.6-73.4,35.2c-14,12.2-30,22.2-49.2,23c-11.9,0.5-24.4-0.2-35.9-3.1c-28.4-7.3-56.2-7.4-84.4,0.3
		c-30.4,8.4-58.2,2.5-82.1-18.2c-22.7-19.7-48.4-32.1-77.9-37.7c-25.3-4.8-46.1-17.5-59-40.9c-4.5-8-3.7-14.6,2.6-18.4
		c5.8-3.5,12.5-1.4,16.8,6.4c9.5,17.3,24.9,25.9,43.2,30.4c6.9,1.7,13.7,3.4,20.6,5c19.2,4.5,36.6,12.6,52,25.1
		c4.3,3.5,9,6.5,13.2,10.2c20,17.9,42.8,22.3,68.4,15.3c8.7-2.4,17.8-3.6,26.7-5.4c24.1-4.8,47.1,1.9,70.3,6.8
		c19.8,4.2,37.5,1,53.6-11.4c3.4-2.6,7.1-4.9,10.3-7.8c21.7-19.3,47-31,75.4-36.3c5.7-1,11.2-2.9,16.7-4.6
		c14.4-4.4,25.5-13,32.9-26.2c4.9-8.8,9.8-17.7,14.1-26.8c9-18.9,21.6-34.6,38-47.5c6.2-4.8,12-10.1,18.1-15
		c16-13,23.2-30,23.4-50.4c0.1-10.6,0.5-21.2,0.7-31.9c0.5-20.2,7.1-38.9,16.7-56.1c15.7-28.1,15.8-55.4-0.2-83.4
		c-13.3-23.4-18.1-49.1-17.2-75.9c0.1-4-0.1-8.1-0.1-12.1c-0.1-20.1-6.7-37.7-23.1-49.7c-30.1-22.1-52.6-49.7-67.2-84.1
		c-8.4-19.9-25.2-30.3-45.7-35c-7.1-1.7-14.2-3.5-21.3-5.2c-19.5-4.6-36.9-13.3-52.4-26c-6.7-5.4-13.6-10.4-20.5-15.6
		c-15.5-11.7-32.8-14.6-51.6-10.5c-11.6,2.5-23.2,4.6-34.9,6.9c-23.8,4.7-46.7-1.9-69.5-6.7c-20.4-4.3-38.5-1-54.9,11.9
		c-1.4,1.1-3,2-4.3,3.2c-24.6,22.3-53.3,35.9-86,41.7c-23.9,4.3-40.9,17.8-50.3,40.3c-12.8,30.6-32.7,55.5-59.7,74.8
		c-20.1,14.4-29.1,34.3-27.9,58.9C54.6,288,48.5,318,33,346c-12.9,23.3-12.1,46.4-0.4,70.3c7.5,15.3,13.6,31.6,17.7,48.1
		c3.1,12.5,3,26.2,2.5,39.2c-1,26.7,8.8,47.5,30.2,63.4c9.5,7,18.1,15.4,26.9,23.3c3,2.7,5.7,5.8,7.9,9.2c3.5,5.3,3.1,10.6-1.6,15.1
		c-4.4,4.2-11,3.9-15.8-0.5c-13.1-11.9-25.8-24.1-39.2-35.6c-20.9-17.9-31.1-40.5-31-68c0-6.8-0.3-13.7-0.3-20.5
		c0-18-4.2-34.8-11.7-51.3C11.4,423.5,6,407.5,0,391.8C0,384.7,0,377.6,0,370.5z"/>
	<circle class="st0" cx="388.2" cy="381.2" r="245.5"/>
	<path d="M643.8,380.9c-0.2,126-91.1,232.8-215.7,253.5C291.7,657.1,160.1,563.2,136,426c-23.2-132.1,58-258.9,187.7-293.1
		c112.3-29.6,232.4,22.1,288.1,124.1c1.1,2,2.4,4,3,6.1c1.6,5.7,0.3,10.8-5.2,13.7c-5.6,3-10.8,1.9-14.8-3.2
		c-1.7-2.2-2.8-4.8-4.2-7.2c-47.7-79.2-117.9-120.1-210.2-118.1c-115.6,2.4-211.1,91.9-224.1,206.7
		c-13.5,119.6,67.1,230.7,184.9,254.9c129.2,26.5,255.4-60.9,276.5-191.5c5.2-32.4,3.5-64.5-4.6-96.3c-2.3-9.2,0.5-15.3,7.5-17
		c7.2-1.7,12.8,2,14.6,11.4C639.2,337.8,640.4,359.5,643.8,380.9"/>
	<path d="M370.7,262.8c11.6-13.3,23-26.5,34.6-39.5c21.9-24.5,59.5-17.7,69.5,12.6c4.6,14.1,2.2,27.3-7.3,38.4
		c-21.7,25.4-43.5,50.6-65.9,75.3c-16.1,17.8-41.5,17.9-58.6,0.9c-10.8-10.7-21.2-21.6-31.7-32.6c-16.5-17.3-17-41.1-1.5-57.2
		c15.8-16.4,39.8-16.6,57.7-0.5C368.5,261,369.4,261.7,370.7,262.8z M339.5,270.3c-8,1.5-13.1,4.9-15.9,11.1
		c-3.3,7.2-1.8,13.9,3.6,19.5c10.3,10.7,20.6,21.5,31.2,32c9.5,9.4,19.1,8.9,28-1.2c20.3-23.1,40.6-46.3,60.8-69.5
		c8-9.2,8.1-19.6,0.5-26.2c-8-7-17.5-5.7-25.7,3.5c-11,12.5-22,25-32.9,37.6c-17.2,19.8-17.4,19.6-36.2,1.6
		C349.2,275.2,344,273.1,339.5,270.3z"/>
	<path class="st0" d="M447.2,262.3c-20.2,23.2-40.5,46.4-60.8,69.5c-8.9,10.1-18.5,10.6-28,1.2c-10.6-10.5-20.9-21.2-31.1-32
		c-5.4-5.6-6.9-12.4-3.6-19.5c2.9-6.2,7.9-9.6,15.9-11.1c4.5,2.8,9.7,4.9,13.4,8.5c18.7,18.1,18.9,18.2,36.1-1.6
		c11-12.5,21.9-25.1,32.9-37.6c8.2-9.3,17.8-10.5,25.7-3.5C455.3,242.7,455.2,253.1,447.2,262.3z"/>
	<path d="M473.1,445.2c0-14.7-0.1-29.3,0-44c0.1-11,4.2-15,15.2-15.2c7.3-0.1,14.6-0.2,22,0c24.4,0.6,41,13.2,47.7,36.8
		c5.1,17.8,4.7,35.6-3.4,52.5c-8.6,18-23,27.7-43,28.5c-8.1,0.3-16.2,0.3-24.2,0.2c-9.6-0.1-13.8-4.2-13.9-14
		c-0.2-14.9-0.1-29.8-0.1-44.8C473.3,445.2,473.2,445.2,473.1,445.2z M497.1,479.7c14.4,1.1,27.8,1.7,35.8-12.7
		c7.5-13.5,6.3-37.1-2.5-48.4c-9-11.5-21.2-8.9-33.3-8.3C497.1,433.7,497.1,456.3,497.1,479.7z"/>
	<path d="M347.2,480.6c-0.8,0-1.5,0.1-2.3,0c-12.5-1.9-21.6,0.6-24.5,15.3c-1.4,7-8.3,9.4-14.3,7.2c-6.4-2.4-9.2-8.3-6.6-15.4
		c11.5-30.7,23.3-61.3,34.9-92c2.3-6.1,6.8-9.5,13.2-9.5c6.1,0.1,10.4,3.5,12.6,9.3c11.6,30.7,23.2,61.3,34.6,92.1
		c2.6,7.1-0.3,13.2-6.7,15.5c-6,2.2-12.8-0.2-14.2-7.3c-3-14.5-11.9-17.3-24.5-15.2C348.7,480.7,347.9,480.6,347.2,480.6z
		 M347.3,425.9c-4.4,11.7-7.9,21.3-11.6,31.3c8.8,0,15.7,0,23.4,0C355.2,447,351.6,437.4,347.3,425.9z"/>
	<path d="M238.2,463.3c0,9.6,0.1,18.4,0,27.3c-0.1,8.2-4.6,13.3-11.3,13.3c-6.7,0-11.5-5.2-11.5-13.3c-0.1-30.3-0.1-60.7,0-91
		c0-8.2,3.9-13.1,11.4-13.3c11.1-0.3,22.3-0.6,33.2,0.9c18.6,2.4,32.2,19.1,32,37.5c-0.2,18.6-13.9,34.5-32.5,37.2
		C252.7,462.8,245.9,462.8,238.2,463.3z M238.2,440.1c7.2-0.5,13.5-0.2,19.5-1.5c6.8-1.5,10.7-6.7,11.1-13.6
		c0.4-6.7-2.9-12.3-9.1-14.2c-5.9-1.7-12.4-1.5-18.6-1.6c-0.9,0-2.7,2.7-2.7,4.2C238.1,421.8,238.2,430.1,238.2,440.1z"/>
	<path d="M444.7,445.2c0,15.4,0.1,30.9,0,46.3c0,5.9-2.7,11.1-8.6,11.7c-3.8,0.4-8.5-1.9-11.8-4.3c-1.9-1.4-2.4-5.5-2.4-8.4
		c-0.2-30.3-0.2-60.7,0-91c0-8.2,4.8-13.3,11.5-13.2c6.7,0.1,11.2,5.2,11.3,13.5C444.9,414.8,444.7,430,444.7,445.2
		C444.7,445.2,444.7,445.2,444.7,445.2z"/>
	<path d="M375.9,81.4c0.3-3.8,0.2-7.9,1-11.8c1.2-5.6,5.4-8.6,10.9-8.6c5.6,0,10.3,3,10.8,8.6c0.8,8.2,0.8,16.6,0.1,24.8
		c-0.6,6-5.3,9.1-11.3,8.9c-5.7-0.2-9.6-3.3-10.6-8.9C376,90.3,376.2,86,375.9,81.4z"/>
	<path d="M399.7,680.3c-0.3,3.8-0.1,7.9-0.9,11.8c-1.2,6-5.5,9.2-11.4,9c-5.5-0.1-10.1-3.2-10.6-8.9c-0.7-8-0.8-16.1-0.1-24.1
		c0.5-6,4.9-9.3,11-9.3c6,0,10,3.3,11.1,9.2C399.6,672,399.5,676.1,399.7,680.3z"/>
	<path d="M674.2,342.2c-7.6,0.4-13.1-3.5-13.6-9.9c-0.6-6.8,2.8-11.2,9.3-12.7c6.6-1.5,13.3-2.8,20-3.6c6.1-0.7,11.7,3.7,12.5,9.6
		c0.9,6.4-2.2,10.7-8.1,12.9c-1.9,0.7-3.9,1-5.9,1.3C683.5,340.7,678.5,341.5,674.2,342.2z"/>
	<path d="M675.1,420.1c5.2,0.9,11.9,1.9,18.5,3.5c6.3,1.5,10,7.2,8.9,13c-1.1,6.2-6.8,10.5-13.3,9.6c-6.5-0.9-12.9-2-19.3-3.5
		c-6.8-1.6-10.5-7.5-9.3-13.4C661.9,423.2,666.9,419.7,675.1,420.1z"/>
	<path d="M101,342.2c-5.7-1-12.7-1.9-19.5-3.7c-6.1-1.6-9.1-6.3-8.3-12.6c0.7-6,6.2-10.6,12.3-9.8c7,0.8,13.9,2.1,20.8,3.8
		c6.4,1.6,10.1,7.4,8.7,13.1C113.4,339.4,109,342.6,101,342.2z"/>
	<path d="M102.1,419.8c7.8,0.3,11.9,3.7,12.8,10c0.9,5.9-1.9,10.7-7.8,12.2c-7.3,1.9-14.7,3.5-22.2,4.1c-6.3,0.6-10.6-3.3-11.8-9.5
		c-1.1-6.3,1.9-11.2,8-12.8C88.5,421.9,96,421,102.1,419.8z"/>
	<path d="M300.6,106.6c-0.2,8.2-2.8,12.2-8.3,13.7c-5.9,1.6-10.8-0.4-13.3-5.9c-3-6.6-5.5-13.5-7.5-20.5c-1.6-5.7,0.7-10.6,6.2-13.2
		c5.1-2.4,10.8-1.8,13.4,3.1C295.3,91.8,298,100.4,300.6,106.6z"/>
	<path d="M506.2,89.8c-4,10-6.5,18.8-11.1,26.4c-1.7,2.8-8.9,4.6-12.3,3.4c-3.4-1.2-7.7-7.3-7.1-10.5c1.5-8.5,4.5-17.1,8.7-24.6
		c1.6-2.8,8.5-4.6,12.2-3.7C500.3,81.7,502.9,86.6,506.2,89.8z"/>
	<path d="M214.1,161.8c-1.6,2-3.4,6.4-6.5,7.6c-3.4,1.3-9.3,1.3-11.7-0.8c-6.1-5.4-11.8-11.9-15.9-18.9c-1.7-3-0.5-10,2.1-12.6
		c2.6-2.6,10.3-4.1,12.5-2.2c7.1,6.2,12.6,14.1,18.6,21.4C213.9,157.1,213.7,158.7,214.1,161.8z"/>
	<path d="M573.2,171.2c-9.4-1-14.4-10.5-9.5-17.6c4.2-6.2,9.3-11.9,14.6-17.3c4-4.1,9.8-4.7,13.6-0.8c2.9,2.9,6,9.7,4.5,12.1
		c-5.1,8.2-11.9,15.2-18.4,22.5C576.9,171.2,574.2,171,573.2,171.2z"/>
	<path d="M191.4,628.9c-10.2,0.2-16.3-9.3-11.4-16.8c4.2-6.5,9.4-12.5,14.9-18c4.2-4.2,9.7-4.1,14.4-0.4c4.5,3.5,6.4,8.8,3.3,13.4
		c-4.9,7.2-11,13.6-16.9,20.1C194.6,628.5,192.1,628.6,191.4,628.9z"/>
	<path d="M597.5,620.1c-1.7,2-3.9,6.4-7.2,7.6c-3.4,1.2-9.1,0.6-11.7-1.6c-5.8-5.1-10.6-11.4-15.2-17.7c-3.3-4.6-2.7-10.5,1.9-13.5
		c3.4-2.2,10.6-3.9,12.7-2c7,6.2,12.6,14.1,18.6,21.4C597.4,615,597.1,616.6,597.5,620.1z"/>
	<path d="M287.5,641.2c9.4,0.7,14.4,6.8,12.6,14c-1.8,7.3-4.5,14.4-7.7,21.3c-2.7,5.8-8,7.5-14,5.3c-5.7-2.1-8.6-6.9-7.1-12.6
		c2-7.5,4.5-15,8.1-21.9C281.1,644.1,285.7,642.5,287.5,641.2z"/>
	<path d="M504.8,668.9c-0.5,7.7-3.1,11.7-8.7,13.2c-5.6,1.5-10.4-0.2-12.8-5.3c-3.2-7-5.9-14.5-7.9-22c-1.5-5.4,1-10.1,6.3-12.4
		c5.1-2.3,10.8-1.7,13.4,3.3C499.3,653.6,502.1,662.3,504.8,668.9z"/>
	<path d="M637.9,250.3c-4.4-3.8-9.2-6-10.3-9.4c-1.2-3.5-0.2-10,2.3-12.1c6.3-5.2,13.6-9.7,21.3-12.5c3.3-1.2,9.7,1.2,12.2,4.1
		c2.2,2.6,2.6,10.3,0.6,12.1C656.3,239,647.4,244,637.9,250.3z"/>
	<path d="M666,533.6c0.3,9.5-8,15.7-15.6,12.3c-6.8-3.1-13.3-7.1-19.6-11.3c-5-3.4-5.9-8.7-3.3-14.1c2.6-5.5,8-8,13.2-5.7
		c7.7,3.4,15,8.1,22,12.9C664.7,529.1,665.4,532.4,666,533.6z"/>
	<path d="M121.3,212.9c9.6,6.5,18.6,11.8,26.4,18.5c1.9,1.6,1,9.6-1.3,12c-2.6,2.8-9,4.6-12.5,3.4c-7.2-2.6-14.2-6.7-20-11.7
		c-2.7-2.4-3.9-8.8-2.9-12.6C111.9,219.2,116.8,216.9,121.3,212.9z"/>
	<path d="M121.2,549.4c-4.5-4.1-9.4-6.4-10.3-9.9c-1-3.8,0.3-10.1,3.1-12.5c5.8-5,12.8-9.1,20-11.7c3.5-1.2,9.9,0.7,12.4,3.6
		c2.3,2.5,3,10.4,1.1,12.1C139.8,537.7,130.8,542.9,121.2,549.4z"/>
</g>
</svg>
