<svg width="14" height="18" viewBox="0 0 14 18" fill="none" xmlns="http://www.w3.org/2000/svg">
<path fill-rule="evenodd" clip-rule="evenodd" d="M0 17.6786C0 17.7638 0.0249395 17.8456 0.0693322 17.9059C0.113725 17.9661 0.173934 18 0.236715 18H4.02415C4.08694 18 4.14714 17.9661 4.19154 17.9059C4.23593 17.8456 4.26087 17.7638 4.26087 17.6786C4.26087 17.5933 4.23593 17.5116 4.19154 17.4513C4.14714 17.391 4.08694 17.3571 4.02415 17.3571H0.236715C0.173934 17.3571 0.113725 17.391 0.0693322 17.4513C0.0249395 17.5116 0 17.5933 0 17.6786Z" fill="#FF6302"/>
<path fill-rule="evenodd" clip-rule="evenodd" d="M9.73913 17.6786C9.73913 17.7638 9.76407 17.8456 9.80846 17.9059C9.85285 17.9661 9.91306 18 9.97584 18H13.7633C13.8261 18 13.8863 17.9661 13.9307 17.9059C13.9751 17.8456 14 17.7638 14 17.6786C14 17.5933 13.9751 17.5116 13.9307 17.4513C13.8863 17.391 13.8261 17.3571 13.7633 17.3571H9.97584C9.91306 17.3571 9.85285 17.391 9.80846 17.4513C9.76407 17.5116 9.73913 17.5933 9.73913 17.6786Z" fill="#FF6302"/>
<path fill-rule="evenodd" clip-rule="evenodd" d="M4.86957 17.6786C4.86957 17.7638 4.8945 17.8456 4.9389 17.9059C4.98329 17.9661 5.0435 18 5.10628 18H8.89372C8.9565 18 9.01671 17.9661 9.0611 17.9059C9.1055 17.8456 9.13043 17.7638 9.13043 17.6786C9.13043 17.5933 9.1055 17.5116 9.0611 17.4513C9.01671 17.391 8.9565 17.3571 8.89372 17.3571H5.10628C5.0435 17.3571 4.98329 17.391 4.9389 17.4513C4.8945 17.5116 4.86957 17.5933 4.86957 17.6786Z" fill="#FF6302"/>
<path d="M9.8913 3.85714C10.1738 3.85714 10.4448 3.97325 10.6445 4.17992C10.8443 4.3866 10.9565 4.6669 10.9565 4.95918V10.4694C10.9565 10.7617 10.8443 11.042 10.6445 11.2486C10.4448 11.4553 10.1738 11.5714 9.8913 11.5714H3.5C3.21749 11.5714 2.94654 11.4553 2.74678 11.2486C2.54701 11.042 2.43478 10.7617 2.43478 10.4694V4.95918C2.43478 4.6669 2.54701 4.3866 2.74678 4.17992C2.94654 3.97325 3.21749 3.85714 3.5 3.85714H8.29348V2.7551C8.29348 2.31668 8.12514 1.89622 7.82549 1.58621C7.52584 1.2762 7.11942 1.10204 6.69565 1.10204C6.27188 1.10204 5.86547 1.2762 5.56582 1.58621C5.26617 1.89622 5.09783 2.31668 5.09783 2.7551H4.03261C4.03261 2.0244 4.31318 1.32363 4.8126 0.806951C5.31201 0.290269 5.98937 0 6.69565 0C7.04537 0 7.39166 0.0712628 7.71475 0.20972C8.03785 0.348176 8.33142 0.551116 8.57871 0.806951C8.82599 1.06279 9.02215 1.36651 9.15598 1.70077C9.28981 2.03503 9.3587 2.3933 9.3587 2.7551V3.85714H9.8913ZM6.69565 8.81633C6.97817 8.81633 7.24911 8.70022 7.44887 8.49355C7.64864 8.28687 7.76087 8.00656 7.76087 7.71429C7.76087 7.42201 7.64864 7.1417 7.44887 6.93503C7.24911 6.72835 6.97817 6.61224 6.69565 6.61224C6.41314 6.61224 6.1422 6.72835 5.94243 6.93503C5.74266 7.1417 5.63043 7.42201 5.63043 7.71429C5.63043 8.00656 5.74266 8.28687 5.94243 8.49355C6.1422 8.70022 6.41314 8.81633 6.69565 8.81633Z" fill="#FF6302"/>
<path d="M1.73893 16.7143L1.05553 16.2281L1.50237 15.2557H0.608696V14.2833H1.50237L1.05553 13.3434L1.73893 12.8572L2.18577 13.7972L2.63261 12.8572L3.31601 13.3434L2.86917 14.2833H3.76285V15.2557H2.86917L3.31601 16.2281L2.63261 16.7143L2.18577 15.7419L1.73893 16.7143Z" fill="#FF6302"/>
<path d="M11.4781 16.7143L10.7947 16.2281L11.2415 15.2557H10.3478V14.2833H11.2415L10.7947 13.3434L11.4781 12.8572L11.9249 13.7972L12.3717 12.8572L13.0551 13.3434L12.6083 14.2833H13.502V15.2557H12.6083L13.0551 16.2281L12.3717 16.7143L11.9249 15.7419L11.4781 16.7143Z" fill="#FF6302"/>
<path d="M6.6085 16.7143L5.9251 16.2281L6.37194 15.2557H5.47826V14.2833H6.37194L5.9251 13.3434L6.6085 12.8572L7.05534 13.7972L7.50217 12.8572L8.18557 13.3434L7.73874 14.2833H8.63241V15.2557H7.73874L8.18557 16.2281L7.50217 16.7143L7.05534 15.7419L6.6085 16.7143Z" fill="#FF6302"/>
</svg>
