<svg xmlns="http://www.w3.org/2000/svg" width="48" height="48" viewBox="0 0 48 48">
  <g id="Group_24771" data-name="Group 24771" transform="translate(-292 -676)">
    <g id="Rectangle_772" data-name="Rectangle 772" transform="translate(292 676)" fill="#fff" stroke="#e0e0e0" stroke-width="1">
      <rect width="48" height="48" rx="12" stroke="none"/>
      <rect x="0.5" y="0.5" width="47" height="47" rx="11.5" fill="none"/>
    </g>
    <g id="vuesax_bold_empty-wallet" data-name="vuesax/bold/empty-wallet" transform="translate(68 500)">
      <g id="empty-wallet">
        <path id="Vector" d="M0,0H24V24H0Z" transform="translate(236 188)" fill="none" opacity="0"/>
        <path id="Vector-2" data-name="Vector" d="M12.35,1.9V5.7h-1.5V1.9a.4.4,0,0,0-.55-.37L2.37,4.52A1.343,1.343,0,0,0,1.5,5.79v.67a3.736,3.736,0,0,0-1.5,3V5.79A2.848,2.848,0,0,1,1.84,3.12l7.94-3A1.975,1.975,0,0,1,10.45,0,1.905,1.905,0,0,1,12.35,1.9Z" transform="translate(238.5 190.05)" fill="#ff6302"/>
        <path id="Vector-3" data-name="Vector" d="M3,.5v1a.5.5,0,0,1-.49.5H1.055A1.035,1.035,0,0,1,0,1.09a1,1,0,0,1,.29-.8A.951.951,0,0,1,.995,0H2.5A.5.5,0,0,1,3,.5Z" transform="translate(254.495 202)" fill="#ff6302"/>
        <path id="Vector-4" data-name="Vector" d="M16.98,5.2H18a1,1,0,0,0,1-1V3.76A3.768,3.768,0,0,0,15.24,0H3.76A3.706,3.706,0,0,0,1.5.76a3.736,3.736,0,0,0-1.5,3v6.73a3.768,3.768,0,0,0,3.76,3.76H15.24A3.768,3.768,0,0,0,19,10.49V10.3a1,1,0,0,0-1-1h-.87A2.171,2.171,0,0,1,15,7.78,2.06,2.06,0,0,1,16.98,5.2ZM11.5,5h-7a.75.75,0,0,1,0-1.5h7a.75.75,0,0,1,0,1.5Z" transform="translate(238.5 195.75)" fill="#ff6302"/>
      </g>
    </g>
  </g>
</svg>
