<svg xmlns="http://www.w3.org/2000/svg" width="48" height="48" viewBox="0 0 48 48">
  <g id="Group_24544" data-name="Group 24544" transform="translate(-292 -676)">
    <g id="Rectangle_772" data-name="Rectangle 772" transform="translate(292 676)" fill="#fff" stroke="#e0e0e0" stroke-width="1">
      <rect width="48" height="48" rx="12" stroke="none"/>
      <rect x="0.5" y="0.5" width="47" height="47" rx="11.5" fill="none"/>
    </g>
    <g id="Group_24547" data-name="Group 24547" transform="translate(-1.871 -3.149)">
      <path id="Path_19704" data-name="Path 19704" d="M24.821,8.563,14.3,14.651,3.77,8.563a2.532,2.532,0,0,1,.9-.908l8.352-4.822a2.6,2.6,0,0,1,2.558,0l8.352,4.822a2.538,2.538,0,0,1,.9.908Z" transform="translate(304.075 688.001)" fill="#f96740"/>
      <path id="Path_19705" data-name="Path 19705" d="M14.371,13.328v12.15a2.673,2.673,0,0,1-1.164-.269L4.779,20.336A2.562,2.562,0,0,1,3.5,18.124V8.532A2.635,2.635,0,0,1,3.845,7.24Z" transform="translate(304 689.324)" fill="#ff6238"/>
      <path id="Path_19706" data-name="Path 19706" d="M22.871,8.532v9.592a2.562,2.562,0,0,1-1.279,2.213l-8.467,4.886A2.677,2.677,0,0,1,12,25.478V13.328L22.526,7.24A2.646,2.646,0,0,1,22.871,8.532Z" transform="translate(306.371 689.324)" fill="#ff6302"/>
    </g>
  </g>
</svg>
