<svg xmlns="http://www.w3.org/2000/svg" width="48" height="48" viewBox="0 0 48 48">
  <g id="Group_24771" data-name="Group 24771" transform="translate(-171 -676)">
    <g id="Path_20044" data-name="Path 20044" transform="translate(171 676)" fill="#fff">
      <path d="M 36 47.5 L 12 47.5 C 8.928239822387695 47.5 6.040329933166504 46.30379104614258 3.868269920349121 44.13172912597656 C 1.696210026741028 41.95967102050781 0.5 39.07175827026367 0.5 36 L 0.5 12 C 0.5 8.928239822387695 1.696210026741028 6.040329933166504 3.868269920349121 3.868269920349121 C 6.040329933166504 1.696210026741028 8.928239822387695 0.5 12 0.5 L 36 0.5 C 39.07175827026367 0.5 41.95967102050781 1.696210026741028 44.13172912597656 3.868269920349121 C 46.30379104614258 6.040329933166504 47.5 8.928239822387695 47.5 12 L 47.5 36 C 47.5 39.07175827026367 46.30379104614258 41.95967102050781 44.13172912597656 44.13172912597656 C 41.95967102050781 46.30379104614258 39.07175827026367 47.5 36 47.5 Z" stroke="none"/>
      <path d="M 12 1 C 9.061790466308594 1 6.299449920654297 2.144199371337891 4.221820831298828 4.221820831298828 C 2.144199371337891 6.299449920654297 1 9.061790466308594 1 12 L 1 36 C 1 38.93820953369141 2.144199371337891 41.7005500793457 4.221820831298828 43.77817916870117 C 6.299449920654297 45.85580062866211 9.061790466308594 47 12 47 L 36 47 C 38.93820953369141 47 41.7005500793457 45.85580062866211 43.77817916870117 43.77817916870117 C 45.85580062866211 41.7005500793457 47 38.93820953369141 47 36 L 47 12 C 47 9.061790466308594 45.85580062866211 6.299449920654297 43.77817916870117 4.221820831298828 C 41.7005500793457 2.144199371337891 38.93820953369141 1 36 1 L 12 1 M 12 0 L 36 0 C 42.62741851806641 0 48 5.372581481933594 48 12 L 48 36 C 48 42.62741851806641 42.62741851806641 48 36 48 L 12 48 C 5.372581481933594 48 0 42.62741851806641 0 36 L 0 12 C 0 5.372581481933594 5.372581481933594 0 12 0 Z" stroke="none" fill="#e0e0e0"/>
    </g>
    <g id="vuesax_bold_card" data-name="vuesax/bold/card" transform="translate(-309 180)">
      <g id="card">
        <path id="Vector" d="M20,4.15a1.2,1.2,0,0,1-1.2,1.2H1.2A1.2,1.2,0,0,1,0,4.15V4.14A4.135,4.135,0,0,1,4.14,0H15.85A4.153,4.153,0,0,1,20,4.15Z" transform="translate(494 511.4)" fill="#ff6302"/>
        <path id="Vector-2" data-name="Vector" d="M0,1.2V6.21a4.135,4.135,0,0,0,4.14,4.14H15.85A4.153,4.153,0,0,0,20,6.2v-5A1.2,1.2,0,0,0,18.8,0H1.2A1.2,1.2,0,0,0,0,1.2ZM6,7H4A.75.75,0,0,1,4,5.5H6A.75.75,0,0,1,6,7Zm6.5,0h-4a.75.75,0,0,1,0-1.5h4a.75.75,0,0,1,0,1.5Z" transform="translate(494 518.25)" fill="#ff6302"/>
        <path id="Vector-3" data-name="Vector" d="M0,0H24V24H0Z" transform="translate(492 508)" fill="none" opacity="0"/>
      </g>
    </g>
  </g>
</svg>
