<svg width="50" height="50" viewBox="0 0 50 50" fill="none" xmlns="http://www.w3.org/2000/svg">
<path d="M13.3243 1H36.6757C43.4822 1 49 6.51779 49 13.3243V36.6757C49 43.4822 43.4822 49 36.6757 49H13.3243C6.51779 49 1 43.4822 1 36.6757V13.3243C1 6.51779 6.51779 1 13.3243 1Z" fill="white" stroke="#E0E0E0"/>
<path d="M34 22.9994C34.2652 22.9994 34.5196 22.8941 34.7071 22.7065C34.8946 22.519 35 22.2646 35 21.9994V18.9994C34.9998 18.7896 34.9337 18.5852 34.8109 18.4151C34.6882 18.2449 34.515 18.1177 34.316 18.0514L25.316 15.0514C25.1106 14.9829 24.8884 14.9829 24.683 15.0514L15.683 18.0514C15.4841 18.1179 15.3112 18.2452 15.1886 18.4153C15.0661 18.5854 15.0001 18.7897 15 18.9994V21.9994C15 22.2646 15.1054 22.519 15.2929 22.7065C15.4804 22.8941 15.7348 22.9994 16 22.9994H17V30.1834C16.4171 30.3895 15.9121 30.7706 15.5541 31.2747C15.1961 31.7788 15.0026 32.3811 15 32.9994V34.9994C15 35.2646 15.1054 35.519 15.2929 35.7065C15.4804 35.8941 15.7348 35.9994 16 35.9994H34C34.2652 35.9994 34.5196 35.8941 34.7071 35.7065C34.8946 35.519 35 35.2646 35 34.9994V32.9994C34.9974 32.3811 34.8039 31.7788 34.4459 31.2747C34.0879 30.7706 33.5829 30.3895 33 30.1834V22.9994H34ZM33 33.9994H17V32.9994C17 32.7342 17.1054 32.4798 17.2929 32.2923C17.4804 32.1048 17.7348 31.9994 18 31.9994H32C32.2652 31.9994 32.5196 32.1048 32.7071 32.2923C32.8946 32.4798 33 32.7342 33 32.9994V33.9994ZM19 29.9994V22.9994H21V29.9994H19ZM23 29.9994V22.9994H27V29.9994H23ZM29 29.9994V22.9994H31V29.9994H29ZM17 20.9994V19.7204L25 17.0534L33 19.7204V20.9994H17Z" fill="#FF6302"/>
</svg>
