<svg xmlns="http://www.w3.org/2000/svg" xmlns:xlink="http://www.w3.org/1999/xlink" width="247.948" height="185.519" viewBox="0 0 247.948 185.519">
  <defs>
    <linearGradient id="linear-gradient" x1="0.046" y1="2.121" x2="1.153" y2="-1.808" gradientUnits="objectBoundingBox">
      <stop offset="0.36" stop-color="#00272e"/>
      <stop offset="0.75" stop-color="#3f80a1" stop-opacity="0.251"/>
      <stop offset="1" stop-color="#69b9eb" stop-opacity="0"/>
    </linearGradient>
    <clipPath id="clip-path">
      <rect id="Rectangle_1029" data-name="Rectangle 1029" width="73.336" height="150.297" fill="none"/>
    </clipPath>
  </defs>
  <g id="Group_24466" data-name="Group 24466" transform="translate(-742 -299.044)">
    <g id="new-messages" transform="translate(742 299.044)">
      <path id="Path_17164" data-name="Path 17164" d="M42.593,84.146c-7.834,1.661-15.977,3.463-22.267,8.423C15.016,96.753,6.74,104.478,4.233,110.755c-10.622,26.512,1.387,58.772,24.7,75.271,10.963,7.76,24.626,11.516,34.478,20.651,6.231,5.777,10.6,13.425,17.226,18.736,9.688,7.754,22.769,9.469,35.148,10.3,8.6.583,17.535.834,25.514-2.437,5.768-2.362,10.654-6.415,15.449-10.409l31.771-26.531c5.1-4.258,9.878-11.04,16.524-10.995,59.822.428,63.855-69.973-27.957-101.155-8.092-2.749-13.641-10.39-21.243-14.307-15.7-8.095-33.776-5.472-49.615.129C86.115,77.136,63.462,79.708,42.593,84.146Z" transform="translate(-0.333 -50.547)" fill="#ff6302" opacity="0.18"/>
      <path id="Path_17169" data-name="Path 17169" d="M185.424,181a8.047,8.047,0,0,0-.927.853h-.187Z" transform="translate(-125.094 -129.376)" opacity="0.61" fill="url(#linear-gradient)"/>
      <path id="Path_17176" data-name="Path 17176" d="M197.7,52.184c-2.639-5.662-12.553-4.731-12.553-4.731,6.115-3.608,4.944-12.772,4.87-13.312h0c2.675,7.989,11.909,6.225,12.736,6.051C196.621,41.7,197.7,52.184,197.7,52.184ZM180.512,63.8c-1.677-3.6-7.982-3.006-7.982-3.006h0c3.991-2.372,3.087-8.478,3.087-8.478v.035c1.712,5.05,7.57,3.93,8.092,3.821C179.827,57.137,180.512,63.8,180.512,63.8Z" transform="translate(-117.106 -29.785)" fill="#ff6302"/>
      <path id="Path_17191" data-name="Path 17191" d="M186.594,46.989l-1.413.463c6.115-3.608,4.944-12.772,4.87-13.312.1.435,1.519,6.482.744,8.468C189.825,45.09,186.594,46.989,186.594,46.989ZM176.487,58.054c-.747,1.033-3.714,2.626-3.917,2.733,3.991-2.372,3.087-8.478,3.087-8.478v.035C175.814,52.763,177.215,57.044,176.487,58.054Z" transform="translate(-117.133 -29.785)" fill="#fff" opacity="0.22"/>
      <path id="Path_17192" data-name="Path 17192" d="M178.148,204.993,243.7,255.432l2.755-2.053L177.91,200.59Z" transform="translate(-120.648 -142.661)" fill="#fff"/>
      <path id="Path_17193" data-name="Path 17193" d="M393.049,255.412l70.717-50.9V201.04L390.88,253.826Z" transform="translate(-265.071 -142.966)" fill="#fff"/>
      <path id="Path_17194" data-name="Path 17194" d="M464.057,77.911l-.193.541-1.439,1.439c1.011-1.744-1.844-5.794-1.844-5.794l-1.139-.853-3.421-2.575L391.21,22.19l2.063-1.58,66.455,50.941A8,8,0,0,1,464.057,77.911Z" transform="translate(-265.401 -20.61)" fill="#fff"/>
    </g>
    <g id="Group_17064" data-name="Group 17064" transform="translate(827.729 308.701)">
      <g id="Group_17062" data-name="Group 17062" clip-path="url(#clip-path)">
        <path id="Path_17197" data-name="Path 17197" d="M62.181,150.3l-51.064-.03A11.124,11.124,0,0,1,0,139.141L.025,11.121A11.124,11.124,0,0,1,11.154,0l51.065.03A11.124,11.124,0,0,1,73.336,11.155l-.025,128.02A11.123,11.123,0,0,1,62.181,150.3" transform="translate(0.001 0.001)" fill="#263238"/>
        <path id="Path_17198" data-name="Path 17198" d="M68.563,13.12l-9.9-.006a2.459,2.459,0,0,0-2.4,2.512v1.8a2.459,2.459,0,0,1-2.4,2.512l-19.3-.011a2.462,2.462,0,0,1-2.4-2.515v-1.8a2.462,2.462,0,0,0-2.4-2.515l-3.482,0-8.666,0a7.79,7.79,0,0,0-7.795,7.789L9.781,145.835a7.79,7.79,0,0,0,7.786,7.792l50.963.03a7.79,7.79,0,0,0,7.795-7.789l.025-124.957a7.79,7.79,0,0,0-7.786-7.792" transform="translate(-6.397 -8.562)" fill="#fff"/>
        <path id="Path_17199" data-name="Path 17199" d="M88.615,389.992a.978.978,0,1,1-.987-.97.979.979,0,0,1,.987.97" transform="translate(-56.68 -254.447)" fill="#263238"/>
        <path id="Path_17200" data-name="Path 17200" d="M104.461,389.861a.978.978,0,1,1-.987-.97.979.979,0,0,1,.987.97" transform="translate(-67.044 -254.361)" fill="#263238"/>
        <path id="Path_17201" data-name="Path 17201" d="M120.307,389.73a.978.978,0,1,1-.987-.97.979.979,0,0,1,.987.97" transform="translate(-77.409 -254.275)" fill="#263238"/>
        <path id="Path_17202" data-name="Path 17202" d="M169.688,49.584c0,.03-1.288.065-2.876.078s-2.876,0-2.876-.03,1.287-.064,2.876-.077,2.876,0,2.876.03" transform="translate(-107.225 -32.408)" fill="#263238"/>
        <path id="Path_17203" data-name="Path 17203" d="M169.724,53.838c0,.03-1.287.065-2.875.078s-2.876,0-2.876-.03,1.287-.064,2.876-.077,2.876,0,2.876.03" transform="translate(-107.249 -35.19)" fill="#263238"/>
        <path id="Path_17204" data-name="Path 17204" d="M169.759,58.092c0,.03-1.287.065-2.875.078s-2.876,0-2.876-.03,1.287-.064,2.876-.077,2.876,0,2.876.03" transform="translate(-107.272 -37.973)" fill="#263238"/>
        <path id="Path_17205" data-name="Path 17205" d="M29.23,53.922a.965.965,0,0,1,.119-.007l.332-.01,1.229-.027-.03.031c0-.272-.009-.569-.013-.89,0-.165-.014-.322,0-.512a.467.467,0,0,1,.408-.374c.2,0,.373-.013.585,0a.471.471,0,0,1,.4.469c0,.415.009.849.014,1.3l-.051-.05,1.549-.016-.053.054c-.005-.624-.011-1.269-.017-1.93q0-.248,0-.492a.39.39,0,0,0-.063-.2,1.26,1.26,0,0,0-.157-.168l-.678-.667-.653-.644-.317-.313a.741.741,0,0,0-.323-.241.423.423,0,0,0-.361.069c-.1.08-.194.192-.289.284l-.556.561c-.35.364-.713.694-.979,1.01a1.1,1.1,0,0,0-.078.581q0,.289,0,.547c0,.336,0,.63,0,.88,0,.228,0,.413,0,.562,0,.13-.007.2-.007.2s-.006-.062-.01-.187c0-.147-.009-.33-.014-.554q-.008-.377-.019-.886c0-.175-.006-.36-.01-.556,0-.1,0-.2,0-.3a.633.633,0,0,1,.085-.322c.285-.349.629-.661.981-1.035l.552-.565c.1-.1.182-.2.3-.3a.519.519,0,0,1,.444-.087.83.83,0,0,1,.369.264l.318.312.655.643.679.666a1.292,1.292,0,0,1,.172.186.5.5,0,0,1,.08.258q0,.245,0,.494c0,.661.01,1.307.015,1.93v.053h-.053l-1.549.01h-.051V53.9c0-.45,0-.884-.007-1.3a.379.379,0,0,0-.318-.382c-.18-.009-.388,0-.563,0a.385.385,0,0,0-.338.305c-.015.157,0,.338-.006.5,0,.322,0,.619,0,.891v.031h-.03l-1.247-.007-.326,0a.657.657,0,0,1-.108-.005" transform="translate(-19.081 -32.124)" fill="#263238"/>
        <path id="Path_17215" data-name="Path 17215" d="M77.653,323.638c0,.05-12.81.09-28.607.09s-28.61-.04-28.61-.09,12.807-.09,28.61-.09,28.607.04,28.607.09" transform="translate(-13.367 -211.622)" fill="#e0e0e0"/>
        <path id="Path_17216" data-name="Path 17216" d="M88.329,335.071c0,.05-7.116.09-15.891.09s-15.893-.04-15.893-.09,7.114-.09,15.893-.09,15.891.04,15.891.09" transform="translate(-36.984 -219.1)" fill="#e0e0e0"/>
        <path id="Path_17227" data-name="Path 17227" d="M77.6,280.42H26.679a3.905,3.905,0,0,1-3.905-3.906v-2.477a3.905,3.905,0,0,1,3.905-3.906H77.6a3.906,3.906,0,0,1,3.906,3.906v2.477A3.906,3.906,0,0,1,77.6,280.42" transform="translate(-14.896 -176.685)" fill="#ff6302"/>
        <path id="Path_17232" data-name="Path 17232" d="M110.165,85.148A17.108,17.108,0,1,1,93.058,68.041a17.107,17.107,0,0,1,17.107,17.107" transform="translate(-56.389 -31.26)" fill="#ff6302"/>
      </g>
      <g id="vuesax_bold_sms" data-name="vuesax/bold/sms" transform="translate(26.466 44.636)">
        <g id="sms">
          <path id="Vector" d="M0,0H20.406V20.406H0Z" fill="none" opacity="0"/>
          <path id="Vector-2" data-name="Vector" d="M12.754,0h-8.5C1.7,0,0,1.275,0,4.251V10.2c0,2.976,1.7,4.251,4.251,4.251h8.5c2.551,0,4.251-1.275,4.251-4.251V4.251C17.005,1.275,15.3,0,12.754,0Zm.4,5.178L10.492,7.3a3.282,3.282,0,0,1-3.979,0L3.852,5.178a.654.654,0,0,1-.1-.9.636.636,0,0,1,.893-.1L7.3,6.3a2.029,2.029,0,0,0,2.389,0l2.661-2.126a.628.628,0,0,1,.893.1A.645.645,0,0,1,13.153,5.178Z" transform="translate(1.701 2.976)" fill="#fff"/>
        </g>
      </g>
    </g>
  </g>
</svg>
