<svg xmlns="http://www.w3.org/2000/svg" width="194.002" height="194.002" viewBox="0 0 194.002 194.002">
  <g id="Group_24768" data-name="Group 24768" transform="translate(-348 -59)">
    <path id="Subtraction_1" data-name="Subtraction 1" d="M10579-4670a96.386,96.386,0,0,1-37.756-7.623,97.07,97.07,0,0,1-16.478-8.943,97.717,97.717,0,0,1-14.355-11.845,97.654,97.654,0,0,1-11.845-14.355,96.971,96.971,0,0,1-8.943-16.477A96.378,96.378,0,0,1,10482-4767a96.385,96.385,0,0,1,7.623-37.758,96.907,96.907,0,0,1,8.943-16.477,97.683,97.683,0,0,1,11.845-14.356,97.685,97.685,0,0,1,14.355-11.845,97.039,97.039,0,0,1,16.478-8.943A96.386,96.386,0,0,1,10579-4864a96.4,96.4,0,0,1,37.758,7.623,97.039,97.039,0,0,1,16.478,8.943,97.626,97.626,0,0,1,14.355,11.845,97.683,97.683,0,0,1,11.845,14.356,96.907,96.907,0,0,1,8.943,16.477A96.382,96.382,0,0,1,10676-4767a96.378,96.378,0,0,1-7.623,37.756,96.971,96.971,0,0,1-8.943,16.477,97.654,97.654,0,0,1-11.845,14.355,97.659,97.659,0,0,1-14.355,11.845,97.07,97.07,0,0,1-16.478,8.943A96.392,96.392,0,0,1,10579-4670Zm0-180.782a83.876,83.876,0,0,0-83.779,83.783,83.874,83.874,0,0,0,83.779,83.78,83.875,83.875,0,0,0,83.78-83.78A83.877,83.877,0,0,0,10579-4850.782Z" transform="translate(-10133.999 4923.002)" fill="#ff6302"/>
  </g>
</svg>
