<svg width="100" height="100" viewBox="0 0 100 100" fill="none" xmlns="http://www.w3.org/2000/svg">
<mask id="mask0_605_5746" style="mask-type:luminance" maskUnits="userSpaceOnUse" x="0" y="0" width="33" height="75">
<path d="M0 0H32.7703V74.6837H0V0Z" fill="white"/>
</mask>
<g mask="url(#mask0_605_5746)">
<path d="M2.27116 74.4003C1.81719 74.4003 1.36586 74.2669 0.984477 74.0091C0.384023 73.6051 0.0263901 72.9445 0.0263901 72.2395V11.7771C0.0263901 10.8599 0.628164 10.0418 1.52687 9.73822L29.6321 0.231106C30.3196 -0.00263391 31.0811 0.100262 31.6749 0.505496C32.2688 0.91073 32.6211 1.56876 32.6211 2.26998V62.3843C32.6211 63.2926 32.0312 64.1043 31.1444 64.4143L3.03922 74.2695C2.7898 74.3571 2.52982 74.4003 2.27116 74.4003ZM4.51594 13.3091V69.1526L28.1316 60.8714V5.32003L4.51594 13.3091Z" fill="#A3A6AA"/>
</g>
<mask id="mask1_605_5746" style="mask-type:luminance" maskUnits="userSpaceOnUse" x="28" y="0" width="33" height="68">
<path d="M28.0406 0H60.8108V67.8544H28.0406V0Z" fill="white"/>
</mask>
<g mask="url(#mask1_605_5746)">
<path d="M38.3275 67.58C38.053 67.58 37.7732 67.5304 37.5013 67.4275L29.5503 64.394C28.6938 64.0675 28.1316 63.271 28.1316 62.3843V2.26999C28.1316 1.56496 28.4893 0.903123 29.0897 0.49916C29.6902 0.0951962 30.4569 -0.00261885 31.1444 0.238743L59.2562 10.0939C60.1431 10.4039 60.733 11.2156 60.733 12.1239V39.7154C60.733 40.9082 59.7287 41.8762 58.4882 41.8762C57.249 41.8762 56.2434 40.9082 56.2434 39.7154V13.6369L32.6212 5.35688V60.9158L39.1549 63.4082C40.307 63.8477 40.8718 65.1041 40.4152 66.2131C40.0655 67.0617 39.2209 67.58 38.3275 67.58Z" fill="#A3A6AA"/>
</g>
<mask id="mask2_605_5746" style="mask-type:luminance" maskUnits="userSpaceOnUse" x="56" y="0" width="33" height="65">
<path d="M56.0811 0H88.8514V64.9276H56.0811V0Z" fill="white"/>
</mask>
<g mask="url(#mask2_605_5746)">
<path d="M86.5934 64.8932C85.3542 64.8932 84.3486 63.9252 84.3486 62.7311V5.35688L60.733 13.6369V39.7154C60.733 40.9082 59.7274 41.8762 58.4882 41.8762C57.249 41.8762 56.2434 40.9082 56.2434 39.7154V12.1239C56.2434 11.2156 56.8333 10.4039 57.7201 10.0939L85.8253 0.238743C86.5142 -0.00261884 87.2809 0.0951962 87.8814 0.49916C88.4805 0.904393 88.8382 1.56496 88.8382 2.26999V62.7311C88.8382 63.9252 87.8339 64.8932 86.5934 64.8932Z" fill="#A3A6AA"/>
</g>
<path d="M62.3786 88.2076C47.7882 88.2076 35.919 76.7798 35.919 62.7313C35.919 48.684 47.7882 37.2549 62.3786 37.2549C76.969 37.2549 88.8382 48.684 88.8382 62.7313C88.8382 76.7798 76.969 88.2076 62.3786 88.2076ZM62.3786 41.5778C50.264 41.5778 40.4086 51.0671 40.4086 62.7313C40.4086 74.3967 50.264 83.886 62.3786 83.886C74.4933 83.886 84.3486 74.3967 84.3486 62.7313C84.3486 51.0671 74.4933 41.5778 62.3786 41.5778Z" fill="#A3A6AA"/>
<mask id="mask3_605_5746" style="mask-type:luminance" maskUnits="userSpaceOnUse" x="76" y="77" width="24" height="23">
<path d="M76.6892 77.9358H100V100H76.6892V77.9358Z" fill="white"/>
</mask>
<g mask="url(#mask3_605_5746)">
<path d="M97.556 99.9999C96.9819 99.9999 96.4078 99.7878 95.9697 99.366L77.6116 81.6907C76.7354 80.8472 76.7354 79.4791 77.6116 78.6343C78.4879 77.7908 79.9092 77.7908 80.7868 78.6343L99.1435 96.3096C100.02 97.1544 100.02 98.5225 99.1435 99.366C98.7054 99.7891 98.1313 99.9999 97.556 99.9999Z" fill="#A3A6AA"/>
</g>
<path d="M47.8225 65.6175C46.5834 65.6175 45.5791 64.6495 45.5791 63.4567C45.5791 53.8086 53.7334 45.9592 63.7577 45.9592C64.9969 45.9592 66.0024 46.9272 66.0024 48.1201C66.0024 49.3142 64.9969 50.2821 63.7577 50.2821C56.2091 50.2821 50.0673 56.1917 50.0673 63.4567C50.0673 64.6508 49.063 65.6175 47.8225 65.6175Z" fill="#A3A6AA"/>
</svg>
