<svg id="Search" xmlns="http://www.w3.org/2000/svg" width="22.649" height="22.649" viewBox="0 0 22.649 22.649">
  <g id="Group_819" data-name="Group 819" transform="translate(-285 55)">
    <g id="Group_818" data-name="Group 818" transform="translate(285 -55)">
      <g id="vuesax_bold_search-normal" data-name="vuesax/bold/search-normal">
        <g id="search-normal">
          <g id="Group_22182" data-name="Group 22182">
            <g id="Vector" transform="translate(2.831 2.831)" fill="none">
              <path d="M15.572,7.786A7.786,7.786,0,1,1,7.786,0,7.786,7.786,0,0,1,15.572,7.786Z" stroke="none"/>
              <path d="M 7.785757064819336 1.999997138977051 C 4.595477104187012 1.999997138977051 1.999997138977051 4.595477104187012 1.999997138977051 7.785757064819336 C 1.999997138977051 10.97603702545166 4.595477104187012 13.57151699066162 7.785757064819336 13.57151699066162 C 10.97603702545166 13.57151699066162 13.57151699066162 10.97603702545166 13.57151699066162 7.785757064819336 C 13.57151699066162 4.595477104187012 10.97603702545166 1.999997138977051 7.785757064819336 1.999997138977051 M 7.785757064819336 -2.86102294921875e-06 C 12.08571720123291 -2.86102294921875e-06 15.57151699066162 3.485796928405762 15.57151699066162 7.785757064819336 C 15.57151699066162 12.08571720123291 12.08571720123291 15.57151699066162 7.785757064819336 15.57151699066162 C 3.485796928405762 15.57151699066162 -2.86102294921875e-06 12.08571720123291 -2.86102294921875e-06 7.785757064819336 C -2.86102294921875e-06 3.485796928405762 3.485796928405762 -2.86102294921875e-06 7.785757064819336 -2.86102294921875e-06 Z" stroke="none" fill="#0a0a0a"/>
            </g>
            <g id="Vector-2" data-name="Vector" transform="translate(15.087 15.089)" fill="#0a0a0a">
              <path d="M 3.330228090286255 3.743514776229858 C 3.222998142242432 3.743514776229858 3.116178035736084 3.700714588165283 3.044477939605713 3.629024744033813 L 0.6177480816841125 1.202294707298279 C 0.4605718553066254 1.045108556747437 0.4623786509037018 0.7823692560195923 0.6210194230079651 0.614521324634552 C 0.696606457233429 0.540637731552124 0.7973102331161499 0.5000047087669373 0.9051280617713928 0.5000047087669373 C 1.016795039176941 0.5000047087669373 1.123576283454895 0.5431908369064331 1.206241130828857 0.621697723865509 L 3.629028081893921 3.044474601745605 C 3.78411865234375 3.199575185775757 3.784411430358887 3.457463502883911 3.631973505020142 3.62554407119751 C 3.546271324157715 3.700677156448364 3.437073469161987 3.743514776229858 3.330228090286255 3.743514776229858 Z" stroke="none"/>
              <path d="M 3.330228090286255 4.243514537811279 C 3.095387935638428 4.243514537811279 2.860538005828857 4.15218448638916 2.690927982330322 3.982574701309204 L 0.2641980648040771 1.555844664573669 C -0.08806195110082626 1.203584671020508 -0.08806195110082626 0.6295146942138672 0.2641980648040771 0.2642046809196472 C 0.6164680123329163 -0.08806529641151428 1.190528035163879 -0.08806529641151428 1.555848002433777 0.2642046809196472 L 3.982578039169312 2.690924644470215 C 4.334847927093506 3.043194770812988 4.334847927093506 3.617264747619629 3.982578039169312 3.982574701309204 C 3.799917936325073 4.15218448638916 3.565078020095825 4.243514537811279 3.330228090286255 4.243514537811279 Z" stroke="none" fill="#0a0a0a"/>
            </g>
          </g>
          <path id="Vector-3" data-name="Vector" d="M0,0H22.649V22.649H0Z" transform="translate(22.649 22.649) rotate(180)" fill="none" opacity="0"/>
        </g>
      </g>
    </g>
  </g>
</svg>
