<svg width="39" height="39" viewBox="0 0 39 39" fill="none" xmlns="http://www.w3.org/2000/svg">
<path d="M10.5 1H28.5C33.7467 1 38 5.2533 38 10.5V28.5C38 33.7467 33.7467 38 28.5 38H10.5C5.2533 38 1 33.7467 1 28.5V10.5C1 5.2533 5.2533 1 10.5 1Z" fill="white" stroke="#E0E0E0"/>
<path d="M27.427 22.7236C28.0253 22.7245 28.6145 22.5771 29.1419 22.2946C29.6693 22.0121 30.1185 21.6032 30.4492 21.1046C30.78 20.606 30.982 20.0332 31.0372 19.4374C31.0923 18.8417 30.999 18.2415 30.7655 17.6907C30.5319 17.1398 30.1655 16.6554 29.6989 16.2808C29.2324 15.9062 28.6803 15.6531 28.092 15.5441C27.5036 15.4352 26.8975 15.4737 26.3277 15.6563C25.758 15.8389 25.2423 16.1599 24.827 16.5906L18.119 12.6906C18.2235 12.353 18.2738 12.0009 18.268 11.6476C18.2711 10.8037 17.9805 9.98496 17.4459 9.33196C16.9113 8.67897 16.1661 8.23239 15.3381 8.06888C14.5102 7.90536 13.6512 8.03509 12.9085 8.43581C12.1657 8.83653 11.5857 9.48325 11.2677 10.265C10.9498 11.0467 10.9139 11.9148 11.1661 12.7201C11.4183 13.5255 11.943 14.2179 12.65 14.6786C13.3571 15.1394 14.2025 15.3397 15.0411 15.2451C15.8797 15.1506 16.6592 14.7672 17.246 14.1606L23.954 18.0786C23.8598 18.4112 23.8097 18.7549 23.805 19.1006C23.8113 19.4531 23.8613 19.8034 23.954 20.1436L17.246 24.0436C16.6616 23.4421 15.8863 23.0626 15.0528 22.9701C14.2193 22.8775 13.3796 23.0777 12.6776 23.5363C11.9755 23.9949 11.4547 24.6834 11.2046 25.4838C10.9544 26.2842 10.9903 27.1467 11.3062 27.9235C11.6222 28.7003 12.1984 29.3431 12.9362 29.7417C13.674 30.1403 14.5274 30.2699 15.3503 30.1083C16.1732 29.9467 16.9142 29.504 17.4465 28.8561C17.9788 28.2081 18.2692 27.3952 18.268 26.5566C18.2617 26.2041 18.2116 25.8537 18.119 25.5136L24.827 21.5946C25.1591 21.9518 25.5615 22.2365 26.009 22.4308C26.4564 22.6251 26.9392 22.7248 27.427 22.7236Z" fill="#0A0A0A"/>
</svg>
