<svg xmlns="http://www.w3.org/2000/svg" width="10.687" height="11.528" viewBox="0 0 10.687 11.528">
  <g id="vuesax_bold_location" data-name="vuesax/bold/location" opacity="0.39">
    <path id="Vector" d="M8.406,3.218A4.143,4.143,0,0,0,4.265,0h0A4.142,4.142,0,0,0,.12,3.213c-.562,2.479.956,4.578,2.33,5.9a2.6,2.6,0,0,0,3.627,0C7.45,7.791,8.968,5.7,8.406,3.218ZM4.265,5.625A1.513,1.513,0,1,1,5.778,4.112,1.513,1.513,0,0,1,4.265,5.625Z" transform="translate(0.961 0.841)" fill="#0a0a0a"/>
    <path id="Vector-2" data-name="Vector" d="M0,0H10.687V11.528H0Z" fill="none" opacity="0"/>
    <path id="Vector-3" data-name="Vector" d="M0,0H10.687V11.528H0Z" transform="translate(10.687 11.528) rotate(180)" fill="none" opacity="0"/>
  </g>
</svg>
