<svg xmlns="http://www.w3.org/2000/svg" width="16" height="16" viewBox="0 0 16 16">
  <g id="Group_24772" data-name="Group 24772" transform="translate(-4699 -2470)">
    <circle id="Ellipse_664" data-name="Ellipse 664" cx="8" cy="8" r="8" transform="translate(4699 2470)" fill="#ff6302"/>
    <g id="Group_24771" data-name="Group 24771" transform="translate(4629.579 1726.475)">
      <path id="Vector" d="M5.2.152,1.743,1.3c-2.324.777-2.324,2.044,0,2.817l1.026.341.341,1.026c.773,2.324,2.044,2.324,2.817,0L7.079,2.031C7.592.481,6.75-.365,5.2.152Zm.122,2.059L3.867,3.674a.286.286,0,0,1-.406,0,.289.289,0,0,1,0-.406L4.916,1.805a.287.287,0,1,1,.406.406Z" transform="translate(73.807 747.912)" fill="#fff"/>
    </g>
  </g>
</svg>
