<svg id="star-Filled" xmlns="http://www.w3.org/2000/svg" width="34" height="33" viewBox="0 0 34 33">
  <rect id="Path" width="34" height="33" fill="rgba(255,255,255,0)"/>
  <path id="star-Filled_1_" d="M327.615,2640.366l-4.411,4.114,1.041,5.8a2.472,2.472,0,0,1-1.029,2.464,2.72,2.72,0,0,1-2.8.209l-5.463-2.746-5.463,2.746a2.715,2.715,0,0,1-2.8-.209,2.474,2.474,0,0,1-1.029-2.464l1.041-5.8-4.411-4.114a2.451,2.451,0,0,1-.676-2.586,2.591,2.591,0,0,1,2.136-1.737l6.1-.848,2.729-5.287a2.687,2.687,0,0,1,4.726,0l2.728,5.287,6.1.848a2.59,2.59,0,0,1,2.135,1.737A2.449,2.449,0,0,1,327.615,2640.366Z" transform="translate(-297.958 -2623.688)" fill="#ffc000"/>
</svg>
