<svg xmlns="http://www.w3.org/2000/svg" width="17.312" height="16.4" viewBox="0 0 17.312 16.4">
  <path id="star-Filled_1_" d="M318.3,2636.364l-2.837,2.726.67,3.846a1.661,1.661,0,0,1-.662,1.633,1.706,1.706,0,0,1-1.8.138l-3.514-1.819-3.514,1.819a1.706,1.706,0,0,1-1.8-.138,1.663,1.663,0,0,1-.662-1.633l.67-3.846-2.837-2.726a1.658,1.658,0,0,1-.435-1.715,1.679,1.679,0,0,1,1.374-1.15l3.926-.562,1.755-3.5a1.7,1.7,0,0,1,3.04,0l1.755,3.5,3.926.562a1.679,1.679,0,0,1,1.373,1.15A1.657,1.657,0,0,1,318.3,2636.364Z" transform="translate(-301.5 -2628.5)" fill="#ff6302"/>
</svg>
