<svg width="500" height="500" viewBox="0 0 500 500" fill="none" xmlns="http://www.w3.org/2000/svg">
<path d="M500 382.4H0V382.65H500V382.4Z" fill="#EBEBEB"/>
<path d="M449.9 398.49H416.78V398.74H449.9V398.49Z" fill="#EBEBEB"/>
<path d="M331.22 401.21H322.53V401.46H331.22V401.21Z" fill="#EBEBEB"/>
<path d="M415.78 389.21H396.59V389.46H415.78V389.21Z" fill="#EBEBEB"/>
<path d="M95.65 390.89H52.46V391.14H95.65V390.89Z" fill="#EBEBEB"/>
<path d="M110.89 390.89H104.56V391.14H110.89V390.89Z" fill="#EBEBEB"/>
<path d="M225.15 395.11H131.47V395.36H225.15V395.11Z" fill="#EBEBEB"/>
<path d="M237 337.8H43.91C42.3973 337.797 40.9475 337.195 39.8788 336.124C38.8102 335.054 38.21 333.603 38.21 332.09V60.66C38.2231 59.156 38.8292 57.718 39.8964 56.6582C40.9637 55.5985 42.4059 55.0026 43.91 55H237C238.514 55 239.967 55.6016 241.038 56.6724C242.108 57.7433 242.71 59.1956 242.71 60.71V332.09C242.71 333.604 242.108 335.057 241.038 336.128C239.967 337.198 238.514 337.8 237 337.8ZM43.91 55.2C42.4636 55.2026 41.0774 55.7791 40.0556 56.8027C39.0338 57.8264 38.46 59.2136 38.46 60.66V332.09C38.46 333.536 39.0338 334.924 40.0556 335.947C41.0774 336.971 42.4636 337.547 43.91 337.55H237C238.447 337.547 239.834 336.971 240.858 335.948C241.881 334.924 242.457 333.537 242.46 332.09V60.66C242.457 59.2127 241.881 57.8255 240.858 56.8021C239.834 55.7787 238.447 55.2026 237 55.2H43.91Z" fill="#EBEBEB"/>
<path d="M453.31 337.8H260.21C258.696 337.797 257.246 337.195 256.175 336.125C255.105 335.054 254.503 333.604 254.5 332.09V60.66C254.516 59.1551 255.124 57.7171 256.193 56.6576C257.262 55.5981 258.705 55.0025 260.21 55H453.31C454.812 55.0052 456.252 55.6022 457.317 56.6617C458.382 57.7212 458.987 59.1578 459 60.66V332.09C459 333.601 458.401 335.05 457.335 336.121C456.268 337.191 454.821 337.795 453.31 337.8ZM260.21 55.2C258.763 55.2026 257.375 55.7787 256.352 56.8021C255.329 57.8255 254.753 59.2127 254.75 60.66V332.09C254.753 333.537 255.329 334.924 256.352 335.948C257.375 336.971 258.763 337.547 260.21 337.55H453.31C454.757 337.547 456.145 336.971 457.168 335.948C458.191 334.924 458.767 333.537 458.77 332.09V60.66C458.767 59.2127 458.191 57.8255 457.168 56.8021C456.145 55.7787 454.757 55.2026 453.31 55.2H260.21Z" fill="#EBEBEB"/>
<path d="M146.41 115.65C146.41 113.883 145.997 112.141 145.203 110.563C144.41 108.985 143.259 107.613 141.841 106.559C140.424 105.505 138.779 104.797 137.039 104.492C135.299 104.186 133.512 104.292 131.82 104.8C131.989 103.648 132.073 102.485 132.07 101.32C132.07 97.7937 131.293 94.3108 129.794 91.1189C128.296 87.927 126.112 85.1046 123.399 82.8524C120.685 80.6002 117.509 78.9736 114.096 78.0882C110.682 77.2029 107.116 77.0806 103.65 77.73C101.274 73.8613 97.7073 70.867 93.4857 69.1958C89.2641 67.5247 84.6146 67.2668 80.234 68.4608C75.8535 69.6548 71.9779 72.2363 69.1882 75.8185C66.3984 79.4006 64.8448 83.7905 64.7601 88.33H64.4101C59.2834 88.33 54.3668 90.3665 50.7417 93.9916C47.1166 97.6167 45.0801 102.533 45.0801 107.66C45.0801 112.787 47.1166 117.703 50.7417 121.328C54.3668 124.953 59.2834 126.99 64.4101 126.99H135.41C138.359 126.904 141.158 125.671 143.213 123.553C145.267 121.436 146.414 118.6 146.41 115.65Z" fill="#F0F0F0"/>
<path d="M104.75 132.61V110.52H86.7301V132.61H72.0601L95.7401 152.62L119.43 132.61H104.75Z" fill="#E0E0E0"/>
<path d="M418.29 109.68C418.29 108.765 418.075 107.862 417.664 107.045C417.253 106.227 416.656 105.517 415.922 104.971C415.187 104.424 414.335 104.058 413.434 103.9C412.532 103.742 411.606 103.796 410.73 104.06C410.822 103.464 410.869 102.863 410.87 102.26C410.876 100.432 410.477 98.6253 409.703 96.9694C408.928 95.3136 407.797 93.8497 406.39 92.6826C404.983 91.5155 403.335 90.6743 401.565 90.2191C399.794 89.764 397.945 89.7062 396.15 90.05C394.932 88.0237 393.086 86.4504 390.893 85.5694C388.699 84.6885 386.278 84.548 383.997 85.1694C381.716 85.7908 379.701 87.1401 378.257 89.0121C376.814 90.884 376.021 93.1762 376 95.54H375.82C373.168 95.54 370.624 96.5935 368.749 98.4689C366.873 100.344 365.82 102.888 365.82 105.54C365.82 108.192 366.873 110.736 368.749 112.611C370.624 114.486 373.168 115.54 375.82 115.54H412.56C414.091 115.503 415.546 114.87 416.617 113.776C417.687 112.681 418.288 111.211 418.29 109.68Z" fill="#F0F0F0"/>
<path d="M387.39 110.13V121.57H396.72V110.13H404.32L392.06 99.77L379.8 110.13H387.39Z" fill="#E0E0E0"/>
<path d="M131.955 177.207L44.9438 196.433L59.3371 261.572L146.348 242.346L131.955 177.207Z" fill="#FAFAFA"/>
<path d="M128.666 182.364L50.3154 199.677L62.797 256.164L141.147 238.852L128.666 182.364Z" fill="#E0E0E0"/>
<path d="M139.46 231.15L141.16 238.84L62.8102 256.15L56.7402 228.69L69.7802 210.97L98.9502 229.08L109.6 217.01L139.46 231.15Z" fill="#EBEBEB"/>
<path d="M118.92 200.1C119.197 201.348 119.097 202.649 118.634 203.84C118.17 205.031 117.364 206.058 116.317 206.791C115.27 207.523 114.03 207.929 112.752 207.957C111.475 207.984 110.218 207.632 109.14 206.945C108.063 206.258 107.213 205.267 106.699 204.097C106.185 202.927 106.029 201.631 106.252 200.372C106.475 199.114 107.066 197.95 107.95 197.028C108.834 196.105 109.972 195.466 111.22 195.19C112.892 194.821 114.643 195.131 116.087 196.051C117.53 196.972 118.55 198.428 118.92 200.1Z" fill="#EBEBEB"/>
<path opacity="0.3" d="M118.92 200.1C119.197 201.348 119.097 202.649 118.634 203.84C118.17 205.031 117.364 206.058 116.317 206.791C115.27 207.523 114.03 207.929 112.752 207.957C111.475 207.984 110.218 207.632 109.14 206.945C108.063 206.258 107.213 205.267 106.699 204.097C106.185 202.927 106.029 201.631 106.252 200.372C106.475 199.114 107.066 197.95 107.95 197.028C108.834 196.105 109.972 195.466 111.22 195.19C112.892 194.821 114.643 195.131 116.087 196.051C117.53 196.972 118.55 198.428 118.92 200.1Z" fill="#EBEBEB"/>
<path d="M154.387 313.735L100.983 298.774L81.4442 368.519L134.848 383.48L154.387 313.735Z" fill="#EBEBEB"/>
<path d="M143.66 321.405L106.193 310.909L105.135 314.684L142.603 325.18L143.66 321.405Z" fill="#E0E0E0"/>
<path d="M141.808 328.001L104.341 317.505L103.286 321.27L140.754 331.767L141.808 328.001Z" fill="#E0E0E0"/>
<path d="M139.959 334.588L102.492 324.092L101.437 327.857L138.904 338.353L139.959 334.588Z" fill="#E0E0E0"/>
<path d="M138.117 341.197L100.649 330.701L99.592 334.475L137.059 344.972L138.117 341.197Z" fill="#E0E0E0"/>
<path d="M136.265 347.793L98.7979 337.297L97.7431 341.062L135.211 351.558L136.265 347.793Z" fill="#E0E0E0"/>
<path d="M134.413 354.39L96.9458 343.893L95.891 347.658L133.359 358.155L134.413 354.39Z" fill="#E0E0E0"/>
<path d="M132.564 360.986L95.0967 350.49L94.0392 354.265L131.507 364.761L132.564 360.986Z" fill="#E0E0E0"/>
<path d="M117.08 362.853L92.8975 356.052L91.8391 359.815L116.021 366.616L117.08 362.853Z" fill="#E0E0E0"/>
<path d="M141.321 285.525L87.917 270.564L68.3783 340.309L121.782 355.27L141.321 285.525Z" fill="#FAFAFA"/>
<path d="M130.594 293.195L93.127 282.699L92.0695 286.474L129.537 296.97L130.594 293.195Z" fill="#E0E0E0"/>
<path d="M128.743 299.792L91.2754 289.295L90.2206 293.06L127.688 303.557L128.743 299.792Z" fill="#E0E0E0"/>
<path d="M126.894 306.378L89.4263 295.882L88.3715 299.647L125.839 310.143L126.894 306.378Z" fill="#E0E0E0"/>
<path d="M125.051 312.987L87.584 302.491L86.5265 306.265L123.994 316.762L125.051 312.987Z" fill="#E0E0E0"/>
<path d="M123.199 319.583L85.7319 309.087L84.6745 312.862L122.142 323.358L123.199 319.583Z" fill="#E0E0E0"/>
<path d="M121.348 326.18L83.8804 315.683L82.8256 319.448L120.293 329.945L121.348 326.18Z" fill="#E0E0E0"/>
<path d="M119.499 332.776L82.0312 322.28L80.9765 326.045L118.444 336.541L119.499 332.776Z" fill="#E0E0E0"/>
<path d="M104.445 335.67L80.189 328.875L79.1315 332.65L103.388 339.445L104.445 335.67Z" fill="#E0E0E0"/>
<path d="M443.23 180.47C437.51 176.02 429.88 161.39 429.89 161.33L422.41 212.85C422.58 211.68 418.01 210.31 414.96 209.85C407.57 208.78 401.19 212 400.46 217C399.73 222 405.23 227 412.62 228C420.01 229 426.32 225.85 427.05 220.84C427.15 220.09 426.59 219.27 426.69 218.57L432.46 178.87C435.346 182.515 438.968 185.51 443.09 187.66C448.57 190.48 450.35 198.31 450.35 198.31C450.35 198.31 452.07 187.34 443.23 180.47Z" fill="#E0E0E0"/>
<path d="M387.05 205.4C383.11 202.34 377.84 192.25 377.85 192.21L372.69 227.74C372.81 226.93 369.69 225.98 367.56 225.68C362.46 224.94 358.06 227.16 357.56 230.61C357.06 234.06 360.85 237.47 365.94 238.21C371.03 238.95 375.39 236.72 375.89 233.27C375.97 232.75 375.58 232.18 375.65 231.7L379.65 204.33C381.644 206.839 384.141 208.903 386.98 210.39C390.77 212.33 391.98 217.73 391.98 217.73C391.98 217.73 393.15 210.14 387.05 205.4Z" fill="#E0E0E0"/>
<path d="M385.17 307.54L382.42 305.38C381.931 304.995 381.359 304.73 380.75 304.605C380.141 304.48 379.511 304.499 378.91 304.66L365.12 308.66C364.542 308.819 364.016 309.125 363.593 309.55C363.171 309.974 362.866 310.502 362.71 311.08L361.85 314.27C361.694 314.848 361.391 315.376 360.971 315.802C360.55 316.228 360.026 316.537 359.45 316.7L351.21 319.07C350.748 319.199 350.317 319.422 349.946 319.727C349.575 320.031 349.271 320.409 349.054 320.837C348.836 321.265 348.71 321.733 348.684 322.212C348.658 322.691 348.731 323.171 348.9 323.62L364.84 368.93C365.181 369.87 365.862 370.648 366.749 371.111C367.636 371.574 368.663 371.688 369.63 371.43L434.89 352.63C435.352 352.501 435.783 352.278 436.154 351.973C436.525 351.669 436.829 351.291 437.046 350.863C437.263 350.435 437.389 349.967 437.416 349.488C437.442 349.009 437.369 348.529 437.2 348.08L421.26 302.77C420.918 301.83 420.237 301.052 419.351 300.589C418.464 300.126 417.436 300.012 416.47 300.27L388.68 308.27C388.078 308.43 387.448 308.447 386.838 308.32C386.229 308.193 385.658 307.926 385.17 307.54Z" fill="#E0E0E0"/>
<path d="M424.26 302.76L364.47 320C363.25 320.373 362.209 321.178 361.541 322.265C360.872 323.351 360.623 324.643 360.84 325.9L368.74 366.84C368.843 367.429 369.071 367.99 369.409 368.484C369.746 368.978 370.185 369.395 370.696 369.706C371.207 370.018 371.778 370.216 372.372 370.289C372.966 370.363 373.569 370.308 374.14 370.13L433.93 352.91C435.149 352.537 436.191 351.732 436.859 350.645C437.527 349.559 437.776 348.267 437.56 347.01L429.66 306.08C429.56 305.488 429.334 304.924 428.999 304.427C428.663 303.929 428.225 303.509 427.713 303.194C427.202 302.88 426.629 302.678 426.034 302.603C425.438 302.529 424.833 302.582 424.26 302.76Z" fill="#E6E6E6"/>
<path d="M250 427.56C357.082 427.56 443.89 422.492 443.89 416.24C443.89 409.988 357.082 404.92 250 404.92C142.917 404.92 56.1099 409.988 56.1099 416.24C56.1099 422.492 142.917 427.56 250 427.56Z" fill="#F5F5F5"/>
<path d="M450.06 239C450.06 295.85 407.06 342.1 354.29 342.1C301.52 342.1 258.52 295.85 258.52 239C258.52 182.15 301.52 135.9 354.29 135.9C386.86 135.9 416.77 153.4 434.55 182.76L427.55 187.47L445.92 193.13L449.06 173.13L442.49 177.52C423 145.17 390.09 125.9 354.29 125.9C296.36 125.9 249.23 176.64 249.23 239C249.23 301.36 296.36 352.1 354.29 352.1C412.22 352.1 459.35 301.37 459.35 239H450.06Z" fill="#FF6302"/>
<path opacity="0.7" d="M450.06 239C450.06 295.85 407.06 342.1 354.29 342.1C301.52 342.1 258.52 295.85 258.52 239C258.52 182.15 301.52 135.9 354.29 135.9C386.86 135.9 416.77 153.4 434.55 182.76L427.55 187.47L445.92 193.13L449.06 173.13L442.49 177.52C423 145.17 390.09 125.9 354.29 125.9C296.36 125.9 249.23 176.64 249.23 239C249.23 301.36 296.36 352.1 354.29 352.1C412.22 352.1 459.35 301.37 459.35 239H450.06Z" fill="white"/>
<path d="M368.44 217.64V204.05L361.93 203.39C361.083 198.948 359.44 194.696 357.08 190.84L361.26 185.4L352.33 175.79L347.33 180.29C343.828 177.794 339.864 176.019 335.67 175.07L335.05 168.07H322.39L321.77 175.07C317.576 176.019 313.612 177.794 310.11 180.29L305.11 175.79L296.18 185.4L300.35 190.84C297.998 194.701 296.356 198.951 295.5 203.39L289 204.05V217.64L295.5 218.3C296.356 222.742 297.999 226.995 300.35 230.86L296.18 236.29L305.11 245.9L310.11 241.41C313.614 243.902 317.577 245.676 321.77 246.63L322.39 253.63H335L335.62 246.63C339.813 245.676 343.776 243.902 347.28 241.41L352.28 245.9L361.21 236.29L357.03 230.86C359.39 227 361.033 222.744 361.88 218.3L368.44 217.64ZM328.7 229.25C319.26 229.25 311.61 221.01 311.61 210.85C311.61 200.69 319.26 192.45 328.7 192.45C338.14 192.45 345.79 200.68 345.79 210.85C345.79 221.02 338.14 229.25 328.7 229.25Z" fill="#FF6302"/>
<path d="M419.61 256V245.36L414.52 244.85C413.852 241.369 412.565 238.036 410.72 235.01L413.99 230.75L406.99 223.22L403 226.74C400.253 224.786 397.147 223.396 393.86 222.65L393.38 217.17H383.49L383.01 222.65C379.723 223.396 376.617 224.786 373.87 226.74L369.87 223.22L362.87 230.75L366.14 235.01C364.295 238.036 363.008 241.369 362.34 244.85L357.25 245.36V256L362.34 256.52C363.009 260 364.296 263.333 366.14 266.36L363 270.62L370 278.16L374 274.63C376.744 276.588 379.852 277.978 383.14 278.72L383.62 284.21H393.51L393.99 278.72C397.278 277.978 400.386 276.588 403.13 274.63L407.08 278.16L414.08 270.62L410.81 266.37C412.654 263.343 413.941 260.01 414.61 256.53L419.61 256ZM388.47 265.1C381.08 265.1 375.08 258.64 375.08 250.68C375.08 242.72 381.08 236.26 388.47 236.26C395.86 236.26 401.87 242.71 401.87 250.68C401.87 258.65 395.87 265.11 388.47 265.11V265.1Z" fill="#FF6302"/>
<path d="M368.44 286.26V277.31L364.16 276.87C363.592 273.948 362.508 271.151 360.96 268.61L363.71 265.04L357.84 258.71L354.52 261.71C352.215 260.063 349.604 258.893 346.84 258.27L346.44 253.67H338.13L337.72 258.27C334.96 258.895 332.352 260.065 330.05 261.71L326.73 258.71L320.85 265L323.6 268.57C322.055 271.112 320.974 273.909 320.41 276.83L316.13 277.27V286.22L320.41 286.65C320.956 289.604 322.037 292.434 323.6 295L320.85 298.58L326.73 304.9L330.05 301.9C332.352 303.545 334.96 304.715 337.72 305.34L338.13 309.95H346.44L346.84 305.34C349.604 304.717 352.215 303.547 354.52 301.9L357.84 304.9L363.71 298.58L361 295C362.552 292.46 363.635 289.662 364.2 286.74L368.44 286.26ZM342.28 293.89C336.07 293.89 331.03 288.47 331.03 281.78C331.03 275.09 336.03 269.67 342.28 269.67C348.53 269.67 353.53 275.09 353.53 281.78C353.53 288.47 348.5 293.89 342.28 293.89Z" fill="#FF6302"/>
<path opacity="0.7" d="M368.44 217.64V204.05L361.93 203.39C361.083 198.948 359.44 194.696 357.08 190.84L361.26 185.4L352.33 175.79L347.33 180.29C343.828 177.794 339.864 176.019 335.67 175.07L335.05 168.07H322.39L321.77 175.07C317.576 176.019 313.612 177.794 310.11 180.29L305.11 175.79L296.18 185.4L300.35 190.84C297.998 194.701 296.356 198.951 295.5 203.39L289 204.05V217.64L295.5 218.3C296.356 222.742 297.999 226.995 300.35 230.86L296.18 236.29L305.11 245.9L310.11 241.41C313.614 243.902 317.577 245.676 321.77 246.63L322.39 253.63H335L335.62 246.63C339.813 245.676 343.776 243.902 347.28 241.41L352.28 245.9L361.21 236.29L357.03 230.86C359.39 227 361.033 222.744 361.88 218.3L368.44 217.64ZM328.7 229.25C319.26 229.25 311.61 221.01 311.61 210.85C311.61 200.69 319.26 192.45 328.7 192.45C338.14 192.45 345.79 200.68 345.79 210.85C345.79 221.02 338.14 229.25 328.7 229.25Z" fill="white"/>
<path opacity="0.5" d="M419.61 256V245.36L414.52 244.85C413.852 241.369 412.565 238.036 410.72 235.01L413.99 230.75L406.99 223.22L403 226.74C400.253 224.786 397.147 223.396 393.86 222.65L393.38 217.17H383.49L383.01 222.65C379.723 223.396 376.617 224.786 373.87 226.74L369.87 223.22L362.87 230.75L366.14 235.01C364.295 238.036 363.008 241.369 362.34 244.85L357.25 245.36V256L362.34 256.52C363.009 260 364.296 263.333 366.14 266.36L363 270.62L370 278.16L374 274.63C376.744 276.588 379.852 277.978 383.14 278.72L383.62 284.21H393.51L393.99 278.72C397.278 277.978 400.386 276.588 403.13 274.63L407.08 278.16L414.08 270.62L410.81 266.37C412.654 263.343 413.941 260.01 414.61 256.53L419.61 256ZM388.47 265.1C381.08 265.1 375.08 258.64 375.08 250.68C375.08 242.72 381.08 236.26 388.47 236.26C395.86 236.26 401.87 242.71 401.87 250.68C401.87 258.65 395.87 265.11 388.47 265.11V265.1Z" fill="white"/>
<path opacity="0.3" d="M368.44 286.26V277.31L364.16 276.87C363.592 273.948 362.508 271.151 360.96 268.61L363.71 265.04L357.84 258.71L354.52 261.71C352.215 260.063 349.604 258.893 346.84 258.27L346.44 253.67H338.13L337.72 258.27C334.96 258.895 332.352 260.065 330.05 261.71L326.73 258.71L320.85 265L323.6 268.57C322.055 271.112 320.974 273.909 320.41 276.83L316.13 277.27V286.22L320.41 286.65C320.956 289.604 322.037 292.434 323.6 295L320.85 298.58L326.73 304.9L330.05 301.9C332.352 303.545 334.96 304.715 337.72 305.34L338.13 309.95H346.44L346.84 305.34C349.604 304.717 352.215 303.547 354.52 301.9L357.84 304.9L363.71 298.58L361 295C362.552 292.46 363.635 289.662 364.2 286.74L368.44 286.26ZM342.28 293.89C336.07 293.89 331.03 288.47 331.03 281.78C331.03 275.09 336.03 269.67 342.28 269.67C348.53 269.67 353.53 275.09 353.53 281.78C353.53 288.47 348.5 293.89 342.28 293.89Z" fill="white"/>
<path opacity="0.1" d="M351.81 87.2699V390.39C351.81 390.978 351.693 391.559 351.466 392.102C351.239 392.644 350.907 393.135 350.488 393.547C350.069 393.96 349.572 394.285 349.027 394.503C348.481 394.721 347.898 394.829 347.31 394.82H206.25C205.196 394.826 204.183 394.416 203.43 393.68C203.041 393.299 202.734 392.843 202.528 392.339C202.321 391.835 202.22 391.294 202.23 390.75V86.9099C202.211 86.4397 202.285 85.9704 202.448 85.5289C202.611 85.0873 202.859 84.6822 203.179 84.3367C203.498 83.9912 203.883 83.7121 204.31 83.5153C204.738 83.3185 205.2 83.208 205.67 83.1899H245.73C246.29 83.201 246.834 83.378 247.293 83.6984C247.752 84.0188 248.106 84.4683 248.31 84.9899L250 89.0799C250.206 89.5986 250.561 90.0446 251.02 90.3614C251.479 90.6783 252.022 90.8518 252.58 90.8599H301.58C302.135 90.8568 302.677 90.6888 303.136 90.3772C303.595 90.0656 303.952 89.6245 304.16 89.1099L305.81 84.9999C306.014 84.4779 306.368 84.0278 306.827 83.7059C307.286 83.3839 307.83 83.2045 308.39 83.1899H347.88C348.406 83.199 348.925 83.3119 349.408 83.522C349.89 83.7321 350.327 84.0354 350.692 84.4144C351.057 84.7934 351.343 85.2407 351.535 85.7307C351.727 86.2207 351.82 86.7438 351.81 87.2699Z" fill="black"/>
<path d="M327.91 94.86V382.86C327.912 383.418 327.802 383.971 327.587 384.487C327.372 385.002 327.057 385.469 326.659 385.861C326.261 386.253 325.79 386.562 325.271 386.77C324.753 386.977 324.198 387.079 323.64 387.07H189.64C188.654 387.076 187.705 386.691 187 386C186.633 385.635 186.342 385.2 186.147 384.721C185.951 384.242 185.853 383.728 185.86 383.21V94.52C185.827 93.6281 186.147 92.759 186.749 92.1005C187.352 91.4419 188.189 91.0467 189.08 91H227.14C227.673 91.0104 228.191 91.1797 228.628 91.4861C229.064 91.7925 229.399 92.2221 229.59 92.72L231.16 96.6C231.356 97.0923 231.693 97.5156 232.129 97.8164C232.565 98.1172 233.081 98.282 233.61 98.29H280.19C280.718 98.2862 281.233 98.1254 281.669 97.828C282.106 97.5306 282.444 97.1101 282.64 96.62L284.21 92.72C284.402 92.2229 284.738 91.794 285.174 91.4877C285.61 91.1815 286.127 91.0117 286.66 91H324.17C325.174 91.0287 326.127 91.4483 326.825 92.1694C327.524 92.8905 327.913 93.856 327.91 94.86Z" fill="#FF6302"/>
<path opacity="0.6" d="M203.47 102.59H205.45V99.9498H203.47V102.59Z" fill="white"/>
<path opacity="0.6" d="M200.25 102.59H202.23V99.0698H200.25V102.59Z" fill="white"/>
<path opacity="0.6" d="M197.02 102.58H199V98.1798H197.02V102.58Z" fill="white"/>
<path opacity="0.6" d="M193.79 102.58H195.77V97.2998H193.79V102.58Z" fill="white"/>
<path opacity="0.6" d="M309.76 98.98H308.59V101.62H309.76V98.98Z" fill="white"/>
<path opacity="0.6" d="M310.57 102.58H319.92V98.0098H310.57V102.58Z" fill="white"/>
<path opacity="0.3" d="M211.8 260.71H301.92C304.731 260.71 307.01 258.433 307.01 255.625C307.01 252.817 304.731 250.54 301.92 250.54H211.8C208.989 250.54 206.71 252.817 206.71 255.625C206.71 258.433 208.989 260.71 211.8 260.71Z" fill="black"/>
<path d="M260.93 251.45C261.495 251.422 262.061 251.51 262.591 251.707C263.122 251.904 263.607 252.207 264.017 252.598C264.427 252.988 264.753 253.458 264.976 253.978C265.199 254.498 265.314 255.059 265.314 255.625C265.314 256.191 265.199 256.751 264.976 257.272C264.753 257.792 264.427 258.262 264.017 258.652C263.607 259.042 263.122 259.345 262.591 259.543C262.061 259.74 261.495 259.827 260.93 259.8H211.8C211.234 259.827 210.669 259.74 210.139 259.543C209.608 259.345 209.123 259.042 208.713 258.652C208.303 258.262 207.977 257.792 207.754 257.272C207.531 256.751 207.416 256.191 207.416 255.625C207.416 255.059 207.531 254.498 207.754 253.978C207.977 253.458 208.303 252.988 208.713 252.598C209.123 252.207 209.608 251.904 210.139 251.707C210.669 251.51 211.234 251.422 211.8 251.45H260.93Z" fill="#FF6302"/>
<path opacity="0.3" d="M260.93 251.45C261.495 251.422 262.061 251.51 262.591 251.707C263.122 251.904 263.607 252.207 264.017 252.598C264.427 252.988 264.753 253.458 264.976 253.978C265.199 254.498 265.314 255.059 265.314 255.625C265.314 256.191 265.199 256.751 264.976 257.272C264.753 257.792 264.427 258.262 264.017 258.652C263.607 259.042 263.122 259.345 262.591 259.543C262.061 259.74 261.495 259.827 260.93 259.8H211.8C211.234 259.827 210.669 259.74 210.139 259.543C209.608 259.345 209.123 259.042 208.713 258.652C208.303 258.262 207.977 257.792 207.754 257.272C207.531 256.751 207.416 256.191 207.416 255.625C207.416 255.059 207.531 254.498 207.754 253.978C207.977 253.458 208.303 252.988 208.713 252.598C209.123 252.207 209.608 251.904 210.139 251.707C210.669 251.51 211.234 251.422 211.8 251.45H260.93Z" fill="white"/>
<path d="M238.07 181.11C237.659 181.112 237.252 181.034 236.871 180.878C236.491 180.722 236.145 180.493 235.854 180.203C235.563 179.912 235.333 179.567 235.176 179.188C235.019 178.808 234.939 178.401 234.94 177.99V167.83H236.88V178C236.877 178.149 236.905 178.296 236.962 178.434C237.019 178.572 237.103 178.696 237.21 178.8C237.316 178.906 237.442 178.99 237.581 179.047C237.721 179.104 237.87 179.132 238.02 179.13C238.32 179.13 238.607 179.011 238.819 178.799C239.031 178.587 239.15 178.3 239.15 178V167.83H241.22V178C241.227 178.414 241.147 178.825 240.987 179.207C240.827 179.589 240.59 179.934 240.29 180.22C240.001 180.512 239.654 180.743 239.272 180.896C238.891 181.049 238.481 181.122 238.07 181.11Z" fill="white"/>
<path d="M246.1 167.83C246.528 167.808 246.955 167.878 247.354 168.035C247.752 168.192 248.112 168.432 248.41 168.74C248.952 169.349 249.239 170.145 249.21 170.96V172.87C249.219 173.283 249.143 173.693 248.987 174.075C248.83 174.457 248.596 174.802 248.3 175.09C248.017 175.387 247.675 175.623 247.297 175.783C246.918 175.943 246.511 176.024 246.1 176.02H245V181H243V167.83H246.1ZM247.29 170.99C247.299 170.839 247.275 170.688 247.222 170.546C247.168 170.405 247.085 170.276 246.979 170.168C246.872 170.061 246.744 169.977 246.603 169.922C246.462 169.867 246.311 169.843 246.16 169.85H245V174.06H246.2C246.35 174.059 246.498 174.028 246.635 173.969C246.773 173.911 246.898 173.826 247.003 173.719C247.108 173.612 247.191 173.486 247.247 173.347C247.303 173.208 247.331 173.06 247.33 172.91L247.29 170.99Z" fill="white"/>
<path d="M257 177.82C257.009 178.233 256.933 178.643 256.777 179.025C256.62 179.407 256.386 179.753 256.09 180.04C255.807 180.337 255.465 180.573 255.087 180.733C254.708 180.893 254.301 180.974 253.89 180.97H250.77V167.82H253.89C254.3 167.815 254.707 167.894 255.085 168.052C255.464 168.21 255.806 168.444 256.09 168.74C256.391 169.032 256.628 169.384 256.785 169.774C256.942 170.163 257.015 170.581 257 171V177.82ZM252.77 179H254C254.149 179.001 254.297 178.971 254.435 178.912C254.573 178.854 254.697 178.768 254.8 178.66C255.007 178.441 255.122 178.151 255.12 177.85V171C255.123 170.851 255.095 170.703 255.038 170.566C254.981 170.428 254.897 170.304 254.79 170.2C254.692 170.088 254.57 170 254.433 169.941C254.297 169.882 254.149 169.854 254 169.86H252.8L252.77 179Z" fill="white"/>
<path d="M260.93 178L260.45 181H258.38L260.62 167.86H263.34L265.55 181H263.46L263 178H260.93ZM261.93 170.89L261.2 176.07H262.67L261.93 170.89Z" fill="white"/>
<path d="M267.47 169.82H265.36V167.82H271.55V169.82H269.45V181H267.45L267.47 169.82Z" fill="white"/>
<path d="M273.14 181V167.82H278.78V169.82H275.12V173.41H277.8V175.41H275.12V179H278.78V181H273.14Z" fill="white"/>
<path opacity="0.2" d="M272.49 269.57H241.22C238.939 269.57 237.09 271.419 237.09 273.7V280.43C237.09 282.711 238.939 284.56 241.22 284.56H272.49C274.771 284.56 276.62 282.711 276.62 280.43V273.7C276.62 271.419 274.771 269.57 272.49 269.57Z" fill="black"/>
<path d="M247.27 279.93C247.066 279.933 246.863 279.894 246.674 279.817C246.485 279.74 246.314 279.625 246.17 279.48C246.025 279.338 245.911 279.168 245.833 278.981C245.756 278.794 245.717 278.593 245.72 278.39V274.85C245.722 274.439 245.886 274.045 246.176 273.753C246.466 273.462 246.859 273.295 247.27 273.29C247.474 273.29 247.677 273.33 247.865 273.409C248.054 273.487 248.225 273.603 248.369 273.748C248.513 273.893 248.627 274.065 248.705 274.254C248.782 274.443 248.821 274.646 248.82 274.85V275.59H247.82V274.83C247.817 274.68 247.756 274.536 247.65 274.43C247.544 274.323 247.4 274.263 247.25 274.26C247.177 274.26 247.104 274.276 247.037 274.305C246.97 274.334 246.91 274.377 246.86 274.43C246.805 274.481 246.762 274.543 246.733 274.612C246.704 274.681 246.689 274.755 246.69 274.83V278.38C246.69 278.453 246.706 278.525 246.735 278.592C246.764 278.66 246.807 278.72 246.86 278.77C246.91 278.822 246.971 278.863 247.038 278.89C247.105 278.918 247.177 278.931 247.25 278.93C247.323 278.931 247.396 278.918 247.465 278.891C247.533 278.864 247.596 278.824 247.649 278.773C247.702 278.722 247.744 278.661 247.773 278.594C247.803 278.526 247.819 278.454 247.82 278.38V277.48H248.82V278.39C248.824 278.593 248.786 278.794 248.708 278.982C248.631 279.169 248.516 279.339 248.37 279.48C248.226 279.625 248.055 279.74 247.866 279.817C247.677 279.894 247.474 279.933 247.27 279.93Z" fill="white"/>
<path d="M250.64 278.36L250.4 279.85H249.4L250.5 273.37H251.85L252.94 279.85H251.94L251.71 278.36H250.64ZM251.15 274.85L250.79 277.41H251.51L251.15 274.85Z" fill="white"/>
<path d="M254.84 273.36L256.13 277.72V273.36H257.13V279.85H256.08L254.74 275.69V279.85H253.74V273.36H254.84Z" fill="white"/>
<path d="M259.52 279.93C259.316 279.933 259.113 279.894 258.924 279.817C258.735 279.74 258.564 279.625 258.42 279.48C258.275 279.338 258.161 279.168 258.083 278.981C258.006 278.794 257.967 278.593 257.97 278.39V274.85C257.972 274.439 258.136 274.045 258.426 273.753C258.716 273.462 259.109 273.295 259.52 273.29C259.724 273.29 259.927 273.33 260.115 273.409C260.304 273.487 260.475 273.603 260.619 273.748C260.763 273.893 260.877 274.065 260.955 274.254C261.032 274.443 261.071 274.646 261.07 274.85V275.59H260.07V274.83C260.067 274.68 260.006 274.536 259.9 274.43C259.794 274.323 259.65 274.263 259.5 274.26C259.427 274.26 259.354 274.276 259.287 274.305C259.22 274.334 259.16 274.377 259.11 274.43C259.055 274.481 259.012 274.543 258.983 274.612C258.954 274.681 258.939 274.755 258.94 274.83V278.38C258.94 278.453 258.956 278.525 258.985 278.592C259.014 278.66 259.057 278.72 259.11 278.77C259.16 278.822 259.221 278.863 259.288 278.89C259.355 278.918 259.427 278.931 259.5 278.93C259.573 278.931 259.646 278.918 259.715 278.891C259.783 278.864 259.846 278.824 259.899 278.773C259.952 278.722 259.994 278.661 260.023 278.594C260.053 278.526 260.069 278.454 260.07 278.38V277.48H261.07V278.39C261.074 278.593 261.036 278.794 260.958 278.982C260.881 279.169 260.766 279.339 260.62 279.48C260.476 279.625 260.305 279.74 260.116 279.817C259.927 279.894 259.724 279.933 259.52 279.93Z" fill="white"/>
<path d="M261.87 279.85V273.36H264.66V274.36H262.85V276.13H264.17V277.13H262.85V278.9H264.66V279.9L261.87 279.85Z" fill="white"/>
<path d="M268 279.85H265.33V273.37H266.33V278.88H268V279.85Z" fill="white"/>
<g opacity="0.3">
<path d="M292.61 340.88H221.11C220.943 340.88 220.778 340.847 220.624 340.783C220.47 340.719 220.33 340.626 220.212 340.508C220.094 340.39 220 340.25 219.937 340.096C219.873 339.942 219.84 339.777 219.84 339.61C219.842 339.275 219.977 338.954 220.215 338.718C220.453 338.482 220.775 338.35 221.11 338.35H292.61C292.945 338.35 293.266 338.482 293.504 338.718C293.742 338.954 293.877 339.275 293.88 339.61C293.88 339.947 293.746 340.27 293.508 340.508C293.27 340.746 292.947 340.88 292.61 340.88Z" fill="white"/>
<path d="M301.72 348.48H212C211.663 348.48 211.34 348.346 211.102 348.108C210.864 347.87 210.73 347.547 210.73 347.21C210.743 346.883 210.883 346.573 211.12 346.348C211.357 346.122 211.673 345.997 212 346H301.72C301.886 345.998 302.05 346.03 302.204 346.093C302.357 346.156 302.497 346.249 302.614 346.366C302.731 346.483 302.824 346.623 302.887 346.776C302.95 346.93 302.981 347.094 302.98 347.26C302.97 347.587 302.832 347.897 302.597 348.125C302.362 348.353 302.047 348.48 301.72 348.48Z" fill="white"/>
<path d="M283.5 356.07H230.22C230.054 356.071 229.889 356.039 229.735 355.977C229.581 355.914 229.441 355.821 229.323 355.704C229.205 355.587 229.111 355.448 229.047 355.294C228.983 355.141 228.95 354.976 228.95 354.81C228.95 354.473 229.084 354.15 229.322 353.912C229.56 353.674 229.883 353.54 230.22 353.54H283.5C283.837 353.54 284.16 353.674 284.398 353.912C284.636 354.15 284.77 354.473 284.77 354.81C284.77 354.976 284.737 355.141 284.673 355.294C284.609 355.448 284.516 355.587 284.398 355.704C284.28 355.821 284.139 355.914 283.985 355.977C283.831 356.039 283.667 356.071 283.5 356.07Z" fill="white"/>
<path d="M301.72 371.26H212C211.834 371.261 211.669 371.23 211.515 371.167C211.361 371.104 211.221 371.012 211.103 370.894C210.984 370.777 210.891 370.638 210.827 370.484C210.763 370.331 210.73 370.166 210.73 370C210.73 369.663 210.864 369.34 211.102 369.102C211.34 368.864 211.663 368.73 212 368.73H301.72C301.888 368.727 302.055 368.758 302.211 368.821C302.366 368.884 302.508 368.977 302.627 369.095C302.747 369.214 302.841 369.355 302.905 369.51C302.969 369.665 303.001 369.832 303 370C303.001 370.167 302.969 370.334 302.905 370.488C302.841 370.643 302.746 370.784 302.627 370.901C302.508 371.019 302.366 371.111 302.21 371.173C302.054 371.234 301.887 371.264 301.72 371.26Z" fill="white"/>
</g>
<g opacity="0.1">
<path d="M249.74 98.27L208.83 251.5L208.37 253.22L207.64 255.98L207.17 257.7L185.81 337.7V240.91L225.83 91H227.14C227.673 91.0104 228.191 91.1797 228.628 91.4861C229.064 91.7925 229.399 92.2221 229.59 92.72L231.16 96.6C231.356 97.0923 231.693 97.5156 232.129 97.8164C232.565 98.1172 233.08 98.282 233.61 98.29L249.74 98.27Z" fill="white"/>
<path d="M327.91 176.53V273.36L302.39 368.93L301.78 371.25L297.57 387.02H271.72L275.93 371.26L276.6 368.73L279.98 356.07L280.65 353.54L282.01 348.47L282.68 345.94L284.03 340.88L284.71 338.35L305.98 258.69V258.68L306.96 255V254.99L327.91 176.53Z" fill="white"/>
<path d="M263.75 98.27L223.09 250.54L222.85 251.45L220.62 259.8L220.38 260.71L187 386C186.633 385.635 186.342 385.2 186.147 384.721C185.951 384.242 185.853 383.728 185.86 383.21V368.43L214.62 260.71L214.86 259.8L217.09 251.45L217.33 250.54L257.93 98.27H263.75Z" fill="white"/>
</g>
<path d="M157.89 179.84C161.68 180.02 177.57 201.36 177.57 201.36L183.47 193.68C183.47 193.68 192.57 211.36 188.07 219.77C183.57 228.18 159.85 205.19 159.85 205.19L157.89 179.84Z" fill="#FF6302"/>
<path opacity="0.6" d="M157.89 179.85L159.45 196.85L159.85 205.17C159.85 205.17 163.75 208.95 168.68 212.88C175.92 218.66 185.39 224.76 188.07 219.76C192.57 211.35 183.47 193.67 183.47 193.67L177.57 201.34V201.28C176.63 200 161.56 180 157.89 179.85Z" fill="white"/>
<path opacity="0.2" d="M159.45 196.87L159.85 205.19C159.85 205.19 163.75 208.97 168.68 212.9C169.15 202.9 159.85 188.36 159.85 188.36L159.45 196.87Z" fill="black"/>
<path opacity="0.2" d="M177.57 201.36L176.72 202.98L179.2 212.61C179.2 212.61 172.37 206.4 176.72 200.31L177.57 201.36Z" fill="black"/>
<path d="M158.57 233.2L126.57 235.67C126.57 235.67 126.14 216.56 123.57 206.61C122.74 203.39 121.7 199.77 120.38 195.61C119.82 193.83 119.21 191.95 118.54 189.94C117.87 187.93 117.26 186.08 116.54 183.94C120.917 182.544 125.388 181.465 129.92 180.71C134.705 179.86 139.543 179.349 144.4 179.18C150.67 179.13 157.88 179.84 157.88 179.84C157.88 179.84 158.88 180.09 159.55 186.73C160.15 193 159.87 210.49 158.57 233.2Z" fill="#FF6302"/>
<path opacity="0.6" d="M158.57 233.2L126.57 235.67C126.57 235.67 126.57 235.28 126.57 234.57C126.43 230.38 125.8 215.13 123.57 206.57C122.98 204.27 122.28 201.76 121.44 198.99C121.11 197.88 120.76 196.73 120.38 195.53C119.82 193.75 119.21 191.87 118.54 189.86C117.87 187.85 117.26 186 116.54 183.86C120.917 182.464 125.388 181.385 129.92 180.63C134.705 179.78 139.543 179.269 144.4 179.1C150.67 179.05 157.88 179.76 157.88 179.76C157.88 179.76 158.88 180.01 159.55 186.65C160.15 193 159.87 210.49 158.57 233.2Z" fill="white"/>
<path d="M118.4 395.1L123.23 397.94C125.496 394.892 127.947 391.986 130.57 389.24C131.97 387.76 133.44 386.12 134.97 384.36C138.03 380.85 141.34 376.84 144.81 372.53L147.92 368.64C160 353.42 173.08 335.54 178 323.45C179.52 319.69 180.26 316.5 179.93 314.11C178.93 306.89 176.13 296.02 172.93 285.52C168.05 269.52 162.56 254.26 162.56 254.26L149 277.11C149 277.11 153.14 286.98 156.91 297.49C160.62 307.81 163.97 318.76 162.73 321.61C162.61 321.89 162.46 322.22 162.29 322.61C160.05 327.25 153.85 337.76 146.81 349.37L144.66 352.9C140.88 359.1 136.95 365.47 133.31 371.32C131.89 373.62 130.51 375.84 129.2 377.94C123 387.87 118.4 395.1 118.4 395.1Z" fill="#EEC1BB"/>
<path opacity="0.2" d="M148.2 368.63C141.82 376.63 135.69 383.93 131.13 389.23C130.48 385.97 129.82 382.11 129.3 377.9C134.57 369.44 141.02 359 146.88 349.33C146.756 355.789 147.198 362.247 148.2 368.63Z" fill="black"/>
<path d="M124.12 302.51C125.79 313.9 128.12 324.22 129.72 330.37C130.65 334.06 131.28 336.24 131.28 336.24C131.303 347.936 131.991 359.622 133.34 371.24C133.85 375.82 134.4 380.24 134.97 384.31C137.07 399.45 139.28 410.31 139.28 410.31L145.03 409.56L144.81 372.47L144.69 352.81L144.53 326.06L144.47 321.4L144.19 301.06L143.78 271.06L123.78 262.06C121.1 273.51 122.1 288.79 124.12 302.51Z" fill="#EEC1BB"/>
<path opacity="0.2" d="M173 285.93L155.6 293.84C152.25 284.84 149.02 277.11 149.02 277.11L162.51 254.26C162.51 254.26 168 269.47 172.88 285.52L173 285.93Z" fill="black"/>
<path opacity="0.2" d="M144.13 296.64L123.51 298C121.93 285.53 121.39 272.3 123.78 262.14L143.78 271.14L144.13 296.64Z" fill="black"/>
<path d="M118.84 391.94C119.43 391.51 124.41 398.94 124.41 398.94C124.41 398.94 123.3 406.72 125.55 411.73C127.8 416.74 123.43 416.32 119.8 411.57L110.8 399.82C108.25 396.47 112.74 396.38 118.84 391.94Z" fill="#263238"/>
<path d="M126.1 404.6C124.97 404.34 124.24 401.11 124.1 400.47C124.09 400.441 124.09 400.409 124.1 400.38C124.094 400.357 124.094 400.333 124.1 400.31V400.25C124.126 400.241 124.154 400.241 124.18 400.25C124.28 400.25 126.39 399.55 127.52 400.25C127.695 400.346 127.846 400.479 127.964 400.64C128.081 400.8 128.162 400.985 128.2 401.18C128.263 401.341 128.274 401.517 128.231 401.684C128.188 401.851 128.093 402 127.96 402.11C127.57 402.37 126.81 402.11 126.06 401.81C126.546 402.284 126.892 402.882 127.06 403.54C127.082 403.67 127.077 403.803 127.044 403.93C127.011 404.058 126.952 404.177 126.87 404.28C126.792 404.405 126.685 404.509 126.558 404.584C126.431 404.659 126.287 404.702 126.14 404.71L126.1 404.6ZM126.21 404.14C126.21 404.14 126.39 404.19 126.62 403.9C126.661 403.845 126.69 403.782 126.706 403.714C126.721 403.647 126.723 403.578 126.71 403.51C126.62 402.77 125.5 401.69 124.71 401.03C125.07 402.42 125.68 404 126.21 404.14ZM124.91 400.51C126.11 401.26 127.44 401.86 127.78 401.63C127.88 401.56 127.85 401.33 127.78 401.19C127.755 401.059 127.702 400.934 127.625 400.825C127.547 400.717 127.446 400.626 127.33 400.56C126.995 400.395 126.623 400.32 126.25 400.34C125.799 400.351 125.35 400.408 124.91 400.51Z" fill="#FF6302"/>
<path d="M137.25 406.69C137.25 405.96 146.25 406.53 146.25 406.53C146.25 406.53 151.76 412.13 157.11 413.39C162.46 414.65 159.47 417.86 153.49 417.86H138.66C134.41 417.86 137.07 414.24 137.25 406.69Z" fill="#263238"/>
<path d="M147.21 407.68C147.183 407.669 147.159 407.652 147.14 407.63C147.135 407.607 147.135 407.583 147.14 407.56C147.136 407.537 147.136 407.513 147.14 407.49C147.135 407.457 147.135 407.423 147.14 407.39C147.14 407.28 147.93 405.21 149.14 404.71C149.322 404.626 149.52 404.582 149.72 404.582C149.921 404.582 150.119 404.626 150.3 404.71C150.71 404.91 150.9 405.16 150.89 405.46C150.89 405.93 150.22 406.41 149.49 406.8C150.163 406.681 150.857 406.753 151.49 407.01C151.607 407.074 151.709 407.162 151.792 407.266C151.874 407.371 151.935 407.491 151.97 407.62C152.047 407.788 152.067 407.976 152.028 408.157C151.988 408.337 151.891 408.5 151.75 408.62C151.522 408.785 151.241 408.863 150.96 408.84C149.651 408.679 148.381 408.287 147.21 407.68ZM148.03 407.53C149.35 408.09 151.03 408.59 151.41 408.24C151.41 408.24 151.56 408.12 151.47 407.77C151.452 407.702 151.421 407.639 151.378 407.584C151.335 407.529 151.281 407.484 151.22 407.45C150.887 407.303 150.524 407.238 150.16 407.26C149.433 407.279 148.71 407.37 148 407.53H148.03ZM149.27 405.15C148.565 405.606 148.028 406.28 147.74 407.07C149.06 406.57 150.34 405.87 150.36 405.47C150.36 405.34 150.17 405.23 150.05 405.17C149.92 405.104 149.776 405.069 149.63 405.07C149.506 405.072 149.384 405.1 149.27 405.15Z" fill="#FF6302"/>
<path d="M141.75 186.32C133.8 185.32 131.41 181.9 131.41 181.9C134.66 178.84 134.07 174.32 133.24 171.5C132.982 170.606 132.648 169.736 132.24 168.9L141.81 170.69C141.59 172.012 141.466 173.349 141.44 174.69C141.405 175.697 141.495 176.705 141.71 177.69C142.36 180.55 143.99 180.59 143.99 180.59C145.69 183.72 141.75 186.32 141.75 186.32Z" fill="#EEC1BB"/>
<path opacity="0.2" d="M141.46 174.72C141.425 175.727 141.515 176.735 141.73 177.72C137.93 177.22 135.05 174.18 133.24 171.54C132.982 170.646 132.648 169.776 132.24 168.94L141.81 170.73C141.597 172.05 141.48 173.383 141.46 174.72Z" fill="black"/>
<path d="M133.22 138.6C119.68 139.69 111.71 174.9 130.86 171.54C136.49 170.54 159.86 152.63 150.92 145.82C145.806 141.814 139.677 139.314 133.22 138.6Z" fill="#263238"/>
<path d="M143.13 145.26C151.37 146.45 153.38 151.26 152.76 159.83C151.98 170.55 148.54 177.75 138.56 174C125 168.9 129.44 143.28 143.13 145.26Z" fill="#EEC1BB"/>
<path d="M147.5 158.6C147.98 159.925 148.618 161.188 149.4 162.36C149.112 162.666 148.744 162.886 148.338 162.996C147.932 163.105 147.503 163.1 147.1 162.98L147.5 158.6Z" fill="#D4827D"/>
<path d="M142.55 157.2C142.47 157.88 142.04 158.38 141.55 158.33C141.06 158.28 140.8 157.68 140.88 157C140.96 156.32 141.4 155.81 141.88 155.87C142.36 155.93 142.63 156.52 142.55 157.2Z" fill="#263238"/>
<path d="M141.69 155.88L143.23 155.48C143.23 155.48 142.35 156.63 141.69 155.88Z" fill="#263238"/>
<path d="M151 158.07C150.92 158.75 150.49 159.26 150 159.2C149.51 159.14 149.25 158.56 149.33 157.88C149.41 157.2 149.85 156.69 150.33 156.74C150.81 156.79 151.1 157.39 151 158.07Z" fill="#263238"/>
<path d="M150.15 156.75L151.7 156.35C151.7 156.35 150.81 157.51 150.15 156.75Z" fill="#263238"/>
<path d="M139.54 152.58C139.491 152.58 139.442 152.569 139.397 152.549C139.352 152.528 139.312 152.498 139.28 152.46C139.246 152.428 139.218 152.389 139.199 152.346C139.181 152.303 139.171 152.257 139.171 152.21C139.171 152.163 139.181 152.116 139.199 152.073C139.218 152.03 139.246 151.992 139.28 151.96C139.852 151.516 140.52 151.211 141.23 151.071C141.94 150.93 142.673 150.957 143.37 151.15C143.46 151.178 143.535 151.239 143.58 151.321C143.624 151.403 143.635 151.5 143.61 151.59C143.585 151.678 143.525 151.753 143.445 151.798C143.364 151.843 143.269 151.855 143.18 151.83C142.598 151.674 141.988 151.651 141.396 151.763C140.804 151.876 140.245 152.121 139.76 152.48C139.702 152.539 139.624 152.575 139.54 152.58Z" fill="#263238"/>
<path d="M152.52 153.52C152.432 153.52 152.346 153.488 152.28 153.43C151.913 153.044 151.463 152.747 150.964 152.562C150.465 152.377 149.93 152.308 149.4 152.36C149.309 152.375 149.215 152.354 149.139 152.302C149.063 152.25 149.009 152.17 148.99 152.08C148.98 152.035 148.979 151.988 148.987 151.942C148.995 151.896 149.012 151.852 149.037 151.813C149.062 151.774 149.095 151.741 149.133 151.714C149.171 151.688 149.215 151.669 149.26 151.66C149.898 151.59 150.543 151.665 151.147 151.88C151.752 152.095 152.3 152.443 152.75 152.9C152.783 152.933 152.81 152.971 152.828 153.014C152.846 153.057 152.855 153.103 152.855 153.15C152.855 153.197 152.846 153.243 152.828 153.286C152.81 153.328 152.783 153.367 152.75 153.4C152.692 153.469 152.61 153.512 152.52 153.52Z" fill="#263238"/>
<path d="M132.11 157.85C132.11 157.85 136.94 151.64 137.11 146.32C137.11 146.32 154.41 142.01 152.82 158.71C152.82 158.71 156.54 144.22 142.42 141.84C128.3 139.46 125.42 160.2 131.79 167.44C131.79 167.44 129.12 161.74 132.11 157.85Z" fill="#263238"/>
<path d="M133.21 159.79C133.268 158.824 132.94 157.874 132.299 157.149C131.658 156.423 130.756 155.982 129.79 155.92C127.2 155.83 125.22 160.92 131.39 163.08C132.28 163.39 132.92 162.57 133.21 159.79Z" fill="#EEC1BB"/>
<path d="M145.16 167.65C144.127 167.696 143.107 167.403 142.256 166.814C141.405 166.225 140.771 165.374 140.45 164.39C140.424 164.3 140.434 164.203 140.479 164.12C140.524 164.038 140.6 163.976 140.69 163.95C140.781 163.923 140.878 163.934 140.96 163.979C141.043 164.024 141.104 164.1 141.13 164.19C142.02 167.19 145.18 166.95 145.32 166.94C145.413 166.934 145.504 166.964 145.574 167.024C145.645 167.083 145.69 167.168 145.7 167.26C145.705 167.307 145.699 167.354 145.685 167.399C145.67 167.443 145.647 167.484 145.616 167.52C145.585 167.555 145.548 167.584 145.505 167.605C145.463 167.626 145.417 167.637 145.37 167.64L145.16 167.65Z" fill="#263238"/>
<path d="M133.22 138.6C133.22 138.6 145.3 137.02 152.86 144.34C160.42 151.66 138.2 150.47 138.2 150.47L143.83 147.9C143.83 147.9 136.78 149.9 133.73 148.9L133.22 138.6Z" fill="#263238"/>
<path d="M124.23 160.08C124.23 160.08 120.57 166.49 124.23 172.03C123.448 173.832 123.327 175.852 123.889 177.735C124.45 179.617 125.659 181.241 127.3 182.32C127.3 182.32 126.22 185.68 131.41 189.74C131.41 189.74 133.03 195.03 131.75 198.81L135.51 196.96C135.51 196.96 135.51 192.21 133.22 189.44C133.22 189.44 134.43 181.91 131.41 179.44C131.41 179.44 132.76 174.69 132.26 172.62C132.26 172.62 130.75 163.67 130.51 162.71C130.51 162.72 125.42 162.07 124.23 160.08Z" fill="#263238"/>
<path d="M145.35 152.22C145.287 152.22 145.227 152.197 145.18 152.154C145.134 152.111 145.105 152.053 145.1 151.99C145.099 151.958 145.104 151.927 145.115 151.897C145.126 151.868 145.142 151.841 145.163 151.817C145.185 151.794 145.211 151.775 145.239 151.762C145.268 151.749 145.299 151.741 145.33 151.74C147.77 151.59 154.2 150.74 154.65 148.64C155.2 146.08 151.65 144.08 151.58 144.06C151.552 144.045 151.526 144.025 151.506 144C151.485 143.976 151.47 143.947 151.46 143.916C151.451 143.885 151.448 143.853 151.451 143.821C151.455 143.789 151.465 143.758 151.48 143.73C151.512 143.674 151.564 143.633 151.625 143.614C151.687 143.595 151.753 143.601 151.81 143.63C151.97 143.72 155.75 145.83 155.13 148.74C154.51 151.65 145.73 152.2 145.36 152.22H145.35Z" fill="#263238"/>
<path d="M163.68 193.94C163.664 194.056 163.674 194.174 163.708 194.286C163.742 194.398 163.8 194.502 163.878 194.589C163.956 194.677 164.052 194.746 164.16 194.793C164.267 194.84 164.383 194.862 164.5 194.86H173.64C173.887 194.844 174.121 194.744 174.303 194.577C174.485 194.409 174.604 194.185 174.64 193.94L176.64 175.94C176.663 175.697 176.588 175.456 176.432 175.268C176.277 175.081 176.053 174.963 175.81 174.94H166.67C166.417 174.975 166.183 175.091 166.002 175.272C165.822 175.452 165.705 175.687 165.67 175.94L163.68 193.94Z" fill="#263238"/>
<path opacity="0.5" d="M166.73 175.78L164.66 194C164.634 194.107 164.632 194.218 164.656 194.325C164.681 194.433 164.73 194.533 164.8 194.617C164.87 194.702 164.959 194.769 165.06 194.813C165.161 194.857 165.271 194.876 165.38 194.87H173.13C173.65 194.87 174.6 194.58 174.66 194.07L176.73 175.79C176.79 175.28 175.9 174.87 175.38 174.87H167.63C167.393 174.88 167.169 174.979 167.002 175.148C166.835 175.317 166.738 175.543 166.73 175.78Z" fill="white"/>
<path opacity="0.6" d="M146 237.29C146 237.61 146.095 237.924 146.273 238.19C146.451 238.456 146.704 238.664 147 238.787C147.296 238.909 147.622 238.941 147.936 238.879C148.25 238.816 148.539 238.662 148.766 238.435C148.992 238.209 149.146 237.92 149.209 237.606C149.271 237.292 149.239 236.966 149.117 236.67C148.994 236.374 148.786 236.121 148.52 235.943C148.254 235.765 147.94 235.67 147.62 235.67C147.407 235.669 147.196 235.71 146.999 235.791C146.801 235.872 146.622 235.991 146.472 236.141C146.321 236.292 146.202 236.471 146.121 236.668C146.04 236.866 145.999 237.077 146 237.29Z" fill="white"/>
<path d="M182.82 195.44L178.06 187.36C178.06 187.36 178.06 183.11 177.65 182.11C177.24 181.11 172.57 178.85 171.65 179.19C170.73 179.53 170.4 187.86 171.24 188.98C172.08 190.1 174.99 191.36 174.99 191.36L174.79 192.94L177.57 201.36L182.82 195.44Z" fill="#EEC1BB"/>
<path d="M184.74 194.52L183.15 192.94L175.65 201.36L176.72 204.69L184.74 194.52Z" fill="#FF6302"/>
<path d="M175.43 283.11L150.86 291.84L150.04 289.59L149.04 286.82L148.62 290.82L148.3 293.89H118.46C118.46 293.89 118.37 293.03 118.28 291.49C117.732 281.681 118.134 271.842 119.48 262.11C120.593 253.686 122.715 245.427 125.8 237.51C126.05 236.89 126.31 236.28 126.57 235.67L158.57 233.2L158.84 234.74L160.84 246.23L164.66 255.89L174.09 279.74L175.43 283.11Z" fill="#263238"/>
<path opacity="0.2" d="M146.74 208C146.74 208 137.92 228.09 126.54 234.6C126.4 230.41 125.77 215.16 123.54 206.6C122.95 204.3 122.25 201.79 121.41 199.02L124.88 194.85C124.88 194.85 127.28 202.29 126.22 208.75L139.49 200.62L146.74 208Z" fill="black"/>
<path d="M138.2 203.35L149 194.86C149.628 193.02 150.397 191.232 151.3 189.51C151.96 188.71 161.45 185.21 162.24 185.12C163.03 185.03 162.24 192.9 161.06 194.23C159.88 195.56 152.22 198.23 152.22 198.23L140.88 208.91L138.2 203.35Z" fill="#EEC1BB"/>
<path d="M116.55 184C110.19 187.18 107.36 223.1 118.4 229.3C129.44 235.5 146 207.43 146 207.43L139.59 200.63C139.59 200.63 126.14 211.88 124.52 210.85C122.9 209.82 124.74 198.85 124.74 198.85C124.74 198.85 126.63 195.53 122.65 190.29C118.67 185.05 116.55 184 116.55 184Z" fill="#FF6302"/>
<path opacity="0.6" d="M116.55 184C110.19 187.18 107.36 223.1 118.4 229.3C129.44 235.5 146 207.43 146 207.43L139.59 200.63C139.59 200.63 126.14 211.88 124.52 210.85C122.9 209.82 124.74 198.85 124.74 198.85C124.74 198.85 126.63 195.53 122.65 190.29C118.67 185.05 116.55 184 116.55 184Z" fill="white"/>
<path d="M146.07 209.92L147.99 208.77L140.79 198.21L138.14 199.69L146.07 209.92Z" fill="#FF6302"/>
<path opacity="0.2" d="M133.59 238.58C133.59 238.58 129.96 258.58 119.48 262.11C120.594 253.686 122.715 245.427 125.8 237.51L133.59 238.58Z" fill="black"/>
<path opacity="0.2" d="M164.67 255.89C156.28 251.8 156.42 235.67 156.42 235.67L158.84 234.74L160.84 246.23L164.67 255.89Z" fill="black"/>
<path opacity="0.2" d="M148.61 290.82L148.29 293.89H118.46C118.46 293.89 118.37 293.03 118.28 291.49L148.61 290.82Z" fill="black"/>
<path opacity="0.2" d="M175.43 283.11L150.86 291.84L150.04 289.59L174.1 279.74L175.43 283.11Z" fill="black"/>
<path opacity="0.2" d="M149 286.82L149.64 278.65L156.39 265.4C156.39 265.4 158.52 273.04 155.16 279.85C151.8 286.66 149 286.82 149 286.82Z" fill="black"/>
<path opacity="0.5" d="M126.57 235.67L125.22 239L159.29 237.29L158.57 233.2L126.57 235.67Z" fill="black"/>
<path d="M144.55 234.43L144.95 238.18C144.973 238.376 145.071 238.556 145.224 238.681C145.377 238.806 145.573 238.867 145.77 238.85L150.77 238.46C150.87 238.451 150.967 238.423 151.056 238.376C151.145 238.33 151.224 238.266 151.288 238.189C151.352 238.112 151.4 238.022 151.43 237.926C151.459 237.831 151.47 237.73 151.46 237.63L151.11 233.94C151.092 233.742 150.997 233.559 150.846 233.429C150.695 233.3 150.499 233.236 150.3 233.25L145.3 233.59C145.194 233.592 145.09 233.616 144.995 233.66C144.899 233.705 144.813 233.768 144.742 233.847C144.672 233.926 144.619 234.018 144.586 234.118C144.553 234.219 144.54 234.325 144.55 234.43Z" fill="#FF6302"/>
<path d="M136.2 234.88L135.8 239.29H134.57L134.76 234.88H136.2Z" fill="#263238"/>
<path d="M154.15 233.54L154.64 238.15H155.78L155.38 233.35L154.15 233.54Z" fill="#263238"/>
</svg>
