<svg xmlns="http://www.w3.org/2000/svg" width="30.282" height="19.886" viewBox="0 0 30.282 19.886">
  <g id="Icons" transform="translate(-8.859 -14.057)">
    <g id="Group_17046" data-name="Group 17046">
      <path id="Path_4242" data-name="Path 4242" d="M32.575,22.416l-.953,2.63h1.529L32.6,22.419Z" fill="#303030"/>
      <path id="Path_4243" data-name="Path 4243" d="M36.734,14.057H11.265a2.409,2.409,0,0,0-2.406,2.407V31.536a2.409,2.409,0,0,0,2.406,2.407H36.734a2.409,2.409,0,0,0,2.407-2.407V16.464A2.409,2.409,0,0,0,36.734,14.057ZM26.7,25.032a3.858,3.858,0,0,0-.623-.38,5.492,5.492,0,0,1-1.026-.639,1.8,1.8,0,0,1-.295-2.5A2.682,2.682,0,0,1,26.4,20.463c.211-.053.431-.073.646-.11.032-.005.063-.016.095-.025h.708c.206.034.414.06.618.1s.4.1.6.158c.048.013.094.035.15.057-.107.5-.212.988-.317,1.48-.242-.076-.473-.163-.711-.221a2.593,2.593,0,0,0-1.3-.033,1.138,1.138,0,0,0-.436.237.4.4,0,0,0-.008.634,2.578,2.578,0,0,0,.458.332c.322.19.66.354.978.551a1.937,1.937,0,0,1,.925,1.108,2.155,2.155,0,0,1-.835,2.3,3.351,3.351,0,0,1-1.566.589,5.713,5.713,0,0,1-2.613-.265c-.047-.016-.093-.037-.153-.062l.331-1.55c.072.031.134.056.194.085a3.727,3.727,0,0,0,1.662.362,1.654,1.654,0,0,0,.769-.171A.554.554,0,0,0,26.7,25.032ZM23.744,21.15q-.667,3.12-1.331,6.242c-.028.133-.076.172-.212.17-.5-.009-1,0-1.5,0h-.161l1.519-7.093h1.832C23.838,20.7,23.792,20.925,23.744,21.15Zm-2.581-.443q-1.411,3.368-2.821,6.737a.16.16,0,0,1-.175.117c-.568,0-1.137,0-1.706,0-.086,0-.122-.021-.145-.11-.475-1.849-.958-3.7-1.428-5.546a.961.961,0,0,0-.568-.7A8.974,8.974,0,0,0,12.7,20.68c-.024-.006-.048-.015-.071-.023v-.051c.017-.139.1-.152.227-.152.965.005,1.929,0,2.894,0a.85.85,0,0,1,.9.738q.37,1.952.736,3.906a.353.353,0,0,0,.056.144l1.893-4.781h1.924C21.223,20.553,21.194,20.63,21.162,20.707Zm12.515,6.845c-.053-.253-.109-.506-.161-.759-.06-.3-.059-.3-.367-.3-.644,0-1.289,0-1.933,0a.143.143,0,0,0-.163.113c-.1.287-.2.571-.309.854-.015.04-.069.093-.106.093-.61.006-1.221,0-1.844,0,.016-.044.026-.08.04-.113q1.346-3.216,2.694-6.432a.837.837,0,0,1,.825-.551h1.534l1.482,7.092Z" fill="#1325ce"/>
    </g>
  </g>
</svg>
